G04 #@! TF.GenerationSoftware,KiCad,Pcbnew,(5.1.6)-1*
G04 #@! TF.CreationDate,2022-06-26T15:17:10+10:00*
G04 #@! TF.ProjectId,wind_sensors,77696e64-5f73-4656-9e73-6f72732e6b69,rev?*
G04 #@! TF.SameCoordinates,Original*
G04 #@! TF.FileFunction,Copper,L2,Bot*
G04 #@! TF.FilePolarity,Positive*
%FSLAX46Y46*%
G04 Gerber Fmt 4.6, Leading zero omitted, Abs format (unit mm)*
G04 Created by KiCad (PCBNEW (5.1.6)-1) date 2022-06-26 15:17:10*
%MOMM*%
%LPD*%
G01*
G04 APERTURE LIST*
G04 #@! TA.AperFunction,ComponentPad*
%ADD10O,2.190000X1.740000*%
G04 #@! TD*
G04 #@! TA.AperFunction,ComponentPad*
%ADD11O,1.740000X2.190000*%
G04 #@! TD*
G04 #@! TA.AperFunction,ViaPad*
%ADD12C,0.800000*%
G04 #@! TD*
G04 #@! TA.AperFunction,Conductor*
%ADD13C,0.250000*%
G04 #@! TD*
G04 #@! TA.AperFunction,Conductor*
%ADD14C,0.500000*%
G04 #@! TD*
G04 #@! TA.AperFunction,Conductor*
%ADD15C,0.200000*%
G04 #@! TD*
G04 APERTURE END LIST*
G04 #@! TA.AperFunction,SMDPad,CuDef*
G36*
G01*
X145400000Y-103655000D02*
X145400000Y-103355000D01*
G75*
G02*
X145550000Y-103205000I150000J0D01*
G01*
X147200000Y-103205000D01*
G75*
G02*
X147350000Y-103355000I0J-150000D01*
G01*
X147350000Y-103655000D01*
G75*
G02*
X147200000Y-103805000I-150000J0D01*
G01*
X145550000Y-103805000D01*
G75*
G02*
X145400000Y-103655000I0J150000D01*
G01*
G37*
G04 #@! TD.AperFunction*
G04 #@! TA.AperFunction,SMDPad,CuDef*
G36*
G01*
X145400000Y-102385000D02*
X145400000Y-102085000D01*
G75*
G02*
X145550000Y-101935000I150000J0D01*
G01*
X147200000Y-101935000D01*
G75*
G02*
X147350000Y-102085000I0J-150000D01*
G01*
X147350000Y-102385000D01*
G75*
G02*
X147200000Y-102535000I-150000J0D01*
G01*
X145550000Y-102535000D01*
G75*
G02*
X145400000Y-102385000I0J150000D01*
G01*
G37*
G04 #@! TD.AperFunction*
G04 #@! TA.AperFunction,SMDPad,CuDef*
G36*
G01*
X145400000Y-101115000D02*
X145400000Y-100815000D01*
G75*
G02*
X145550000Y-100665000I150000J0D01*
G01*
X147200000Y-100665000D01*
G75*
G02*
X147350000Y-100815000I0J-150000D01*
G01*
X147350000Y-101115000D01*
G75*
G02*
X147200000Y-101265000I-150000J0D01*
G01*
X145550000Y-101265000D01*
G75*
G02*
X145400000Y-101115000I0J150000D01*
G01*
G37*
G04 #@! TD.AperFunction*
G04 #@! TA.AperFunction,SMDPad,CuDef*
G36*
G01*
X145400000Y-99845000D02*
X145400000Y-99545000D01*
G75*
G02*
X145550000Y-99395000I150000J0D01*
G01*
X147200000Y-99395000D01*
G75*
G02*
X147350000Y-99545000I0J-150000D01*
G01*
X147350000Y-99845000D01*
G75*
G02*
X147200000Y-99995000I-150000J0D01*
G01*
X145550000Y-99995000D01*
G75*
G02*
X145400000Y-99845000I0J150000D01*
G01*
G37*
G04 #@! TD.AperFunction*
G04 #@! TA.AperFunction,SMDPad,CuDef*
G36*
G01*
X140450000Y-99845000D02*
X140450000Y-99545000D01*
G75*
G02*
X140600000Y-99395000I150000J0D01*
G01*
X142250000Y-99395000D01*
G75*
G02*
X142400000Y-99545000I0J-150000D01*
G01*
X142400000Y-99845000D01*
G75*
G02*
X142250000Y-99995000I-150000J0D01*
G01*
X140600000Y-99995000D01*
G75*
G02*
X140450000Y-99845000I0J150000D01*
G01*
G37*
G04 #@! TD.AperFunction*
G04 #@! TA.AperFunction,SMDPad,CuDef*
G36*
G01*
X140450000Y-101115000D02*
X140450000Y-100815000D01*
G75*
G02*
X140600000Y-100665000I150000J0D01*
G01*
X142250000Y-100665000D01*
G75*
G02*
X142400000Y-100815000I0J-150000D01*
G01*
X142400000Y-101115000D01*
G75*
G02*
X142250000Y-101265000I-150000J0D01*
G01*
X140600000Y-101265000D01*
G75*
G02*
X140450000Y-101115000I0J150000D01*
G01*
G37*
G04 #@! TD.AperFunction*
G04 #@! TA.AperFunction,SMDPad,CuDef*
G36*
G01*
X140450000Y-102385000D02*
X140450000Y-102085000D01*
G75*
G02*
X140600000Y-101935000I150000J0D01*
G01*
X142250000Y-101935000D01*
G75*
G02*
X142400000Y-102085000I0J-150000D01*
G01*
X142400000Y-102385000D01*
G75*
G02*
X142250000Y-102535000I-150000J0D01*
G01*
X140600000Y-102535000D01*
G75*
G02*
X140450000Y-102385000I0J150000D01*
G01*
G37*
G04 #@! TD.AperFunction*
G04 #@! TA.AperFunction,SMDPad,CuDef*
G36*
G01*
X140450000Y-103655000D02*
X140450000Y-103355000D01*
G75*
G02*
X140600000Y-103205000I150000J0D01*
G01*
X142250000Y-103205000D01*
G75*
G02*
X142400000Y-103355000I0J-150000D01*
G01*
X142400000Y-103655000D01*
G75*
G02*
X142250000Y-103805000I-150000J0D01*
G01*
X140600000Y-103805000D01*
G75*
G02*
X140450000Y-103655000I0J150000D01*
G01*
G37*
G04 #@! TD.AperFunction*
D10*
X159200000Y-104160000D03*
X159200000Y-101620000D03*
G04 #@! TA.AperFunction,ComponentPad*
G36*
G01*
X158354999Y-98210000D02*
X160045001Y-98210000D01*
G75*
G02*
X160295000Y-98459999I0J-249999D01*
G01*
X160295000Y-99700001D01*
G75*
G02*
X160045001Y-99950000I-249999J0D01*
G01*
X158354999Y-99950000D01*
G75*
G02*
X158105000Y-99700001I0J249999D01*
G01*
X158105000Y-98459999D01*
G75*
G02*
X158354999Y-98210000I249999J0D01*
G01*
G37*
G04 #@! TD.AperFunction*
D11*
X140090000Y-88100000D03*
X142630000Y-88100000D03*
X145170000Y-88100000D03*
G04 #@! TA.AperFunction,ComponentPad*
G36*
G01*
X148580000Y-87254999D02*
X148580000Y-88945001D01*
G75*
G02*
X148330001Y-89195000I-249999J0D01*
G01*
X147089999Y-89195000D01*
G75*
G02*
X146840000Y-88945001I0J249999D01*
G01*
X146840000Y-87254999D01*
G75*
G02*
X147089999Y-87005000I249999J0D01*
G01*
X148330001Y-87005000D01*
G75*
G02*
X148580000Y-87254999I0J-249999D01*
G01*
G37*
G04 #@! TD.AperFunction*
X147710000Y-115100000D03*
X145170000Y-115100000D03*
X142630000Y-115100000D03*
G04 #@! TA.AperFunction,ComponentPad*
G36*
G01*
X139220000Y-115945001D02*
X139220000Y-114254999D01*
G75*
G02*
X139469999Y-114005000I249999J0D01*
G01*
X140710001Y-114005000D01*
G75*
G02*
X140960000Y-114254999I0J-249999D01*
G01*
X140960000Y-115945001D01*
G75*
G02*
X140710001Y-116195000I-249999J0D01*
G01*
X139469999Y-116195000D01*
G75*
G02*
X139220000Y-115945001I0J249999D01*
G01*
G37*
G04 #@! TD.AperFunction*
G04 #@! TA.AperFunction,SMDPad,CuDef*
G36*
G01*
X137850000Y-102043750D02*
X137850000Y-102556250D01*
G75*
G02*
X137631250Y-102775000I-218750J0D01*
G01*
X137193750Y-102775000D01*
G75*
G02*
X136975000Y-102556250I0J218750D01*
G01*
X136975000Y-102043750D01*
G75*
G02*
X137193750Y-101825000I218750J0D01*
G01*
X137631250Y-101825000D01*
G75*
G02*
X137850000Y-102043750I0J-218750D01*
G01*
G37*
G04 #@! TD.AperFunction*
G04 #@! TA.AperFunction,SMDPad,CuDef*
G36*
G01*
X139425000Y-102043750D02*
X139425000Y-102556250D01*
G75*
G02*
X139206250Y-102775000I-218750J0D01*
G01*
X138768750Y-102775000D01*
G75*
G02*
X138550000Y-102556250I0J218750D01*
G01*
X138550000Y-102043750D01*
G75*
G02*
X138768750Y-101825000I218750J0D01*
G01*
X139206250Y-101825000D01*
G75*
G02*
X139425000Y-102043750I0J-218750D01*
G01*
G37*
G04 #@! TD.AperFunction*
G04 #@! TA.AperFunction,SMDPad,CuDef*
G36*
G01*
X143750000Y-110756250D02*
X143750000Y-110243750D01*
G75*
G02*
X143968750Y-110025000I218750J0D01*
G01*
X144406250Y-110025000D01*
G75*
G02*
X144625000Y-110243750I0J-218750D01*
G01*
X144625000Y-110756250D01*
G75*
G02*
X144406250Y-110975000I-218750J0D01*
G01*
X143968750Y-110975000D01*
G75*
G02*
X143750000Y-110756250I0J218750D01*
G01*
G37*
G04 #@! TD.AperFunction*
G04 #@! TA.AperFunction,SMDPad,CuDef*
G36*
G01*
X142175000Y-110756250D02*
X142175000Y-110243750D01*
G75*
G02*
X142393750Y-110025000I218750J0D01*
G01*
X142831250Y-110025000D01*
G75*
G02*
X143050000Y-110243750I0J-218750D01*
G01*
X143050000Y-110756250D01*
G75*
G02*
X142831250Y-110975000I-218750J0D01*
G01*
X142393750Y-110975000D01*
G75*
G02*
X142175000Y-110756250I0J218750D01*
G01*
G37*
G04 #@! TD.AperFunction*
G04 #@! TA.AperFunction,SMDPad,CuDef*
G36*
G01*
X143750000Y-108956250D02*
X143750000Y-108443750D01*
G75*
G02*
X143968750Y-108225000I218750J0D01*
G01*
X144406250Y-108225000D01*
G75*
G02*
X144625000Y-108443750I0J-218750D01*
G01*
X144625000Y-108956250D01*
G75*
G02*
X144406250Y-109175000I-218750J0D01*
G01*
X143968750Y-109175000D01*
G75*
G02*
X143750000Y-108956250I0J218750D01*
G01*
G37*
G04 #@! TD.AperFunction*
G04 #@! TA.AperFunction,SMDPad,CuDef*
G36*
G01*
X142175000Y-108956250D02*
X142175000Y-108443750D01*
G75*
G02*
X142393750Y-108225000I218750J0D01*
G01*
X142831250Y-108225000D01*
G75*
G02*
X143050000Y-108443750I0J-218750D01*
G01*
X143050000Y-108956250D01*
G75*
G02*
X142831250Y-109175000I-218750J0D01*
G01*
X142393750Y-109175000D01*
G75*
G02*
X142175000Y-108956250I0J218750D01*
G01*
G37*
G04 #@! TD.AperFunction*
D12*
X152000000Y-103600000D03*
X152000000Y-105500000D03*
X139300000Y-99700000D03*
X142800000Y-98100000D03*
X145200000Y-98100000D03*
X135800000Y-102300000D03*
X145700000Y-108700000D03*
X145700000Y-110500000D03*
X150500000Y-100700000D03*
X154800000Y-100700000D03*
X154800000Y-98100000D03*
X133900000Y-86200000D03*
X133900000Y-88000000D03*
X129700000Y-81600000D03*
X136620000Y-81600000D03*
X143540000Y-81600000D03*
X150460000Y-81600000D03*
X157380000Y-81600000D03*
X129700000Y-86985714D03*
X129700000Y-92371428D03*
X129700000Y-97757142D03*
X129700000Y-103142856D03*
X129700000Y-108528570D03*
X129700000Y-113914284D03*
X129700000Y-119300000D03*
X136620000Y-119300000D03*
X150460000Y-119300000D03*
X143540000Y-119300000D03*
X157380000Y-119300000D03*
X164300000Y-86885714D03*
X164300000Y-97657142D03*
X164300000Y-108428570D03*
X164300000Y-119200000D03*
X164300000Y-92271428D03*
X164300000Y-103042856D03*
X164300000Y-81500000D03*
X164300000Y-113814284D03*
X142800000Y-95600000D03*
X145200000Y-95600000D03*
X142800000Y-92850000D03*
X145200000Y-92850000D03*
X142800000Y-90100000D03*
X145200000Y-90100000D03*
X148600000Y-98100000D03*
X148600000Y-107000000D03*
X141500000Y-105000000D03*
X144000000Y-105000000D03*
X146500000Y-105000000D03*
D13*
X146375000Y-99695000D02*
X156995000Y-99695000D01*
X156995000Y-99695000D02*
X159000000Y-101700000D01*
X145400000Y-103505000D02*
X145000000Y-103105000D01*
X146375000Y-103505000D02*
X145400000Y-103505000D01*
X145353242Y-99069990D02*
X159269990Y-99069990D01*
X145000000Y-103105000D02*
X145000000Y-99423232D01*
X145000000Y-99423232D02*
X145353242Y-99069990D01*
X145170000Y-115100000D02*
X145170000Y-114130000D01*
X145170000Y-115100000D02*
X145170000Y-113030000D01*
X147675010Y-110524990D02*
X147675010Y-103075010D01*
X145170000Y-113030000D02*
X147675010Y-110524990D01*
X147675010Y-103075010D02*
X146900000Y-102300000D01*
X141620010Y-116520010D02*
X140100000Y-115000000D01*
X149500000Y-102100000D02*
X149500000Y-115224999D01*
X148400000Y-101000000D02*
X149500000Y-102100000D01*
X146500000Y-101000000D02*
X148400000Y-101000000D01*
X148204989Y-116520010D02*
X141620010Y-116520010D01*
X149500000Y-115224999D02*
X148204989Y-116520010D01*
D14*
X142630000Y-115100000D02*
X142630000Y-110530000D01*
X142630000Y-110530000D02*
X142600000Y-110500000D01*
X142600000Y-110500000D02*
X142600000Y-108600000D01*
X142600000Y-108600000D02*
X142600000Y-107700000D01*
X142600000Y-107700000D02*
X139000000Y-104100000D01*
X139000000Y-104100000D02*
X139000000Y-102300000D01*
X139000000Y-102300000D02*
X141400000Y-102300000D01*
D15*
G36*
X172555001Y-79616946D02*
G01*
X172555059Y-79617534D01*
X172555075Y-79622146D01*
X172556598Y-79637142D01*
X172556493Y-79652212D01*
X172556963Y-79657006D01*
X172618164Y-80239296D01*
X172624459Y-80269967D01*
X172630311Y-80300642D01*
X172631701Y-80305246D01*
X172631702Y-80305253D01*
X172631705Y-80305259D01*
X172804840Y-80864567D01*
X172816966Y-80893415D01*
X172828671Y-80922384D01*
X172830930Y-80926633D01*
X172830932Y-80926638D01*
X172830935Y-80926642D01*
X173109408Y-81441669D01*
X173126909Y-81467616D01*
X173144016Y-81493757D01*
X173147054Y-81497483D01*
X173147059Y-81497490D01*
X173147065Y-81497496D01*
X173520270Y-81948623D01*
X173542451Y-81970650D01*
X173564335Y-81992997D01*
X173568047Y-81996068D01*
X174021775Y-82366120D01*
X174047827Y-82383429D01*
X174073620Y-82401090D01*
X174077853Y-82403378D01*
X174077857Y-82403381D01*
X174077861Y-82403383D01*
X174594822Y-82678255D01*
X174623764Y-82690184D01*
X174652472Y-82702488D01*
X174657067Y-82703911D01*
X174657074Y-82703914D01*
X174657081Y-82703915D01*
X175217581Y-82873140D01*
X175248249Y-82879213D01*
X175278840Y-82885715D01*
X175283620Y-82886217D01*
X175283631Y-82886219D01*
X175283641Y-82886219D01*
X175865944Y-82943315D01*
X175883054Y-82945000D01*
X179500000Y-82945000D01*
X179500000Y-120255000D01*
X175883054Y-120255000D01*
X175882455Y-120255059D01*
X175877854Y-120255075D01*
X175862858Y-120256598D01*
X175847788Y-120256493D01*
X175842993Y-120256963D01*
X175260704Y-120318164D01*
X175230033Y-120324459D01*
X175199358Y-120330311D01*
X175194757Y-120331700D01*
X175194747Y-120331702D01*
X175194738Y-120331706D01*
X174635433Y-120504840D01*
X174606585Y-120516966D01*
X174577616Y-120528671D01*
X174573367Y-120530930D01*
X174573362Y-120530932D01*
X174573361Y-120530933D01*
X174058331Y-120809408D01*
X174032384Y-120826909D01*
X174006243Y-120844016D01*
X174002517Y-120847054D01*
X174002510Y-120847059D01*
X174002504Y-120847065D01*
X173551377Y-121220270D01*
X173529350Y-121242451D01*
X173507003Y-121264335D01*
X173503932Y-121268047D01*
X173133880Y-121721775D01*
X173116554Y-121747853D01*
X173098911Y-121773620D01*
X173096619Y-121777857D01*
X172821745Y-122294822D01*
X172809824Y-122323743D01*
X172797511Y-122352472D01*
X172796090Y-122357063D01*
X172796086Y-122357073D01*
X172796084Y-122357083D01*
X172626860Y-122917581D01*
X172620787Y-122948249D01*
X172614285Y-122978840D01*
X172613783Y-122983620D01*
X172613781Y-122983631D01*
X172613781Y-122983641D01*
X172556647Y-123566334D01*
X172556647Y-123566341D01*
X172555001Y-123583054D01*
X172555000Y-126200000D01*
X115245000Y-126200000D01*
X115245000Y-123583054D01*
X115244941Y-123582455D01*
X115244925Y-123577854D01*
X115243402Y-123562858D01*
X115243507Y-123547788D01*
X115243037Y-123542993D01*
X115181836Y-122960704D01*
X115175541Y-122930033D01*
X115169689Y-122899358D01*
X115168300Y-122894757D01*
X115168298Y-122894747D01*
X115168294Y-122894738D01*
X114995160Y-122335433D01*
X114983034Y-122306585D01*
X114971329Y-122277616D01*
X114969068Y-122273363D01*
X114969068Y-122273362D01*
X114969065Y-122273358D01*
X114690592Y-121758331D01*
X114673091Y-121732384D01*
X114655984Y-121706243D01*
X114652946Y-121702517D01*
X114652941Y-121702510D01*
X114652935Y-121702504D01*
X114279730Y-121251377D01*
X114257549Y-121229350D01*
X114235665Y-121207003D01*
X114231953Y-121203932D01*
X113778225Y-120833880D01*
X113752147Y-120816554D01*
X113726380Y-120798911D01*
X113722143Y-120796619D01*
X113205178Y-120521745D01*
X113176257Y-120509824D01*
X113147528Y-120497511D01*
X113142937Y-120496090D01*
X113142927Y-120496086D01*
X113142917Y-120496084D01*
X112582419Y-120326860D01*
X112551751Y-120320787D01*
X112521160Y-120314285D01*
X112516380Y-120313783D01*
X112516369Y-120313781D01*
X112516359Y-120313781D01*
X111934280Y-120256707D01*
X111916946Y-120255000D01*
X108300000Y-120255000D01*
X108300000Y-116410897D01*
X109980000Y-116410897D01*
X109980000Y-116789103D01*
X110053785Y-117160043D01*
X110198518Y-117509461D01*
X110408639Y-117823929D01*
X110676071Y-118091361D01*
X110990539Y-118301482D01*
X111339957Y-118446215D01*
X111710897Y-118520000D01*
X112089103Y-118520000D01*
X112460043Y-118446215D01*
X112809461Y-118301482D01*
X113123929Y-118091361D01*
X113391361Y-117823929D01*
X113601482Y-117509461D01*
X113746215Y-117160043D01*
X113820000Y-116789103D01*
X113820000Y-116410897D01*
X113746215Y-116039957D01*
X113601482Y-115690539D01*
X113391361Y-115376071D01*
X113123929Y-115108639D01*
X112809461Y-114898518D01*
X112460043Y-114753785D01*
X112089103Y-114680000D01*
X111710897Y-114680000D01*
X111339957Y-114753785D01*
X110990539Y-114898518D01*
X110676071Y-115108639D01*
X110408639Y-115376071D01*
X110198518Y-115690539D01*
X110053785Y-116039957D01*
X109980000Y-116410897D01*
X108300000Y-116410897D01*
X108300000Y-102775000D01*
X136653452Y-102775000D01*
X136659630Y-102837731D01*
X136677928Y-102898051D01*
X136707643Y-102953642D01*
X136747631Y-103002369D01*
X136796358Y-103042357D01*
X136851949Y-103072072D01*
X136912269Y-103090370D01*
X136975000Y-103096548D01*
X137322500Y-103095000D01*
X137402500Y-103015000D01*
X137402500Y-102310000D01*
X137422500Y-102310000D01*
X137422500Y-103015000D01*
X137502500Y-103095000D01*
X137850000Y-103096548D01*
X137912731Y-103090370D01*
X137973051Y-103072072D01*
X138028642Y-103042357D01*
X138077369Y-103002369D01*
X138117357Y-102953642D01*
X138147072Y-102898051D01*
X138165370Y-102837731D01*
X138171548Y-102775000D01*
X138170000Y-102390000D01*
X138090000Y-102310000D01*
X137422500Y-102310000D01*
X137402500Y-102310000D01*
X136735000Y-102310000D01*
X136655000Y-102390000D01*
X136653452Y-102775000D01*
X108300000Y-102775000D01*
X108300000Y-101825000D01*
X136653452Y-101825000D01*
X136655000Y-102210000D01*
X136735000Y-102290000D01*
X137402500Y-102290000D01*
X137402500Y-101585000D01*
X137422500Y-101585000D01*
X137422500Y-102290000D01*
X138090000Y-102290000D01*
X138170000Y-102210000D01*
X138170668Y-102043750D01*
X138228452Y-102043750D01*
X138228452Y-102556250D01*
X138238834Y-102661657D01*
X138269580Y-102763013D01*
X138319509Y-102856423D01*
X138386702Y-102938298D01*
X138430001Y-102973832D01*
X138430000Y-104072017D01*
X138427244Y-104100000D01*
X138430000Y-104127983D01*
X138430000Y-104127992D01*
X138438248Y-104211738D01*
X138470842Y-104319184D01*
X138523770Y-104418207D01*
X138550138Y-104450336D01*
X138595000Y-104505000D01*
X138616750Y-104522850D01*
X142030000Y-107936102D01*
X142030000Y-108046685D01*
X142011702Y-108061702D01*
X141944509Y-108143577D01*
X141894580Y-108236987D01*
X141863834Y-108338343D01*
X141853452Y-108443750D01*
X141853452Y-108956250D01*
X141863834Y-109061657D01*
X141894580Y-109163013D01*
X141944509Y-109256423D01*
X142011702Y-109338298D01*
X142030001Y-109353315D01*
X142030000Y-109846685D01*
X142011702Y-109861702D01*
X141944509Y-109943577D01*
X141894580Y-110036987D01*
X141863834Y-110138343D01*
X141853452Y-110243750D01*
X141853452Y-110756250D01*
X141863834Y-110861657D01*
X141894580Y-110963013D01*
X141944509Y-111056423D01*
X142011702Y-111138298D01*
X142060001Y-111177936D01*
X142060000Y-113830345D01*
X141965673Y-113880764D01*
X141784472Y-114029472D01*
X141635764Y-114210674D01*
X141525265Y-114417405D01*
X141457219Y-114641720D01*
X141440000Y-114816549D01*
X141440000Y-115383452D01*
X141457219Y-115558281D01*
X141525265Y-115782596D01*
X141540588Y-115811263D01*
X141281548Y-115552223D01*
X141281548Y-114254999D01*
X141270566Y-114143496D01*
X141238042Y-114036277D01*
X141185225Y-113937465D01*
X141114146Y-113850854D01*
X141027535Y-113779775D01*
X140928723Y-113726958D01*
X140821504Y-113694434D01*
X140710001Y-113683452D01*
X139469999Y-113683452D01*
X139358496Y-113694434D01*
X139251277Y-113726958D01*
X139152465Y-113779775D01*
X139065854Y-113850854D01*
X138994775Y-113937465D01*
X138941958Y-114036277D01*
X138909434Y-114143496D01*
X138898452Y-114254999D01*
X138898452Y-115945001D01*
X138909434Y-116056504D01*
X138941958Y-116163723D01*
X138994775Y-116262535D01*
X139065854Y-116349146D01*
X139152465Y-116420225D01*
X139251277Y-116473042D01*
X139358496Y-116505566D01*
X139469999Y-116516548D01*
X140710001Y-116516548D01*
X140821504Y-116505566D01*
X140928723Y-116473042D01*
X140938494Y-116467819D01*
X141289889Y-116819214D01*
X141303825Y-116836195D01*
X141371585Y-116891804D01*
X141448892Y-116933126D01*
X141532775Y-116958571D01*
X141620010Y-116967163D01*
X141641870Y-116965010D01*
X148183129Y-116965010D01*
X148204989Y-116967163D01*
X148292224Y-116958571D01*
X148376107Y-116933126D01*
X148453414Y-116891804D01*
X148521174Y-116836195D01*
X148535114Y-116819209D01*
X148943426Y-116410897D01*
X173980000Y-116410897D01*
X173980000Y-116789103D01*
X174053785Y-117160043D01*
X174198518Y-117509461D01*
X174408639Y-117823929D01*
X174676071Y-118091361D01*
X174990539Y-118301482D01*
X175339957Y-118446215D01*
X175710897Y-118520000D01*
X176089103Y-118520000D01*
X176460043Y-118446215D01*
X176809461Y-118301482D01*
X177123929Y-118091361D01*
X177391361Y-117823929D01*
X177601482Y-117509461D01*
X177746215Y-117160043D01*
X177820000Y-116789103D01*
X177820000Y-116410897D01*
X177746215Y-116039957D01*
X177601482Y-115690539D01*
X177391361Y-115376071D01*
X177123929Y-115108639D01*
X176809461Y-114898518D01*
X176460043Y-114753785D01*
X176089103Y-114680000D01*
X175710897Y-114680000D01*
X175339957Y-114753785D01*
X174990539Y-114898518D01*
X174676071Y-115108639D01*
X174408639Y-115376071D01*
X174198518Y-115690539D01*
X174053785Y-116039957D01*
X173980000Y-116410897D01*
X148943426Y-116410897D01*
X149799204Y-115555120D01*
X149816185Y-115541184D01*
X149871794Y-115473424D01*
X149913116Y-115396117D01*
X149938561Y-115312234D01*
X149945000Y-115246859D01*
X149945000Y-115246857D01*
X149947153Y-115225000D01*
X149945000Y-115203143D01*
X149945000Y-104356027D01*
X157801257Y-104356027D01*
X157805915Y-104382350D01*
X157871757Y-104606155D01*
X157979996Y-104812814D01*
X158126472Y-104994386D01*
X158305557Y-105143893D01*
X158510368Y-105255590D01*
X158733035Y-105325184D01*
X158965000Y-105350000D01*
X159190000Y-105350000D01*
X159190000Y-104170000D01*
X159210000Y-104170000D01*
X159210000Y-105350000D01*
X159435000Y-105350000D01*
X159666965Y-105325184D01*
X159889632Y-105255590D01*
X160094443Y-105143893D01*
X160273528Y-104994386D01*
X160420004Y-104812814D01*
X160528243Y-104606155D01*
X160594085Y-104382350D01*
X160598743Y-104356027D01*
X160534955Y-104170000D01*
X159210000Y-104170000D01*
X159190000Y-104170000D01*
X157865045Y-104170000D01*
X157801257Y-104356027D01*
X149945000Y-104356027D01*
X149945000Y-103963973D01*
X157801257Y-103963973D01*
X157865045Y-104150000D01*
X159190000Y-104150000D01*
X159190000Y-102970000D01*
X159210000Y-102970000D01*
X159210000Y-104150000D01*
X160534955Y-104150000D01*
X160598743Y-103963973D01*
X160594085Y-103937650D01*
X160528243Y-103713845D01*
X160420004Y-103507186D01*
X160273528Y-103325614D01*
X160094443Y-103176107D01*
X159889632Y-103064410D01*
X159666965Y-102994816D01*
X159435000Y-102970000D01*
X159210000Y-102970000D01*
X159190000Y-102970000D01*
X158965000Y-102970000D01*
X158733035Y-102994816D01*
X158510368Y-103064410D01*
X158305557Y-103176107D01*
X158126472Y-103325614D01*
X157979996Y-103507186D01*
X157871757Y-103713845D01*
X157805915Y-103937650D01*
X157801257Y-103963973D01*
X149945000Y-103963973D01*
X149945000Y-102121860D01*
X149947153Y-102100000D01*
X149938561Y-102012765D01*
X149932567Y-101993006D01*
X149913116Y-101928882D01*
X149871794Y-101851575D01*
X149816185Y-101783815D01*
X149799206Y-101769881D01*
X148730125Y-100700801D01*
X148716185Y-100683815D01*
X148648425Y-100628206D01*
X148571118Y-100586884D01*
X148487235Y-100561439D01*
X148421860Y-100555000D01*
X148400000Y-100552847D01*
X148378140Y-100555000D01*
X147593135Y-100555000D01*
X147592078Y-100553022D01*
X147533435Y-100481565D01*
X147461978Y-100422922D01*
X147380454Y-100379346D01*
X147291994Y-100352513D01*
X147200000Y-100343452D01*
X145550000Y-100343452D01*
X145458006Y-100352513D01*
X145445000Y-100356458D01*
X145445000Y-100303542D01*
X145458006Y-100307487D01*
X145550000Y-100316548D01*
X147200000Y-100316548D01*
X147291994Y-100307487D01*
X147380454Y-100280654D01*
X147461978Y-100237078D01*
X147533435Y-100178435D01*
X147564978Y-100140000D01*
X156810676Y-100140000D01*
X157861610Y-101190935D01*
X157802219Y-101386719D01*
X157779243Y-101620000D01*
X157802219Y-101853281D01*
X157870265Y-102077596D01*
X157980764Y-102284327D01*
X158129472Y-102465528D01*
X158310673Y-102614236D01*
X158517404Y-102724735D01*
X158741719Y-102792781D01*
X158916548Y-102810000D01*
X159483452Y-102810000D01*
X159658281Y-102792781D01*
X159882596Y-102724735D01*
X160089327Y-102614236D01*
X160270528Y-102465528D01*
X160419236Y-102284327D01*
X160529735Y-102077596D01*
X160597781Y-101853281D01*
X160620757Y-101620000D01*
X160597781Y-101386719D01*
X160529735Y-101162404D01*
X160419236Y-100955673D01*
X160270528Y-100774472D01*
X160089327Y-100625764D01*
X159882596Y-100515265D01*
X159658281Y-100447219D01*
X159483452Y-100430000D01*
X158916548Y-100430000D01*
X158741719Y-100447219D01*
X158517404Y-100515265D01*
X158469953Y-100540628D01*
X158166549Y-100237225D01*
X158243496Y-100260566D01*
X158354999Y-100271548D01*
X160045001Y-100271548D01*
X160156504Y-100260566D01*
X160263723Y-100228042D01*
X160362535Y-100175225D01*
X160449146Y-100104146D01*
X160520225Y-100017535D01*
X160573042Y-99918723D01*
X160605566Y-99811504D01*
X160616548Y-99700001D01*
X160616548Y-98459999D01*
X160605566Y-98348496D01*
X160573042Y-98241277D01*
X160520225Y-98142465D01*
X160449146Y-98055854D01*
X160362535Y-97984775D01*
X160263723Y-97931958D01*
X160156504Y-97899434D01*
X160045001Y-97888452D01*
X158354999Y-97888452D01*
X158243496Y-97899434D01*
X158136277Y-97931958D01*
X158037465Y-97984775D01*
X157950854Y-98055854D01*
X157879775Y-98142465D01*
X157826958Y-98241277D01*
X157794434Y-98348496D01*
X157783452Y-98459999D01*
X157783452Y-98624990D01*
X145375102Y-98624990D01*
X145353242Y-98622837D01*
X145266007Y-98631429D01*
X145182123Y-98656874D01*
X145104817Y-98698196D01*
X145037057Y-98753805D01*
X145023121Y-98770786D01*
X144700796Y-99093112D01*
X144683816Y-99107047D01*
X144628207Y-99174807D01*
X144608559Y-99211565D01*
X144586885Y-99252114D01*
X144561439Y-99335997D01*
X144552847Y-99423232D01*
X144555001Y-99445102D01*
X144555000Y-103083140D01*
X144552847Y-103105000D01*
X144555000Y-103126859D01*
X144561439Y-103192234D01*
X144586884Y-103276117D01*
X144628206Y-103353424D01*
X144683815Y-103421185D01*
X144700801Y-103435125D01*
X145069879Y-103804204D01*
X145083815Y-103821185D01*
X145124618Y-103854671D01*
X145157922Y-103916978D01*
X145216565Y-103988435D01*
X145288022Y-104047078D01*
X145369546Y-104090654D01*
X145458006Y-104117487D01*
X145550000Y-104126548D01*
X147200000Y-104126548D01*
X147230011Y-104123592D01*
X147230010Y-110340665D01*
X144870796Y-112699880D01*
X144853816Y-112713815D01*
X144798207Y-112781575D01*
X144756885Y-112858882D01*
X144731439Y-112942765D01*
X144722847Y-113030000D01*
X144725001Y-113051869D01*
X144725001Y-113766444D01*
X144712404Y-113770265D01*
X144505673Y-113880764D01*
X144324472Y-114029472D01*
X144175764Y-114210674D01*
X144065265Y-114417405D01*
X143997219Y-114641720D01*
X143980000Y-114816549D01*
X143980000Y-115383452D01*
X143997219Y-115558281D01*
X144065265Y-115782596D01*
X144175765Y-115989327D01*
X144246083Y-116075010D01*
X143553918Y-116075010D01*
X143624236Y-115989327D01*
X143734735Y-115782595D01*
X143802781Y-115558280D01*
X143820000Y-115383451D01*
X143820000Y-114816548D01*
X143802781Y-114641719D01*
X143734735Y-114417404D01*
X143624236Y-114210673D01*
X143475528Y-114029472D01*
X143294326Y-113880764D01*
X143200000Y-113830346D01*
X143200000Y-111149211D01*
X143213298Y-111138298D01*
X143280491Y-111056423D01*
X143324012Y-110975000D01*
X143428452Y-110975000D01*
X143434630Y-111037731D01*
X143452928Y-111098051D01*
X143482643Y-111153642D01*
X143522631Y-111202369D01*
X143571358Y-111242357D01*
X143626949Y-111272072D01*
X143687269Y-111290370D01*
X143750000Y-111296548D01*
X144097500Y-111295000D01*
X144177500Y-111215000D01*
X144177500Y-110510000D01*
X144197500Y-110510000D01*
X144197500Y-111215000D01*
X144277500Y-111295000D01*
X144625000Y-111296548D01*
X144687731Y-111290370D01*
X144748051Y-111272072D01*
X144803642Y-111242357D01*
X144852369Y-111202369D01*
X144892357Y-111153642D01*
X144922072Y-111098051D01*
X144940370Y-111037731D01*
X144946548Y-110975000D01*
X144945000Y-110590000D01*
X144865000Y-110510000D01*
X144197500Y-110510000D01*
X144177500Y-110510000D01*
X143510000Y-110510000D01*
X143430000Y-110590000D01*
X143428452Y-110975000D01*
X143324012Y-110975000D01*
X143330420Y-110963013D01*
X143361166Y-110861657D01*
X143371548Y-110756250D01*
X143371548Y-110243750D01*
X143361166Y-110138343D01*
X143330420Y-110036987D01*
X143324013Y-110025000D01*
X143428452Y-110025000D01*
X143430000Y-110410000D01*
X143510000Y-110490000D01*
X144177500Y-110490000D01*
X144177500Y-109785000D01*
X144197500Y-109785000D01*
X144197500Y-110490000D01*
X144865000Y-110490000D01*
X144945000Y-110410000D01*
X144946548Y-110025000D01*
X144940370Y-109962269D01*
X144922072Y-109901949D01*
X144892357Y-109846358D01*
X144852369Y-109797631D01*
X144803642Y-109757643D01*
X144748051Y-109727928D01*
X144687731Y-109709630D01*
X144625000Y-109703452D01*
X144277500Y-109705000D01*
X144197500Y-109785000D01*
X144177500Y-109785000D01*
X144097500Y-109705000D01*
X143750000Y-109703452D01*
X143687269Y-109709630D01*
X143626949Y-109727928D01*
X143571358Y-109757643D01*
X143522631Y-109797631D01*
X143482643Y-109846358D01*
X143452928Y-109901949D01*
X143434630Y-109962269D01*
X143428452Y-110025000D01*
X143324013Y-110025000D01*
X143280491Y-109943577D01*
X143213298Y-109861702D01*
X143170000Y-109826168D01*
X143170000Y-109373832D01*
X143213298Y-109338298D01*
X143280491Y-109256423D01*
X143324012Y-109175000D01*
X143428452Y-109175000D01*
X143434630Y-109237731D01*
X143452928Y-109298051D01*
X143482643Y-109353642D01*
X143522631Y-109402369D01*
X143571358Y-109442357D01*
X143626949Y-109472072D01*
X143687269Y-109490370D01*
X143750000Y-109496548D01*
X144097500Y-109495000D01*
X144177500Y-109415000D01*
X144177500Y-108710000D01*
X144197500Y-108710000D01*
X144197500Y-109415000D01*
X144277500Y-109495000D01*
X144625000Y-109496548D01*
X144687731Y-109490370D01*
X144748051Y-109472072D01*
X144803642Y-109442357D01*
X144852369Y-109402369D01*
X144892357Y-109353642D01*
X144922072Y-109298051D01*
X144940370Y-109237731D01*
X144946548Y-109175000D01*
X144945000Y-108790000D01*
X144865000Y-108710000D01*
X144197500Y-108710000D01*
X144177500Y-108710000D01*
X143510000Y-108710000D01*
X143430000Y-108790000D01*
X143428452Y-109175000D01*
X143324012Y-109175000D01*
X143330420Y-109163013D01*
X143361166Y-109061657D01*
X143371548Y-108956250D01*
X143371548Y-108443750D01*
X143361166Y-108338343D01*
X143330420Y-108236987D01*
X143324013Y-108225000D01*
X143428452Y-108225000D01*
X143430000Y-108610000D01*
X143510000Y-108690000D01*
X144177500Y-108690000D01*
X144177500Y-107985000D01*
X144197500Y-107985000D01*
X144197500Y-108690000D01*
X144865000Y-108690000D01*
X144945000Y-108610000D01*
X144946548Y-108225000D01*
X144940370Y-108162269D01*
X144922072Y-108101949D01*
X144892357Y-108046358D01*
X144852369Y-107997631D01*
X144803642Y-107957643D01*
X144748051Y-107927928D01*
X144687731Y-107909630D01*
X144625000Y-107903452D01*
X144277500Y-107905000D01*
X144197500Y-107985000D01*
X144177500Y-107985000D01*
X144097500Y-107905000D01*
X143750000Y-107903452D01*
X143687269Y-107909630D01*
X143626949Y-107927928D01*
X143571358Y-107957643D01*
X143522631Y-107997631D01*
X143482643Y-108046358D01*
X143452928Y-108101949D01*
X143434630Y-108162269D01*
X143428452Y-108225000D01*
X143324013Y-108225000D01*
X143280491Y-108143577D01*
X143213298Y-108061702D01*
X143170000Y-108026168D01*
X143170000Y-107727983D01*
X143172756Y-107700000D01*
X143170000Y-107672017D01*
X143170000Y-107672007D01*
X143161752Y-107588261D01*
X143129158Y-107480815D01*
X143102694Y-107431304D01*
X143076230Y-107381792D01*
X143022845Y-107316743D01*
X143022841Y-107316739D01*
X143005000Y-107295000D01*
X142983261Y-107277159D01*
X139570000Y-103863900D01*
X139570000Y-103355000D01*
X140128452Y-103355000D01*
X140128452Y-103655000D01*
X140137513Y-103746994D01*
X140164346Y-103835454D01*
X140207922Y-103916978D01*
X140266565Y-103988435D01*
X140338022Y-104047078D01*
X140419546Y-104090654D01*
X140508006Y-104117487D01*
X140600000Y-104126548D01*
X142250000Y-104126548D01*
X142341994Y-104117487D01*
X142430454Y-104090654D01*
X142511978Y-104047078D01*
X142583435Y-103988435D01*
X142642078Y-103916978D01*
X142685654Y-103835454D01*
X142712487Y-103746994D01*
X142721548Y-103655000D01*
X142721548Y-103355000D01*
X142712487Y-103263006D01*
X142685654Y-103174546D01*
X142642078Y-103093022D01*
X142583435Y-103021565D01*
X142511978Y-102962922D01*
X142430454Y-102919346D01*
X142341994Y-102892513D01*
X142250000Y-102883452D01*
X140600000Y-102883452D01*
X140508006Y-102892513D01*
X140419546Y-102919346D01*
X140338022Y-102962922D01*
X140266565Y-103021565D01*
X140207922Y-103093022D01*
X140164346Y-103174546D01*
X140137513Y-103263006D01*
X140128452Y-103355000D01*
X139570000Y-103355000D01*
X139570000Y-102953315D01*
X139588298Y-102938298D01*
X139644349Y-102870000D01*
X141427993Y-102870000D01*
X141511739Y-102861752D01*
X141528894Y-102856548D01*
X142250000Y-102856548D01*
X142341994Y-102847487D01*
X142430454Y-102820654D01*
X142511978Y-102777078D01*
X142583435Y-102718435D01*
X142642078Y-102646978D01*
X142685654Y-102565454D01*
X142712487Y-102476994D01*
X142721548Y-102385000D01*
X142721548Y-102085000D01*
X142712487Y-101993006D01*
X142685654Y-101904546D01*
X142642078Y-101823022D01*
X142583435Y-101751565D01*
X142511978Y-101692922D01*
X142430454Y-101649346D01*
X142341994Y-101622513D01*
X142250000Y-101613452D01*
X140600000Y-101613452D01*
X140508006Y-101622513D01*
X140419546Y-101649346D01*
X140338022Y-101692922D01*
X140292842Y-101730000D01*
X139644349Y-101730000D01*
X139588298Y-101661702D01*
X139506423Y-101594509D01*
X139413013Y-101544580D01*
X139311657Y-101513834D01*
X139206250Y-101503452D01*
X138768750Y-101503452D01*
X138663343Y-101513834D01*
X138561987Y-101544580D01*
X138468577Y-101594509D01*
X138386702Y-101661702D01*
X138319509Y-101743577D01*
X138269580Y-101836987D01*
X138238834Y-101938343D01*
X138228452Y-102043750D01*
X138170668Y-102043750D01*
X138171548Y-101825000D01*
X138165370Y-101762269D01*
X138147072Y-101701949D01*
X138117357Y-101646358D01*
X138077369Y-101597631D01*
X138028642Y-101557643D01*
X137973051Y-101527928D01*
X137912731Y-101509630D01*
X137850000Y-101503452D01*
X137502500Y-101505000D01*
X137422500Y-101585000D01*
X137402500Y-101585000D01*
X137322500Y-101505000D01*
X136975000Y-101503452D01*
X136912269Y-101509630D01*
X136851949Y-101527928D01*
X136796358Y-101557643D01*
X136747631Y-101597631D01*
X136707643Y-101646358D01*
X136677928Y-101701949D01*
X136659630Y-101762269D01*
X136653452Y-101825000D01*
X108300000Y-101825000D01*
X108300000Y-100815000D01*
X140128452Y-100815000D01*
X140128452Y-101115000D01*
X140137513Y-101206994D01*
X140164346Y-101295454D01*
X140207922Y-101376978D01*
X140266565Y-101448435D01*
X140338022Y-101507078D01*
X140419546Y-101550654D01*
X140508006Y-101577487D01*
X140600000Y-101586548D01*
X142250000Y-101586548D01*
X142341994Y-101577487D01*
X142430454Y-101550654D01*
X142511978Y-101507078D01*
X142583435Y-101448435D01*
X142642078Y-101376978D01*
X142685654Y-101295454D01*
X142712487Y-101206994D01*
X142721548Y-101115000D01*
X142721548Y-100815000D01*
X142712487Y-100723006D01*
X142685654Y-100634546D01*
X142642078Y-100553022D01*
X142583435Y-100481565D01*
X142511978Y-100422922D01*
X142430454Y-100379346D01*
X142341994Y-100352513D01*
X142250000Y-100343452D01*
X140600000Y-100343452D01*
X140508006Y-100352513D01*
X140419546Y-100379346D01*
X140338022Y-100422922D01*
X140266565Y-100481565D01*
X140207922Y-100553022D01*
X140164346Y-100634546D01*
X140137513Y-100723006D01*
X140128452Y-100815000D01*
X108300000Y-100815000D01*
X108300000Y-99995000D01*
X140128452Y-99995000D01*
X140134630Y-100057731D01*
X140152928Y-100118051D01*
X140182643Y-100173642D01*
X140222631Y-100222369D01*
X140271358Y-100262357D01*
X140326949Y-100292072D01*
X140387269Y-100310370D01*
X140450000Y-100316548D01*
X141335000Y-100315000D01*
X141415000Y-100235000D01*
X141415000Y-99705000D01*
X141435000Y-99705000D01*
X141435000Y-100235000D01*
X141515000Y-100315000D01*
X142400000Y-100316548D01*
X142462731Y-100310370D01*
X142523051Y-100292072D01*
X142578642Y-100262357D01*
X142627369Y-100222369D01*
X142667357Y-100173642D01*
X142697072Y-100118051D01*
X142715370Y-100057731D01*
X142721548Y-99995000D01*
X142720000Y-99785000D01*
X142640000Y-99705000D01*
X141435000Y-99705000D01*
X141415000Y-99705000D01*
X140210000Y-99705000D01*
X140130000Y-99785000D01*
X140128452Y-99995000D01*
X108300000Y-99995000D01*
X108300000Y-99395000D01*
X140128452Y-99395000D01*
X140130000Y-99605000D01*
X140210000Y-99685000D01*
X141415000Y-99685000D01*
X141415000Y-99155000D01*
X141435000Y-99155000D01*
X141435000Y-99685000D01*
X142640000Y-99685000D01*
X142720000Y-99605000D01*
X142721548Y-99395000D01*
X142715370Y-99332269D01*
X142697072Y-99271949D01*
X142667357Y-99216358D01*
X142627369Y-99167631D01*
X142578642Y-99127643D01*
X142523051Y-99097928D01*
X142462731Y-99079630D01*
X142400000Y-99073452D01*
X141515000Y-99075000D01*
X141435000Y-99155000D01*
X141415000Y-99155000D01*
X141335000Y-99075000D01*
X140450000Y-99073452D01*
X140387269Y-99079630D01*
X140326949Y-99097928D01*
X140271358Y-99127643D01*
X140222631Y-99167631D01*
X140182643Y-99216358D01*
X140152928Y-99271949D01*
X140134630Y-99332269D01*
X140128452Y-99395000D01*
X108300000Y-99395000D01*
X108300000Y-86410897D01*
X109980000Y-86410897D01*
X109980000Y-86789103D01*
X110053785Y-87160043D01*
X110198518Y-87509461D01*
X110408639Y-87823929D01*
X110676071Y-88091361D01*
X110990539Y-88301482D01*
X111339957Y-88446215D01*
X111710897Y-88520000D01*
X112089103Y-88520000D01*
X112460043Y-88446215D01*
X112809461Y-88301482D01*
X113123929Y-88091361D01*
X113391361Y-87823929D01*
X113396292Y-87816548D01*
X138900000Y-87816548D01*
X138900000Y-88383451D01*
X138917219Y-88558280D01*
X138985265Y-88782595D01*
X139095764Y-88989326D01*
X139244472Y-89170528D01*
X139425673Y-89319236D01*
X139632404Y-89429735D01*
X139856719Y-89497781D01*
X140090000Y-89520757D01*
X140323280Y-89497781D01*
X140547595Y-89429735D01*
X140754326Y-89319236D01*
X140935528Y-89170528D01*
X141084236Y-88989327D01*
X141194735Y-88782596D01*
X141262781Y-88558281D01*
X141280000Y-88383452D01*
X141280000Y-87816549D01*
X141280000Y-87816548D01*
X141440000Y-87816548D01*
X141440000Y-88383451D01*
X141457219Y-88558280D01*
X141525265Y-88782595D01*
X141635764Y-88989326D01*
X141784472Y-89170528D01*
X141965673Y-89319236D01*
X142172404Y-89429735D01*
X142396719Y-89497781D01*
X142630000Y-89520757D01*
X142863280Y-89497781D01*
X143087595Y-89429735D01*
X143294326Y-89319236D01*
X143475528Y-89170528D01*
X143624236Y-88989327D01*
X143734735Y-88782596D01*
X143802781Y-88558281D01*
X143820000Y-88383452D01*
X143820000Y-87816549D01*
X143820000Y-87816548D01*
X143980000Y-87816548D01*
X143980000Y-88383451D01*
X143997219Y-88558280D01*
X144065265Y-88782595D01*
X144175764Y-88989326D01*
X144324472Y-89170528D01*
X144505673Y-89319236D01*
X144712404Y-89429735D01*
X144936719Y-89497781D01*
X145170000Y-89520757D01*
X145403280Y-89497781D01*
X145627595Y-89429735D01*
X145834326Y-89319236D01*
X145985708Y-89195000D01*
X146518452Y-89195000D01*
X146524630Y-89257731D01*
X146542928Y-89318051D01*
X146572643Y-89373642D01*
X146612631Y-89422369D01*
X146661358Y-89462357D01*
X146716949Y-89492072D01*
X146777269Y-89510370D01*
X146840000Y-89516548D01*
X147620000Y-89515000D01*
X147700000Y-89435000D01*
X147700000Y-88110000D01*
X147720000Y-88110000D01*
X147720000Y-89435000D01*
X147800000Y-89515000D01*
X148580000Y-89516548D01*
X148642731Y-89510370D01*
X148703051Y-89492072D01*
X148758642Y-89462357D01*
X148807369Y-89422369D01*
X148847357Y-89373642D01*
X148877072Y-89318051D01*
X148895370Y-89257731D01*
X148901548Y-89195000D01*
X148900000Y-88190000D01*
X148820000Y-88110000D01*
X147720000Y-88110000D01*
X147700000Y-88110000D01*
X146600000Y-88110000D01*
X146520000Y-88190000D01*
X146518452Y-89195000D01*
X145985708Y-89195000D01*
X146015528Y-89170528D01*
X146164236Y-88989327D01*
X146274735Y-88782596D01*
X146342781Y-88558281D01*
X146360000Y-88383452D01*
X146360000Y-87816549D01*
X146342781Y-87641720D01*
X146274735Y-87417405D01*
X146164236Y-87210673D01*
X146015528Y-87029472D01*
X145985709Y-87005000D01*
X146518452Y-87005000D01*
X146520000Y-88010000D01*
X146600000Y-88090000D01*
X147700000Y-88090000D01*
X147700000Y-86765000D01*
X147720000Y-86765000D01*
X147720000Y-88090000D01*
X148820000Y-88090000D01*
X148900000Y-88010000D01*
X148901548Y-87005000D01*
X148895370Y-86942269D01*
X148877072Y-86881949D01*
X148847357Y-86826358D01*
X148807369Y-86777631D01*
X148758642Y-86737643D01*
X148703051Y-86707928D01*
X148642731Y-86689630D01*
X148580000Y-86683452D01*
X147800000Y-86685000D01*
X147720000Y-86765000D01*
X147700000Y-86765000D01*
X147620000Y-86685000D01*
X146840000Y-86683452D01*
X146777269Y-86689630D01*
X146716949Y-86707928D01*
X146661358Y-86737643D01*
X146612631Y-86777631D01*
X146572643Y-86826358D01*
X146542928Y-86881949D01*
X146524630Y-86942269D01*
X146518452Y-87005000D01*
X145985709Y-87005000D01*
X145834327Y-86880764D01*
X145627596Y-86770265D01*
X145403281Y-86702219D01*
X145170000Y-86679243D01*
X144936720Y-86702219D01*
X144712405Y-86770265D01*
X144505674Y-86880764D01*
X144324473Y-87029472D01*
X144175765Y-87210673D01*
X144065265Y-87417404D01*
X143997219Y-87641719D01*
X143980000Y-87816548D01*
X143820000Y-87816548D01*
X143802781Y-87641720D01*
X143734735Y-87417405D01*
X143624236Y-87210673D01*
X143475528Y-87029472D01*
X143294327Y-86880764D01*
X143087596Y-86770265D01*
X142863281Y-86702219D01*
X142630000Y-86679243D01*
X142396720Y-86702219D01*
X142172405Y-86770265D01*
X141965674Y-86880764D01*
X141784473Y-87029472D01*
X141635765Y-87210673D01*
X141525265Y-87417404D01*
X141457219Y-87641719D01*
X141440000Y-87816548D01*
X141280000Y-87816548D01*
X141262781Y-87641720D01*
X141194735Y-87417405D01*
X141084236Y-87210673D01*
X140935528Y-87029472D01*
X140754327Y-86880764D01*
X140547596Y-86770265D01*
X140323281Y-86702219D01*
X140090000Y-86679243D01*
X139856720Y-86702219D01*
X139632405Y-86770265D01*
X139425674Y-86880764D01*
X139244473Y-87029472D01*
X139095765Y-87210673D01*
X138985265Y-87417404D01*
X138917219Y-87641719D01*
X138900000Y-87816548D01*
X113396292Y-87816548D01*
X113601482Y-87509461D01*
X113746215Y-87160043D01*
X113820000Y-86789103D01*
X113820000Y-86410897D01*
X173980000Y-86410897D01*
X173980000Y-86789103D01*
X174053785Y-87160043D01*
X174198518Y-87509461D01*
X174408639Y-87823929D01*
X174676071Y-88091361D01*
X174990539Y-88301482D01*
X175339957Y-88446215D01*
X175710897Y-88520000D01*
X176089103Y-88520000D01*
X176460043Y-88446215D01*
X176809461Y-88301482D01*
X177123929Y-88091361D01*
X177391361Y-87823929D01*
X177601482Y-87509461D01*
X177746215Y-87160043D01*
X177820000Y-86789103D01*
X177820000Y-86410897D01*
X177746215Y-86039957D01*
X177601482Y-85690539D01*
X177391361Y-85376071D01*
X177123929Y-85108639D01*
X176809461Y-84898518D01*
X176460043Y-84753785D01*
X176089103Y-84680000D01*
X175710897Y-84680000D01*
X175339957Y-84753785D01*
X174990539Y-84898518D01*
X174676071Y-85108639D01*
X174408639Y-85376071D01*
X174198518Y-85690539D01*
X174053785Y-86039957D01*
X173980000Y-86410897D01*
X113820000Y-86410897D01*
X113746215Y-86039957D01*
X113601482Y-85690539D01*
X113391361Y-85376071D01*
X113123929Y-85108639D01*
X112809461Y-84898518D01*
X112460043Y-84753785D01*
X112089103Y-84680000D01*
X111710897Y-84680000D01*
X111339957Y-84753785D01*
X110990539Y-84898518D01*
X110676071Y-85108639D01*
X110408639Y-85376071D01*
X110198518Y-85690539D01*
X110053785Y-86039957D01*
X109980000Y-86410897D01*
X108300000Y-86410897D01*
X108300000Y-82945000D01*
X111916946Y-82945000D01*
X111917545Y-82944941D01*
X111922146Y-82944925D01*
X111937142Y-82943402D01*
X111952212Y-82943507D01*
X111957006Y-82943037D01*
X112539296Y-82881836D01*
X112569967Y-82875541D01*
X112600642Y-82869689D01*
X112605246Y-82868299D01*
X112605253Y-82868298D01*
X112605259Y-82868295D01*
X113164567Y-82695160D01*
X113193415Y-82683034D01*
X113222384Y-82671329D01*
X113226633Y-82669070D01*
X113226638Y-82669068D01*
X113226642Y-82669065D01*
X113741669Y-82390592D01*
X113767616Y-82373091D01*
X113793757Y-82355984D01*
X113797483Y-82352946D01*
X113797490Y-82352941D01*
X113797496Y-82352935D01*
X114248623Y-81979730D01*
X114270650Y-81957549D01*
X114292997Y-81935665D01*
X114296068Y-81931953D01*
X114666120Y-81478225D01*
X114683429Y-81452173D01*
X114701090Y-81426380D01*
X114703378Y-81422147D01*
X114703381Y-81422143D01*
X114703383Y-81422139D01*
X114978255Y-80905178D01*
X114990184Y-80876236D01*
X115002488Y-80847528D01*
X115003911Y-80842933D01*
X115003914Y-80842926D01*
X115003915Y-80842919D01*
X115173140Y-80282419D01*
X115179213Y-80251751D01*
X115185715Y-80221160D01*
X115186217Y-80216380D01*
X115186219Y-80216369D01*
X115186219Y-80216359D01*
X115243353Y-79633667D01*
X115245000Y-79616946D01*
X115245000Y-77000000D01*
X172555000Y-77000000D01*
X172555001Y-79616946D01*
G37*
X172555001Y-79616946D02*
X172555059Y-79617534D01*
X172555075Y-79622146D01*
X172556598Y-79637142D01*
X172556493Y-79652212D01*
X172556963Y-79657006D01*
X172618164Y-80239296D01*
X172624459Y-80269967D01*
X172630311Y-80300642D01*
X172631701Y-80305246D01*
X172631702Y-80305253D01*
X172631705Y-80305259D01*
X172804840Y-80864567D01*
X172816966Y-80893415D01*
X172828671Y-80922384D01*
X172830930Y-80926633D01*
X172830932Y-80926638D01*
X172830935Y-80926642D01*
X173109408Y-81441669D01*
X173126909Y-81467616D01*
X173144016Y-81493757D01*
X173147054Y-81497483D01*
X173147059Y-81497490D01*
X173147065Y-81497496D01*
X173520270Y-81948623D01*
X173542451Y-81970650D01*
X173564335Y-81992997D01*
X173568047Y-81996068D01*
X174021775Y-82366120D01*
X174047827Y-82383429D01*
X174073620Y-82401090D01*
X174077853Y-82403378D01*
X174077857Y-82403381D01*
X174077861Y-82403383D01*
X174594822Y-82678255D01*
X174623764Y-82690184D01*
X174652472Y-82702488D01*
X174657067Y-82703911D01*
X174657074Y-82703914D01*
X174657081Y-82703915D01*
X175217581Y-82873140D01*
X175248249Y-82879213D01*
X175278840Y-82885715D01*
X175283620Y-82886217D01*
X175283631Y-82886219D01*
X175283641Y-82886219D01*
X175865944Y-82943315D01*
X175883054Y-82945000D01*
X179500000Y-82945000D01*
X179500000Y-120255000D01*
X175883054Y-120255000D01*
X175882455Y-120255059D01*
X175877854Y-120255075D01*
X175862858Y-120256598D01*
X175847788Y-120256493D01*
X175842993Y-120256963D01*
X175260704Y-120318164D01*
X175230033Y-120324459D01*
X175199358Y-120330311D01*
X175194757Y-120331700D01*
X175194747Y-120331702D01*
X175194738Y-120331706D01*
X174635433Y-120504840D01*
X174606585Y-120516966D01*
X174577616Y-120528671D01*
X174573367Y-120530930D01*
X174573362Y-120530932D01*
X174573361Y-120530933D01*
X174058331Y-120809408D01*
X174032384Y-120826909D01*
X174006243Y-120844016D01*
X174002517Y-120847054D01*
X174002510Y-120847059D01*
X174002504Y-120847065D01*
X173551377Y-121220270D01*
X173529350Y-121242451D01*
X173507003Y-121264335D01*
X173503932Y-121268047D01*
X173133880Y-121721775D01*
X173116554Y-121747853D01*
X173098911Y-121773620D01*
X173096619Y-121777857D01*
X172821745Y-122294822D01*
X172809824Y-122323743D01*
X172797511Y-122352472D01*
X172796090Y-122357063D01*
X172796086Y-122357073D01*
X172796084Y-122357083D01*
X172626860Y-122917581D01*
X172620787Y-122948249D01*
X172614285Y-122978840D01*
X172613783Y-122983620D01*
X172613781Y-122983631D01*
X172613781Y-122983641D01*
X172556647Y-123566334D01*
X172556647Y-123566341D01*
X172555001Y-123583054D01*
X172555000Y-126200000D01*
X115245000Y-126200000D01*
X115245000Y-123583054D01*
X115244941Y-123582455D01*
X115244925Y-123577854D01*
X115243402Y-123562858D01*
X115243507Y-123547788D01*
X115243037Y-123542993D01*
X115181836Y-122960704D01*
X115175541Y-122930033D01*
X115169689Y-122899358D01*
X115168300Y-122894757D01*
X115168298Y-122894747D01*
X115168294Y-122894738D01*
X114995160Y-122335433D01*
X114983034Y-122306585D01*
X114971329Y-122277616D01*
X114969068Y-122273363D01*
X114969068Y-122273362D01*
X114969065Y-122273358D01*
X114690592Y-121758331D01*
X114673091Y-121732384D01*
X114655984Y-121706243D01*
X114652946Y-121702517D01*
X114652941Y-121702510D01*
X114652935Y-121702504D01*
X114279730Y-121251377D01*
X114257549Y-121229350D01*
X114235665Y-121207003D01*
X114231953Y-121203932D01*
X113778225Y-120833880D01*
X113752147Y-120816554D01*
X113726380Y-120798911D01*
X113722143Y-120796619D01*
X113205178Y-120521745D01*
X113176257Y-120509824D01*
X113147528Y-120497511D01*
X113142937Y-120496090D01*
X113142927Y-120496086D01*
X113142917Y-120496084D01*
X112582419Y-120326860D01*
X112551751Y-120320787D01*
X112521160Y-120314285D01*
X112516380Y-120313783D01*
X112516369Y-120313781D01*
X112516359Y-120313781D01*
X111934280Y-120256707D01*
X111916946Y-120255000D01*
X108300000Y-120255000D01*
X108300000Y-116410897D01*
X109980000Y-116410897D01*
X109980000Y-116789103D01*
X110053785Y-117160043D01*
X110198518Y-117509461D01*
X110408639Y-117823929D01*
X110676071Y-118091361D01*
X110990539Y-118301482D01*
X111339957Y-118446215D01*
X111710897Y-118520000D01*
X112089103Y-118520000D01*
X112460043Y-118446215D01*
X112809461Y-118301482D01*
X113123929Y-118091361D01*
X113391361Y-117823929D01*
X113601482Y-117509461D01*
X113746215Y-117160043D01*
X113820000Y-116789103D01*
X113820000Y-116410897D01*
X113746215Y-116039957D01*
X113601482Y-115690539D01*
X113391361Y-115376071D01*
X113123929Y-115108639D01*
X112809461Y-114898518D01*
X112460043Y-114753785D01*
X112089103Y-114680000D01*
X111710897Y-114680000D01*
X111339957Y-114753785D01*
X110990539Y-114898518D01*
X110676071Y-115108639D01*
X110408639Y-115376071D01*
X110198518Y-115690539D01*
X110053785Y-116039957D01*
X109980000Y-116410897D01*
X108300000Y-116410897D01*
X108300000Y-102775000D01*
X136653452Y-102775000D01*
X136659630Y-102837731D01*
X136677928Y-102898051D01*
X136707643Y-102953642D01*
X136747631Y-103002369D01*
X136796358Y-103042357D01*
X136851949Y-103072072D01*
X136912269Y-103090370D01*
X136975000Y-103096548D01*
X137322500Y-103095000D01*
X137402500Y-103015000D01*
X137402500Y-102310000D01*
X137422500Y-102310000D01*
X137422500Y-103015000D01*
X137502500Y-103095000D01*
X137850000Y-103096548D01*
X137912731Y-103090370D01*
X137973051Y-103072072D01*
X138028642Y-103042357D01*
X138077369Y-103002369D01*
X138117357Y-102953642D01*
X138147072Y-102898051D01*
X138165370Y-102837731D01*
X138171548Y-102775000D01*
X138170000Y-102390000D01*
X138090000Y-102310000D01*
X137422500Y-102310000D01*
X137402500Y-102310000D01*
X136735000Y-102310000D01*
X136655000Y-102390000D01*
X136653452Y-102775000D01*
X108300000Y-102775000D01*
X108300000Y-101825000D01*
X136653452Y-101825000D01*
X136655000Y-102210000D01*
X136735000Y-102290000D01*
X137402500Y-102290000D01*
X137402500Y-101585000D01*
X137422500Y-101585000D01*
X137422500Y-102290000D01*
X138090000Y-102290000D01*
X138170000Y-102210000D01*
X138170668Y-102043750D01*
X138228452Y-102043750D01*
X138228452Y-102556250D01*
X138238834Y-102661657D01*
X138269580Y-102763013D01*
X138319509Y-102856423D01*
X138386702Y-102938298D01*
X138430001Y-102973832D01*
X138430000Y-104072017D01*
X138427244Y-104100000D01*
X138430000Y-104127983D01*
X138430000Y-104127992D01*
X138438248Y-104211738D01*
X138470842Y-104319184D01*
X138523770Y-104418207D01*
X138550138Y-104450336D01*
X138595000Y-104505000D01*
X138616750Y-104522850D01*
X142030000Y-107936102D01*
X142030000Y-108046685D01*
X142011702Y-108061702D01*
X141944509Y-108143577D01*
X141894580Y-108236987D01*
X141863834Y-108338343D01*
X141853452Y-108443750D01*
X141853452Y-108956250D01*
X141863834Y-109061657D01*
X141894580Y-109163013D01*
X141944509Y-109256423D01*
X142011702Y-109338298D01*
X142030001Y-109353315D01*
X142030000Y-109846685D01*
X142011702Y-109861702D01*
X141944509Y-109943577D01*
X141894580Y-110036987D01*
X141863834Y-110138343D01*
X141853452Y-110243750D01*
X141853452Y-110756250D01*
X141863834Y-110861657D01*
X141894580Y-110963013D01*
X141944509Y-111056423D01*
X142011702Y-111138298D01*
X142060001Y-111177936D01*
X142060000Y-113830345D01*
X141965673Y-113880764D01*
X141784472Y-114029472D01*
X141635764Y-114210674D01*
X141525265Y-114417405D01*
X141457219Y-114641720D01*
X141440000Y-114816549D01*
X141440000Y-115383452D01*
X141457219Y-115558281D01*
X141525265Y-115782596D01*
X141540588Y-115811263D01*
X141281548Y-115552223D01*
X141281548Y-114254999D01*
X141270566Y-114143496D01*
X141238042Y-114036277D01*
X141185225Y-113937465D01*
X141114146Y-113850854D01*
X141027535Y-113779775D01*
X140928723Y-113726958D01*
X140821504Y-113694434D01*
X140710001Y-113683452D01*
X139469999Y-113683452D01*
X139358496Y-113694434D01*
X139251277Y-113726958D01*
X139152465Y-113779775D01*
X139065854Y-113850854D01*
X138994775Y-113937465D01*
X138941958Y-114036277D01*
X138909434Y-114143496D01*
X138898452Y-114254999D01*
X138898452Y-115945001D01*
X138909434Y-116056504D01*
X138941958Y-116163723D01*
X138994775Y-116262535D01*
X139065854Y-116349146D01*
X139152465Y-116420225D01*
X139251277Y-116473042D01*
X139358496Y-116505566D01*
X139469999Y-116516548D01*
X140710001Y-116516548D01*
X140821504Y-116505566D01*
X140928723Y-116473042D01*
X140938494Y-116467819D01*
X141289889Y-116819214D01*
X141303825Y-116836195D01*
X141371585Y-116891804D01*
X141448892Y-116933126D01*
X141532775Y-116958571D01*
X141620010Y-116967163D01*
X141641870Y-116965010D01*
X148183129Y-116965010D01*
X148204989Y-116967163D01*
X148292224Y-116958571D01*
X148376107Y-116933126D01*
X148453414Y-116891804D01*
X148521174Y-116836195D01*
X148535114Y-116819209D01*
X148943426Y-116410897D01*
X173980000Y-116410897D01*
X173980000Y-116789103D01*
X174053785Y-117160043D01*
X174198518Y-117509461D01*
X174408639Y-117823929D01*
X174676071Y-118091361D01*
X174990539Y-118301482D01*
X175339957Y-118446215D01*
X175710897Y-118520000D01*
X176089103Y-118520000D01*
X176460043Y-118446215D01*
X176809461Y-118301482D01*
X177123929Y-118091361D01*
X177391361Y-117823929D01*
X177601482Y-117509461D01*
X177746215Y-117160043D01*
X177820000Y-116789103D01*
X177820000Y-116410897D01*
X177746215Y-116039957D01*
X177601482Y-115690539D01*
X177391361Y-115376071D01*
X177123929Y-115108639D01*
X176809461Y-114898518D01*
X176460043Y-114753785D01*
X176089103Y-114680000D01*
X175710897Y-114680000D01*
X175339957Y-114753785D01*
X174990539Y-114898518D01*
X174676071Y-115108639D01*
X174408639Y-115376071D01*
X174198518Y-115690539D01*
X174053785Y-116039957D01*
X173980000Y-116410897D01*
X148943426Y-116410897D01*
X149799204Y-115555120D01*
X149816185Y-115541184D01*
X149871794Y-115473424D01*
X149913116Y-115396117D01*
X149938561Y-115312234D01*
X149945000Y-115246859D01*
X149945000Y-115246857D01*
X149947153Y-115225000D01*
X149945000Y-115203143D01*
X149945000Y-104356027D01*
X157801257Y-104356027D01*
X157805915Y-104382350D01*
X157871757Y-104606155D01*
X157979996Y-104812814D01*
X158126472Y-104994386D01*
X158305557Y-105143893D01*
X158510368Y-105255590D01*
X158733035Y-105325184D01*
X158965000Y-105350000D01*
X159190000Y-105350000D01*
X159190000Y-104170000D01*
X159210000Y-104170000D01*
X159210000Y-105350000D01*
X159435000Y-105350000D01*
X159666965Y-105325184D01*
X159889632Y-105255590D01*
X160094443Y-105143893D01*
X160273528Y-104994386D01*
X160420004Y-104812814D01*
X160528243Y-104606155D01*
X160594085Y-104382350D01*
X160598743Y-104356027D01*
X160534955Y-104170000D01*
X159210000Y-104170000D01*
X159190000Y-104170000D01*
X157865045Y-104170000D01*
X157801257Y-104356027D01*
X149945000Y-104356027D01*
X149945000Y-103963973D01*
X157801257Y-103963973D01*
X157865045Y-104150000D01*
X159190000Y-104150000D01*
X159190000Y-102970000D01*
X159210000Y-102970000D01*
X159210000Y-104150000D01*
X160534955Y-104150000D01*
X160598743Y-103963973D01*
X160594085Y-103937650D01*
X160528243Y-103713845D01*
X160420004Y-103507186D01*
X160273528Y-103325614D01*
X160094443Y-103176107D01*
X159889632Y-103064410D01*
X159666965Y-102994816D01*
X159435000Y-102970000D01*
X159210000Y-102970000D01*
X159190000Y-102970000D01*
X158965000Y-102970000D01*
X158733035Y-102994816D01*
X158510368Y-103064410D01*
X158305557Y-103176107D01*
X158126472Y-103325614D01*
X157979996Y-103507186D01*
X157871757Y-103713845D01*
X157805915Y-103937650D01*
X157801257Y-103963973D01*
X149945000Y-103963973D01*
X149945000Y-102121860D01*
X149947153Y-102100000D01*
X149938561Y-102012765D01*
X149932567Y-101993006D01*
X149913116Y-101928882D01*
X149871794Y-101851575D01*
X149816185Y-101783815D01*
X149799206Y-101769881D01*
X148730125Y-100700801D01*
X148716185Y-100683815D01*
X148648425Y-100628206D01*
X148571118Y-100586884D01*
X148487235Y-100561439D01*
X148421860Y-100555000D01*
X148400000Y-100552847D01*
X148378140Y-100555000D01*
X147593135Y-100555000D01*
X147592078Y-100553022D01*
X147533435Y-100481565D01*
X147461978Y-100422922D01*
X147380454Y-100379346D01*
X147291994Y-100352513D01*
X147200000Y-100343452D01*
X145550000Y-100343452D01*
X145458006Y-100352513D01*
X145445000Y-100356458D01*
X145445000Y-100303542D01*
X145458006Y-100307487D01*
X145550000Y-100316548D01*
X147200000Y-100316548D01*
X147291994Y-100307487D01*
X147380454Y-100280654D01*
X147461978Y-100237078D01*
X147533435Y-100178435D01*
X147564978Y-100140000D01*
X156810676Y-100140000D01*
X157861610Y-101190935D01*
X157802219Y-101386719D01*
X157779243Y-101620000D01*
X157802219Y-101853281D01*
X157870265Y-102077596D01*
X157980764Y-102284327D01*
X158129472Y-102465528D01*
X158310673Y-102614236D01*
X158517404Y-102724735D01*
X158741719Y-102792781D01*
X158916548Y-102810000D01*
X159483452Y-102810000D01*
X159658281Y-102792781D01*
X159882596Y-102724735D01*
X160089327Y-102614236D01*
X160270528Y-102465528D01*
X160419236Y-102284327D01*
X160529735Y-102077596D01*
X160597781Y-101853281D01*
X160620757Y-101620000D01*
X160597781Y-101386719D01*
X160529735Y-101162404D01*
X160419236Y-100955673D01*
X160270528Y-100774472D01*
X160089327Y-100625764D01*
X159882596Y-100515265D01*
X159658281Y-100447219D01*
X159483452Y-100430000D01*
X158916548Y-100430000D01*
X158741719Y-100447219D01*
X158517404Y-100515265D01*
X158469953Y-100540628D01*
X158166549Y-100237225D01*
X158243496Y-100260566D01*
X158354999Y-100271548D01*
X160045001Y-100271548D01*
X160156504Y-100260566D01*
X160263723Y-100228042D01*
X160362535Y-100175225D01*
X160449146Y-100104146D01*
X160520225Y-100017535D01*
X160573042Y-99918723D01*
X160605566Y-99811504D01*
X160616548Y-99700001D01*
X160616548Y-98459999D01*
X160605566Y-98348496D01*
X160573042Y-98241277D01*
X160520225Y-98142465D01*
X160449146Y-98055854D01*
X160362535Y-97984775D01*
X160263723Y-97931958D01*
X160156504Y-97899434D01*
X160045001Y-97888452D01*
X158354999Y-97888452D01*
X158243496Y-97899434D01*
X158136277Y-97931958D01*
X158037465Y-97984775D01*
X157950854Y-98055854D01*
X157879775Y-98142465D01*
X157826958Y-98241277D01*
X157794434Y-98348496D01*
X157783452Y-98459999D01*
X157783452Y-98624990D01*
X145375102Y-98624990D01*
X145353242Y-98622837D01*
X145266007Y-98631429D01*
X145182123Y-98656874D01*
X145104817Y-98698196D01*
X145037057Y-98753805D01*
X145023121Y-98770786D01*
X144700796Y-99093112D01*
X144683816Y-99107047D01*
X144628207Y-99174807D01*
X144608559Y-99211565D01*
X144586885Y-99252114D01*
X144561439Y-99335997D01*
X144552847Y-99423232D01*
X144555001Y-99445102D01*
X144555000Y-103083140D01*
X144552847Y-103105000D01*
X144555000Y-103126859D01*
X144561439Y-103192234D01*
X144586884Y-103276117D01*
X144628206Y-103353424D01*
X144683815Y-103421185D01*
X144700801Y-103435125D01*
X145069879Y-103804204D01*
X145083815Y-103821185D01*
X145124618Y-103854671D01*
X145157922Y-103916978D01*
X145216565Y-103988435D01*
X145288022Y-104047078D01*
X145369546Y-104090654D01*
X145458006Y-104117487D01*
X145550000Y-104126548D01*
X147200000Y-104126548D01*
X147230011Y-104123592D01*
X147230010Y-110340665D01*
X144870796Y-112699880D01*
X144853816Y-112713815D01*
X144798207Y-112781575D01*
X144756885Y-112858882D01*
X144731439Y-112942765D01*
X144722847Y-113030000D01*
X144725001Y-113051869D01*
X144725001Y-113766444D01*
X144712404Y-113770265D01*
X144505673Y-113880764D01*
X144324472Y-114029472D01*
X144175764Y-114210674D01*
X144065265Y-114417405D01*
X143997219Y-114641720D01*
X143980000Y-114816549D01*
X143980000Y-115383452D01*
X143997219Y-115558281D01*
X144065265Y-115782596D01*
X144175765Y-115989327D01*
X144246083Y-116075010D01*
X143553918Y-116075010D01*
X143624236Y-115989327D01*
X143734735Y-115782595D01*
X143802781Y-115558280D01*
X143820000Y-115383451D01*
X143820000Y-114816548D01*
X143802781Y-114641719D01*
X143734735Y-114417404D01*
X143624236Y-114210673D01*
X143475528Y-114029472D01*
X143294326Y-113880764D01*
X143200000Y-113830346D01*
X143200000Y-111149211D01*
X143213298Y-111138298D01*
X143280491Y-111056423D01*
X143324012Y-110975000D01*
X143428452Y-110975000D01*
X143434630Y-111037731D01*
X143452928Y-111098051D01*
X143482643Y-111153642D01*
X143522631Y-111202369D01*
X143571358Y-111242357D01*
X143626949Y-111272072D01*
X143687269Y-111290370D01*
X143750000Y-111296548D01*
X144097500Y-111295000D01*
X144177500Y-111215000D01*
X144177500Y-110510000D01*
X144197500Y-110510000D01*
X144197500Y-111215000D01*
X144277500Y-111295000D01*
X144625000Y-111296548D01*
X144687731Y-111290370D01*
X144748051Y-111272072D01*
X144803642Y-111242357D01*
X144852369Y-111202369D01*
X144892357Y-111153642D01*
X144922072Y-111098051D01*
X144940370Y-111037731D01*
X144946548Y-110975000D01*
X144945000Y-110590000D01*
X144865000Y-110510000D01*
X144197500Y-110510000D01*
X144177500Y-110510000D01*
X143510000Y-110510000D01*
X143430000Y-110590000D01*
X143428452Y-110975000D01*
X143324012Y-110975000D01*
X143330420Y-110963013D01*
X143361166Y-110861657D01*
X143371548Y-110756250D01*
X143371548Y-110243750D01*
X143361166Y-110138343D01*
X143330420Y-110036987D01*
X143324013Y-110025000D01*
X143428452Y-110025000D01*
X143430000Y-110410000D01*
X143510000Y-110490000D01*
X144177500Y-110490000D01*
X144177500Y-109785000D01*
X144197500Y-109785000D01*
X144197500Y-110490000D01*
X144865000Y-110490000D01*
X144945000Y-110410000D01*
X144946548Y-110025000D01*
X144940370Y-109962269D01*
X144922072Y-109901949D01*
X144892357Y-109846358D01*
X144852369Y-109797631D01*
X144803642Y-109757643D01*
X144748051Y-109727928D01*
X144687731Y-109709630D01*
X144625000Y-109703452D01*
X144277500Y-109705000D01*
X144197500Y-109785000D01*
X144177500Y-109785000D01*
X144097500Y-109705000D01*
X143750000Y-109703452D01*
X143687269Y-109709630D01*
X143626949Y-109727928D01*
X143571358Y-109757643D01*
X143522631Y-109797631D01*
X143482643Y-109846358D01*
X143452928Y-109901949D01*
X143434630Y-109962269D01*
X143428452Y-110025000D01*
X143324013Y-110025000D01*
X143280491Y-109943577D01*
X143213298Y-109861702D01*
X143170000Y-109826168D01*
X143170000Y-109373832D01*
X143213298Y-109338298D01*
X143280491Y-109256423D01*
X143324012Y-109175000D01*
X143428452Y-109175000D01*
X143434630Y-109237731D01*
X143452928Y-109298051D01*
X143482643Y-109353642D01*
X143522631Y-109402369D01*
X143571358Y-109442357D01*
X143626949Y-109472072D01*
X143687269Y-109490370D01*
X143750000Y-109496548D01*
X144097500Y-109495000D01*
X144177500Y-109415000D01*
X144177500Y-108710000D01*
X144197500Y-108710000D01*
X144197500Y-109415000D01*
X144277500Y-109495000D01*
X144625000Y-109496548D01*
X144687731Y-109490370D01*
X144748051Y-109472072D01*
X144803642Y-109442357D01*
X144852369Y-109402369D01*
X144892357Y-109353642D01*
X144922072Y-109298051D01*
X144940370Y-109237731D01*
X144946548Y-109175000D01*
X144945000Y-108790000D01*
X144865000Y-108710000D01*
X144197500Y-108710000D01*
X144177500Y-108710000D01*
X143510000Y-108710000D01*
X143430000Y-108790000D01*
X143428452Y-109175000D01*
X143324012Y-109175000D01*
X143330420Y-109163013D01*
X143361166Y-109061657D01*
X143371548Y-108956250D01*
X143371548Y-108443750D01*
X143361166Y-108338343D01*
X143330420Y-108236987D01*
X143324013Y-108225000D01*
X143428452Y-108225000D01*
X143430000Y-108610000D01*
X143510000Y-108690000D01*
X144177500Y-108690000D01*
X144177500Y-107985000D01*
X144197500Y-107985000D01*
X144197500Y-108690000D01*
X144865000Y-108690000D01*
X144945000Y-108610000D01*
X144946548Y-108225000D01*
X144940370Y-108162269D01*
X144922072Y-108101949D01*
X144892357Y-108046358D01*
X144852369Y-107997631D01*
X144803642Y-107957643D01*
X144748051Y-107927928D01*
X144687731Y-107909630D01*
X144625000Y-107903452D01*
X144277500Y-107905000D01*
X144197500Y-107985000D01*
X144177500Y-107985000D01*
X144097500Y-107905000D01*
X143750000Y-107903452D01*
X143687269Y-107909630D01*
X143626949Y-107927928D01*
X143571358Y-107957643D01*
X143522631Y-107997631D01*
X143482643Y-108046358D01*
X143452928Y-108101949D01*
X143434630Y-108162269D01*
X143428452Y-108225000D01*
X143324013Y-108225000D01*
X143280491Y-108143577D01*
X143213298Y-108061702D01*
X143170000Y-108026168D01*
X143170000Y-107727983D01*
X143172756Y-107700000D01*
X143170000Y-107672017D01*
X143170000Y-107672007D01*
X143161752Y-107588261D01*
X143129158Y-107480815D01*
X143102694Y-107431304D01*
X143076230Y-107381792D01*
X143022845Y-107316743D01*
X143022841Y-107316739D01*
X143005000Y-107295000D01*
X142983261Y-107277159D01*
X139570000Y-103863900D01*
X139570000Y-103355000D01*
X140128452Y-103355000D01*
X140128452Y-103655000D01*
X140137513Y-103746994D01*
X140164346Y-103835454D01*
X140207922Y-103916978D01*
X140266565Y-103988435D01*
X140338022Y-104047078D01*
X140419546Y-104090654D01*
X140508006Y-104117487D01*
X140600000Y-104126548D01*
X142250000Y-104126548D01*
X142341994Y-104117487D01*
X142430454Y-104090654D01*
X142511978Y-104047078D01*
X142583435Y-103988435D01*
X142642078Y-103916978D01*
X142685654Y-103835454D01*
X142712487Y-103746994D01*
X142721548Y-103655000D01*
X142721548Y-103355000D01*
X142712487Y-103263006D01*
X142685654Y-103174546D01*
X142642078Y-103093022D01*
X142583435Y-103021565D01*
X142511978Y-102962922D01*
X142430454Y-102919346D01*
X142341994Y-102892513D01*
X142250000Y-102883452D01*
X140600000Y-102883452D01*
X140508006Y-102892513D01*
X140419546Y-102919346D01*
X140338022Y-102962922D01*
X140266565Y-103021565D01*
X140207922Y-103093022D01*
X140164346Y-103174546D01*
X140137513Y-103263006D01*
X140128452Y-103355000D01*
X139570000Y-103355000D01*
X139570000Y-102953315D01*
X139588298Y-102938298D01*
X139644349Y-102870000D01*
X141427993Y-102870000D01*
X141511739Y-102861752D01*
X141528894Y-102856548D01*
X142250000Y-102856548D01*
X142341994Y-102847487D01*
X142430454Y-102820654D01*
X142511978Y-102777078D01*
X142583435Y-102718435D01*
X142642078Y-102646978D01*
X142685654Y-102565454D01*
X142712487Y-102476994D01*
X142721548Y-102385000D01*
X142721548Y-102085000D01*
X142712487Y-101993006D01*
X142685654Y-101904546D01*
X142642078Y-101823022D01*
X142583435Y-101751565D01*
X142511978Y-101692922D01*
X142430454Y-101649346D01*
X142341994Y-101622513D01*
X142250000Y-101613452D01*
X140600000Y-101613452D01*
X140508006Y-101622513D01*
X140419546Y-101649346D01*
X140338022Y-101692922D01*
X140292842Y-101730000D01*
X139644349Y-101730000D01*
X139588298Y-101661702D01*
X139506423Y-101594509D01*
X139413013Y-101544580D01*
X139311657Y-101513834D01*
X139206250Y-101503452D01*
X138768750Y-101503452D01*
X138663343Y-101513834D01*
X138561987Y-101544580D01*
X138468577Y-101594509D01*
X138386702Y-101661702D01*
X138319509Y-101743577D01*
X138269580Y-101836987D01*
X138238834Y-101938343D01*
X138228452Y-102043750D01*
X138170668Y-102043750D01*
X138171548Y-101825000D01*
X138165370Y-101762269D01*
X138147072Y-101701949D01*
X138117357Y-101646358D01*
X138077369Y-101597631D01*
X138028642Y-101557643D01*
X137973051Y-101527928D01*
X137912731Y-101509630D01*
X137850000Y-101503452D01*
X137502500Y-101505000D01*
X137422500Y-101585000D01*
X137402500Y-101585000D01*
X137322500Y-101505000D01*
X136975000Y-101503452D01*
X136912269Y-101509630D01*
X136851949Y-101527928D01*
X136796358Y-101557643D01*
X136747631Y-101597631D01*
X136707643Y-101646358D01*
X136677928Y-101701949D01*
X136659630Y-101762269D01*
X136653452Y-101825000D01*
X108300000Y-101825000D01*
X108300000Y-100815000D01*
X140128452Y-100815000D01*
X140128452Y-101115000D01*
X140137513Y-101206994D01*
X140164346Y-101295454D01*
X140207922Y-101376978D01*
X140266565Y-101448435D01*
X140338022Y-101507078D01*
X140419546Y-101550654D01*
X140508006Y-101577487D01*
X140600000Y-101586548D01*
X142250000Y-101586548D01*
X142341994Y-101577487D01*
X142430454Y-101550654D01*
X142511978Y-101507078D01*
X142583435Y-101448435D01*
X142642078Y-101376978D01*
X142685654Y-101295454D01*
X142712487Y-101206994D01*
X142721548Y-101115000D01*
X142721548Y-100815000D01*
X142712487Y-100723006D01*
X142685654Y-100634546D01*
X142642078Y-100553022D01*
X142583435Y-100481565D01*
X142511978Y-100422922D01*
X142430454Y-100379346D01*
X142341994Y-100352513D01*
X142250000Y-100343452D01*
X140600000Y-100343452D01*
X140508006Y-100352513D01*
X140419546Y-100379346D01*
X140338022Y-100422922D01*
X140266565Y-100481565D01*
X140207922Y-100553022D01*
X140164346Y-100634546D01*
X140137513Y-100723006D01*
X140128452Y-100815000D01*
X108300000Y-100815000D01*
X108300000Y-99995000D01*
X140128452Y-99995000D01*
X140134630Y-100057731D01*
X140152928Y-100118051D01*
X140182643Y-100173642D01*
X140222631Y-100222369D01*
X140271358Y-100262357D01*
X140326949Y-100292072D01*
X140387269Y-100310370D01*
X140450000Y-100316548D01*
X141335000Y-100315000D01*
X141415000Y-100235000D01*
X141415000Y-99705000D01*
X141435000Y-99705000D01*
X141435000Y-100235000D01*
X141515000Y-100315000D01*
X142400000Y-100316548D01*
X142462731Y-100310370D01*
X142523051Y-100292072D01*
X142578642Y-100262357D01*
X142627369Y-100222369D01*
X142667357Y-100173642D01*
X142697072Y-100118051D01*
X142715370Y-100057731D01*
X142721548Y-99995000D01*
X142720000Y-99785000D01*
X142640000Y-99705000D01*
X141435000Y-99705000D01*
X141415000Y-99705000D01*
X140210000Y-99705000D01*
X140130000Y-99785000D01*
X140128452Y-99995000D01*
X108300000Y-99995000D01*
X108300000Y-99395000D01*
X140128452Y-99395000D01*
X140130000Y-99605000D01*
X140210000Y-99685000D01*
X141415000Y-99685000D01*
X141415000Y-99155000D01*
X141435000Y-99155000D01*
X141435000Y-99685000D01*
X142640000Y-99685000D01*
X142720000Y-99605000D01*
X142721548Y-99395000D01*
X142715370Y-99332269D01*
X142697072Y-99271949D01*
X142667357Y-99216358D01*
X142627369Y-99167631D01*
X142578642Y-99127643D01*
X142523051Y-99097928D01*
X142462731Y-99079630D01*
X142400000Y-99073452D01*
X141515000Y-99075000D01*
X141435000Y-99155000D01*
X141415000Y-99155000D01*
X141335000Y-99075000D01*
X140450000Y-99073452D01*
X140387269Y-99079630D01*
X140326949Y-99097928D01*
X140271358Y-99127643D01*
X140222631Y-99167631D01*
X140182643Y-99216358D01*
X140152928Y-99271949D01*
X140134630Y-99332269D01*
X140128452Y-99395000D01*
X108300000Y-99395000D01*
X108300000Y-86410897D01*
X109980000Y-86410897D01*
X109980000Y-86789103D01*
X110053785Y-87160043D01*
X110198518Y-87509461D01*
X110408639Y-87823929D01*
X110676071Y-88091361D01*
X110990539Y-88301482D01*
X111339957Y-88446215D01*
X111710897Y-88520000D01*
X112089103Y-88520000D01*
X112460043Y-88446215D01*
X112809461Y-88301482D01*
X113123929Y-88091361D01*
X113391361Y-87823929D01*
X113396292Y-87816548D01*
X138900000Y-87816548D01*
X138900000Y-88383451D01*
X138917219Y-88558280D01*
X138985265Y-88782595D01*
X139095764Y-88989326D01*
X139244472Y-89170528D01*
X139425673Y-89319236D01*
X139632404Y-89429735D01*
X139856719Y-89497781D01*
X140090000Y-89520757D01*
X140323280Y-89497781D01*
X140547595Y-89429735D01*
X140754326Y-89319236D01*
X140935528Y-89170528D01*
X141084236Y-88989327D01*
X141194735Y-88782596D01*
X141262781Y-88558281D01*
X141280000Y-88383452D01*
X141280000Y-87816549D01*
X141280000Y-87816548D01*
X141440000Y-87816548D01*
X141440000Y-88383451D01*
X141457219Y-88558280D01*
X141525265Y-88782595D01*
X141635764Y-88989326D01*
X141784472Y-89170528D01*
X141965673Y-89319236D01*
X142172404Y-89429735D01*
X142396719Y-89497781D01*
X142630000Y-89520757D01*
X142863280Y-89497781D01*
X143087595Y-89429735D01*
X143294326Y-89319236D01*
X143475528Y-89170528D01*
X143624236Y-88989327D01*
X143734735Y-88782596D01*
X143802781Y-88558281D01*
X143820000Y-88383452D01*
X143820000Y-87816549D01*
X143820000Y-87816548D01*
X143980000Y-87816548D01*
X143980000Y-88383451D01*
X143997219Y-88558280D01*
X144065265Y-88782595D01*
X144175764Y-88989326D01*
X144324472Y-89170528D01*
X144505673Y-89319236D01*
X144712404Y-89429735D01*
X144936719Y-89497781D01*
X145170000Y-89520757D01*
X145403280Y-89497781D01*
X145627595Y-89429735D01*
X145834326Y-89319236D01*
X145985708Y-89195000D01*
X146518452Y-89195000D01*
X146524630Y-89257731D01*
X146542928Y-89318051D01*
X146572643Y-89373642D01*
X146612631Y-89422369D01*
X146661358Y-89462357D01*
X146716949Y-89492072D01*
X146777269Y-89510370D01*
X146840000Y-89516548D01*
X147620000Y-89515000D01*
X147700000Y-89435000D01*
X147700000Y-88110000D01*
X147720000Y-88110000D01*
X147720000Y-89435000D01*
X147800000Y-89515000D01*
X148580000Y-89516548D01*
X148642731Y-89510370D01*
X148703051Y-89492072D01*
X148758642Y-89462357D01*
X148807369Y-89422369D01*
X148847357Y-89373642D01*
X148877072Y-89318051D01*
X148895370Y-89257731D01*
X148901548Y-89195000D01*
X148900000Y-88190000D01*
X148820000Y-88110000D01*
X147720000Y-88110000D01*
X147700000Y-88110000D01*
X146600000Y-88110000D01*
X146520000Y-88190000D01*
X146518452Y-89195000D01*
X145985708Y-89195000D01*
X146015528Y-89170528D01*
X146164236Y-88989327D01*
X146274735Y-88782596D01*
X146342781Y-88558281D01*
X146360000Y-88383452D01*
X146360000Y-87816549D01*
X146342781Y-87641720D01*
X146274735Y-87417405D01*
X146164236Y-87210673D01*
X146015528Y-87029472D01*
X145985709Y-87005000D01*
X146518452Y-87005000D01*
X146520000Y-88010000D01*
X146600000Y-88090000D01*
X147700000Y-88090000D01*
X147700000Y-86765000D01*
X147720000Y-86765000D01*
X147720000Y-88090000D01*
X148820000Y-88090000D01*
X148900000Y-88010000D01*
X148901548Y-87005000D01*
X148895370Y-86942269D01*
X148877072Y-86881949D01*
X148847357Y-86826358D01*
X148807369Y-86777631D01*
X148758642Y-86737643D01*
X148703051Y-86707928D01*
X148642731Y-86689630D01*
X148580000Y-86683452D01*
X147800000Y-86685000D01*
X147720000Y-86765000D01*
X147700000Y-86765000D01*
X147620000Y-86685000D01*
X146840000Y-86683452D01*
X146777269Y-86689630D01*
X146716949Y-86707928D01*
X146661358Y-86737643D01*
X146612631Y-86777631D01*
X146572643Y-86826358D01*
X146542928Y-86881949D01*
X146524630Y-86942269D01*
X146518452Y-87005000D01*
X145985709Y-87005000D01*
X145834327Y-86880764D01*
X145627596Y-86770265D01*
X145403281Y-86702219D01*
X145170000Y-86679243D01*
X144936720Y-86702219D01*
X144712405Y-86770265D01*
X144505674Y-86880764D01*
X144324473Y-87029472D01*
X144175765Y-87210673D01*
X144065265Y-87417404D01*
X143997219Y-87641719D01*
X143980000Y-87816548D01*
X143820000Y-87816548D01*
X143802781Y-87641720D01*
X143734735Y-87417405D01*
X143624236Y-87210673D01*
X143475528Y-87029472D01*
X143294327Y-86880764D01*
X143087596Y-86770265D01*
X142863281Y-86702219D01*
X142630000Y-86679243D01*
X142396720Y-86702219D01*
X142172405Y-86770265D01*
X141965674Y-86880764D01*
X141784473Y-87029472D01*
X141635765Y-87210673D01*
X141525265Y-87417404D01*
X141457219Y-87641719D01*
X141440000Y-87816548D01*
X141280000Y-87816548D01*
X141262781Y-87641720D01*
X141194735Y-87417405D01*
X141084236Y-87210673D01*
X140935528Y-87029472D01*
X140754327Y-86880764D01*
X140547596Y-86770265D01*
X140323281Y-86702219D01*
X140090000Y-86679243D01*
X139856720Y-86702219D01*
X139632405Y-86770265D01*
X139425674Y-86880764D01*
X139244473Y-87029472D01*
X139095765Y-87210673D01*
X138985265Y-87417404D01*
X138917219Y-87641719D01*
X138900000Y-87816548D01*
X113396292Y-87816548D01*
X113601482Y-87509461D01*
X113746215Y-87160043D01*
X113820000Y-86789103D01*
X113820000Y-86410897D01*
X173980000Y-86410897D01*
X173980000Y-86789103D01*
X174053785Y-87160043D01*
X174198518Y-87509461D01*
X174408639Y-87823929D01*
X174676071Y-88091361D01*
X174990539Y-88301482D01*
X175339957Y-88446215D01*
X175710897Y-88520000D01*
X176089103Y-88520000D01*
X176460043Y-88446215D01*
X176809461Y-88301482D01*
X177123929Y-88091361D01*
X177391361Y-87823929D01*
X177601482Y-87509461D01*
X177746215Y-87160043D01*
X177820000Y-86789103D01*
X177820000Y-86410897D01*
X177746215Y-86039957D01*
X177601482Y-85690539D01*
X177391361Y-85376071D01*
X177123929Y-85108639D01*
X176809461Y-84898518D01*
X176460043Y-84753785D01*
X176089103Y-84680000D01*
X175710897Y-84680000D01*
X175339957Y-84753785D01*
X174990539Y-84898518D01*
X174676071Y-85108639D01*
X174408639Y-85376071D01*
X174198518Y-85690539D01*
X174053785Y-86039957D01*
X173980000Y-86410897D01*
X113820000Y-86410897D01*
X113746215Y-86039957D01*
X113601482Y-85690539D01*
X113391361Y-85376071D01*
X113123929Y-85108639D01*
X112809461Y-84898518D01*
X112460043Y-84753785D01*
X112089103Y-84680000D01*
X111710897Y-84680000D01*
X111339957Y-84753785D01*
X110990539Y-84898518D01*
X110676071Y-85108639D01*
X110408639Y-85376071D01*
X110198518Y-85690539D01*
X110053785Y-86039957D01*
X109980000Y-86410897D01*
X108300000Y-86410897D01*
X108300000Y-82945000D01*
X111916946Y-82945000D01*
X111917545Y-82944941D01*
X111922146Y-82944925D01*
X111937142Y-82943402D01*
X111952212Y-82943507D01*
X111957006Y-82943037D01*
X112539296Y-82881836D01*
X112569967Y-82875541D01*
X112600642Y-82869689D01*
X112605246Y-82868299D01*
X112605253Y-82868298D01*
X112605259Y-82868295D01*
X113164567Y-82695160D01*
X113193415Y-82683034D01*
X113222384Y-82671329D01*
X113226633Y-82669070D01*
X113226638Y-82669068D01*
X113226642Y-82669065D01*
X113741669Y-82390592D01*
X113767616Y-82373091D01*
X113793757Y-82355984D01*
X113797483Y-82352946D01*
X113797490Y-82352941D01*
X113797496Y-82352935D01*
X114248623Y-81979730D01*
X114270650Y-81957549D01*
X114292997Y-81935665D01*
X114296068Y-81931953D01*
X114666120Y-81478225D01*
X114683429Y-81452173D01*
X114701090Y-81426380D01*
X114703378Y-81422147D01*
X114703381Y-81422143D01*
X114703383Y-81422139D01*
X114978255Y-80905178D01*
X114990184Y-80876236D01*
X115002488Y-80847528D01*
X115003911Y-80842933D01*
X115003914Y-80842926D01*
X115003915Y-80842919D01*
X115173140Y-80282419D01*
X115179213Y-80251751D01*
X115185715Y-80221160D01*
X115186217Y-80216380D01*
X115186219Y-80216369D01*
X115186219Y-80216359D01*
X115243353Y-79633667D01*
X115245000Y-79616946D01*
X115245000Y-77000000D01*
X172555000Y-77000000D01*
X172555001Y-79616946D01*
G36*
X149055000Y-102284325D02*
G01*
X149055001Y-115040673D01*
X148900000Y-115195674D01*
X148900000Y-115110000D01*
X147720000Y-115110000D01*
X147720000Y-115130000D01*
X147700000Y-115130000D01*
X147700000Y-115110000D01*
X146520000Y-115110000D01*
X146520000Y-115335000D01*
X146544816Y-115566965D01*
X146614410Y-115789632D01*
X146726107Y-115994443D01*
X146793367Y-116075010D01*
X146093918Y-116075010D01*
X146164236Y-115989327D01*
X146274735Y-115782595D01*
X146342781Y-115558280D01*
X146360000Y-115383451D01*
X146360000Y-114865000D01*
X146520000Y-114865000D01*
X146520000Y-115090000D01*
X147700000Y-115090000D01*
X147700000Y-113765045D01*
X147720000Y-113765045D01*
X147720000Y-115090000D01*
X148900000Y-115090000D01*
X148900000Y-114865000D01*
X148875184Y-114633035D01*
X148805590Y-114410368D01*
X148693893Y-114205557D01*
X148544386Y-114026472D01*
X148362814Y-113879996D01*
X148156155Y-113771757D01*
X147932350Y-113705915D01*
X147906027Y-113701257D01*
X147720000Y-113765045D01*
X147700000Y-113765045D01*
X147513973Y-113701257D01*
X147487650Y-113705915D01*
X147263845Y-113771757D01*
X147057186Y-113879996D01*
X146875614Y-114026472D01*
X146726107Y-114205557D01*
X146614410Y-114410368D01*
X146544816Y-114633035D01*
X146520000Y-114865000D01*
X146360000Y-114865000D01*
X146360000Y-114816548D01*
X146342781Y-114641719D01*
X146274735Y-114417404D01*
X146164236Y-114210673D01*
X146015528Y-114029472D01*
X145834326Y-113880764D01*
X145627595Y-113770265D01*
X145615000Y-113766444D01*
X145615000Y-113214324D01*
X147974216Y-110855109D01*
X147991195Y-110841175D01*
X148046804Y-110773415D01*
X148088126Y-110696108D01*
X148113571Y-110612225D01*
X148120010Y-110546850D01*
X148120010Y-110546848D01*
X148122163Y-110524991D01*
X148120010Y-110503134D01*
X148120010Y-103096870D01*
X148122163Y-103075010D01*
X148113571Y-102987775D01*
X148088126Y-102903891D01*
X148046804Y-102826585D01*
X148005130Y-102775805D01*
X147991195Y-102758825D01*
X147974214Y-102744889D01*
X147666417Y-102437093D01*
X147671548Y-102385000D01*
X147671548Y-102085000D01*
X147662487Y-101993006D01*
X147635654Y-101904546D01*
X147592078Y-101823022D01*
X147533435Y-101751565D01*
X147461978Y-101692922D01*
X147380454Y-101649346D01*
X147291994Y-101622513D01*
X147200000Y-101613452D01*
X145550000Y-101613452D01*
X145458006Y-101622513D01*
X145445000Y-101626458D01*
X145445000Y-101573542D01*
X145458006Y-101577487D01*
X145550000Y-101586548D01*
X147200000Y-101586548D01*
X147291994Y-101577487D01*
X147380454Y-101550654D01*
X147461978Y-101507078D01*
X147533435Y-101448435D01*
X147536254Y-101445000D01*
X148215676Y-101445000D01*
X149055000Y-102284325D01*
G37*
X149055000Y-102284325D02*
X149055001Y-115040673D01*
X148900000Y-115195674D01*
X148900000Y-115110000D01*
X147720000Y-115110000D01*
X147720000Y-115130000D01*
X147700000Y-115130000D01*
X147700000Y-115110000D01*
X146520000Y-115110000D01*
X146520000Y-115335000D01*
X146544816Y-115566965D01*
X146614410Y-115789632D01*
X146726107Y-115994443D01*
X146793367Y-116075010D01*
X146093918Y-116075010D01*
X146164236Y-115989327D01*
X146274735Y-115782595D01*
X146342781Y-115558280D01*
X146360000Y-115383451D01*
X146360000Y-114865000D01*
X146520000Y-114865000D01*
X146520000Y-115090000D01*
X147700000Y-115090000D01*
X147700000Y-113765045D01*
X147720000Y-113765045D01*
X147720000Y-115090000D01*
X148900000Y-115090000D01*
X148900000Y-114865000D01*
X148875184Y-114633035D01*
X148805590Y-114410368D01*
X148693893Y-114205557D01*
X148544386Y-114026472D01*
X148362814Y-113879996D01*
X148156155Y-113771757D01*
X147932350Y-113705915D01*
X147906027Y-113701257D01*
X147720000Y-113765045D01*
X147700000Y-113765045D01*
X147513973Y-113701257D01*
X147487650Y-113705915D01*
X147263845Y-113771757D01*
X147057186Y-113879996D01*
X146875614Y-114026472D01*
X146726107Y-114205557D01*
X146614410Y-114410368D01*
X146544816Y-114633035D01*
X146520000Y-114865000D01*
X146360000Y-114865000D01*
X146360000Y-114816548D01*
X146342781Y-114641719D01*
X146274735Y-114417404D01*
X146164236Y-114210673D01*
X146015528Y-114029472D01*
X145834326Y-113880764D01*
X145627595Y-113770265D01*
X145615000Y-113766444D01*
X145615000Y-113214324D01*
X147974216Y-110855109D01*
X147991195Y-110841175D01*
X148046804Y-110773415D01*
X148088126Y-110696108D01*
X148113571Y-110612225D01*
X148120010Y-110546850D01*
X148120010Y-110546848D01*
X148122163Y-110524991D01*
X148120010Y-110503134D01*
X148120010Y-103096870D01*
X148122163Y-103075010D01*
X148113571Y-102987775D01*
X148088126Y-102903891D01*
X148046804Y-102826585D01*
X148005130Y-102775805D01*
X147991195Y-102758825D01*
X147974214Y-102744889D01*
X147666417Y-102437093D01*
X147671548Y-102385000D01*
X147671548Y-102085000D01*
X147662487Y-101993006D01*
X147635654Y-101904546D01*
X147592078Y-101823022D01*
X147533435Y-101751565D01*
X147461978Y-101692922D01*
X147380454Y-101649346D01*
X147291994Y-101622513D01*
X147200000Y-101613452D01*
X145550000Y-101613452D01*
X145458006Y-101622513D01*
X145445000Y-101626458D01*
X145445000Y-101573542D01*
X145458006Y-101577487D01*
X145550000Y-101586548D01*
X147200000Y-101586548D01*
X147291994Y-101577487D01*
X147380454Y-101550654D01*
X147461978Y-101507078D01*
X147533435Y-101448435D01*
X147536254Y-101445000D01*
X148215676Y-101445000D01*
X149055000Y-102284325D01*
M02*
