G04 #@! TF.GenerationSoftware,KiCad,Pcbnew,(5.1.6)-1*
G04 #@! TF.CreationDate,2022-06-26T15:17:10+10:00*
G04 #@! TF.ProjectId,wind_sensors,77696e64-5f73-4656-9e73-6f72732e6b69,rev?*
G04 #@! TF.SameCoordinates,Original*
G04 #@! TF.FileFunction,Copper,L1,Top*
G04 #@! TF.FilePolarity,Positive*
%FSLAX46Y46*%
G04 Gerber Fmt 4.6, Leading zero omitted, Abs format (unit mm)*
G04 Created by KiCad (PCBNEW (5.1.6)-1) date 2022-06-26 15:17:10*
%MOMM*%
%LPD*%
G01*
G04 APERTURE LIST*
G04 #@! TA.AperFunction,ComponentPad*
%ADD10O,2.190000X1.740000*%
G04 #@! TD*
G04 #@! TA.AperFunction,ComponentPad*
%ADD11O,1.740000X2.190000*%
G04 #@! TD*
G04 #@! TA.AperFunction,ViaPad*
%ADD12C,0.800000*%
G04 #@! TD*
G04 #@! TA.AperFunction,Conductor*
%ADD13C,0.250000*%
G04 #@! TD*
G04 #@! TA.AperFunction,Conductor*
%ADD14C,0.500000*%
G04 #@! TD*
G04 #@! TA.AperFunction,Conductor*
%ADD15C,0.200000*%
G04 #@! TD*
G04 APERTURE END LIST*
G04 #@! TA.AperFunction,SMDPad,CuDef*
G36*
G01*
X150050000Y-103856250D02*
X150050000Y-103343750D01*
G75*
G02*
X150268750Y-103125000I218750J0D01*
G01*
X150706250Y-103125000D01*
G75*
G02*
X150925000Y-103343750I0J-218750D01*
G01*
X150925000Y-103856250D01*
G75*
G02*
X150706250Y-104075000I-218750J0D01*
G01*
X150268750Y-104075000D01*
G75*
G02*
X150050000Y-103856250I0J218750D01*
G01*
G37*
G04 #@! TD.AperFunction*
G04 #@! TA.AperFunction,SMDPad,CuDef*
G36*
G01*
X148475000Y-103856250D02*
X148475000Y-103343750D01*
G75*
G02*
X148693750Y-103125000I218750J0D01*
G01*
X149131250Y-103125000D01*
G75*
G02*
X149350000Y-103343750I0J-218750D01*
G01*
X149350000Y-103856250D01*
G75*
G02*
X149131250Y-104075000I-218750J0D01*
G01*
X148693750Y-104075000D01*
G75*
G02*
X148475000Y-103856250I0J218750D01*
G01*
G37*
G04 #@! TD.AperFunction*
G04 #@! TA.AperFunction,SMDPad,CuDef*
G36*
G01*
X135750000Y-85943750D02*
X135750000Y-86456250D01*
G75*
G02*
X135531250Y-86675000I-218750J0D01*
G01*
X135093750Y-86675000D01*
G75*
G02*
X134875000Y-86456250I0J218750D01*
G01*
X134875000Y-85943750D01*
G75*
G02*
X135093750Y-85725000I218750J0D01*
G01*
X135531250Y-85725000D01*
G75*
G02*
X135750000Y-85943750I0J-218750D01*
G01*
G37*
G04 #@! TD.AperFunction*
G04 #@! TA.AperFunction,SMDPad,CuDef*
G36*
G01*
X137325000Y-85943750D02*
X137325000Y-86456250D01*
G75*
G02*
X137106250Y-86675000I-218750J0D01*
G01*
X136668750Y-86675000D01*
G75*
G02*
X136450000Y-86456250I0J218750D01*
G01*
X136450000Y-85943750D01*
G75*
G02*
X136668750Y-85725000I218750J0D01*
G01*
X137106250Y-85725000D01*
G75*
G02*
X137325000Y-85943750I0J-218750D01*
G01*
G37*
G04 #@! TD.AperFunction*
G04 #@! TA.AperFunction,SMDPad,CuDef*
G36*
G01*
X135750000Y-87743750D02*
X135750000Y-88256250D01*
G75*
G02*
X135531250Y-88475000I-218750J0D01*
G01*
X135093750Y-88475000D01*
G75*
G02*
X134875000Y-88256250I0J218750D01*
G01*
X134875000Y-87743750D01*
G75*
G02*
X135093750Y-87525000I218750J0D01*
G01*
X135531250Y-87525000D01*
G75*
G02*
X135750000Y-87743750I0J-218750D01*
G01*
G37*
G04 #@! TD.AperFunction*
G04 #@! TA.AperFunction,SMDPad,CuDef*
G36*
G01*
X137325000Y-87743750D02*
X137325000Y-88256250D01*
G75*
G02*
X137106250Y-88475000I-218750J0D01*
G01*
X136668750Y-88475000D01*
G75*
G02*
X136450000Y-88256250I0J218750D01*
G01*
X136450000Y-87743750D01*
G75*
G02*
X136668750Y-87525000I218750J0D01*
G01*
X137106250Y-87525000D01*
G75*
G02*
X137325000Y-87743750I0J-218750D01*
G01*
G37*
G04 #@! TD.AperFunction*
G04 #@! TA.AperFunction,SMDPad,CuDef*
G36*
G01*
X145400000Y-99845000D02*
X145400000Y-99545000D01*
G75*
G02*
X145550000Y-99395000I150000J0D01*
G01*
X147200000Y-99395000D01*
G75*
G02*
X147350000Y-99545000I0J-150000D01*
G01*
X147350000Y-99845000D01*
G75*
G02*
X147200000Y-99995000I-150000J0D01*
G01*
X145550000Y-99995000D01*
G75*
G02*
X145400000Y-99845000I0J150000D01*
G01*
G37*
G04 #@! TD.AperFunction*
G04 #@! TA.AperFunction,SMDPad,CuDef*
G36*
G01*
X145400000Y-101115000D02*
X145400000Y-100815000D01*
G75*
G02*
X145550000Y-100665000I150000J0D01*
G01*
X147200000Y-100665000D01*
G75*
G02*
X147350000Y-100815000I0J-150000D01*
G01*
X147350000Y-101115000D01*
G75*
G02*
X147200000Y-101265000I-150000J0D01*
G01*
X145550000Y-101265000D01*
G75*
G02*
X145400000Y-101115000I0J150000D01*
G01*
G37*
G04 #@! TD.AperFunction*
G04 #@! TA.AperFunction,SMDPad,CuDef*
G36*
G01*
X145400000Y-102385000D02*
X145400000Y-102085000D01*
G75*
G02*
X145550000Y-101935000I150000J0D01*
G01*
X147200000Y-101935000D01*
G75*
G02*
X147350000Y-102085000I0J-150000D01*
G01*
X147350000Y-102385000D01*
G75*
G02*
X147200000Y-102535000I-150000J0D01*
G01*
X145550000Y-102535000D01*
G75*
G02*
X145400000Y-102385000I0J150000D01*
G01*
G37*
G04 #@! TD.AperFunction*
G04 #@! TA.AperFunction,SMDPad,CuDef*
G36*
G01*
X145400000Y-103655000D02*
X145400000Y-103355000D01*
G75*
G02*
X145550000Y-103205000I150000J0D01*
G01*
X147200000Y-103205000D01*
G75*
G02*
X147350000Y-103355000I0J-150000D01*
G01*
X147350000Y-103655000D01*
G75*
G02*
X147200000Y-103805000I-150000J0D01*
G01*
X145550000Y-103805000D01*
G75*
G02*
X145400000Y-103655000I0J150000D01*
G01*
G37*
G04 #@! TD.AperFunction*
G04 #@! TA.AperFunction,SMDPad,CuDef*
G36*
G01*
X140450000Y-103655000D02*
X140450000Y-103355000D01*
G75*
G02*
X140600000Y-103205000I150000J0D01*
G01*
X142250000Y-103205000D01*
G75*
G02*
X142400000Y-103355000I0J-150000D01*
G01*
X142400000Y-103655000D01*
G75*
G02*
X142250000Y-103805000I-150000J0D01*
G01*
X140600000Y-103805000D01*
G75*
G02*
X140450000Y-103655000I0J150000D01*
G01*
G37*
G04 #@! TD.AperFunction*
G04 #@! TA.AperFunction,SMDPad,CuDef*
G36*
G01*
X140450000Y-102385000D02*
X140450000Y-102085000D01*
G75*
G02*
X140600000Y-101935000I150000J0D01*
G01*
X142250000Y-101935000D01*
G75*
G02*
X142400000Y-102085000I0J-150000D01*
G01*
X142400000Y-102385000D01*
G75*
G02*
X142250000Y-102535000I-150000J0D01*
G01*
X140600000Y-102535000D01*
G75*
G02*
X140450000Y-102385000I0J150000D01*
G01*
G37*
G04 #@! TD.AperFunction*
G04 #@! TA.AperFunction,SMDPad,CuDef*
G36*
G01*
X140450000Y-101115000D02*
X140450000Y-100815000D01*
G75*
G02*
X140600000Y-100665000I150000J0D01*
G01*
X142250000Y-100665000D01*
G75*
G02*
X142400000Y-100815000I0J-150000D01*
G01*
X142400000Y-101115000D01*
G75*
G02*
X142250000Y-101265000I-150000J0D01*
G01*
X140600000Y-101265000D01*
G75*
G02*
X140450000Y-101115000I0J150000D01*
G01*
G37*
G04 #@! TD.AperFunction*
G04 #@! TA.AperFunction,SMDPad,CuDef*
G36*
G01*
X140450000Y-99845000D02*
X140450000Y-99545000D01*
G75*
G02*
X140600000Y-99395000I150000J0D01*
G01*
X142250000Y-99395000D01*
G75*
G02*
X142400000Y-99545000I0J-150000D01*
G01*
X142400000Y-99845000D01*
G75*
G02*
X142250000Y-99995000I-150000J0D01*
G01*
X140600000Y-99995000D01*
G75*
G02*
X140450000Y-99845000I0J150000D01*
G01*
G37*
G04 #@! TD.AperFunction*
D10*
X159200000Y-104160000D03*
X159200000Y-101620000D03*
G04 #@! TA.AperFunction,ComponentPad*
G36*
G01*
X158354999Y-98210000D02*
X160045001Y-98210000D01*
G75*
G02*
X160295000Y-98459999I0J-249999D01*
G01*
X160295000Y-99700001D01*
G75*
G02*
X160045001Y-99950000I-249999J0D01*
G01*
X158354999Y-99950000D01*
G75*
G02*
X158105000Y-99700001I0J249999D01*
G01*
X158105000Y-98459999D01*
G75*
G02*
X158354999Y-98210000I249999J0D01*
G01*
G37*
G04 #@! TD.AperFunction*
D11*
X140090000Y-88100000D03*
X142630000Y-88100000D03*
X145170000Y-88100000D03*
G04 #@! TA.AperFunction,ComponentPad*
G36*
G01*
X148580000Y-87254999D02*
X148580000Y-88945001D01*
G75*
G02*
X148330001Y-89195000I-249999J0D01*
G01*
X147089999Y-89195000D01*
G75*
G02*
X146840000Y-88945001I0J249999D01*
G01*
X146840000Y-87254999D01*
G75*
G02*
X147089999Y-87005000I249999J0D01*
G01*
X148330001Y-87005000D01*
G75*
G02*
X148580000Y-87254999I0J-249999D01*
G01*
G37*
G04 #@! TD.AperFunction*
X147710000Y-115100000D03*
X145170000Y-115100000D03*
X142630000Y-115100000D03*
G04 #@! TA.AperFunction,ComponentPad*
G36*
G01*
X139220000Y-115945001D02*
X139220000Y-114254999D01*
G75*
G02*
X139469999Y-114005000I249999J0D01*
G01*
X140710001Y-114005000D01*
G75*
G02*
X140960000Y-114254999I0J-249999D01*
G01*
X140960000Y-115945001D01*
G75*
G02*
X140710001Y-116195000I-249999J0D01*
G01*
X139469999Y-116195000D01*
G75*
G02*
X139220000Y-115945001I0J249999D01*
G01*
G37*
G04 #@! TD.AperFunction*
G04 #@! TA.AperFunction,SMDPad,CuDef*
G36*
G01*
X150050000Y-105756250D02*
X150050000Y-105243750D01*
G75*
G02*
X150268750Y-105025000I218750J0D01*
G01*
X150706250Y-105025000D01*
G75*
G02*
X150925000Y-105243750I0J-218750D01*
G01*
X150925000Y-105756250D01*
G75*
G02*
X150706250Y-105975000I-218750J0D01*
G01*
X150268750Y-105975000D01*
G75*
G02*
X150050000Y-105756250I0J218750D01*
G01*
G37*
G04 #@! TD.AperFunction*
G04 #@! TA.AperFunction,SMDPad,CuDef*
G36*
G01*
X148475000Y-105756250D02*
X148475000Y-105243750D01*
G75*
G02*
X148693750Y-105025000I218750J0D01*
G01*
X149131250Y-105025000D01*
G75*
G02*
X149350000Y-105243750I0J-218750D01*
G01*
X149350000Y-105756250D01*
G75*
G02*
X149131250Y-105975000I-218750J0D01*
G01*
X148693750Y-105975000D01*
G75*
G02*
X148475000Y-105756250I0J218750D01*
G01*
G37*
G04 #@! TD.AperFunction*
D12*
X152000000Y-103600000D03*
X152000000Y-105500000D03*
X139300000Y-99700000D03*
X142800000Y-98100000D03*
X145200000Y-98100000D03*
X135800000Y-102300000D03*
X145700000Y-108700000D03*
X145700000Y-110500000D03*
X150500000Y-100700000D03*
X154800000Y-100700000D03*
X154800000Y-98100000D03*
X133900000Y-86200000D03*
X133900000Y-88000000D03*
X129700000Y-81600000D03*
X136620000Y-81600000D03*
X143540000Y-81600000D03*
X150460000Y-81600000D03*
X157380000Y-81600000D03*
X129700000Y-86985714D03*
X129700000Y-92371428D03*
X129700000Y-97757142D03*
X129700000Y-103142856D03*
X129700000Y-108528570D03*
X129700000Y-113914284D03*
X129700000Y-119300000D03*
X136620000Y-119300000D03*
X150460000Y-119300000D03*
X143540000Y-119300000D03*
X157380000Y-119300000D03*
X164300000Y-86885714D03*
X164300000Y-97657142D03*
X164300000Y-108428570D03*
X164300000Y-119200000D03*
X164300000Y-92271428D03*
X164300000Y-103042856D03*
X164300000Y-81500000D03*
X164300000Y-113814284D03*
X142800000Y-95600000D03*
X145200000Y-95600000D03*
X142800000Y-92850000D03*
X145200000Y-92850000D03*
X142800000Y-90100000D03*
X145200000Y-90100000D03*
X148600000Y-98100000D03*
X148600000Y-107000000D03*
X141500000Y-105000000D03*
X144000000Y-105000000D03*
X146500000Y-105000000D03*
D13*
X143800000Y-99200000D02*
X143300000Y-99700000D01*
X142630000Y-88100000D02*
X142630000Y-88780000D01*
X143300000Y-99700000D02*
X141500000Y-99700000D01*
X142630000Y-88780000D02*
X143800000Y-89950000D01*
X143800000Y-89950000D02*
X143800000Y-99200000D01*
X146000000Y-99700000D02*
X146100000Y-99600000D01*
X145170000Y-88100000D02*
X145170000Y-89030000D01*
X145170000Y-89030000D02*
X144250010Y-89949990D01*
X144250010Y-99150010D02*
X144800000Y-99700000D01*
X144800000Y-99700000D02*
X146000000Y-99700000D01*
X144250010Y-89949990D02*
X144250010Y-99150010D01*
D14*
X136800000Y-88000000D02*
X136800000Y-86100000D01*
X148912500Y-103600000D02*
X148912500Y-105487500D01*
X148912500Y-105487500D02*
X149200000Y-105200000D01*
X148900000Y-100600000D02*
X148900000Y-103600000D01*
X150500000Y-99000000D02*
X148900000Y-100600000D01*
X150500000Y-86200000D02*
X150500000Y-99000000D01*
X146700000Y-103600000D02*
X146800000Y-103500000D01*
X140100000Y-88000000D02*
X140100000Y-86300000D01*
X136887500Y-88000000D02*
X140100000Y-88000000D01*
X149300000Y-85000000D02*
X150500000Y-86200000D01*
X141400000Y-85000000D02*
X149300000Y-85000000D01*
X148900000Y-103600000D02*
X146700000Y-103600000D01*
X140100000Y-86300000D02*
X141400000Y-85000000D01*
D15*
G36*
X172555001Y-79616946D02*
G01*
X172555059Y-79617534D01*
X172555075Y-79622146D01*
X172556598Y-79637142D01*
X172556493Y-79652212D01*
X172556963Y-79657006D01*
X172618164Y-80239296D01*
X172624459Y-80269967D01*
X172630311Y-80300642D01*
X172631701Y-80305246D01*
X172631702Y-80305253D01*
X172631705Y-80305259D01*
X172804840Y-80864567D01*
X172816966Y-80893415D01*
X172828671Y-80922384D01*
X172830930Y-80926633D01*
X172830932Y-80926638D01*
X172830935Y-80926642D01*
X173109408Y-81441669D01*
X173126909Y-81467616D01*
X173144016Y-81493757D01*
X173147054Y-81497483D01*
X173147059Y-81497490D01*
X173147065Y-81497496D01*
X173520270Y-81948623D01*
X173542451Y-81970650D01*
X173564335Y-81992997D01*
X173568047Y-81996068D01*
X174021775Y-82366120D01*
X174047827Y-82383429D01*
X174073620Y-82401090D01*
X174077853Y-82403378D01*
X174077857Y-82403381D01*
X174077861Y-82403383D01*
X174594822Y-82678255D01*
X174623764Y-82690184D01*
X174652472Y-82702488D01*
X174657067Y-82703911D01*
X174657074Y-82703914D01*
X174657081Y-82703915D01*
X175217581Y-82873140D01*
X175248249Y-82879213D01*
X175278840Y-82885715D01*
X175283620Y-82886217D01*
X175283631Y-82886219D01*
X175283641Y-82886219D01*
X175865944Y-82943315D01*
X175883054Y-82945000D01*
X179500000Y-82945000D01*
X179500000Y-120255000D01*
X175883054Y-120255000D01*
X175882455Y-120255059D01*
X175877854Y-120255075D01*
X175862858Y-120256598D01*
X175847788Y-120256493D01*
X175842993Y-120256963D01*
X175260704Y-120318164D01*
X175230033Y-120324459D01*
X175199358Y-120330311D01*
X175194757Y-120331700D01*
X175194747Y-120331702D01*
X175194738Y-120331706D01*
X174635433Y-120504840D01*
X174606585Y-120516966D01*
X174577616Y-120528671D01*
X174573367Y-120530930D01*
X174573362Y-120530932D01*
X174573361Y-120530933D01*
X174058331Y-120809408D01*
X174032384Y-120826909D01*
X174006243Y-120844016D01*
X174002517Y-120847054D01*
X174002510Y-120847059D01*
X174002504Y-120847065D01*
X173551377Y-121220270D01*
X173529350Y-121242451D01*
X173507003Y-121264335D01*
X173503932Y-121268047D01*
X173133880Y-121721775D01*
X173116554Y-121747853D01*
X173098911Y-121773620D01*
X173096619Y-121777857D01*
X172821745Y-122294822D01*
X172809824Y-122323743D01*
X172797511Y-122352472D01*
X172796090Y-122357063D01*
X172796086Y-122357073D01*
X172796084Y-122357083D01*
X172626860Y-122917581D01*
X172620787Y-122948249D01*
X172614285Y-122978840D01*
X172613783Y-122983620D01*
X172613781Y-122983631D01*
X172613781Y-122983641D01*
X172556647Y-123566334D01*
X172556647Y-123566341D01*
X172555001Y-123583054D01*
X172555000Y-126200000D01*
X115245000Y-126200000D01*
X115245000Y-123583054D01*
X115244941Y-123582455D01*
X115244925Y-123577854D01*
X115243402Y-123562858D01*
X115243507Y-123547788D01*
X115243037Y-123542993D01*
X115181836Y-122960704D01*
X115175541Y-122930033D01*
X115169689Y-122899358D01*
X115168300Y-122894757D01*
X115168298Y-122894747D01*
X115168294Y-122894738D01*
X114995160Y-122335433D01*
X114983034Y-122306585D01*
X114971329Y-122277616D01*
X114969068Y-122273363D01*
X114969068Y-122273362D01*
X114969065Y-122273358D01*
X114690592Y-121758331D01*
X114673091Y-121732384D01*
X114655984Y-121706243D01*
X114652946Y-121702517D01*
X114652941Y-121702510D01*
X114652935Y-121702504D01*
X114279730Y-121251377D01*
X114257549Y-121229350D01*
X114235665Y-121207003D01*
X114231953Y-121203932D01*
X113778225Y-120833880D01*
X113752147Y-120816554D01*
X113726380Y-120798911D01*
X113722143Y-120796619D01*
X113205178Y-120521745D01*
X113176257Y-120509824D01*
X113147528Y-120497511D01*
X113142937Y-120496090D01*
X113142927Y-120496086D01*
X113142917Y-120496084D01*
X112582419Y-120326860D01*
X112551751Y-120320787D01*
X112521160Y-120314285D01*
X112516380Y-120313783D01*
X112516369Y-120313781D01*
X112516359Y-120313781D01*
X111934280Y-120256707D01*
X111916946Y-120255000D01*
X108300000Y-120255000D01*
X108300000Y-116410897D01*
X109980000Y-116410897D01*
X109980000Y-116789103D01*
X110053785Y-117160043D01*
X110198518Y-117509461D01*
X110408639Y-117823929D01*
X110676071Y-118091361D01*
X110990539Y-118301482D01*
X111339957Y-118446215D01*
X111710897Y-118520000D01*
X112089103Y-118520000D01*
X112460043Y-118446215D01*
X112809461Y-118301482D01*
X113123929Y-118091361D01*
X113391361Y-117823929D01*
X113601482Y-117509461D01*
X113746215Y-117160043D01*
X113820000Y-116789103D01*
X113820000Y-116410897D01*
X113746215Y-116039957D01*
X113601482Y-115690539D01*
X113391361Y-115376071D01*
X113123929Y-115108639D01*
X112809461Y-114898518D01*
X112460043Y-114753785D01*
X112089103Y-114680000D01*
X111710897Y-114680000D01*
X111339957Y-114753785D01*
X110990539Y-114898518D01*
X110676071Y-115108639D01*
X110408639Y-115376071D01*
X110198518Y-115690539D01*
X110053785Y-116039957D01*
X109980000Y-116410897D01*
X108300000Y-116410897D01*
X108300000Y-114254999D01*
X138898452Y-114254999D01*
X138898452Y-115945001D01*
X138909434Y-116056504D01*
X138941958Y-116163723D01*
X138994775Y-116262535D01*
X139065854Y-116349146D01*
X139152465Y-116420225D01*
X139251277Y-116473042D01*
X139358496Y-116505566D01*
X139469999Y-116516548D01*
X140710001Y-116516548D01*
X140821504Y-116505566D01*
X140928723Y-116473042D01*
X141027535Y-116420225D01*
X141114146Y-116349146D01*
X141185225Y-116262535D01*
X141238042Y-116163723D01*
X141270566Y-116056504D01*
X141281548Y-115945001D01*
X141281548Y-114816549D01*
X141440000Y-114816549D01*
X141440000Y-115383452D01*
X141457219Y-115558281D01*
X141525265Y-115782596D01*
X141635765Y-115989327D01*
X141784473Y-116170528D01*
X141965674Y-116319236D01*
X142172405Y-116429735D01*
X142396720Y-116497781D01*
X142630000Y-116520757D01*
X142863281Y-116497781D01*
X143087596Y-116429735D01*
X143294327Y-116319236D01*
X143475528Y-116170528D01*
X143624236Y-115989327D01*
X143734735Y-115782595D01*
X143802781Y-115558280D01*
X143820000Y-115383451D01*
X143820000Y-114816549D01*
X143980000Y-114816549D01*
X143980000Y-115383452D01*
X143997219Y-115558281D01*
X144065265Y-115782596D01*
X144175765Y-115989327D01*
X144324473Y-116170528D01*
X144505674Y-116319236D01*
X144712405Y-116429735D01*
X144936720Y-116497781D01*
X145170000Y-116520757D01*
X145403281Y-116497781D01*
X145627596Y-116429735D01*
X145834327Y-116319236D01*
X146015528Y-116170528D01*
X146164236Y-115989327D01*
X146274735Y-115782595D01*
X146342781Y-115558280D01*
X146360000Y-115383451D01*
X146360000Y-115110000D01*
X146520000Y-115110000D01*
X146520000Y-115335000D01*
X146544816Y-115566965D01*
X146614410Y-115789632D01*
X146726107Y-115994443D01*
X146875614Y-116173528D01*
X147057186Y-116320004D01*
X147263845Y-116428243D01*
X147487650Y-116494085D01*
X147513973Y-116498743D01*
X147700000Y-116434955D01*
X147700000Y-115110000D01*
X147720000Y-115110000D01*
X147720000Y-116434955D01*
X147906027Y-116498743D01*
X147932350Y-116494085D01*
X148156155Y-116428243D01*
X148189273Y-116410897D01*
X173980000Y-116410897D01*
X173980000Y-116789103D01*
X174053785Y-117160043D01*
X174198518Y-117509461D01*
X174408639Y-117823929D01*
X174676071Y-118091361D01*
X174990539Y-118301482D01*
X175339957Y-118446215D01*
X175710897Y-118520000D01*
X176089103Y-118520000D01*
X176460043Y-118446215D01*
X176809461Y-118301482D01*
X177123929Y-118091361D01*
X177391361Y-117823929D01*
X177601482Y-117509461D01*
X177746215Y-117160043D01*
X177820000Y-116789103D01*
X177820000Y-116410897D01*
X177746215Y-116039957D01*
X177601482Y-115690539D01*
X177391361Y-115376071D01*
X177123929Y-115108639D01*
X176809461Y-114898518D01*
X176460043Y-114753785D01*
X176089103Y-114680000D01*
X175710897Y-114680000D01*
X175339957Y-114753785D01*
X174990539Y-114898518D01*
X174676071Y-115108639D01*
X174408639Y-115376071D01*
X174198518Y-115690539D01*
X174053785Y-116039957D01*
X173980000Y-116410897D01*
X148189273Y-116410897D01*
X148362814Y-116320004D01*
X148544386Y-116173528D01*
X148693893Y-115994443D01*
X148805590Y-115789632D01*
X148875184Y-115566965D01*
X148900000Y-115335000D01*
X148900000Y-115110000D01*
X147720000Y-115110000D01*
X147700000Y-115110000D01*
X146520000Y-115110000D01*
X146360000Y-115110000D01*
X146360000Y-114865000D01*
X146520000Y-114865000D01*
X146520000Y-115090000D01*
X147700000Y-115090000D01*
X147700000Y-113765045D01*
X147720000Y-113765045D01*
X147720000Y-115090000D01*
X148900000Y-115090000D01*
X148900000Y-114865000D01*
X148875184Y-114633035D01*
X148805590Y-114410368D01*
X148693893Y-114205557D01*
X148544386Y-114026472D01*
X148362814Y-113879996D01*
X148156155Y-113771757D01*
X147932350Y-113705915D01*
X147906027Y-113701257D01*
X147720000Y-113765045D01*
X147700000Y-113765045D01*
X147513973Y-113701257D01*
X147487650Y-113705915D01*
X147263845Y-113771757D01*
X147057186Y-113879996D01*
X146875614Y-114026472D01*
X146726107Y-114205557D01*
X146614410Y-114410368D01*
X146544816Y-114633035D01*
X146520000Y-114865000D01*
X146360000Y-114865000D01*
X146360000Y-114816548D01*
X146342781Y-114641719D01*
X146274735Y-114417404D01*
X146164236Y-114210673D01*
X146015528Y-114029472D01*
X145834326Y-113880764D01*
X145627595Y-113770265D01*
X145403280Y-113702219D01*
X145170000Y-113679243D01*
X144936719Y-113702219D01*
X144712404Y-113770265D01*
X144505673Y-113880764D01*
X144324472Y-114029472D01*
X144175764Y-114210674D01*
X144065265Y-114417405D01*
X143997219Y-114641720D01*
X143980000Y-114816549D01*
X143820000Y-114816549D01*
X143820000Y-114816548D01*
X143802781Y-114641719D01*
X143734735Y-114417404D01*
X143624236Y-114210673D01*
X143475528Y-114029472D01*
X143294326Y-113880764D01*
X143087595Y-113770265D01*
X142863280Y-113702219D01*
X142630000Y-113679243D01*
X142396719Y-113702219D01*
X142172404Y-113770265D01*
X141965673Y-113880764D01*
X141784472Y-114029472D01*
X141635764Y-114210674D01*
X141525265Y-114417405D01*
X141457219Y-114641720D01*
X141440000Y-114816549D01*
X141281548Y-114816549D01*
X141281548Y-114254999D01*
X141270566Y-114143496D01*
X141238042Y-114036277D01*
X141185225Y-113937465D01*
X141114146Y-113850854D01*
X141027535Y-113779775D01*
X140928723Y-113726958D01*
X140821504Y-113694434D01*
X140710001Y-113683452D01*
X139469999Y-113683452D01*
X139358496Y-113694434D01*
X139251277Y-113726958D01*
X139152465Y-113779775D01*
X139065854Y-113850854D01*
X138994775Y-113937465D01*
X138941958Y-114036277D01*
X138909434Y-114143496D01*
X138898452Y-114254999D01*
X108300000Y-114254999D01*
X108300000Y-103355000D01*
X140128452Y-103355000D01*
X140128452Y-103655000D01*
X140137513Y-103746994D01*
X140164346Y-103835454D01*
X140207922Y-103916978D01*
X140266565Y-103988435D01*
X140338022Y-104047078D01*
X140419546Y-104090654D01*
X140508006Y-104117487D01*
X140600000Y-104126548D01*
X142250000Y-104126548D01*
X142341994Y-104117487D01*
X142430454Y-104090654D01*
X142511978Y-104047078D01*
X142583435Y-103988435D01*
X142642078Y-103916978D01*
X142685654Y-103835454D01*
X142712487Y-103746994D01*
X142721548Y-103655000D01*
X142721548Y-103355000D01*
X142712487Y-103263006D01*
X142685654Y-103174546D01*
X142642078Y-103093022D01*
X142583435Y-103021565D01*
X142511978Y-102962922D01*
X142430454Y-102919346D01*
X142341994Y-102892513D01*
X142250000Y-102883452D01*
X140600000Y-102883452D01*
X140508006Y-102892513D01*
X140419546Y-102919346D01*
X140338022Y-102962922D01*
X140266565Y-103021565D01*
X140207922Y-103093022D01*
X140164346Y-103174546D01*
X140137513Y-103263006D01*
X140128452Y-103355000D01*
X108300000Y-103355000D01*
X108300000Y-102085000D01*
X140128452Y-102085000D01*
X140128452Y-102385000D01*
X140137513Y-102476994D01*
X140164346Y-102565454D01*
X140207922Y-102646978D01*
X140266565Y-102718435D01*
X140338022Y-102777078D01*
X140419546Y-102820654D01*
X140508006Y-102847487D01*
X140600000Y-102856548D01*
X142250000Y-102856548D01*
X142341994Y-102847487D01*
X142430454Y-102820654D01*
X142511978Y-102777078D01*
X142583435Y-102718435D01*
X142642078Y-102646978D01*
X142685654Y-102565454D01*
X142712487Y-102476994D01*
X142721548Y-102385000D01*
X142721548Y-102085000D01*
X145078452Y-102085000D01*
X145078452Y-102385000D01*
X145087513Y-102476994D01*
X145114346Y-102565454D01*
X145157922Y-102646978D01*
X145216565Y-102718435D01*
X145288022Y-102777078D01*
X145369546Y-102820654D01*
X145458006Y-102847487D01*
X145550000Y-102856548D01*
X147200000Y-102856548D01*
X147291994Y-102847487D01*
X147380454Y-102820654D01*
X147461978Y-102777078D01*
X147533435Y-102718435D01*
X147592078Y-102646978D01*
X147635654Y-102565454D01*
X147662487Y-102476994D01*
X147671548Y-102385000D01*
X147671548Y-102085000D01*
X147662487Y-101993006D01*
X147635654Y-101904546D01*
X147592078Y-101823022D01*
X147533435Y-101751565D01*
X147461978Y-101692922D01*
X147380454Y-101649346D01*
X147291994Y-101622513D01*
X147200000Y-101613452D01*
X145550000Y-101613452D01*
X145458006Y-101622513D01*
X145369546Y-101649346D01*
X145288022Y-101692922D01*
X145216565Y-101751565D01*
X145157922Y-101823022D01*
X145114346Y-101904546D01*
X145087513Y-101993006D01*
X145078452Y-102085000D01*
X142721548Y-102085000D01*
X142712487Y-101993006D01*
X142685654Y-101904546D01*
X142642078Y-101823022D01*
X142583435Y-101751565D01*
X142511978Y-101692922D01*
X142430454Y-101649346D01*
X142341994Y-101622513D01*
X142250000Y-101613452D01*
X140600000Y-101613452D01*
X140508006Y-101622513D01*
X140419546Y-101649346D01*
X140338022Y-101692922D01*
X140266565Y-101751565D01*
X140207922Y-101823022D01*
X140164346Y-101904546D01*
X140137513Y-101993006D01*
X140128452Y-102085000D01*
X108300000Y-102085000D01*
X108300000Y-101265000D01*
X140128452Y-101265000D01*
X140134630Y-101327731D01*
X140152928Y-101388051D01*
X140182643Y-101443642D01*
X140222631Y-101492369D01*
X140271358Y-101532357D01*
X140326949Y-101562072D01*
X140387269Y-101580370D01*
X140450000Y-101586548D01*
X141335000Y-101585000D01*
X141415000Y-101505000D01*
X141415000Y-100975000D01*
X141435000Y-100975000D01*
X141435000Y-101505000D01*
X141515000Y-101585000D01*
X142400000Y-101586548D01*
X142462731Y-101580370D01*
X142523051Y-101562072D01*
X142578642Y-101532357D01*
X142627369Y-101492369D01*
X142667357Y-101443642D01*
X142697072Y-101388051D01*
X142715370Y-101327731D01*
X142721548Y-101265000D01*
X145078452Y-101265000D01*
X145084630Y-101327731D01*
X145102928Y-101388051D01*
X145132643Y-101443642D01*
X145172631Y-101492369D01*
X145221358Y-101532357D01*
X145276949Y-101562072D01*
X145337269Y-101580370D01*
X145400000Y-101586548D01*
X146285000Y-101585000D01*
X146365000Y-101505000D01*
X146365000Y-100975000D01*
X146385000Y-100975000D01*
X146385000Y-101505000D01*
X146465000Y-101585000D01*
X147350000Y-101586548D01*
X147412731Y-101580370D01*
X147473051Y-101562072D01*
X147528642Y-101532357D01*
X147577369Y-101492369D01*
X147617357Y-101443642D01*
X147647072Y-101388051D01*
X147665370Y-101327731D01*
X147671548Y-101265000D01*
X147670000Y-101055000D01*
X147590000Y-100975000D01*
X146385000Y-100975000D01*
X146365000Y-100975000D01*
X145160000Y-100975000D01*
X145080000Y-101055000D01*
X145078452Y-101265000D01*
X142721548Y-101265000D01*
X142720000Y-101055000D01*
X142640000Y-100975000D01*
X141435000Y-100975000D01*
X141415000Y-100975000D01*
X140210000Y-100975000D01*
X140130000Y-101055000D01*
X140128452Y-101265000D01*
X108300000Y-101265000D01*
X108300000Y-100665000D01*
X140128452Y-100665000D01*
X140130000Y-100875000D01*
X140210000Y-100955000D01*
X141415000Y-100955000D01*
X141415000Y-100425000D01*
X141435000Y-100425000D01*
X141435000Y-100955000D01*
X142640000Y-100955000D01*
X142720000Y-100875000D01*
X142721548Y-100665000D01*
X145078452Y-100665000D01*
X145080000Y-100875000D01*
X145160000Y-100955000D01*
X146365000Y-100955000D01*
X146365000Y-100425000D01*
X146385000Y-100425000D01*
X146385000Y-100955000D01*
X147590000Y-100955000D01*
X147670000Y-100875000D01*
X147671548Y-100665000D01*
X147665370Y-100602269D01*
X147647072Y-100541949D01*
X147617357Y-100486358D01*
X147577369Y-100437631D01*
X147528642Y-100397643D01*
X147473051Y-100367928D01*
X147412731Y-100349630D01*
X147350000Y-100343452D01*
X146465000Y-100345000D01*
X146385000Y-100425000D01*
X146365000Y-100425000D01*
X146285000Y-100345000D01*
X145400000Y-100343452D01*
X145337269Y-100349630D01*
X145276949Y-100367928D01*
X145221358Y-100397643D01*
X145172631Y-100437631D01*
X145132643Y-100486358D01*
X145102928Y-100541949D01*
X145084630Y-100602269D01*
X145078452Y-100665000D01*
X142721548Y-100665000D01*
X142715370Y-100602269D01*
X142697072Y-100541949D01*
X142667357Y-100486358D01*
X142627369Y-100437631D01*
X142578642Y-100397643D01*
X142523051Y-100367928D01*
X142462731Y-100349630D01*
X142400000Y-100343452D01*
X141515000Y-100345000D01*
X141435000Y-100425000D01*
X141415000Y-100425000D01*
X141335000Y-100345000D01*
X140450000Y-100343452D01*
X140387269Y-100349630D01*
X140326949Y-100367928D01*
X140271358Y-100397643D01*
X140222631Y-100437631D01*
X140182643Y-100486358D01*
X140152928Y-100541949D01*
X140134630Y-100602269D01*
X140128452Y-100665000D01*
X108300000Y-100665000D01*
X108300000Y-99545000D01*
X140128452Y-99545000D01*
X140128452Y-99845000D01*
X140137513Y-99936994D01*
X140164346Y-100025454D01*
X140207922Y-100106978D01*
X140266565Y-100178435D01*
X140338022Y-100237078D01*
X140419546Y-100280654D01*
X140508006Y-100307487D01*
X140600000Y-100316548D01*
X142250000Y-100316548D01*
X142341994Y-100307487D01*
X142430454Y-100280654D01*
X142511978Y-100237078D01*
X142583435Y-100178435D01*
X142610874Y-100145000D01*
X143278140Y-100145000D01*
X143300000Y-100147153D01*
X143387235Y-100138561D01*
X143387238Y-100138560D01*
X143471118Y-100113116D01*
X143548425Y-100071794D01*
X143616185Y-100016185D01*
X143630124Y-99999200D01*
X144050001Y-99579325D01*
X144469879Y-99999204D01*
X144483815Y-100016185D01*
X144551575Y-100071794D01*
X144628882Y-100113116D01*
X144712765Y-100138561D01*
X144778140Y-100145000D01*
X144778150Y-100145000D01*
X144799999Y-100147152D01*
X144821848Y-100145000D01*
X145189126Y-100145000D01*
X145216565Y-100178435D01*
X145288022Y-100237078D01*
X145369546Y-100280654D01*
X145458006Y-100307487D01*
X145550000Y-100316548D01*
X147200000Y-100316548D01*
X147291994Y-100307487D01*
X147380454Y-100280654D01*
X147461978Y-100237078D01*
X147533435Y-100178435D01*
X147592078Y-100106978D01*
X147635654Y-100025454D01*
X147662487Y-99936994D01*
X147671548Y-99845000D01*
X147671548Y-99545000D01*
X147662487Y-99453006D01*
X147635654Y-99364546D01*
X147592078Y-99283022D01*
X147533435Y-99211565D01*
X147461978Y-99152922D01*
X147380454Y-99109346D01*
X147291994Y-99082513D01*
X147200000Y-99073452D01*
X145550000Y-99073452D01*
X145458006Y-99082513D01*
X145369546Y-99109346D01*
X145288022Y-99152922D01*
X145216565Y-99211565D01*
X145180919Y-99255000D01*
X144984325Y-99255000D01*
X144695010Y-98965686D01*
X144695010Y-90134314D01*
X145323707Y-89505618D01*
X145403280Y-89497781D01*
X145627595Y-89429735D01*
X145834326Y-89319236D01*
X145985708Y-89195000D01*
X146518452Y-89195000D01*
X146524630Y-89257731D01*
X146542928Y-89318051D01*
X146572643Y-89373642D01*
X146612631Y-89422369D01*
X146661358Y-89462357D01*
X146716949Y-89492072D01*
X146777269Y-89510370D01*
X146840000Y-89516548D01*
X147620000Y-89515000D01*
X147700000Y-89435000D01*
X147700000Y-88110000D01*
X147720000Y-88110000D01*
X147720000Y-89435000D01*
X147800000Y-89515000D01*
X148580000Y-89516548D01*
X148642731Y-89510370D01*
X148703051Y-89492072D01*
X148758642Y-89462357D01*
X148807369Y-89422369D01*
X148847357Y-89373642D01*
X148877072Y-89318051D01*
X148895370Y-89257731D01*
X148901548Y-89195000D01*
X148900000Y-88190000D01*
X148820000Y-88110000D01*
X147720000Y-88110000D01*
X147700000Y-88110000D01*
X146600000Y-88110000D01*
X146520000Y-88190000D01*
X146518452Y-89195000D01*
X145985708Y-89195000D01*
X146015528Y-89170528D01*
X146164236Y-88989327D01*
X146274735Y-88782596D01*
X146342781Y-88558281D01*
X146360000Y-88383452D01*
X146360000Y-87816549D01*
X146342781Y-87641720D01*
X146274735Y-87417405D01*
X146164236Y-87210673D01*
X146015528Y-87029472D01*
X145985709Y-87005000D01*
X146518452Y-87005000D01*
X146520000Y-88010000D01*
X146600000Y-88090000D01*
X147700000Y-88090000D01*
X147700000Y-86765000D01*
X147720000Y-86765000D01*
X147720000Y-88090000D01*
X148820000Y-88090000D01*
X148900000Y-88010000D01*
X148901548Y-87005000D01*
X148895370Y-86942269D01*
X148877072Y-86881949D01*
X148847357Y-86826358D01*
X148807369Y-86777631D01*
X148758642Y-86737643D01*
X148703051Y-86707928D01*
X148642731Y-86689630D01*
X148580000Y-86683452D01*
X147800000Y-86685000D01*
X147720000Y-86765000D01*
X147700000Y-86765000D01*
X147620000Y-86685000D01*
X146840000Y-86683452D01*
X146777269Y-86689630D01*
X146716949Y-86707928D01*
X146661358Y-86737643D01*
X146612631Y-86777631D01*
X146572643Y-86826358D01*
X146542928Y-86881949D01*
X146524630Y-86942269D01*
X146518452Y-87005000D01*
X145985709Y-87005000D01*
X145834327Y-86880764D01*
X145627596Y-86770265D01*
X145403281Y-86702219D01*
X145170000Y-86679243D01*
X144936720Y-86702219D01*
X144712405Y-86770265D01*
X144505674Y-86880764D01*
X144324473Y-87029472D01*
X144175765Y-87210673D01*
X144065265Y-87417404D01*
X143997219Y-87641719D01*
X143980000Y-87816548D01*
X143980000Y-88383451D01*
X143997219Y-88558280D01*
X144065265Y-88782595D01*
X144175764Y-88989326D01*
X144324472Y-89170528D01*
X144366036Y-89204639D01*
X144025000Y-89545675D01*
X143554106Y-89074781D01*
X143624236Y-88989327D01*
X143734735Y-88782596D01*
X143802781Y-88558281D01*
X143820000Y-88383452D01*
X143820000Y-87816549D01*
X143802781Y-87641720D01*
X143734735Y-87417405D01*
X143624236Y-87210673D01*
X143475528Y-87029472D01*
X143294327Y-86880764D01*
X143087596Y-86770265D01*
X142863281Y-86702219D01*
X142630000Y-86679243D01*
X142396720Y-86702219D01*
X142172405Y-86770265D01*
X141965674Y-86880764D01*
X141784473Y-87029472D01*
X141635765Y-87210673D01*
X141525265Y-87417404D01*
X141457219Y-87641719D01*
X141440000Y-87816548D01*
X141440000Y-88383451D01*
X141457219Y-88558280D01*
X141525265Y-88782595D01*
X141635764Y-88989326D01*
X141784472Y-89170528D01*
X141965673Y-89319236D01*
X142172404Y-89429735D01*
X142396719Y-89497781D01*
X142630000Y-89520757D01*
X142731442Y-89510766D01*
X143355000Y-90134325D01*
X143355001Y-99015674D01*
X143115675Y-99255000D01*
X142619081Y-99255000D01*
X142583435Y-99211565D01*
X142511978Y-99152922D01*
X142430454Y-99109346D01*
X142341994Y-99082513D01*
X142250000Y-99073452D01*
X140600000Y-99073452D01*
X140508006Y-99082513D01*
X140419546Y-99109346D01*
X140338022Y-99152922D01*
X140266565Y-99211565D01*
X140207922Y-99283022D01*
X140164346Y-99364546D01*
X140137513Y-99453006D01*
X140128452Y-99545000D01*
X108300000Y-99545000D01*
X108300000Y-86410897D01*
X109980000Y-86410897D01*
X109980000Y-86789103D01*
X110053785Y-87160043D01*
X110198518Y-87509461D01*
X110408639Y-87823929D01*
X110676071Y-88091361D01*
X110990539Y-88301482D01*
X111339957Y-88446215D01*
X111710897Y-88520000D01*
X112089103Y-88520000D01*
X112315331Y-88475000D01*
X134553452Y-88475000D01*
X134559630Y-88537731D01*
X134577928Y-88598051D01*
X134607643Y-88653642D01*
X134647631Y-88702369D01*
X134696358Y-88742357D01*
X134751949Y-88772072D01*
X134812269Y-88790370D01*
X134875000Y-88796548D01*
X135222500Y-88795000D01*
X135302500Y-88715000D01*
X135302500Y-88010000D01*
X135322500Y-88010000D01*
X135322500Y-88715000D01*
X135402500Y-88795000D01*
X135750000Y-88796548D01*
X135812731Y-88790370D01*
X135873051Y-88772072D01*
X135928642Y-88742357D01*
X135977369Y-88702369D01*
X136017357Y-88653642D01*
X136047072Y-88598051D01*
X136065370Y-88537731D01*
X136071548Y-88475000D01*
X136070000Y-88090000D01*
X135990000Y-88010000D01*
X135322500Y-88010000D01*
X135302500Y-88010000D01*
X134635000Y-88010000D01*
X134555000Y-88090000D01*
X134553452Y-88475000D01*
X112315331Y-88475000D01*
X112460043Y-88446215D01*
X112809461Y-88301482D01*
X113123929Y-88091361D01*
X113391361Y-87823929D01*
X113591099Y-87525000D01*
X134553452Y-87525000D01*
X134555000Y-87910000D01*
X134635000Y-87990000D01*
X135302500Y-87990000D01*
X135302500Y-87285000D01*
X135322500Y-87285000D01*
X135322500Y-87990000D01*
X135990000Y-87990000D01*
X136070000Y-87910000D01*
X136071548Y-87525000D01*
X136065370Y-87462269D01*
X136047072Y-87401949D01*
X136017357Y-87346358D01*
X135977369Y-87297631D01*
X135928642Y-87257643D01*
X135873051Y-87227928D01*
X135812731Y-87209630D01*
X135750000Y-87203452D01*
X135402500Y-87205000D01*
X135322500Y-87285000D01*
X135302500Y-87285000D01*
X135222500Y-87205000D01*
X134875000Y-87203452D01*
X134812269Y-87209630D01*
X134751949Y-87227928D01*
X134696358Y-87257643D01*
X134647631Y-87297631D01*
X134607643Y-87346358D01*
X134577928Y-87401949D01*
X134559630Y-87462269D01*
X134553452Y-87525000D01*
X113591099Y-87525000D01*
X113601482Y-87509461D01*
X113746215Y-87160043D01*
X113820000Y-86789103D01*
X113820000Y-86675000D01*
X134553452Y-86675000D01*
X134559630Y-86737731D01*
X134577928Y-86798051D01*
X134607643Y-86853642D01*
X134647631Y-86902369D01*
X134696358Y-86942357D01*
X134751949Y-86972072D01*
X134812269Y-86990370D01*
X134875000Y-86996548D01*
X135222500Y-86995000D01*
X135302500Y-86915000D01*
X135302500Y-86210000D01*
X135322500Y-86210000D01*
X135322500Y-86915000D01*
X135402500Y-86995000D01*
X135750000Y-86996548D01*
X135812731Y-86990370D01*
X135873051Y-86972072D01*
X135928642Y-86942357D01*
X135977369Y-86902369D01*
X136017357Y-86853642D01*
X136047072Y-86798051D01*
X136065370Y-86737731D01*
X136071548Y-86675000D01*
X136070000Y-86290000D01*
X135990000Y-86210000D01*
X135322500Y-86210000D01*
X135302500Y-86210000D01*
X134635000Y-86210000D01*
X134555000Y-86290000D01*
X134553452Y-86675000D01*
X113820000Y-86675000D01*
X113820000Y-86410897D01*
X113746215Y-86039957D01*
X113615757Y-85725000D01*
X134553452Y-85725000D01*
X134555000Y-86110000D01*
X134635000Y-86190000D01*
X135302500Y-86190000D01*
X135302500Y-85485000D01*
X135322500Y-85485000D01*
X135322500Y-86190000D01*
X135990000Y-86190000D01*
X136070000Y-86110000D01*
X136070668Y-85943750D01*
X136128452Y-85943750D01*
X136128452Y-86456250D01*
X136138834Y-86561657D01*
X136169580Y-86663013D01*
X136219509Y-86756423D01*
X136230001Y-86769207D01*
X136230000Y-87430793D01*
X136219509Y-87443577D01*
X136169580Y-87536987D01*
X136138834Y-87638343D01*
X136128452Y-87743750D01*
X136128452Y-88256250D01*
X136138834Y-88361657D01*
X136169580Y-88463013D01*
X136219509Y-88556423D01*
X136286702Y-88638298D01*
X136368577Y-88705491D01*
X136461987Y-88755420D01*
X136563343Y-88786166D01*
X136668750Y-88796548D01*
X137106250Y-88796548D01*
X137211657Y-88786166D01*
X137313013Y-88755420D01*
X137406423Y-88705491D01*
X137488298Y-88638298D01*
X137544349Y-88570000D01*
X138920774Y-88570000D01*
X138985265Y-88782595D01*
X139095764Y-88989326D01*
X139244472Y-89170528D01*
X139425673Y-89319236D01*
X139632404Y-89429735D01*
X139856719Y-89497781D01*
X140090000Y-89520757D01*
X140323280Y-89497781D01*
X140547595Y-89429735D01*
X140754326Y-89319236D01*
X140935528Y-89170528D01*
X141084236Y-88989327D01*
X141194735Y-88782596D01*
X141262781Y-88558281D01*
X141280000Y-88383452D01*
X141280000Y-87816549D01*
X141262781Y-87641720D01*
X141194735Y-87417405D01*
X141084236Y-87210673D01*
X140935528Y-87029472D01*
X140754327Y-86880764D01*
X140670000Y-86835691D01*
X140670000Y-86536100D01*
X141636102Y-85570000D01*
X149063900Y-85570000D01*
X149930000Y-86436102D01*
X149930001Y-98763897D01*
X148516750Y-100177150D01*
X148495000Y-100195000D01*
X148450138Y-100249664D01*
X148423770Y-100281793D01*
X148390813Y-100343452D01*
X148370842Y-100380816D01*
X148338248Y-100488262D01*
X148330000Y-100572008D01*
X148330000Y-100572017D01*
X148327244Y-100600000D01*
X148330000Y-100627983D01*
X148330001Y-102946685D01*
X148311702Y-102961702D01*
X148255651Y-103030000D01*
X147540357Y-103030000D01*
X147533435Y-103021565D01*
X147461978Y-102962922D01*
X147380454Y-102919346D01*
X147291994Y-102892513D01*
X147200000Y-102883452D01*
X145550000Y-102883452D01*
X145458006Y-102892513D01*
X145369546Y-102919346D01*
X145288022Y-102962922D01*
X145216565Y-103021565D01*
X145157922Y-103093022D01*
X145114346Y-103174546D01*
X145087513Y-103263006D01*
X145078452Y-103355000D01*
X145078452Y-103655000D01*
X145087513Y-103746994D01*
X145114346Y-103835454D01*
X145157922Y-103916978D01*
X145216565Y-103988435D01*
X145288022Y-104047078D01*
X145369546Y-104090654D01*
X145458006Y-104117487D01*
X145550000Y-104126548D01*
X146475932Y-104126548D01*
X146480815Y-104129158D01*
X146588261Y-104161752D01*
X146672007Y-104170000D01*
X146672017Y-104170000D01*
X146700000Y-104172756D01*
X146727983Y-104170000D01*
X148255651Y-104170000D01*
X148311702Y-104238298D01*
X148342500Y-104263574D01*
X148342501Y-104836426D01*
X148311702Y-104861702D01*
X148244509Y-104943577D01*
X148194580Y-105036987D01*
X148163834Y-105138343D01*
X148153452Y-105243750D01*
X148153452Y-105756250D01*
X148163834Y-105861657D01*
X148194580Y-105963013D01*
X148244509Y-106056423D01*
X148311702Y-106138298D01*
X148393577Y-106205491D01*
X148486987Y-106255420D01*
X148588343Y-106286166D01*
X148693750Y-106296548D01*
X149131250Y-106296548D01*
X149236657Y-106286166D01*
X149338013Y-106255420D01*
X149431423Y-106205491D01*
X149513298Y-106138298D01*
X149580491Y-106056423D01*
X149624012Y-105975000D01*
X149728452Y-105975000D01*
X149734630Y-106037731D01*
X149752928Y-106098051D01*
X149782643Y-106153642D01*
X149822631Y-106202369D01*
X149871358Y-106242357D01*
X149926949Y-106272072D01*
X149987269Y-106290370D01*
X150050000Y-106296548D01*
X150397500Y-106295000D01*
X150477500Y-106215000D01*
X150477500Y-105510000D01*
X150497500Y-105510000D01*
X150497500Y-106215000D01*
X150577500Y-106295000D01*
X150925000Y-106296548D01*
X150987731Y-106290370D01*
X151048051Y-106272072D01*
X151103642Y-106242357D01*
X151152369Y-106202369D01*
X151192357Y-106153642D01*
X151222072Y-106098051D01*
X151240370Y-106037731D01*
X151246548Y-105975000D01*
X151245000Y-105590000D01*
X151165000Y-105510000D01*
X150497500Y-105510000D01*
X150477500Y-105510000D01*
X149810000Y-105510000D01*
X149730000Y-105590000D01*
X149728452Y-105975000D01*
X149624012Y-105975000D01*
X149630420Y-105963013D01*
X149661166Y-105861657D01*
X149671548Y-105756250D01*
X149671548Y-105523911D01*
X149676229Y-105518207D01*
X149729158Y-105419185D01*
X149731492Y-105411492D01*
X149810000Y-105490000D01*
X150477500Y-105490000D01*
X150477500Y-104785000D01*
X150497500Y-104785000D01*
X150497500Y-105490000D01*
X151165000Y-105490000D01*
X151245000Y-105410000D01*
X151246548Y-105025000D01*
X151240370Y-104962269D01*
X151222072Y-104901949D01*
X151192357Y-104846358D01*
X151152369Y-104797631D01*
X151103642Y-104757643D01*
X151048051Y-104727928D01*
X150987731Y-104709630D01*
X150925000Y-104703452D01*
X150577500Y-104705000D01*
X150497500Y-104785000D01*
X150477500Y-104785000D01*
X150397500Y-104705000D01*
X150050000Y-104703452D01*
X149987269Y-104709630D01*
X149926949Y-104727928D01*
X149871358Y-104757643D01*
X149822631Y-104797631D01*
X149782643Y-104846358D01*
X149752928Y-104901949D01*
X149734630Y-104962269D01*
X149731910Y-104989889D01*
X149729158Y-104980817D01*
X149676229Y-104881794D01*
X149605000Y-104795000D01*
X149518206Y-104723771D01*
X149482500Y-104704686D01*
X149482500Y-104263573D01*
X149513298Y-104238298D01*
X149580491Y-104156423D01*
X149624012Y-104075000D01*
X149728452Y-104075000D01*
X149734630Y-104137731D01*
X149752928Y-104198051D01*
X149782643Y-104253642D01*
X149822631Y-104302369D01*
X149871358Y-104342357D01*
X149926949Y-104372072D01*
X149987269Y-104390370D01*
X150050000Y-104396548D01*
X150397500Y-104395000D01*
X150477500Y-104315000D01*
X150477500Y-103610000D01*
X150497500Y-103610000D01*
X150497500Y-104315000D01*
X150577500Y-104395000D01*
X150925000Y-104396548D01*
X150987731Y-104390370D01*
X151048051Y-104372072D01*
X151078068Y-104356027D01*
X157801257Y-104356027D01*
X157805915Y-104382350D01*
X157871757Y-104606155D01*
X157979996Y-104812814D01*
X158126472Y-104994386D01*
X158305557Y-105143893D01*
X158510368Y-105255590D01*
X158733035Y-105325184D01*
X158965000Y-105350000D01*
X159190000Y-105350000D01*
X159190000Y-104170000D01*
X159210000Y-104170000D01*
X159210000Y-105350000D01*
X159435000Y-105350000D01*
X159666965Y-105325184D01*
X159889632Y-105255590D01*
X160094443Y-105143893D01*
X160273528Y-104994386D01*
X160420004Y-104812814D01*
X160528243Y-104606155D01*
X160594085Y-104382350D01*
X160598743Y-104356027D01*
X160534955Y-104170000D01*
X159210000Y-104170000D01*
X159190000Y-104170000D01*
X157865045Y-104170000D01*
X157801257Y-104356027D01*
X151078068Y-104356027D01*
X151103642Y-104342357D01*
X151152369Y-104302369D01*
X151192357Y-104253642D01*
X151222072Y-104198051D01*
X151240370Y-104137731D01*
X151246548Y-104075000D01*
X151246102Y-103963973D01*
X157801257Y-103963973D01*
X157865045Y-104150000D01*
X159190000Y-104150000D01*
X159190000Y-102970000D01*
X159210000Y-102970000D01*
X159210000Y-104150000D01*
X160534955Y-104150000D01*
X160598743Y-103963973D01*
X160594085Y-103937650D01*
X160528243Y-103713845D01*
X160420004Y-103507186D01*
X160273528Y-103325614D01*
X160094443Y-103176107D01*
X159889632Y-103064410D01*
X159666965Y-102994816D01*
X159435000Y-102970000D01*
X159210000Y-102970000D01*
X159190000Y-102970000D01*
X158965000Y-102970000D01*
X158733035Y-102994816D01*
X158510368Y-103064410D01*
X158305557Y-103176107D01*
X158126472Y-103325614D01*
X157979996Y-103507186D01*
X157871757Y-103713845D01*
X157805915Y-103937650D01*
X157801257Y-103963973D01*
X151246102Y-103963973D01*
X151245000Y-103690000D01*
X151165000Y-103610000D01*
X150497500Y-103610000D01*
X150477500Y-103610000D01*
X149810000Y-103610000D01*
X149730000Y-103690000D01*
X149728452Y-104075000D01*
X149624012Y-104075000D01*
X149630420Y-104063013D01*
X149661166Y-103961657D01*
X149671548Y-103856250D01*
X149671548Y-103343750D01*
X149661166Y-103238343D01*
X149630420Y-103136987D01*
X149624013Y-103125000D01*
X149728452Y-103125000D01*
X149730000Y-103510000D01*
X149810000Y-103590000D01*
X150477500Y-103590000D01*
X150477500Y-102885000D01*
X150497500Y-102885000D01*
X150497500Y-103590000D01*
X151165000Y-103590000D01*
X151245000Y-103510000D01*
X151246548Y-103125000D01*
X151240370Y-103062269D01*
X151222072Y-103001949D01*
X151192357Y-102946358D01*
X151152369Y-102897631D01*
X151103642Y-102857643D01*
X151048051Y-102827928D01*
X150987731Y-102809630D01*
X150925000Y-102803452D01*
X150577500Y-102805000D01*
X150497500Y-102885000D01*
X150477500Y-102885000D01*
X150397500Y-102805000D01*
X150050000Y-102803452D01*
X149987269Y-102809630D01*
X149926949Y-102827928D01*
X149871358Y-102857643D01*
X149822631Y-102897631D01*
X149782643Y-102946358D01*
X149752928Y-103001949D01*
X149734630Y-103062269D01*
X149728452Y-103125000D01*
X149624013Y-103125000D01*
X149580491Y-103043577D01*
X149513298Y-102961702D01*
X149470000Y-102926168D01*
X149470000Y-101620000D01*
X157779243Y-101620000D01*
X157802219Y-101853281D01*
X157870265Y-102077596D01*
X157980764Y-102284327D01*
X158129472Y-102465528D01*
X158310673Y-102614236D01*
X158517404Y-102724735D01*
X158741719Y-102792781D01*
X158916548Y-102810000D01*
X159483452Y-102810000D01*
X159658281Y-102792781D01*
X159882596Y-102724735D01*
X160089327Y-102614236D01*
X160270528Y-102465528D01*
X160419236Y-102284327D01*
X160529735Y-102077596D01*
X160597781Y-101853281D01*
X160620757Y-101620000D01*
X160597781Y-101386719D01*
X160529735Y-101162404D01*
X160419236Y-100955673D01*
X160270528Y-100774472D01*
X160089327Y-100625764D01*
X159882596Y-100515265D01*
X159658281Y-100447219D01*
X159483452Y-100430000D01*
X158916548Y-100430000D01*
X158741719Y-100447219D01*
X158517404Y-100515265D01*
X158310673Y-100625764D01*
X158129472Y-100774472D01*
X157980764Y-100955673D01*
X157870265Y-101162404D01*
X157802219Y-101386719D01*
X157779243Y-101620000D01*
X149470000Y-101620000D01*
X149470000Y-100836100D01*
X150883261Y-99422841D01*
X150905000Y-99405000D01*
X150922841Y-99383261D01*
X150922845Y-99383257D01*
X150976230Y-99318208D01*
X151006573Y-99261439D01*
X151029158Y-99219185D01*
X151061752Y-99111739D01*
X151070000Y-99027993D01*
X151070000Y-99027986D01*
X151072756Y-99000000D01*
X151070000Y-98972014D01*
X151070000Y-98459999D01*
X157783452Y-98459999D01*
X157783452Y-99700001D01*
X157794434Y-99811504D01*
X157826958Y-99918723D01*
X157879775Y-100017535D01*
X157950854Y-100104146D01*
X158037465Y-100175225D01*
X158136277Y-100228042D01*
X158243496Y-100260566D01*
X158354999Y-100271548D01*
X160045001Y-100271548D01*
X160156504Y-100260566D01*
X160263723Y-100228042D01*
X160362535Y-100175225D01*
X160449146Y-100104146D01*
X160520225Y-100017535D01*
X160573042Y-99918723D01*
X160605566Y-99811504D01*
X160616548Y-99700001D01*
X160616548Y-98459999D01*
X160605566Y-98348496D01*
X160573042Y-98241277D01*
X160520225Y-98142465D01*
X160449146Y-98055854D01*
X160362535Y-97984775D01*
X160263723Y-97931958D01*
X160156504Y-97899434D01*
X160045001Y-97888452D01*
X158354999Y-97888452D01*
X158243496Y-97899434D01*
X158136277Y-97931958D01*
X158037465Y-97984775D01*
X157950854Y-98055854D01*
X157879775Y-98142465D01*
X157826958Y-98241277D01*
X157794434Y-98348496D01*
X157783452Y-98459999D01*
X151070000Y-98459999D01*
X151070000Y-86410897D01*
X173980000Y-86410897D01*
X173980000Y-86789103D01*
X174053785Y-87160043D01*
X174198518Y-87509461D01*
X174408639Y-87823929D01*
X174676071Y-88091361D01*
X174990539Y-88301482D01*
X175339957Y-88446215D01*
X175710897Y-88520000D01*
X176089103Y-88520000D01*
X176460043Y-88446215D01*
X176809461Y-88301482D01*
X177123929Y-88091361D01*
X177391361Y-87823929D01*
X177601482Y-87509461D01*
X177746215Y-87160043D01*
X177820000Y-86789103D01*
X177820000Y-86410897D01*
X177746215Y-86039957D01*
X177601482Y-85690539D01*
X177391361Y-85376071D01*
X177123929Y-85108639D01*
X176809461Y-84898518D01*
X176460043Y-84753785D01*
X176089103Y-84680000D01*
X175710897Y-84680000D01*
X175339957Y-84753785D01*
X174990539Y-84898518D01*
X174676071Y-85108639D01*
X174408639Y-85376071D01*
X174198518Y-85690539D01*
X174053785Y-86039957D01*
X173980000Y-86410897D01*
X151070000Y-86410897D01*
X151070000Y-86227982D01*
X151072756Y-86199999D01*
X151070000Y-86172016D01*
X151070000Y-86172007D01*
X151061752Y-86088261D01*
X151029158Y-85980815D01*
X150976230Y-85881793D01*
X150940571Y-85838343D01*
X150922844Y-85816742D01*
X150922841Y-85816739D01*
X150905000Y-85795000D01*
X150883262Y-85777160D01*
X149722850Y-84616749D01*
X149705000Y-84595000D01*
X149618207Y-84523770D01*
X149519185Y-84470842D01*
X149411739Y-84438248D01*
X149327993Y-84430000D01*
X149327983Y-84430000D01*
X149300000Y-84427244D01*
X149272017Y-84430000D01*
X141427986Y-84430000D01*
X141400000Y-84427244D01*
X141372014Y-84430000D01*
X141372007Y-84430000D01*
X141288261Y-84438248D01*
X141180815Y-84470842D01*
X141081793Y-84523770D01*
X141016743Y-84577155D01*
X141016739Y-84577159D01*
X140995000Y-84595000D01*
X140977159Y-84616739D01*
X139716745Y-85877155D01*
X139695001Y-85895000D01*
X139677156Y-85916744D01*
X139623770Y-85981793D01*
X139570842Y-86080816D01*
X139538249Y-86188261D01*
X139527244Y-86300000D01*
X139530001Y-86327993D01*
X139530001Y-86825001D01*
X139425674Y-86880764D01*
X139244473Y-87029472D01*
X139095765Y-87210673D01*
X138985265Y-87417404D01*
X138981444Y-87430000D01*
X137544349Y-87430000D01*
X137488298Y-87361702D01*
X137406423Y-87294509D01*
X137370000Y-87275040D01*
X137370000Y-86924960D01*
X137406423Y-86905491D01*
X137488298Y-86838298D01*
X137555491Y-86756423D01*
X137605420Y-86663013D01*
X137636166Y-86561657D01*
X137646548Y-86456250D01*
X137646548Y-85943750D01*
X137636166Y-85838343D01*
X137605420Y-85736987D01*
X137555491Y-85643577D01*
X137488298Y-85561702D01*
X137406423Y-85494509D01*
X137313013Y-85444580D01*
X137211657Y-85413834D01*
X137106250Y-85403452D01*
X136668750Y-85403452D01*
X136563343Y-85413834D01*
X136461987Y-85444580D01*
X136368577Y-85494509D01*
X136286702Y-85561702D01*
X136219509Y-85643577D01*
X136169580Y-85736987D01*
X136138834Y-85838343D01*
X136128452Y-85943750D01*
X136070668Y-85943750D01*
X136071548Y-85725000D01*
X136065370Y-85662269D01*
X136047072Y-85601949D01*
X136017357Y-85546358D01*
X135977369Y-85497631D01*
X135928642Y-85457643D01*
X135873051Y-85427928D01*
X135812731Y-85409630D01*
X135750000Y-85403452D01*
X135402500Y-85405000D01*
X135322500Y-85485000D01*
X135302500Y-85485000D01*
X135222500Y-85405000D01*
X134875000Y-85403452D01*
X134812269Y-85409630D01*
X134751949Y-85427928D01*
X134696358Y-85457643D01*
X134647631Y-85497631D01*
X134607643Y-85546358D01*
X134577928Y-85601949D01*
X134559630Y-85662269D01*
X134553452Y-85725000D01*
X113615757Y-85725000D01*
X113601482Y-85690539D01*
X113391361Y-85376071D01*
X113123929Y-85108639D01*
X112809461Y-84898518D01*
X112460043Y-84753785D01*
X112089103Y-84680000D01*
X111710897Y-84680000D01*
X111339957Y-84753785D01*
X110990539Y-84898518D01*
X110676071Y-85108639D01*
X110408639Y-85376071D01*
X110198518Y-85690539D01*
X110053785Y-86039957D01*
X109980000Y-86410897D01*
X108300000Y-86410897D01*
X108300000Y-82945000D01*
X111916946Y-82945000D01*
X111917545Y-82944941D01*
X111922146Y-82944925D01*
X111937142Y-82943402D01*
X111952212Y-82943507D01*
X111957006Y-82943037D01*
X112539296Y-82881836D01*
X112569967Y-82875541D01*
X112600642Y-82869689D01*
X112605246Y-82868299D01*
X112605253Y-82868298D01*
X112605259Y-82868295D01*
X113164567Y-82695160D01*
X113193415Y-82683034D01*
X113222384Y-82671329D01*
X113226633Y-82669070D01*
X113226638Y-82669068D01*
X113226642Y-82669065D01*
X113741669Y-82390592D01*
X113767616Y-82373091D01*
X113793757Y-82355984D01*
X113797483Y-82352946D01*
X113797490Y-82352941D01*
X113797496Y-82352935D01*
X114248623Y-81979730D01*
X114270650Y-81957549D01*
X114292997Y-81935665D01*
X114296068Y-81931953D01*
X114666120Y-81478225D01*
X114683429Y-81452173D01*
X114701090Y-81426380D01*
X114703378Y-81422147D01*
X114703381Y-81422143D01*
X114703383Y-81422139D01*
X114978255Y-80905178D01*
X114990184Y-80876236D01*
X115002488Y-80847528D01*
X115003911Y-80842933D01*
X115003914Y-80842926D01*
X115003915Y-80842919D01*
X115173140Y-80282419D01*
X115179213Y-80251751D01*
X115185715Y-80221160D01*
X115186217Y-80216380D01*
X115186219Y-80216369D01*
X115186219Y-80216359D01*
X115243353Y-79633667D01*
X115245000Y-79616946D01*
X115245000Y-77000000D01*
X172555000Y-77000000D01*
X172555001Y-79616946D01*
G37*
X172555001Y-79616946D02*
X172555059Y-79617534D01*
X172555075Y-79622146D01*
X172556598Y-79637142D01*
X172556493Y-79652212D01*
X172556963Y-79657006D01*
X172618164Y-80239296D01*
X172624459Y-80269967D01*
X172630311Y-80300642D01*
X172631701Y-80305246D01*
X172631702Y-80305253D01*
X172631705Y-80305259D01*
X172804840Y-80864567D01*
X172816966Y-80893415D01*
X172828671Y-80922384D01*
X172830930Y-80926633D01*
X172830932Y-80926638D01*
X172830935Y-80926642D01*
X173109408Y-81441669D01*
X173126909Y-81467616D01*
X173144016Y-81493757D01*
X173147054Y-81497483D01*
X173147059Y-81497490D01*
X173147065Y-81497496D01*
X173520270Y-81948623D01*
X173542451Y-81970650D01*
X173564335Y-81992997D01*
X173568047Y-81996068D01*
X174021775Y-82366120D01*
X174047827Y-82383429D01*
X174073620Y-82401090D01*
X174077853Y-82403378D01*
X174077857Y-82403381D01*
X174077861Y-82403383D01*
X174594822Y-82678255D01*
X174623764Y-82690184D01*
X174652472Y-82702488D01*
X174657067Y-82703911D01*
X174657074Y-82703914D01*
X174657081Y-82703915D01*
X175217581Y-82873140D01*
X175248249Y-82879213D01*
X175278840Y-82885715D01*
X175283620Y-82886217D01*
X175283631Y-82886219D01*
X175283641Y-82886219D01*
X175865944Y-82943315D01*
X175883054Y-82945000D01*
X179500000Y-82945000D01*
X179500000Y-120255000D01*
X175883054Y-120255000D01*
X175882455Y-120255059D01*
X175877854Y-120255075D01*
X175862858Y-120256598D01*
X175847788Y-120256493D01*
X175842993Y-120256963D01*
X175260704Y-120318164D01*
X175230033Y-120324459D01*
X175199358Y-120330311D01*
X175194757Y-120331700D01*
X175194747Y-120331702D01*
X175194738Y-120331706D01*
X174635433Y-120504840D01*
X174606585Y-120516966D01*
X174577616Y-120528671D01*
X174573367Y-120530930D01*
X174573362Y-120530932D01*
X174573361Y-120530933D01*
X174058331Y-120809408D01*
X174032384Y-120826909D01*
X174006243Y-120844016D01*
X174002517Y-120847054D01*
X174002510Y-120847059D01*
X174002504Y-120847065D01*
X173551377Y-121220270D01*
X173529350Y-121242451D01*
X173507003Y-121264335D01*
X173503932Y-121268047D01*
X173133880Y-121721775D01*
X173116554Y-121747853D01*
X173098911Y-121773620D01*
X173096619Y-121777857D01*
X172821745Y-122294822D01*
X172809824Y-122323743D01*
X172797511Y-122352472D01*
X172796090Y-122357063D01*
X172796086Y-122357073D01*
X172796084Y-122357083D01*
X172626860Y-122917581D01*
X172620787Y-122948249D01*
X172614285Y-122978840D01*
X172613783Y-122983620D01*
X172613781Y-122983631D01*
X172613781Y-122983641D01*
X172556647Y-123566334D01*
X172556647Y-123566341D01*
X172555001Y-123583054D01*
X172555000Y-126200000D01*
X115245000Y-126200000D01*
X115245000Y-123583054D01*
X115244941Y-123582455D01*
X115244925Y-123577854D01*
X115243402Y-123562858D01*
X115243507Y-123547788D01*
X115243037Y-123542993D01*
X115181836Y-122960704D01*
X115175541Y-122930033D01*
X115169689Y-122899358D01*
X115168300Y-122894757D01*
X115168298Y-122894747D01*
X115168294Y-122894738D01*
X114995160Y-122335433D01*
X114983034Y-122306585D01*
X114971329Y-122277616D01*
X114969068Y-122273363D01*
X114969068Y-122273362D01*
X114969065Y-122273358D01*
X114690592Y-121758331D01*
X114673091Y-121732384D01*
X114655984Y-121706243D01*
X114652946Y-121702517D01*
X114652941Y-121702510D01*
X114652935Y-121702504D01*
X114279730Y-121251377D01*
X114257549Y-121229350D01*
X114235665Y-121207003D01*
X114231953Y-121203932D01*
X113778225Y-120833880D01*
X113752147Y-120816554D01*
X113726380Y-120798911D01*
X113722143Y-120796619D01*
X113205178Y-120521745D01*
X113176257Y-120509824D01*
X113147528Y-120497511D01*
X113142937Y-120496090D01*
X113142927Y-120496086D01*
X113142917Y-120496084D01*
X112582419Y-120326860D01*
X112551751Y-120320787D01*
X112521160Y-120314285D01*
X112516380Y-120313783D01*
X112516369Y-120313781D01*
X112516359Y-120313781D01*
X111934280Y-120256707D01*
X111916946Y-120255000D01*
X108300000Y-120255000D01*
X108300000Y-116410897D01*
X109980000Y-116410897D01*
X109980000Y-116789103D01*
X110053785Y-117160043D01*
X110198518Y-117509461D01*
X110408639Y-117823929D01*
X110676071Y-118091361D01*
X110990539Y-118301482D01*
X111339957Y-118446215D01*
X111710897Y-118520000D01*
X112089103Y-118520000D01*
X112460043Y-118446215D01*
X112809461Y-118301482D01*
X113123929Y-118091361D01*
X113391361Y-117823929D01*
X113601482Y-117509461D01*
X113746215Y-117160043D01*
X113820000Y-116789103D01*
X113820000Y-116410897D01*
X113746215Y-116039957D01*
X113601482Y-115690539D01*
X113391361Y-115376071D01*
X113123929Y-115108639D01*
X112809461Y-114898518D01*
X112460043Y-114753785D01*
X112089103Y-114680000D01*
X111710897Y-114680000D01*
X111339957Y-114753785D01*
X110990539Y-114898518D01*
X110676071Y-115108639D01*
X110408639Y-115376071D01*
X110198518Y-115690539D01*
X110053785Y-116039957D01*
X109980000Y-116410897D01*
X108300000Y-116410897D01*
X108300000Y-114254999D01*
X138898452Y-114254999D01*
X138898452Y-115945001D01*
X138909434Y-116056504D01*
X138941958Y-116163723D01*
X138994775Y-116262535D01*
X139065854Y-116349146D01*
X139152465Y-116420225D01*
X139251277Y-116473042D01*
X139358496Y-116505566D01*
X139469999Y-116516548D01*
X140710001Y-116516548D01*
X140821504Y-116505566D01*
X140928723Y-116473042D01*
X141027535Y-116420225D01*
X141114146Y-116349146D01*
X141185225Y-116262535D01*
X141238042Y-116163723D01*
X141270566Y-116056504D01*
X141281548Y-115945001D01*
X141281548Y-114816549D01*
X141440000Y-114816549D01*
X141440000Y-115383452D01*
X141457219Y-115558281D01*
X141525265Y-115782596D01*
X141635765Y-115989327D01*
X141784473Y-116170528D01*
X141965674Y-116319236D01*
X142172405Y-116429735D01*
X142396720Y-116497781D01*
X142630000Y-116520757D01*
X142863281Y-116497781D01*
X143087596Y-116429735D01*
X143294327Y-116319236D01*
X143475528Y-116170528D01*
X143624236Y-115989327D01*
X143734735Y-115782595D01*
X143802781Y-115558280D01*
X143820000Y-115383451D01*
X143820000Y-114816549D01*
X143980000Y-114816549D01*
X143980000Y-115383452D01*
X143997219Y-115558281D01*
X144065265Y-115782596D01*
X144175765Y-115989327D01*
X144324473Y-116170528D01*
X144505674Y-116319236D01*
X144712405Y-116429735D01*
X144936720Y-116497781D01*
X145170000Y-116520757D01*
X145403281Y-116497781D01*
X145627596Y-116429735D01*
X145834327Y-116319236D01*
X146015528Y-116170528D01*
X146164236Y-115989327D01*
X146274735Y-115782595D01*
X146342781Y-115558280D01*
X146360000Y-115383451D01*
X146360000Y-115110000D01*
X146520000Y-115110000D01*
X146520000Y-115335000D01*
X146544816Y-115566965D01*
X146614410Y-115789632D01*
X146726107Y-115994443D01*
X146875614Y-116173528D01*
X147057186Y-116320004D01*
X147263845Y-116428243D01*
X147487650Y-116494085D01*
X147513973Y-116498743D01*
X147700000Y-116434955D01*
X147700000Y-115110000D01*
X147720000Y-115110000D01*
X147720000Y-116434955D01*
X147906027Y-116498743D01*
X147932350Y-116494085D01*
X148156155Y-116428243D01*
X148189273Y-116410897D01*
X173980000Y-116410897D01*
X173980000Y-116789103D01*
X174053785Y-117160043D01*
X174198518Y-117509461D01*
X174408639Y-117823929D01*
X174676071Y-118091361D01*
X174990539Y-118301482D01*
X175339957Y-118446215D01*
X175710897Y-118520000D01*
X176089103Y-118520000D01*
X176460043Y-118446215D01*
X176809461Y-118301482D01*
X177123929Y-118091361D01*
X177391361Y-117823929D01*
X177601482Y-117509461D01*
X177746215Y-117160043D01*
X177820000Y-116789103D01*
X177820000Y-116410897D01*
X177746215Y-116039957D01*
X177601482Y-115690539D01*
X177391361Y-115376071D01*
X177123929Y-115108639D01*
X176809461Y-114898518D01*
X176460043Y-114753785D01*
X176089103Y-114680000D01*
X175710897Y-114680000D01*
X175339957Y-114753785D01*
X174990539Y-114898518D01*
X174676071Y-115108639D01*
X174408639Y-115376071D01*
X174198518Y-115690539D01*
X174053785Y-116039957D01*
X173980000Y-116410897D01*
X148189273Y-116410897D01*
X148362814Y-116320004D01*
X148544386Y-116173528D01*
X148693893Y-115994443D01*
X148805590Y-115789632D01*
X148875184Y-115566965D01*
X148900000Y-115335000D01*
X148900000Y-115110000D01*
X147720000Y-115110000D01*
X147700000Y-115110000D01*
X146520000Y-115110000D01*
X146360000Y-115110000D01*
X146360000Y-114865000D01*
X146520000Y-114865000D01*
X146520000Y-115090000D01*
X147700000Y-115090000D01*
X147700000Y-113765045D01*
X147720000Y-113765045D01*
X147720000Y-115090000D01*
X148900000Y-115090000D01*
X148900000Y-114865000D01*
X148875184Y-114633035D01*
X148805590Y-114410368D01*
X148693893Y-114205557D01*
X148544386Y-114026472D01*
X148362814Y-113879996D01*
X148156155Y-113771757D01*
X147932350Y-113705915D01*
X147906027Y-113701257D01*
X147720000Y-113765045D01*
X147700000Y-113765045D01*
X147513973Y-113701257D01*
X147487650Y-113705915D01*
X147263845Y-113771757D01*
X147057186Y-113879996D01*
X146875614Y-114026472D01*
X146726107Y-114205557D01*
X146614410Y-114410368D01*
X146544816Y-114633035D01*
X146520000Y-114865000D01*
X146360000Y-114865000D01*
X146360000Y-114816548D01*
X146342781Y-114641719D01*
X146274735Y-114417404D01*
X146164236Y-114210673D01*
X146015528Y-114029472D01*
X145834326Y-113880764D01*
X145627595Y-113770265D01*
X145403280Y-113702219D01*
X145170000Y-113679243D01*
X144936719Y-113702219D01*
X144712404Y-113770265D01*
X144505673Y-113880764D01*
X144324472Y-114029472D01*
X144175764Y-114210674D01*
X144065265Y-114417405D01*
X143997219Y-114641720D01*
X143980000Y-114816549D01*
X143820000Y-114816549D01*
X143820000Y-114816548D01*
X143802781Y-114641719D01*
X143734735Y-114417404D01*
X143624236Y-114210673D01*
X143475528Y-114029472D01*
X143294326Y-113880764D01*
X143087595Y-113770265D01*
X142863280Y-113702219D01*
X142630000Y-113679243D01*
X142396719Y-113702219D01*
X142172404Y-113770265D01*
X141965673Y-113880764D01*
X141784472Y-114029472D01*
X141635764Y-114210674D01*
X141525265Y-114417405D01*
X141457219Y-114641720D01*
X141440000Y-114816549D01*
X141281548Y-114816549D01*
X141281548Y-114254999D01*
X141270566Y-114143496D01*
X141238042Y-114036277D01*
X141185225Y-113937465D01*
X141114146Y-113850854D01*
X141027535Y-113779775D01*
X140928723Y-113726958D01*
X140821504Y-113694434D01*
X140710001Y-113683452D01*
X139469999Y-113683452D01*
X139358496Y-113694434D01*
X139251277Y-113726958D01*
X139152465Y-113779775D01*
X139065854Y-113850854D01*
X138994775Y-113937465D01*
X138941958Y-114036277D01*
X138909434Y-114143496D01*
X138898452Y-114254999D01*
X108300000Y-114254999D01*
X108300000Y-103355000D01*
X140128452Y-103355000D01*
X140128452Y-103655000D01*
X140137513Y-103746994D01*
X140164346Y-103835454D01*
X140207922Y-103916978D01*
X140266565Y-103988435D01*
X140338022Y-104047078D01*
X140419546Y-104090654D01*
X140508006Y-104117487D01*
X140600000Y-104126548D01*
X142250000Y-104126548D01*
X142341994Y-104117487D01*
X142430454Y-104090654D01*
X142511978Y-104047078D01*
X142583435Y-103988435D01*
X142642078Y-103916978D01*
X142685654Y-103835454D01*
X142712487Y-103746994D01*
X142721548Y-103655000D01*
X142721548Y-103355000D01*
X142712487Y-103263006D01*
X142685654Y-103174546D01*
X142642078Y-103093022D01*
X142583435Y-103021565D01*
X142511978Y-102962922D01*
X142430454Y-102919346D01*
X142341994Y-102892513D01*
X142250000Y-102883452D01*
X140600000Y-102883452D01*
X140508006Y-102892513D01*
X140419546Y-102919346D01*
X140338022Y-102962922D01*
X140266565Y-103021565D01*
X140207922Y-103093022D01*
X140164346Y-103174546D01*
X140137513Y-103263006D01*
X140128452Y-103355000D01*
X108300000Y-103355000D01*
X108300000Y-102085000D01*
X140128452Y-102085000D01*
X140128452Y-102385000D01*
X140137513Y-102476994D01*
X140164346Y-102565454D01*
X140207922Y-102646978D01*
X140266565Y-102718435D01*
X140338022Y-102777078D01*
X140419546Y-102820654D01*
X140508006Y-102847487D01*
X140600000Y-102856548D01*
X142250000Y-102856548D01*
X142341994Y-102847487D01*
X142430454Y-102820654D01*
X142511978Y-102777078D01*
X142583435Y-102718435D01*
X142642078Y-102646978D01*
X142685654Y-102565454D01*
X142712487Y-102476994D01*
X142721548Y-102385000D01*
X142721548Y-102085000D01*
X145078452Y-102085000D01*
X145078452Y-102385000D01*
X145087513Y-102476994D01*
X145114346Y-102565454D01*
X145157922Y-102646978D01*
X145216565Y-102718435D01*
X145288022Y-102777078D01*
X145369546Y-102820654D01*
X145458006Y-102847487D01*
X145550000Y-102856548D01*
X147200000Y-102856548D01*
X147291994Y-102847487D01*
X147380454Y-102820654D01*
X147461978Y-102777078D01*
X147533435Y-102718435D01*
X147592078Y-102646978D01*
X147635654Y-102565454D01*
X147662487Y-102476994D01*
X147671548Y-102385000D01*
X147671548Y-102085000D01*
X147662487Y-101993006D01*
X147635654Y-101904546D01*
X147592078Y-101823022D01*
X147533435Y-101751565D01*
X147461978Y-101692922D01*
X147380454Y-101649346D01*
X147291994Y-101622513D01*
X147200000Y-101613452D01*
X145550000Y-101613452D01*
X145458006Y-101622513D01*
X145369546Y-101649346D01*
X145288022Y-101692922D01*
X145216565Y-101751565D01*
X145157922Y-101823022D01*
X145114346Y-101904546D01*
X145087513Y-101993006D01*
X145078452Y-102085000D01*
X142721548Y-102085000D01*
X142712487Y-101993006D01*
X142685654Y-101904546D01*
X142642078Y-101823022D01*
X142583435Y-101751565D01*
X142511978Y-101692922D01*
X142430454Y-101649346D01*
X142341994Y-101622513D01*
X142250000Y-101613452D01*
X140600000Y-101613452D01*
X140508006Y-101622513D01*
X140419546Y-101649346D01*
X140338022Y-101692922D01*
X140266565Y-101751565D01*
X140207922Y-101823022D01*
X140164346Y-101904546D01*
X140137513Y-101993006D01*
X140128452Y-102085000D01*
X108300000Y-102085000D01*
X108300000Y-101265000D01*
X140128452Y-101265000D01*
X140134630Y-101327731D01*
X140152928Y-101388051D01*
X140182643Y-101443642D01*
X140222631Y-101492369D01*
X140271358Y-101532357D01*
X140326949Y-101562072D01*
X140387269Y-101580370D01*
X140450000Y-101586548D01*
X141335000Y-101585000D01*
X141415000Y-101505000D01*
X141415000Y-100975000D01*
X141435000Y-100975000D01*
X141435000Y-101505000D01*
X141515000Y-101585000D01*
X142400000Y-101586548D01*
X142462731Y-101580370D01*
X142523051Y-101562072D01*
X142578642Y-101532357D01*
X142627369Y-101492369D01*
X142667357Y-101443642D01*
X142697072Y-101388051D01*
X142715370Y-101327731D01*
X142721548Y-101265000D01*
X145078452Y-101265000D01*
X145084630Y-101327731D01*
X145102928Y-101388051D01*
X145132643Y-101443642D01*
X145172631Y-101492369D01*
X145221358Y-101532357D01*
X145276949Y-101562072D01*
X145337269Y-101580370D01*
X145400000Y-101586548D01*
X146285000Y-101585000D01*
X146365000Y-101505000D01*
X146365000Y-100975000D01*
X146385000Y-100975000D01*
X146385000Y-101505000D01*
X146465000Y-101585000D01*
X147350000Y-101586548D01*
X147412731Y-101580370D01*
X147473051Y-101562072D01*
X147528642Y-101532357D01*
X147577369Y-101492369D01*
X147617357Y-101443642D01*
X147647072Y-101388051D01*
X147665370Y-101327731D01*
X147671548Y-101265000D01*
X147670000Y-101055000D01*
X147590000Y-100975000D01*
X146385000Y-100975000D01*
X146365000Y-100975000D01*
X145160000Y-100975000D01*
X145080000Y-101055000D01*
X145078452Y-101265000D01*
X142721548Y-101265000D01*
X142720000Y-101055000D01*
X142640000Y-100975000D01*
X141435000Y-100975000D01*
X141415000Y-100975000D01*
X140210000Y-100975000D01*
X140130000Y-101055000D01*
X140128452Y-101265000D01*
X108300000Y-101265000D01*
X108300000Y-100665000D01*
X140128452Y-100665000D01*
X140130000Y-100875000D01*
X140210000Y-100955000D01*
X141415000Y-100955000D01*
X141415000Y-100425000D01*
X141435000Y-100425000D01*
X141435000Y-100955000D01*
X142640000Y-100955000D01*
X142720000Y-100875000D01*
X142721548Y-100665000D01*
X145078452Y-100665000D01*
X145080000Y-100875000D01*
X145160000Y-100955000D01*
X146365000Y-100955000D01*
X146365000Y-100425000D01*
X146385000Y-100425000D01*
X146385000Y-100955000D01*
X147590000Y-100955000D01*
X147670000Y-100875000D01*
X147671548Y-100665000D01*
X147665370Y-100602269D01*
X147647072Y-100541949D01*
X147617357Y-100486358D01*
X147577369Y-100437631D01*
X147528642Y-100397643D01*
X147473051Y-100367928D01*
X147412731Y-100349630D01*
X147350000Y-100343452D01*
X146465000Y-100345000D01*
X146385000Y-100425000D01*
X146365000Y-100425000D01*
X146285000Y-100345000D01*
X145400000Y-100343452D01*
X145337269Y-100349630D01*
X145276949Y-100367928D01*
X145221358Y-100397643D01*
X145172631Y-100437631D01*
X145132643Y-100486358D01*
X145102928Y-100541949D01*
X145084630Y-100602269D01*
X145078452Y-100665000D01*
X142721548Y-100665000D01*
X142715370Y-100602269D01*
X142697072Y-100541949D01*
X142667357Y-100486358D01*
X142627369Y-100437631D01*
X142578642Y-100397643D01*
X142523051Y-100367928D01*
X142462731Y-100349630D01*
X142400000Y-100343452D01*
X141515000Y-100345000D01*
X141435000Y-100425000D01*
X141415000Y-100425000D01*
X141335000Y-100345000D01*
X140450000Y-100343452D01*
X140387269Y-100349630D01*
X140326949Y-100367928D01*
X140271358Y-100397643D01*
X140222631Y-100437631D01*
X140182643Y-100486358D01*
X140152928Y-100541949D01*
X140134630Y-100602269D01*
X140128452Y-100665000D01*
X108300000Y-100665000D01*
X108300000Y-99545000D01*
X140128452Y-99545000D01*
X140128452Y-99845000D01*
X140137513Y-99936994D01*
X140164346Y-100025454D01*
X140207922Y-100106978D01*
X140266565Y-100178435D01*
X140338022Y-100237078D01*
X140419546Y-100280654D01*
X140508006Y-100307487D01*
X140600000Y-100316548D01*
X142250000Y-100316548D01*
X142341994Y-100307487D01*
X142430454Y-100280654D01*
X142511978Y-100237078D01*
X142583435Y-100178435D01*
X142610874Y-100145000D01*
X143278140Y-100145000D01*
X143300000Y-100147153D01*
X143387235Y-100138561D01*
X143387238Y-100138560D01*
X143471118Y-100113116D01*
X143548425Y-100071794D01*
X143616185Y-100016185D01*
X143630124Y-99999200D01*
X144050001Y-99579325D01*
X144469879Y-99999204D01*
X144483815Y-100016185D01*
X144551575Y-100071794D01*
X144628882Y-100113116D01*
X144712765Y-100138561D01*
X144778140Y-100145000D01*
X144778150Y-100145000D01*
X144799999Y-100147152D01*
X144821848Y-100145000D01*
X145189126Y-100145000D01*
X145216565Y-100178435D01*
X145288022Y-100237078D01*
X145369546Y-100280654D01*
X145458006Y-100307487D01*
X145550000Y-100316548D01*
X147200000Y-100316548D01*
X147291994Y-100307487D01*
X147380454Y-100280654D01*
X147461978Y-100237078D01*
X147533435Y-100178435D01*
X147592078Y-100106978D01*
X147635654Y-100025454D01*
X147662487Y-99936994D01*
X147671548Y-99845000D01*
X147671548Y-99545000D01*
X147662487Y-99453006D01*
X147635654Y-99364546D01*
X147592078Y-99283022D01*
X147533435Y-99211565D01*
X147461978Y-99152922D01*
X147380454Y-99109346D01*
X147291994Y-99082513D01*
X147200000Y-99073452D01*
X145550000Y-99073452D01*
X145458006Y-99082513D01*
X145369546Y-99109346D01*
X145288022Y-99152922D01*
X145216565Y-99211565D01*
X145180919Y-99255000D01*
X144984325Y-99255000D01*
X144695010Y-98965686D01*
X144695010Y-90134314D01*
X145323707Y-89505618D01*
X145403280Y-89497781D01*
X145627595Y-89429735D01*
X145834326Y-89319236D01*
X145985708Y-89195000D01*
X146518452Y-89195000D01*
X146524630Y-89257731D01*
X146542928Y-89318051D01*
X146572643Y-89373642D01*
X146612631Y-89422369D01*
X146661358Y-89462357D01*
X146716949Y-89492072D01*
X146777269Y-89510370D01*
X146840000Y-89516548D01*
X147620000Y-89515000D01*
X147700000Y-89435000D01*
X147700000Y-88110000D01*
X147720000Y-88110000D01*
X147720000Y-89435000D01*
X147800000Y-89515000D01*
X148580000Y-89516548D01*
X148642731Y-89510370D01*
X148703051Y-89492072D01*
X148758642Y-89462357D01*
X148807369Y-89422369D01*
X148847357Y-89373642D01*
X148877072Y-89318051D01*
X148895370Y-89257731D01*
X148901548Y-89195000D01*
X148900000Y-88190000D01*
X148820000Y-88110000D01*
X147720000Y-88110000D01*
X147700000Y-88110000D01*
X146600000Y-88110000D01*
X146520000Y-88190000D01*
X146518452Y-89195000D01*
X145985708Y-89195000D01*
X146015528Y-89170528D01*
X146164236Y-88989327D01*
X146274735Y-88782596D01*
X146342781Y-88558281D01*
X146360000Y-88383452D01*
X146360000Y-87816549D01*
X146342781Y-87641720D01*
X146274735Y-87417405D01*
X146164236Y-87210673D01*
X146015528Y-87029472D01*
X145985709Y-87005000D01*
X146518452Y-87005000D01*
X146520000Y-88010000D01*
X146600000Y-88090000D01*
X147700000Y-88090000D01*
X147700000Y-86765000D01*
X147720000Y-86765000D01*
X147720000Y-88090000D01*
X148820000Y-88090000D01*
X148900000Y-88010000D01*
X148901548Y-87005000D01*
X148895370Y-86942269D01*
X148877072Y-86881949D01*
X148847357Y-86826358D01*
X148807369Y-86777631D01*
X148758642Y-86737643D01*
X148703051Y-86707928D01*
X148642731Y-86689630D01*
X148580000Y-86683452D01*
X147800000Y-86685000D01*
X147720000Y-86765000D01*
X147700000Y-86765000D01*
X147620000Y-86685000D01*
X146840000Y-86683452D01*
X146777269Y-86689630D01*
X146716949Y-86707928D01*
X146661358Y-86737643D01*
X146612631Y-86777631D01*
X146572643Y-86826358D01*
X146542928Y-86881949D01*
X146524630Y-86942269D01*
X146518452Y-87005000D01*
X145985709Y-87005000D01*
X145834327Y-86880764D01*
X145627596Y-86770265D01*
X145403281Y-86702219D01*
X145170000Y-86679243D01*
X144936720Y-86702219D01*
X144712405Y-86770265D01*
X144505674Y-86880764D01*
X144324473Y-87029472D01*
X144175765Y-87210673D01*
X144065265Y-87417404D01*
X143997219Y-87641719D01*
X143980000Y-87816548D01*
X143980000Y-88383451D01*
X143997219Y-88558280D01*
X144065265Y-88782595D01*
X144175764Y-88989326D01*
X144324472Y-89170528D01*
X144366036Y-89204639D01*
X144025000Y-89545675D01*
X143554106Y-89074781D01*
X143624236Y-88989327D01*
X143734735Y-88782596D01*
X143802781Y-88558281D01*
X143820000Y-88383452D01*
X143820000Y-87816549D01*
X143802781Y-87641720D01*
X143734735Y-87417405D01*
X143624236Y-87210673D01*
X143475528Y-87029472D01*
X143294327Y-86880764D01*
X143087596Y-86770265D01*
X142863281Y-86702219D01*
X142630000Y-86679243D01*
X142396720Y-86702219D01*
X142172405Y-86770265D01*
X141965674Y-86880764D01*
X141784473Y-87029472D01*
X141635765Y-87210673D01*
X141525265Y-87417404D01*
X141457219Y-87641719D01*
X141440000Y-87816548D01*
X141440000Y-88383451D01*
X141457219Y-88558280D01*
X141525265Y-88782595D01*
X141635764Y-88989326D01*
X141784472Y-89170528D01*
X141965673Y-89319236D01*
X142172404Y-89429735D01*
X142396719Y-89497781D01*
X142630000Y-89520757D01*
X142731442Y-89510766D01*
X143355000Y-90134325D01*
X143355001Y-99015674D01*
X143115675Y-99255000D01*
X142619081Y-99255000D01*
X142583435Y-99211565D01*
X142511978Y-99152922D01*
X142430454Y-99109346D01*
X142341994Y-99082513D01*
X142250000Y-99073452D01*
X140600000Y-99073452D01*
X140508006Y-99082513D01*
X140419546Y-99109346D01*
X140338022Y-99152922D01*
X140266565Y-99211565D01*
X140207922Y-99283022D01*
X140164346Y-99364546D01*
X140137513Y-99453006D01*
X140128452Y-99545000D01*
X108300000Y-99545000D01*
X108300000Y-86410897D01*
X109980000Y-86410897D01*
X109980000Y-86789103D01*
X110053785Y-87160043D01*
X110198518Y-87509461D01*
X110408639Y-87823929D01*
X110676071Y-88091361D01*
X110990539Y-88301482D01*
X111339957Y-88446215D01*
X111710897Y-88520000D01*
X112089103Y-88520000D01*
X112315331Y-88475000D01*
X134553452Y-88475000D01*
X134559630Y-88537731D01*
X134577928Y-88598051D01*
X134607643Y-88653642D01*
X134647631Y-88702369D01*
X134696358Y-88742357D01*
X134751949Y-88772072D01*
X134812269Y-88790370D01*
X134875000Y-88796548D01*
X135222500Y-88795000D01*
X135302500Y-88715000D01*
X135302500Y-88010000D01*
X135322500Y-88010000D01*
X135322500Y-88715000D01*
X135402500Y-88795000D01*
X135750000Y-88796548D01*
X135812731Y-88790370D01*
X135873051Y-88772072D01*
X135928642Y-88742357D01*
X135977369Y-88702369D01*
X136017357Y-88653642D01*
X136047072Y-88598051D01*
X136065370Y-88537731D01*
X136071548Y-88475000D01*
X136070000Y-88090000D01*
X135990000Y-88010000D01*
X135322500Y-88010000D01*
X135302500Y-88010000D01*
X134635000Y-88010000D01*
X134555000Y-88090000D01*
X134553452Y-88475000D01*
X112315331Y-88475000D01*
X112460043Y-88446215D01*
X112809461Y-88301482D01*
X113123929Y-88091361D01*
X113391361Y-87823929D01*
X113591099Y-87525000D01*
X134553452Y-87525000D01*
X134555000Y-87910000D01*
X134635000Y-87990000D01*
X135302500Y-87990000D01*
X135302500Y-87285000D01*
X135322500Y-87285000D01*
X135322500Y-87990000D01*
X135990000Y-87990000D01*
X136070000Y-87910000D01*
X136071548Y-87525000D01*
X136065370Y-87462269D01*
X136047072Y-87401949D01*
X136017357Y-87346358D01*
X135977369Y-87297631D01*
X135928642Y-87257643D01*
X135873051Y-87227928D01*
X135812731Y-87209630D01*
X135750000Y-87203452D01*
X135402500Y-87205000D01*
X135322500Y-87285000D01*
X135302500Y-87285000D01*
X135222500Y-87205000D01*
X134875000Y-87203452D01*
X134812269Y-87209630D01*
X134751949Y-87227928D01*
X134696358Y-87257643D01*
X134647631Y-87297631D01*
X134607643Y-87346358D01*
X134577928Y-87401949D01*
X134559630Y-87462269D01*
X134553452Y-87525000D01*
X113591099Y-87525000D01*
X113601482Y-87509461D01*
X113746215Y-87160043D01*
X113820000Y-86789103D01*
X113820000Y-86675000D01*
X134553452Y-86675000D01*
X134559630Y-86737731D01*
X134577928Y-86798051D01*
X134607643Y-86853642D01*
X134647631Y-86902369D01*
X134696358Y-86942357D01*
X134751949Y-86972072D01*
X134812269Y-86990370D01*
X134875000Y-86996548D01*
X135222500Y-86995000D01*
X135302500Y-86915000D01*
X135302500Y-86210000D01*
X135322500Y-86210000D01*
X135322500Y-86915000D01*
X135402500Y-86995000D01*
X135750000Y-86996548D01*
X135812731Y-86990370D01*
X135873051Y-86972072D01*
X135928642Y-86942357D01*
X135977369Y-86902369D01*
X136017357Y-86853642D01*
X136047072Y-86798051D01*
X136065370Y-86737731D01*
X136071548Y-86675000D01*
X136070000Y-86290000D01*
X135990000Y-86210000D01*
X135322500Y-86210000D01*
X135302500Y-86210000D01*
X134635000Y-86210000D01*
X134555000Y-86290000D01*
X134553452Y-86675000D01*
X113820000Y-86675000D01*
X113820000Y-86410897D01*
X113746215Y-86039957D01*
X113615757Y-85725000D01*
X134553452Y-85725000D01*
X134555000Y-86110000D01*
X134635000Y-86190000D01*
X135302500Y-86190000D01*
X135302500Y-85485000D01*
X135322500Y-85485000D01*
X135322500Y-86190000D01*
X135990000Y-86190000D01*
X136070000Y-86110000D01*
X136070668Y-85943750D01*
X136128452Y-85943750D01*
X136128452Y-86456250D01*
X136138834Y-86561657D01*
X136169580Y-86663013D01*
X136219509Y-86756423D01*
X136230001Y-86769207D01*
X136230000Y-87430793D01*
X136219509Y-87443577D01*
X136169580Y-87536987D01*
X136138834Y-87638343D01*
X136128452Y-87743750D01*
X136128452Y-88256250D01*
X136138834Y-88361657D01*
X136169580Y-88463013D01*
X136219509Y-88556423D01*
X136286702Y-88638298D01*
X136368577Y-88705491D01*
X136461987Y-88755420D01*
X136563343Y-88786166D01*
X136668750Y-88796548D01*
X137106250Y-88796548D01*
X137211657Y-88786166D01*
X137313013Y-88755420D01*
X137406423Y-88705491D01*
X137488298Y-88638298D01*
X137544349Y-88570000D01*
X138920774Y-88570000D01*
X138985265Y-88782595D01*
X139095764Y-88989326D01*
X139244472Y-89170528D01*
X139425673Y-89319236D01*
X139632404Y-89429735D01*
X139856719Y-89497781D01*
X140090000Y-89520757D01*
X140323280Y-89497781D01*
X140547595Y-89429735D01*
X140754326Y-89319236D01*
X140935528Y-89170528D01*
X141084236Y-88989327D01*
X141194735Y-88782596D01*
X141262781Y-88558281D01*
X141280000Y-88383452D01*
X141280000Y-87816549D01*
X141262781Y-87641720D01*
X141194735Y-87417405D01*
X141084236Y-87210673D01*
X140935528Y-87029472D01*
X140754327Y-86880764D01*
X140670000Y-86835691D01*
X140670000Y-86536100D01*
X141636102Y-85570000D01*
X149063900Y-85570000D01*
X149930000Y-86436102D01*
X149930001Y-98763897D01*
X148516750Y-100177150D01*
X148495000Y-100195000D01*
X148450138Y-100249664D01*
X148423770Y-100281793D01*
X148390813Y-100343452D01*
X148370842Y-100380816D01*
X148338248Y-100488262D01*
X148330000Y-100572008D01*
X148330000Y-100572017D01*
X148327244Y-100600000D01*
X148330000Y-100627983D01*
X148330001Y-102946685D01*
X148311702Y-102961702D01*
X148255651Y-103030000D01*
X147540357Y-103030000D01*
X147533435Y-103021565D01*
X147461978Y-102962922D01*
X147380454Y-102919346D01*
X147291994Y-102892513D01*
X147200000Y-102883452D01*
X145550000Y-102883452D01*
X145458006Y-102892513D01*
X145369546Y-102919346D01*
X145288022Y-102962922D01*
X145216565Y-103021565D01*
X145157922Y-103093022D01*
X145114346Y-103174546D01*
X145087513Y-103263006D01*
X145078452Y-103355000D01*
X145078452Y-103655000D01*
X145087513Y-103746994D01*
X145114346Y-103835454D01*
X145157922Y-103916978D01*
X145216565Y-103988435D01*
X145288022Y-104047078D01*
X145369546Y-104090654D01*
X145458006Y-104117487D01*
X145550000Y-104126548D01*
X146475932Y-104126548D01*
X146480815Y-104129158D01*
X146588261Y-104161752D01*
X146672007Y-104170000D01*
X146672017Y-104170000D01*
X146700000Y-104172756D01*
X146727983Y-104170000D01*
X148255651Y-104170000D01*
X148311702Y-104238298D01*
X148342500Y-104263574D01*
X148342501Y-104836426D01*
X148311702Y-104861702D01*
X148244509Y-104943577D01*
X148194580Y-105036987D01*
X148163834Y-105138343D01*
X148153452Y-105243750D01*
X148153452Y-105756250D01*
X148163834Y-105861657D01*
X148194580Y-105963013D01*
X148244509Y-106056423D01*
X148311702Y-106138298D01*
X148393577Y-106205491D01*
X148486987Y-106255420D01*
X148588343Y-106286166D01*
X148693750Y-106296548D01*
X149131250Y-106296548D01*
X149236657Y-106286166D01*
X149338013Y-106255420D01*
X149431423Y-106205491D01*
X149513298Y-106138298D01*
X149580491Y-106056423D01*
X149624012Y-105975000D01*
X149728452Y-105975000D01*
X149734630Y-106037731D01*
X149752928Y-106098051D01*
X149782643Y-106153642D01*
X149822631Y-106202369D01*
X149871358Y-106242357D01*
X149926949Y-106272072D01*
X149987269Y-106290370D01*
X150050000Y-106296548D01*
X150397500Y-106295000D01*
X150477500Y-106215000D01*
X150477500Y-105510000D01*
X150497500Y-105510000D01*
X150497500Y-106215000D01*
X150577500Y-106295000D01*
X150925000Y-106296548D01*
X150987731Y-106290370D01*
X151048051Y-106272072D01*
X151103642Y-106242357D01*
X151152369Y-106202369D01*
X151192357Y-106153642D01*
X151222072Y-106098051D01*
X151240370Y-106037731D01*
X151246548Y-105975000D01*
X151245000Y-105590000D01*
X151165000Y-105510000D01*
X150497500Y-105510000D01*
X150477500Y-105510000D01*
X149810000Y-105510000D01*
X149730000Y-105590000D01*
X149728452Y-105975000D01*
X149624012Y-105975000D01*
X149630420Y-105963013D01*
X149661166Y-105861657D01*
X149671548Y-105756250D01*
X149671548Y-105523911D01*
X149676229Y-105518207D01*
X149729158Y-105419185D01*
X149731492Y-105411492D01*
X149810000Y-105490000D01*
X150477500Y-105490000D01*
X150477500Y-104785000D01*
X150497500Y-104785000D01*
X150497500Y-105490000D01*
X151165000Y-105490000D01*
X151245000Y-105410000D01*
X151246548Y-105025000D01*
X151240370Y-104962269D01*
X151222072Y-104901949D01*
X151192357Y-104846358D01*
X151152369Y-104797631D01*
X151103642Y-104757643D01*
X151048051Y-104727928D01*
X150987731Y-104709630D01*
X150925000Y-104703452D01*
X150577500Y-104705000D01*
X150497500Y-104785000D01*
X150477500Y-104785000D01*
X150397500Y-104705000D01*
X150050000Y-104703452D01*
X149987269Y-104709630D01*
X149926949Y-104727928D01*
X149871358Y-104757643D01*
X149822631Y-104797631D01*
X149782643Y-104846358D01*
X149752928Y-104901949D01*
X149734630Y-104962269D01*
X149731910Y-104989889D01*
X149729158Y-104980817D01*
X149676229Y-104881794D01*
X149605000Y-104795000D01*
X149518206Y-104723771D01*
X149482500Y-104704686D01*
X149482500Y-104263573D01*
X149513298Y-104238298D01*
X149580491Y-104156423D01*
X149624012Y-104075000D01*
X149728452Y-104075000D01*
X149734630Y-104137731D01*
X149752928Y-104198051D01*
X149782643Y-104253642D01*
X149822631Y-104302369D01*
X149871358Y-104342357D01*
X149926949Y-104372072D01*
X149987269Y-104390370D01*
X150050000Y-104396548D01*
X150397500Y-104395000D01*
X150477500Y-104315000D01*
X150477500Y-103610000D01*
X150497500Y-103610000D01*
X150497500Y-104315000D01*
X150577500Y-104395000D01*
X150925000Y-104396548D01*
X150987731Y-104390370D01*
X151048051Y-104372072D01*
X151078068Y-104356027D01*
X157801257Y-104356027D01*
X157805915Y-104382350D01*
X157871757Y-104606155D01*
X157979996Y-104812814D01*
X158126472Y-104994386D01*
X158305557Y-105143893D01*
X158510368Y-105255590D01*
X158733035Y-105325184D01*
X158965000Y-105350000D01*
X159190000Y-105350000D01*
X159190000Y-104170000D01*
X159210000Y-104170000D01*
X159210000Y-105350000D01*
X159435000Y-105350000D01*
X159666965Y-105325184D01*
X159889632Y-105255590D01*
X160094443Y-105143893D01*
X160273528Y-104994386D01*
X160420004Y-104812814D01*
X160528243Y-104606155D01*
X160594085Y-104382350D01*
X160598743Y-104356027D01*
X160534955Y-104170000D01*
X159210000Y-104170000D01*
X159190000Y-104170000D01*
X157865045Y-104170000D01*
X157801257Y-104356027D01*
X151078068Y-104356027D01*
X151103642Y-104342357D01*
X151152369Y-104302369D01*
X151192357Y-104253642D01*
X151222072Y-104198051D01*
X151240370Y-104137731D01*
X151246548Y-104075000D01*
X151246102Y-103963973D01*
X157801257Y-103963973D01*
X157865045Y-104150000D01*
X159190000Y-104150000D01*
X159190000Y-102970000D01*
X159210000Y-102970000D01*
X159210000Y-104150000D01*
X160534955Y-104150000D01*
X160598743Y-103963973D01*
X160594085Y-103937650D01*
X160528243Y-103713845D01*
X160420004Y-103507186D01*
X160273528Y-103325614D01*
X160094443Y-103176107D01*
X159889632Y-103064410D01*
X159666965Y-102994816D01*
X159435000Y-102970000D01*
X159210000Y-102970000D01*
X159190000Y-102970000D01*
X158965000Y-102970000D01*
X158733035Y-102994816D01*
X158510368Y-103064410D01*
X158305557Y-103176107D01*
X158126472Y-103325614D01*
X157979996Y-103507186D01*
X157871757Y-103713845D01*
X157805915Y-103937650D01*
X157801257Y-103963973D01*
X151246102Y-103963973D01*
X151245000Y-103690000D01*
X151165000Y-103610000D01*
X150497500Y-103610000D01*
X150477500Y-103610000D01*
X149810000Y-103610000D01*
X149730000Y-103690000D01*
X149728452Y-104075000D01*
X149624012Y-104075000D01*
X149630420Y-104063013D01*
X149661166Y-103961657D01*
X149671548Y-103856250D01*
X149671548Y-103343750D01*
X149661166Y-103238343D01*
X149630420Y-103136987D01*
X149624013Y-103125000D01*
X149728452Y-103125000D01*
X149730000Y-103510000D01*
X149810000Y-103590000D01*
X150477500Y-103590000D01*
X150477500Y-102885000D01*
X150497500Y-102885000D01*
X150497500Y-103590000D01*
X151165000Y-103590000D01*
X151245000Y-103510000D01*
X151246548Y-103125000D01*
X151240370Y-103062269D01*
X151222072Y-103001949D01*
X151192357Y-102946358D01*
X151152369Y-102897631D01*
X151103642Y-102857643D01*
X151048051Y-102827928D01*
X150987731Y-102809630D01*
X150925000Y-102803452D01*
X150577500Y-102805000D01*
X150497500Y-102885000D01*
X150477500Y-102885000D01*
X150397500Y-102805000D01*
X150050000Y-102803452D01*
X149987269Y-102809630D01*
X149926949Y-102827928D01*
X149871358Y-102857643D01*
X149822631Y-102897631D01*
X149782643Y-102946358D01*
X149752928Y-103001949D01*
X149734630Y-103062269D01*
X149728452Y-103125000D01*
X149624013Y-103125000D01*
X149580491Y-103043577D01*
X149513298Y-102961702D01*
X149470000Y-102926168D01*
X149470000Y-101620000D01*
X157779243Y-101620000D01*
X157802219Y-101853281D01*
X157870265Y-102077596D01*
X157980764Y-102284327D01*
X158129472Y-102465528D01*
X158310673Y-102614236D01*
X158517404Y-102724735D01*
X158741719Y-102792781D01*
X158916548Y-102810000D01*
X159483452Y-102810000D01*
X159658281Y-102792781D01*
X159882596Y-102724735D01*
X160089327Y-102614236D01*
X160270528Y-102465528D01*
X160419236Y-102284327D01*
X160529735Y-102077596D01*
X160597781Y-101853281D01*
X160620757Y-101620000D01*
X160597781Y-101386719D01*
X160529735Y-101162404D01*
X160419236Y-100955673D01*
X160270528Y-100774472D01*
X160089327Y-100625764D01*
X159882596Y-100515265D01*
X159658281Y-100447219D01*
X159483452Y-100430000D01*
X158916548Y-100430000D01*
X158741719Y-100447219D01*
X158517404Y-100515265D01*
X158310673Y-100625764D01*
X158129472Y-100774472D01*
X157980764Y-100955673D01*
X157870265Y-101162404D01*
X157802219Y-101386719D01*
X157779243Y-101620000D01*
X149470000Y-101620000D01*
X149470000Y-100836100D01*
X150883261Y-99422841D01*
X150905000Y-99405000D01*
X150922841Y-99383261D01*
X150922845Y-99383257D01*
X150976230Y-99318208D01*
X151006573Y-99261439D01*
X151029158Y-99219185D01*
X151061752Y-99111739D01*
X151070000Y-99027993D01*
X151070000Y-99027986D01*
X151072756Y-99000000D01*
X151070000Y-98972014D01*
X151070000Y-98459999D01*
X157783452Y-98459999D01*
X157783452Y-99700001D01*
X157794434Y-99811504D01*
X157826958Y-99918723D01*
X157879775Y-100017535D01*
X157950854Y-100104146D01*
X158037465Y-100175225D01*
X158136277Y-100228042D01*
X158243496Y-100260566D01*
X158354999Y-100271548D01*
X160045001Y-100271548D01*
X160156504Y-100260566D01*
X160263723Y-100228042D01*
X160362535Y-100175225D01*
X160449146Y-100104146D01*
X160520225Y-100017535D01*
X160573042Y-99918723D01*
X160605566Y-99811504D01*
X160616548Y-99700001D01*
X160616548Y-98459999D01*
X160605566Y-98348496D01*
X160573042Y-98241277D01*
X160520225Y-98142465D01*
X160449146Y-98055854D01*
X160362535Y-97984775D01*
X160263723Y-97931958D01*
X160156504Y-97899434D01*
X160045001Y-97888452D01*
X158354999Y-97888452D01*
X158243496Y-97899434D01*
X158136277Y-97931958D01*
X158037465Y-97984775D01*
X157950854Y-98055854D01*
X157879775Y-98142465D01*
X157826958Y-98241277D01*
X157794434Y-98348496D01*
X157783452Y-98459999D01*
X151070000Y-98459999D01*
X151070000Y-86410897D01*
X173980000Y-86410897D01*
X173980000Y-86789103D01*
X174053785Y-87160043D01*
X174198518Y-87509461D01*
X174408639Y-87823929D01*
X174676071Y-88091361D01*
X174990539Y-88301482D01*
X175339957Y-88446215D01*
X175710897Y-88520000D01*
X176089103Y-88520000D01*
X176460043Y-88446215D01*
X176809461Y-88301482D01*
X177123929Y-88091361D01*
X177391361Y-87823929D01*
X177601482Y-87509461D01*
X177746215Y-87160043D01*
X177820000Y-86789103D01*
X177820000Y-86410897D01*
X177746215Y-86039957D01*
X177601482Y-85690539D01*
X177391361Y-85376071D01*
X177123929Y-85108639D01*
X176809461Y-84898518D01*
X176460043Y-84753785D01*
X176089103Y-84680000D01*
X175710897Y-84680000D01*
X175339957Y-84753785D01*
X174990539Y-84898518D01*
X174676071Y-85108639D01*
X174408639Y-85376071D01*
X174198518Y-85690539D01*
X174053785Y-86039957D01*
X173980000Y-86410897D01*
X151070000Y-86410897D01*
X151070000Y-86227982D01*
X151072756Y-86199999D01*
X151070000Y-86172016D01*
X151070000Y-86172007D01*
X151061752Y-86088261D01*
X151029158Y-85980815D01*
X150976230Y-85881793D01*
X150940571Y-85838343D01*
X150922844Y-85816742D01*
X150922841Y-85816739D01*
X150905000Y-85795000D01*
X150883262Y-85777160D01*
X149722850Y-84616749D01*
X149705000Y-84595000D01*
X149618207Y-84523770D01*
X149519185Y-84470842D01*
X149411739Y-84438248D01*
X149327993Y-84430000D01*
X149327983Y-84430000D01*
X149300000Y-84427244D01*
X149272017Y-84430000D01*
X141427986Y-84430000D01*
X141400000Y-84427244D01*
X141372014Y-84430000D01*
X141372007Y-84430000D01*
X141288261Y-84438248D01*
X141180815Y-84470842D01*
X141081793Y-84523770D01*
X141016743Y-84577155D01*
X141016739Y-84577159D01*
X140995000Y-84595000D01*
X140977159Y-84616739D01*
X139716745Y-85877155D01*
X139695001Y-85895000D01*
X139677156Y-85916744D01*
X139623770Y-85981793D01*
X139570842Y-86080816D01*
X139538249Y-86188261D01*
X139527244Y-86300000D01*
X139530001Y-86327993D01*
X139530001Y-86825001D01*
X139425674Y-86880764D01*
X139244473Y-87029472D01*
X139095765Y-87210673D01*
X138985265Y-87417404D01*
X138981444Y-87430000D01*
X137544349Y-87430000D01*
X137488298Y-87361702D01*
X137406423Y-87294509D01*
X137370000Y-87275040D01*
X137370000Y-86924960D01*
X137406423Y-86905491D01*
X137488298Y-86838298D01*
X137555491Y-86756423D01*
X137605420Y-86663013D01*
X137636166Y-86561657D01*
X137646548Y-86456250D01*
X137646548Y-85943750D01*
X137636166Y-85838343D01*
X137605420Y-85736987D01*
X137555491Y-85643577D01*
X137488298Y-85561702D01*
X137406423Y-85494509D01*
X137313013Y-85444580D01*
X137211657Y-85413834D01*
X137106250Y-85403452D01*
X136668750Y-85403452D01*
X136563343Y-85413834D01*
X136461987Y-85444580D01*
X136368577Y-85494509D01*
X136286702Y-85561702D01*
X136219509Y-85643577D01*
X136169580Y-85736987D01*
X136138834Y-85838343D01*
X136128452Y-85943750D01*
X136070668Y-85943750D01*
X136071548Y-85725000D01*
X136065370Y-85662269D01*
X136047072Y-85601949D01*
X136017357Y-85546358D01*
X135977369Y-85497631D01*
X135928642Y-85457643D01*
X135873051Y-85427928D01*
X135812731Y-85409630D01*
X135750000Y-85403452D01*
X135402500Y-85405000D01*
X135322500Y-85485000D01*
X135302500Y-85485000D01*
X135222500Y-85405000D01*
X134875000Y-85403452D01*
X134812269Y-85409630D01*
X134751949Y-85427928D01*
X134696358Y-85457643D01*
X134647631Y-85497631D01*
X134607643Y-85546358D01*
X134577928Y-85601949D01*
X134559630Y-85662269D01*
X134553452Y-85725000D01*
X113615757Y-85725000D01*
X113601482Y-85690539D01*
X113391361Y-85376071D01*
X113123929Y-85108639D01*
X112809461Y-84898518D01*
X112460043Y-84753785D01*
X112089103Y-84680000D01*
X111710897Y-84680000D01*
X111339957Y-84753785D01*
X110990539Y-84898518D01*
X110676071Y-85108639D01*
X110408639Y-85376071D01*
X110198518Y-85690539D01*
X110053785Y-86039957D01*
X109980000Y-86410897D01*
X108300000Y-86410897D01*
X108300000Y-82945000D01*
X111916946Y-82945000D01*
X111917545Y-82944941D01*
X111922146Y-82944925D01*
X111937142Y-82943402D01*
X111952212Y-82943507D01*
X111957006Y-82943037D01*
X112539296Y-82881836D01*
X112569967Y-82875541D01*
X112600642Y-82869689D01*
X112605246Y-82868299D01*
X112605253Y-82868298D01*
X112605259Y-82868295D01*
X113164567Y-82695160D01*
X113193415Y-82683034D01*
X113222384Y-82671329D01*
X113226633Y-82669070D01*
X113226638Y-82669068D01*
X113226642Y-82669065D01*
X113741669Y-82390592D01*
X113767616Y-82373091D01*
X113793757Y-82355984D01*
X113797483Y-82352946D01*
X113797490Y-82352941D01*
X113797496Y-82352935D01*
X114248623Y-81979730D01*
X114270650Y-81957549D01*
X114292997Y-81935665D01*
X114296068Y-81931953D01*
X114666120Y-81478225D01*
X114683429Y-81452173D01*
X114701090Y-81426380D01*
X114703378Y-81422147D01*
X114703381Y-81422143D01*
X114703383Y-81422139D01*
X114978255Y-80905178D01*
X114990184Y-80876236D01*
X115002488Y-80847528D01*
X115003911Y-80842933D01*
X115003914Y-80842926D01*
X115003915Y-80842919D01*
X115173140Y-80282419D01*
X115179213Y-80251751D01*
X115185715Y-80221160D01*
X115186217Y-80216380D01*
X115186219Y-80216369D01*
X115186219Y-80216359D01*
X115243353Y-79633667D01*
X115245000Y-79616946D01*
X115245000Y-77000000D01*
X172555000Y-77000000D01*
X172555001Y-79616946D01*
M02*
