G04 #@! TF.GenerationSoftware,KiCad,Pcbnew,(5.1.6)-1*
G04 #@! TF.CreationDate,2022-06-26T15:17:10+10:00*
G04 #@! TF.ProjectId,wind_sensors,77696e64-5f73-4656-9e73-6f72732e6b69,rev?*
G04 #@! TF.SameCoordinates,Original*
G04 #@! TF.FileFunction,Soldermask,Bot*
G04 #@! TF.FilePolarity,Negative*
%FSLAX46Y46*%
G04 Gerber Fmt 4.6, Leading zero omitted, Abs format (unit mm)*
G04 Created by KiCad (PCBNEW (5.1.6)-1) date 2022-06-26 15:17:10*
%MOMM*%
%LPD*%
G01*
G04 APERTURE LIST*
%ADD10O,2.290000X1.840000*%
%ADD11O,1.840000X2.290000*%
%ADD12C,3.300000*%
G04 APERTURE END LIST*
G36*
G01*
X145350000Y-103680000D02*
X145350000Y-103330000D01*
G75*
G02*
X145525000Y-103155000I175000J0D01*
G01*
X147225000Y-103155000D01*
G75*
G02*
X147400000Y-103330000I0J-175000D01*
G01*
X147400000Y-103680000D01*
G75*
G02*
X147225000Y-103855000I-175000J0D01*
G01*
X145525000Y-103855000D01*
G75*
G02*
X145350000Y-103680000I0J175000D01*
G01*
G37*
G36*
G01*
X145350000Y-102410000D02*
X145350000Y-102060000D01*
G75*
G02*
X145525000Y-101885000I175000J0D01*
G01*
X147225000Y-101885000D01*
G75*
G02*
X147400000Y-102060000I0J-175000D01*
G01*
X147400000Y-102410000D01*
G75*
G02*
X147225000Y-102585000I-175000J0D01*
G01*
X145525000Y-102585000D01*
G75*
G02*
X145350000Y-102410000I0J175000D01*
G01*
G37*
G36*
G01*
X145350000Y-101140000D02*
X145350000Y-100790000D01*
G75*
G02*
X145525000Y-100615000I175000J0D01*
G01*
X147225000Y-100615000D01*
G75*
G02*
X147400000Y-100790000I0J-175000D01*
G01*
X147400000Y-101140000D01*
G75*
G02*
X147225000Y-101315000I-175000J0D01*
G01*
X145525000Y-101315000D01*
G75*
G02*
X145350000Y-101140000I0J175000D01*
G01*
G37*
G36*
G01*
X145350000Y-99870000D02*
X145350000Y-99520000D01*
G75*
G02*
X145525000Y-99345000I175000J0D01*
G01*
X147225000Y-99345000D01*
G75*
G02*
X147400000Y-99520000I0J-175000D01*
G01*
X147400000Y-99870000D01*
G75*
G02*
X147225000Y-100045000I-175000J0D01*
G01*
X145525000Y-100045000D01*
G75*
G02*
X145350000Y-99870000I0J175000D01*
G01*
G37*
G36*
G01*
X140400000Y-99870000D02*
X140400000Y-99520000D01*
G75*
G02*
X140575000Y-99345000I175000J0D01*
G01*
X142275000Y-99345000D01*
G75*
G02*
X142450000Y-99520000I0J-175000D01*
G01*
X142450000Y-99870000D01*
G75*
G02*
X142275000Y-100045000I-175000J0D01*
G01*
X140575000Y-100045000D01*
G75*
G02*
X140400000Y-99870000I0J175000D01*
G01*
G37*
G36*
G01*
X140400000Y-101140000D02*
X140400000Y-100790000D01*
G75*
G02*
X140575000Y-100615000I175000J0D01*
G01*
X142275000Y-100615000D01*
G75*
G02*
X142450000Y-100790000I0J-175000D01*
G01*
X142450000Y-101140000D01*
G75*
G02*
X142275000Y-101315000I-175000J0D01*
G01*
X140575000Y-101315000D01*
G75*
G02*
X140400000Y-101140000I0J175000D01*
G01*
G37*
G36*
G01*
X140400000Y-102410000D02*
X140400000Y-102060000D01*
G75*
G02*
X140575000Y-101885000I175000J0D01*
G01*
X142275000Y-101885000D01*
G75*
G02*
X142450000Y-102060000I0J-175000D01*
G01*
X142450000Y-102410000D01*
G75*
G02*
X142275000Y-102585000I-175000J0D01*
G01*
X140575000Y-102585000D01*
G75*
G02*
X140400000Y-102410000I0J175000D01*
G01*
G37*
G36*
G01*
X140400000Y-103680000D02*
X140400000Y-103330000D01*
G75*
G02*
X140575000Y-103155000I175000J0D01*
G01*
X142275000Y-103155000D01*
G75*
G02*
X142450000Y-103330000I0J-175000D01*
G01*
X142450000Y-103680000D01*
G75*
G02*
X142275000Y-103855000I-175000J0D01*
G01*
X140575000Y-103855000D01*
G75*
G02*
X140400000Y-103680000I0J175000D01*
G01*
G37*
D10*
X159200000Y-104160000D03*
X159200000Y-101620000D03*
G36*
G01*
X158319367Y-98160000D02*
X160080633Y-98160000D01*
G75*
G02*
X160345000Y-98424367I0J-264367D01*
G01*
X160345000Y-99735633D01*
G75*
G02*
X160080633Y-100000000I-264367J0D01*
G01*
X158319367Y-100000000D01*
G75*
G02*
X158055000Y-99735633I0J264367D01*
G01*
X158055000Y-98424367D01*
G75*
G02*
X158319367Y-98160000I264367J0D01*
G01*
G37*
D11*
X140090000Y-88100000D03*
X142630000Y-88100000D03*
X145170000Y-88100000D03*
G36*
G01*
X148630000Y-87219367D02*
X148630000Y-88980633D01*
G75*
G02*
X148365633Y-89245000I-264367J0D01*
G01*
X147054367Y-89245000D01*
G75*
G02*
X146790000Y-88980633I0J264367D01*
G01*
X146790000Y-87219367D01*
G75*
G02*
X147054367Y-86955000I264367J0D01*
G01*
X148365633Y-86955000D01*
G75*
G02*
X148630000Y-87219367I0J-264367D01*
G01*
G37*
X147710000Y-115100000D03*
X145170000Y-115100000D03*
X142630000Y-115100000D03*
G36*
G01*
X139170000Y-115980633D02*
X139170000Y-114219367D01*
G75*
G02*
X139434367Y-113955000I264367J0D01*
G01*
X140745633Y-113955000D01*
G75*
G02*
X141010000Y-114219367I0J-264367D01*
G01*
X141010000Y-115980633D01*
G75*
G02*
X140745633Y-116245000I-264367J0D01*
G01*
X139434367Y-116245000D01*
G75*
G02*
X139170000Y-115980633I0J264367D01*
G01*
G37*
G36*
G01*
X137900000Y-102018750D02*
X137900000Y-102581250D01*
G75*
G02*
X137656250Y-102825000I-243750J0D01*
G01*
X137168750Y-102825000D01*
G75*
G02*
X136925000Y-102581250I0J243750D01*
G01*
X136925000Y-102018750D01*
G75*
G02*
X137168750Y-101775000I243750J0D01*
G01*
X137656250Y-101775000D01*
G75*
G02*
X137900000Y-102018750I0J-243750D01*
G01*
G37*
G36*
G01*
X139475000Y-102018750D02*
X139475000Y-102581250D01*
G75*
G02*
X139231250Y-102825000I-243750J0D01*
G01*
X138743750Y-102825000D01*
G75*
G02*
X138500000Y-102581250I0J243750D01*
G01*
X138500000Y-102018750D01*
G75*
G02*
X138743750Y-101775000I243750J0D01*
G01*
X139231250Y-101775000D01*
G75*
G02*
X139475000Y-102018750I0J-243750D01*
G01*
G37*
G36*
G01*
X143700000Y-110781250D02*
X143700000Y-110218750D01*
G75*
G02*
X143943750Y-109975000I243750J0D01*
G01*
X144431250Y-109975000D01*
G75*
G02*
X144675000Y-110218750I0J-243750D01*
G01*
X144675000Y-110781250D01*
G75*
G02*
X144431250Y-111025000I-243750J0D01*
G01*
X143943750Y-111025000D01*
G75*
G02*
X143700000Y-110781250I0J243750D01*
G01*
G37*
G36*
G01*
X142125000Y-110781250D02*
X142125000Y-110218750D01*
G75*
G02*
X142368750Y-109975000I243750J0D01*
G01*
X142856250Y-109975000D01*
G75*
G02*
X143100000Y-110218750I0J-243750D01*
G01*
X143100000Y-110781250D01*
G75*
G02*
X142856250Y-111025000I-243750J0D01*
G01*
X142368750Y-111025000D01*
G75*
G02*
X142125000Y-110781250I0J243750D01*
G01*
G37*
G36*
G01*
X143700000Y-108981250D02*
X143700000Y-108418750D01*
G75*
G02*
X143943750Y-108175000I243750J0D01*
G01*
X144431250Y-108175000D01*
G75*
G02*
X144675000Y-108418750I0J-243750D01*
G01*
X144675000Y-108981250D01*
G75*
G02*
X144431250Y-109225000I-243750J0D01*
G01*
X143943750Y-109225000D01*
G75*
G02*
X143700000Y-108981250I0J243750D01*
G01*
G37*
G36*
G01*
X142125000Y-108981250D02*
X142125000Y-108418750D01*
G75*
G02*
X142368750Y-108175000I243750J0D01*
G01*
X142856250Y-108175000D01*
G75*
G02*
X143100000Y-108418750I0J-243750D01*
G01*
X143100000Y-108981250D01*
G75*
G02*
X142856250Y-109225000I-243750J0D01*
G01*
X142368750Y-109225000D01*
G75*
G02*
X142125000Y-108981250I0J243750D01*
G01*
G37*
D12*
X111900000Y-116600000D03*
X111900000Y-86600000D03*
X175900000Y-116600000D03*
X175900000Y-86600000D03*
M02*
