M48
INCH,TZ
T1C0.0157
T2C0.0469
%
G90
G05
T1
X51063Y-32126
X51063Y-34246
X51063Y-36367
X51063Y-38487
X51063Y-40607
X51063Y-42728
X51063Y-44848
X51063Y-46969
X52717Y-33937
X52717Y-34646
X53465Y-40276
X53787Y-32126
X53787Y-46969
X54843Y-39252
X55709Y-41339
X56220Y-35472
X56220Y-36555
X56220Y-37638
X56220Y-38622
X56512Y-32126
X56512Y-46969
X56693Y-41339
X57165Y-35472
X57165Y-36555
X57165Y-37638
X57165Y-38622
X57362Y-42795
X57362Y-43504
X57677Y-41339
X58504Y-38622
X58504Y-42126
X59236Y-32126
X59236Y-46969
X59252Y-39646
X59843Y-40787
X59843Y-41535
X60945Y-38622
X60945Y-39646
X61961Y-32126
X61961Y-46969
X64685Y-32087
X64685Y-34207
X64685Y-36327
X64685Y-38448
X64685Y-40568
X64685Y-42688
X64685Y-44809
X64685Y-46929
T2
X62677Y-39008
X62677Y-40008
X62677Y-41008
X55154Y-45315
X56154Y-45315
X57154Y-45315
X58154Y-45315
X55154Y-34685
X56154Y-34685
X57154Y-34685
X58154Y-34685
T0
M30
