M48
INCH,TZ
T1C0.0157
T2C0.0236
T3C0.0315
T4C0.0394
T5C0.0406
T6C0.0433
T7C0.0453
T8C0.0469
T9C0.0748
T10C0.1024
T11C0.1339
%
G90
G05
T1
X38209Y-17953
X38287Y-36988
X38287Y-40945
X38287Y-44921
X39350Y-21752
X40256Y-21673
X40728Y-24055
X41299Y-30472
X41299Y-31535
X41378Y-41043
X41378Y-42047
X41752Y-46634
X41811Y-37579
X41811Y-38268
X41909Y-22913
X42323Y-30472
X42795Y-28366
X42795Y-28780
X42795Y-29193
X42795Y-29606
X42795Y-31535
X42972Y-34626
X43602Y-34035
X43937Y-29409
X44075Y-21831
X44075Y-22874
X44075Y-23661
X44094Y-24646
X44094Y-26024
X44134Y-48425
X44469Y-31437
X45276Y-38248
X45315Y-29409
X45807Y-22756
X45807Y-24252
X45807Y-26004
X45827Y-17953
X45827Y-19291
X45925Y-43898
X45925Y-44764
X46732Y-27677
X46929Y-31437
X47717Y-41575
X47815Y-34016
X47815Y-35039
X47815Y-36043
X47815Y-37028
X48130Y-26457
X48189Y-30079
X48248Y-27244
X48583Y-43189
X48642Y-24508
X48661Y-38543
X48681Y-27244
X49075Y-39429
X49154Y-22756
X49193Y-48425
X49488Y-28524
X49626Y-24016
X49626Y-24646
X49626Y-25276
X49626Y-31713
X49902Y-28524
X49902Y-34685
X49902Y-35177
X49902Y-35591
X49902Y-36004
X49902Y-36417
X49902Y-36890
X49902Y-37303
X49941Y-22756
X49941Y-26063
X49941Y-27697
X50315Y-28524
X50335Y-22756
X50433Y-40709
X50433Y-43189
X50433Y-44055
X50453Y-34685
X50453Y-36909
X50453Y-37303
X50531Y-30827
X50689Y-24114
X50689Y-24705
X50689Y-25492
X50866Y-34685
X50866Y-36909
X50866Y-37303
X50984Y-39764
X50984Y-40709
X51024Y-21634
X51378Y-26555
X51417Y-31713
X51437Y-34685
X51437Y-35197
X51437Y-35689
X51437Y-36102
X51850Y-27067
X51850Y-34685
X51850Y-35197
X51850Y-35689
X51850Y-36102
X51870Y-37480
X51929Y-42244
X51929Y-44055
X52087Y-21654
X52087Y-23110
X52165Y-24882
X52165Y-25846
X52323Y-27559
X52362Y-36634
X52362Y-37047
X52362Y-37480
X52421Y-34980
X52421Y-35709
X52421Y-36083
X52835Y-24488
X52854Y-37480
X52992Y-27559
X52992Y-39764
X53159Y-42244
X53327Y-24488
X53346Y-28071
X53346Y-37480
X53661Y-45354
X53799Y-24488
X53799Y-24902
X53799Y-25846
X53799Y-26417
X53839Y-34744
X53839Y-35138
X53839Y-35886
X53839Y-36575
X53839Y-37067
X53839Y-37480
X53878Y-48425
X53976Y-27913
X54173Y-41614
X54272Y-20650
X54272Y-21654
X54272Y-23661
X54272Y-24488
X54272Y-24902
X54272Y-25846
X54272Y-26417
X54311Y-34705
X54311Y-35177
X54311Y-35650
X54311Y-36102
X54311Y-36555
X54311Y-37067
X54350Y-27067
X54685Y-41929
X54685Y-44055
X54764Y-34705
X54764Y-37067
X55177Y-45354
X55256Y-38406
X55276Y-34705
X55276Y-37067
X55748Y-34705
X55748Y-35177
X55748Y-35650
X55886Y-24980
X55886Y-25748
X55886Y-27362
X55886Y-28248
X55886Y-29154
X56181Y-34705
X56181Y-35177
X56181Y-35650
X56299Y-37028
X56299Y-37500
X56339Y-17992
X56339Y-21654
X56339Y-23268
X56358Y-24902
X56358Y-25846
X56358Y-42323
X56378Y-27362
X56378Y-28248
X56791Y-34862
X56791Y-35650
X56791Y-36102
X56791Y-36535
X56791Y-37028
X56791Y-37500
X56791Y-46614
X57283Y-37500
X57618Y-22303
X57618Y-45354
X57776Y-37500
X57933Y-42323
X58209Y-39862
X58228Y-43209
X58248Y-34587
X58268Y-35157
X58268Y-35866
X58268Y-36535
X58268Y-37028
X58268Y-37500
X58445Y-48425
X59626Y-20650
X59665Y-42323
X59685Y-43189
X60217Y-45335
X60217Y-47224
X60728Y-23268
X60965Y-30236
X61575Y-41280
X61575Y-42323
X61575Y-43189
X62933Y-33110
X62972Y-38504
X63287Y-45335
X64094Y-43543
X64409Y-30236
X64409Y-33110
X64429Y-17992
X64429Y-23268
X64429Y-35787
X64429Y-38504
X64429Y-40000
X64528Y-45335
X74390Y-17992
X74390Y-22913
X74409Y-43583
X74409Y-48425
T2
X52559Y-31535
X52559Y-32323
T3
X44055Y-32539
X44055Y-33539
X44055Y-34539
X44055Y-35539
X44055Y-36539
X44055Y-37539
X44055Y-38539
X44055Y-39539
X44055Y-40539
X44055Y-41539
X44055Y-42539
X44055Y-43539
X44055Y-44539
X44055Y-45539
X47055Y-32539
X47055Y-33539
X47055Y-34539
X47055Y-35539
X47055Y-36539
X47055Y-37539
X47055Y-38539
X47055Y-39539
X47055Y-40539
X47055Y-41539
X47055Y-42539
X47055Y-43539
X47055Y-44539
X47055Y-45539
T4
X60752Y-38504
X60752Y-39307
X60752Y-40110
X61752Y-38906
X61752Y-39709
X61752Y-40512
X48130Y-19154
X48130Y-20154
X56047Y-31220
X57047Y-31220
X56063Y-32736
X57063Y-32736
X48563Y-45791
X48563Y-46791
X49563Y-45791
X49563Y-46791
X50563Y-45791
X50563Y-46791
X49685Y-19154
X49685Y-20154
X42579Y-35354
X42579Y-36354
X51240Y-19154
X51240Y-20154
X48504Y-33512
X48504Y-34512
X48504Y-35512
X48504Y-36512
X48504Y-37512
T5
X57327Y-24929
X57327Y-25929
X57327Y-26929
X57327Y-27929
X57327Y-28929
X58327Y-24429
X58327Y-25429
X58327Y-26429
X58327Y-27429
X58327Y-28429
T6
X54232Y-30622
X54232Y-33622
X39094Y-29646
X39094Y-32205
X40866Y-29646
X40866Y-32205
X39094Y-25492
X39094Y-28051
X40866Y-25492
X40866Y-28051
T7
X61827Y-24031
X61827Y-29327
X62626Y-24031
X62626Y-29327
T8
X52177Y-46161
X53177Y-46161
X54177Y-46161
X55177Y-46161
T9
X59626Y-23579
X59626Y-29780
T10
X62657Y-37146
X62657Y-41870
T11
X60827Y-24429
X60827Y-28929
T4
G00X59567Y-33543
M15
G01X59567Y-32756
M16
G05
G00X61142Y-31299
M15
G01X60354Y-31299
M16
G05
G00X61929Y-33543
M15
G01X61929Y-32756
M16
G05
T0
M30
