G04 #@! TF.GenerationSoftware,KiCad,Pcbnew,(5.1.6)-1*
G04 #@! TF.CreationDate,2022-06-26T18:03:46+10:00*
G04 #@! TF.ProjectId,controller,636f6e74-726f-46c6-9c65-722e6b696361,rev?*
G04 #@! TF.SameCoordinates,Original*
G04 #@! TF.FileFunction,Legend,Bot*
G04 #@! TF.FilePolarity,Positive*
%FSLAX46Y46*%
G04 Gerber Fmt 4.6, Leading zero omitted, Abs format (unit mm)*
G04 Created by KiCad (PCBNEW (5.1.6)-1) date 2022-06-26 18:03:46*
%MOMM*%
%LPD*%
G01*
G04 APERTURE LIST*
%ADD10C,0.120000*%
%ADD11C,0.150000*%
G04 APERTURE END LIST*
D10*
X126487221Y-61140000D02*
X126812779Y-61140000D01*
X126487221Y-62160000D02*
X126812779Y-62160000D01*
X146941422Y-57390000D02*
X147458578Y-57390000D01*
X146941422Y-58810000D02*
X147458578Y-58810000D01*
X149110000Y-78646078D02*
X149110000Y-78128922D01*
X147690000Y-78646078D02*
X147690000Y-78128922D01*
X121490000Y-60408578D02*
X121490000Y-59891422D01*
X122910000Y-60408578D02*
X122910000Y-59891422D01*
X151312779Y-105460000D02*
X150987221Y-105460000D01*
X151312779Y-104440000D02*
X150987221Y-104440000D01*
X151312779Y-103760000D02*
X150987221Y-103760000D01*
X151312779Y-102740000D02*
X150987221Y-102740000D01*
X132662779Y-85110000D02*
X132337221Y-85110000D01*
X132662779Y-84090000D02*
X132337221Y-84090000D01*
X119437221Y-59710000D02*
X119762779Y-59710000D01*
X119437221Y-58690000D02*
X119762779Y-58690000D01*
X126487221Y-64440000D02*
X126812779Y-64440000D01*
X126487221Y-65460000D02*
X126812779Y-65460000D01*
X126487221Y-62790000D02*
X126812779Y-62790000D01*
X126487221Y-63810000D02*
X126812779Y-63810000D01*
X128910000Y-55737221D02*
X128910000Y-56062779D01*
X127890000Y-55737221D02*
X127890000Y-56062779D01*
X126910000Y-55737221D02*
X126910000Y-56062779D01*
X125890000Y-55737221D02*
X125890000Y-56062779D01*
X124910000Y-55737221D02*
X124910000Y-56062779D01*
X123890000Y-55737221D02*
X123890000Y-56062779D01*
X123340000Y-64362779D02*
X123340000Y-64037221D01*
X124360000Y-64362779D02*
X124360000Y-64037221D01*
X119437221Y-60590000D02*
X119762779Y-60590000D01*
X119437221Y-61610000D02*
X119762779Y-61610000D01*
X141390000Y-93462779D02*
X141390000Y-93137221D01*
X142410000Y-93462779D02*
X142410000Y-93137221D01*
X130340000Y-93512779D02*
X130340000Y-93187221D01*
X131360000Y-93512779D02*
X131360000Y-93187221D01*
X145912779Y-86560000D02*
X145587221Y-86560000D01*
X145912779Y-85540000D02*
X145587221Y-85540000D01*
X132337221Y-85740000D02*
X132662779Y-85740000D01*
X132337221Y-86760000D02*
X132662779Y-86760000D01*
D11*
X130542857Y-62057142D02*
X130590476Y-62104761D01*
X130733333Y-62152380D01*
X130828571Y-62152380D01*
X130971428Y-62104761D01*
X131066666Y-62009523D01*
X131114285Y-61914285D01*
X131161904Y-61723809D01*
X131161904Y-61580952D01*
X131114285Y-61390476D01*
X131066666Y-61295238D01*
X130971428Y-61200000D01*
X130828571Y-61152380D01*
X130733333Y-61152380D01*
X130590476Y-61200000D01*
X130542857Y-61247619D01*
X129590476Y-62152380D02*
X130161904Y-62152380D01*
X129876190Y-62152380D02*
X129876190Y-61152380D01*
X129971428Y-61295238D01*
X130066666Y-61390476D01*
X130161904Y-61438095D01*
X128733333Y-61152380D02*
X128923809Y-61152380D01*
X129019047Y-61200000D01*
X129066666Y-61247619D01*
X129161904Y-61390476D01*
X129209523Y-61580952D01*
X129209523Y-61961904D01*
X129161904Y-62057142D01*
X129114285Y-62104761D01*
X129019047Y-62152380D01*
X128828571Y-62152380D01*
X128733333Y-62104761D01*
X128685714Y-62057142D01*
X128638095Y-61961904D01*
X128638095Y-61723809D01*
X128685714Y-61628571D01*
X128733333Y-61580952D01*
X128828571Y-61533333D01*
X129019047Y-61533333D01*
X129114285Y-61580952D01*
X129161904Y-61628571D01*
X129209523Y-61723809D01*
X147933333Y-56228571D02*
X148266666Y-56228571D01*
X148266666Y-56752380D02*
X148266666Y-55752380D01*
X147790476Y-55752380D01*
X147076190Y-56228571D02*
X146933333Y-56276190D01*
X146885714Y-56323809D01*
X146838095Y-56419047D01*
X146838095Y-56561904D01*
X146885714Y-56657142D01*
X146933333Y-56704761D01*
X147028571Y-56752380D01*
X147409523Y-56752380D01*
X147409523Y-55752380D01*
X147076190Y-55752380D01*
X146980952Y-55800000D01*
X146933333Y-55847619D01*
X146885714Y-55942857D01*
X146885714Y-56038095D01*
X146933333Y-56133333D01*
X146980952Y-56180952D01*
X147076190Y-56228571D01*
X147409523Y-56228571D01*
X146504761Y-55752380D02*
X145885714Y-55752380D01*
X146219047Y-56133333D01*
X146076190Y-56133333D01*
X145980952Y-56180952D01*
X145933333Y-56228571D01*
X145885714Y-56323809D01*
X145885714Y-56561904D01*
X145933333Y-56657142D01*
X145980952Y-56704761D01*
X146076190Y-56752380D01*
X146361904Y-56752380D01*
X146457142Y-56704761D01*
X146504761Y-56657142D01*
X146728571Y-77466666D02*
X146728571Y-77133333D01*
X147252380Y-77133333D02*
X146252380Y-77133333D01*
X146252380Y-77609523D01*
X146728571Y-78323809D02*
X146776190Y-78466666D01*
X146823809Y-78514285D01*
X146919047Y-78561904D01*
X147061904Y-78561904D01*
X147157142Y-78514285D01*
X147204761Y-78466666D01*
X147252380Y-78371428D01*
X147252380Y-77990476D01*
X146252380Y-77990476D01*
X146252380Y-78323809D01*
X146300000Y-78419047D01*
X146347619Y-78466666D01*
X146442857Y-78514285D01*
X146538095Y-78514285D01*
X146633333Y-78466666D01*
X146680952Y-78419047D01*
X146728571Y-78323809D01*
X146728571Y-77990476D01*
X146347619Y-78942857D02*
X146300000Y-78990476D01*
X146252380Y-79085714D01*
X146252380Y-79323809D01*
X146300000Y-79419047D01*
X146347619Y-79466666D01*
X146442857Y-79514285D01*
X146538095Y-79514285D01*
X146680952Y-79466666D01*
X147252380Y-78895238D01*
X147252380Y-79514285D01*
X122028571Y-56066666D02*
X122028571Y-55733333D01*
X122552380Y-55733333D02*
X121552380Y-55733333D01*
X121552380Y-56209523D01*
X122028571Y-56923809D02*
X122076190Y-57066666D01*
X122123809Y-57114285D01*
X122219047Y-57161904D01*
X122361904Y-57161904D01*
X122457142Y-57114285D01*
X122504761Y-57066666D01*
X122552380Y-56971428D01*
X122552380Y-56590476D01*
X121552380Y-56590476D01*
X121552380Y-56923809D01*
X121600000Y-57019047D01*
X121647619Y-57066666D01*
X121742857Y-57114285D01*
X121838095Y-57114285D01*
X121933333Y-57066666D01*
X121980952Y-57019047D01*
X122028571Y-56923809D01*
X122028571Y-56590476D01*
X122552380Y-58114285D02*
X122552380Y-57542857D01*
X122552380Y-57828571D02*
X121552380Y-57828571D01*
X121695238Y-57733333D01*
X121790476Y-57638095D01*
X121838095Y-57542857D01*
X151742857Y-106957142D02*
X151790476Y-107004761D01*
X151933333Y-107052380D01*
X152028571Y-107052380D01*
X152171428Y-107004761D01*
X152266666Y-106909523D01*
X152314285Y-106814285D01*
X152361904Y-106623809D01*
X152361904Y-106480952D01*
X152314285Y-106290476D01*
X152266666Y-106195238D01*
X152171428Y-106100000D01*
X152028571Y-106052380D01*
X151933333Y-106052380D01*
X151790476Y-106100000D01*
X151742857Y-106147619D01*
X151409523Y-106052380D02*
X150790476Y-106052380D01*
X151123809Y-106433333D01*
X150980952Y-106433333D01*
X150885714Y-106480952D01*
X150838095Y-106528571D01*
X150790476Y-106623809D01*
X150790476Y-106861904D01*
X150838095Y-106957142D01*
X150885714Y-107004761D01*
X150980952Y-107052380D01*
X151266666Y-107052380D01*
X151361904Y-107004761D01*
X151409523Y-106957142D01*
X149933333Y-106052380D02*
X150123809Y-106052380D01*
X150219047Y-106100000D01*
X150266666Y-106147619D01*
X150361904Y-106290476D01*
X150409523Y-106480952D01*
X150409523Y-106861904D01*
X150361904Y-106957142D01*
X150314285Y-107004761D01*
X150219047Y-107052380D01*
X150028571Y-107052380D01*
X149933333Y-107004761D01*
X149885714Y-106957142D01*
X149838095Y-106861904D01*
X149838095Y-106623809D01*
X149885714Y-106528571D01*
X149933333Y-106480952D01*
X150028571Y-106433333D01*
X150219047Y-106433333D01*
X150314285Y-106480952D01*
X150361904Y-106528571D01*
X150409523Y-106623809D01*
X151792857Y-102177142D02*
X151840476Y-102224761D01*
X151983333Y-102272380D01*
X152078571Y-102272380D01*
X152221428Y-102224761D01*
X152316666Y-102129523D01*
X152364285Y-102034285D01*
X152411904Y-101843809D01*
X152411904Y-101700952D01*
X152364285Y-101510476D01*
X152316666Y-101415238D01*
X152221428Y-101320000D01*
X152078571Y-101272380D01*
X151983333Y-101272380D01*
X151840476Y-101320000D01*
X151792857Y-101367619D01*
X151459523Y-101272380D02*
X150840476Y-101272380D01*
X151173809Y-101653333D01*
X151030952Y-101653333D01*
X150935714Y-101700952D01*
X150888095Y-101748571D01*
X150840476Y-101843809D01*
X150840476Y-102081904D01*
X150888095Y-102177142D01*
X150935714Y-102224761D01*
X151030952Y-102272380D01*
X151316666Y-102272380D01*
X151411904Y-102224761D01*
X151459523Y-102177142D01*
X149935714Y-101272380D02*
X150411904Y-101272380D01*
X150459523Y-101748571D01*
X150411904Y-101700952D01*
X150316666Y-101653333D01*
X150078571Y-101653333D01*
X149983333Y-101700952D01*
X149935714Y-101748571D01*
X149888095Y-101843809D01*
X149888095Y-102081904D01*
X149935714Y-102177142D01*
X149983333Y-102224761D01*
X150078571Y-102272380D01*
X150316666Y-102272380D01*
X150411904Y-102224761D01*
X150459523Y-102177142D01*
X129242857Y-84857142D02*
X129290476Y-84904761D01*
X129433333Y-84952380D01*
X129528571Y-84952380D01*
X129671428Y-84904761D01*
X129766666Y-84809523D01*
X129814285Y-84714285D01*
X129861904Y-84523809D01*
X129861904Y-84380952D01*
X129814285Y-84190476D01*
X129766666Y-84095238D01*
X129671428Y-84000000D01*
X129528571Y-83952380D01*
X129433333Y-83952380D01*
X129290476Y-84000000D01*
X129242857Y-84047619D01*
X128290476Y-84952380D02*
X128861904Y-84952380D01*
X128576190Y-84952380D02*
X128576190Y-83952380D01*
X128671428Y-84095238D01*
X128766666Y-84190476D01*
X128861904Y-84238095D01*
X127814285Y-84952380D02*
X127623809Y-84952380D01*
X127528571Y-84904761D01*
X127480952Y-84857142D01*
X127385714Y-84714285D01*
X127338095Y-84523809D01*
X127338095Y-84142857D01*
X127385714Y-84047619D01*
X127433333Y-84000000D01*
X127528571Y-83952380D01*
X127719047Y-83952380D01*
X127814285Y-84000000D01*
X127861904Y-84047619D01*
X127909523Y-84142857D01*
X127909523Y-84380952D01*
X127861904Y-84476190D01*
X127814285Y-84523809D01*
X127719047Y-84571428D01*
X127528571Y-84571428D01*
X127433333Y-84523809D01*
X127385714Y-84476190D01*
X127338095Y-84380952D01*
X120242857Y-57957142D02*
X120290476Y-58004761D01*
X120433333Y-58052380D01*
X120528571Y-58052380D01*
X120671428Y-58004761D01*
X120766666Y-57909523D01*
X120814285Y-57814285D01*
X120861904Y-57623809D01*
X120861904Y-57480952D01*
X120814285Y-57290476D01*
X120766666Y-57195238D01*
X120671428Y-57100000D01*
X120528571Y-57052380D01*
X120433333Y-57052380D01*
X120290476Y-57100000D01*
X120242857Y-57147619D01*
X119290476Y-58052380D02*
X119861904Y-58052380D01*
X119576190Y-58052380D02*
X119576190Y-57052380D01*
X119671428Y-57195238D01*
X119766666Y-57290476D01*
X119861904Y-57338095D01*
X118719047Y-57480952D02*
X118814285Y-57433333D01*
X118861904Y-57385714D01*
X118909523Y-57290476D01*
X118909523Y-57242857D01*
X118861904Y-57147619D01*
X118814285Y-57100000D01*
X118719047Y-57052380D01*
X118528571Y-57052380D01*
X118433333Y-57100000D01*
X118385714Y-57147619D01*
X118338095Y-57242857D01*
X118338095Y-57290476D01*
X118385714Y-57385714D01*
X118433333Y-57433333D01*
X118528571Y-57480952D01*
X118719047Y-57480952D01*
X118814285Y-57528571D01*
X118861904Y-57576190D01*
X118909523Y-57671428D01*
X118909523Y-57861904D01*
X118861904Y-57957142D01*
X118814285Y-58004761D01*
X118719047Y-58052380D01*
X118528571Y-58052380D01*
X118433333Y-58004761D01*
X118385714Y-57957142D01*
X118338095Y-57861904D01*
X118338095Y-57671428D01*
X118385714Y-57576190D01*
X118433333Y-57528571D01*
X118528571Y-57480952D01*
X130442857Y-65457142D02*
X130490476Y-65504761D01*
X130633333Y-65552380D01*
X130728571Y-65552380D01*
X130871428Y-65504761D01*
X130966666Y-65409523D01*
X131014285Y-65314285D01*
X131061904Y-65123809D01*
X131061904Y-64980952D01*
X131014285Y-64790476D01*
X130966666Y-64695238D01*
X130871428Y-64600000D01*
X130728571Y-64552380D01*
X130633333Y-64552380D01*
X130490476Y-64600000D01*
X130442857Y-64647619D01*
X129490476Y-65552380D02*
X130061904Y-65552380D01*
X129776190Y-65552380D02*
X129776190Y-64552380D01*
X129871428Y-64695238D01*
X129966666Y-64790476D01*
X130061904Y-64838095D01*
X128585714Y-64552380D02*
X129061904Y-64552380D01*
X129109523Y-65028571D01*
X129061904Y-64980952D01*
X128966666Y-64933333D01*
X128728571Y-64933333D01*
X128633333Y-64980952D01*
X128585714Y-65028571D01*
X128538095Y-65123809D01*
X128538095Y-65361904D01*
X128585714Y-65457142D01*
X128633333Y-65504761D01*
X128728571Y-65552380D01*
X128966666Y-65552380D01*
X129061904Y-65504761D01*
X129109523Y-65457142D01*
X130442857Y-63657142D02*
X130490476Y-63704761D01*
X130633333Y-63752380D01*
X130728571Y-63752380D01*
X130871428Y-63704761D01*
X130966666Y-63609523D01*
X131014285Y-63514285D01*
X131061904Y-63323809D01*
X131061904Y-63180952D01*
X131014285Y-62990476D01*
X130966666Y-62895238D01*
X130871428Y-62800000D01*
X130728571Y-62752380D01*
X130633333Y-62752380D01*
X130490476Y-62800000D01*
X130442857Y-62847619D01*
X129490476Y-63752380D02*
X130061904Y-63752380D01*
X129776190Y-63752380D02*
X129776190Y-62752380D01*
X129871428Y-62895238D01*
X129966666Y-62990476D01*
X130061904Y-63038095D01*
X128633333Y-63085714D02*
X128633333Y-63752380D01*
X128871428Y-62704761D02*
X129109523Y-63419047D01*
X128490476Y-63419047D01*
X128927142Y-58257142D02*
X128974761Y-58209523D01*
X129022380Y-58066666D01*
X129022380Y-57971428D01*
X128974761Y-57828571D01*
X128879523Y-57733333D01*
X128784285Y-57685714D01*
X128593809Y-57638095D01*
X128450952Y-57638095D01*
X128260476Y-57685714D01*
X128165238Y-57733333D01*
X128070000Y-57828571D01*
X128022380Y-57971428D01*
X128022380Y-58066666D01*
X128070000Y-58209523D01*
X128117619Y-58257142D01*
X129022380Y-59209523D02*
X129022380Y-58638095D01*
X129022380Y-58923809D02*
X128022380Y-58923809D01*
X128165238Y-58828571D01*
X128260476Y-58733333D01*
X128308095Y-58638095D01*
X128022380Y-59542857D02*
X128022380Y-60161904D01*
X128403333Y-59828571D01*
X128403333Y-59971428D01*
X128450952Y-60066666D01*
X128498571Y-60114285D01*
X128593809Y-60161904D01*
X128831904Y-60161904D01*
X128927142Y-60114285D01*
X128974761Y-60066666D01*
X129022380Y-59971428D01*
X129022380Y-59685714D01*
X128974761Y-59590476D01*
X128927142Y-59542857D01*
X126927142Y-58257142D02*
X126974761Y-58209523D01*
X127022380Y-58066666D01*
X127022380Y-57971428D01*
X126974761Y-57828571D01*
X126879523Y-57733333D01*
X126784285Y-57685714D01*
X126593809Y-57638095D01*
X126450952Y-57638095D01*
X126260476Y-57685714D01*
X126165238Y-57733333D01*
X126070000Y-57828571D01*
X126022380Y-57971428D01*
X126022380Y-58066666D01*
X126070000Y-58209523D01*
X126117619Y-58257142D01*
X127022380Y-59209523D02*
X127022380Y-58638095D01*
X127022380Y-58923809D02*
X126022380Y-58923809D01*
X126165238Y-58828571D01*
X126260476Y-58733333D01*
X126308095Y-58638095D01*
X126117619Y-59590476D02*
X126070000Y-59638095D01*
X126022380Y-59733333D01*
X126022380Y-59971428D01*
X126070000Y-60066666D01*
X126117619Y-60114285D01*
X126212857Y-60161904D01*
X126308095Y-60161904D01*
X126450952Y-60114285D01*
X127022380Y-59542857D01*
X127022380Y-60161904D01*
X124927142Y-58257142D02*
X124974761Y-58209523D01*
X125022380Y-58066666D01*
X125022380Y-57971428D01*
X124974761Y-57828571D01*
X124879523Y-57733333D01*
X124784285Y-57685714D01*
X124593809Y-57638095D01*
X124450952Y-57638095D01*
X124260476Y-57685714D01*
X124165238Y-57733333D01*
X124070000Y-57828571D01*
X124022380Y-57971428D01*
X124022380Y-58066666D01*
X124070000Y-58209523D01*
X124117619Y-58257142D01*
X125022380Y-59209523D02*
X125022380Y-58638095D01*
X125022380Y-58923809D02*
X124022380Y-58923809D01*
X124165238Y-58828571D01*
X124260476Y-58733333D01*
X124308095Y-58638095D01*
X125022380Y-60161904D02*
X125022380Y-59590476D01*
X125022380Y-59876190D02*
X124022380Y-59876190D01*
X124165238Y-59780952D01*
X124260476Y-59685714D01*
X124308095Y-59590476D01*
X122657142Y-64033333D02*
X122704761Y-63985714D01*
X122752380Y-63842857D01*
X122752380Y-63747619D01*
X122704761Y-63604761D01*
X122609523Y-63509523D01*
X122514285Y-63461904D01*
X122323809Y-63414285D01*
X122180952Y-63414285D01*
X121990476Y-63461904D01*
X121895238Y-63509523D01*
X121800000Y-63604761D01*
X121752380Y-63747619D01*
X121752380Y-63842857D01*
X121800000Y-63985714D01*
X121847619Y-64033333D01*
X122180952Y-64604761D02*
X122133333Y-64509523D01*
X122085714Y-64461904D01*
X121990476Y-64414285D01*
X121942857Y-64414285D01*
X121847619Y-64461904D01*
X121800000Y-64509523D01*
X121752380Y-64604761D01*
X121752380Y-64795238D01*
X121800000Y-64890476D01*
X121847619Y-64938095D01*
X121942857Y-64985714D01*
X121990476Y-64985714D01*
X122085714Y-64938095D01*
X122133333Y-64890476D01*
X122180952Y-64795238D01*
X122180952Y-64604761D01*
X122228571Y-64509523D01*
X122276190Y-64461904D01*
X122371428Y-64414285D01*
X122561904Y-64414285D01*
X122657142Y-64461904D01*
X122704761Y-64509523D01*
X122752380Y-64604761D01*
X122752380Y-64795238D01*
X122704761Y-64890476D01*
X122657142Y-64938095D01*
X122561904Y-64985714D01*
X122371428Y-64985714D01*
X122276190Y-64938095D01*
X122228571Y-64890476D01*
X122180952Y-64795238D01*
X119766666Y-63057142D02*
X119814285Y-63104761D01*
X119957142Y-63152380D01*
X120052380Y-63152380D01*
X120195238Y-63104761D01*
X120290476Y-63009523D01*
X120338095Y-62914285D01*
X120385714Y-62723809D01*
X120385714Y-62580952D01*
X120338095Y-62390476D01*
X120290476Y-62295238D01*
X120195238Y-62200000D01*
X120052380Y-62152380D01*
X119957142Y-62152380D01*
X119814285Y-62200000D01*
X119766666Y-62247619D01*
X119433333Y-62152380D02*
X118766666Y-62152380D01*
X119195238Y-63152380D01*
X143687142Y-93133333D02*
X143734761Y-93085714D01*
X143782380Y-92942857D01*
X143782380Y-92847619D01*
X143734761Y-92704761D01*
X143639523Y-92609523D01*
X143544285Y-92561904D01*
X143353809Y-92514285D01*
X143210952Y-92514285D01*
X143020476Y-92561904D01*
X142925238Y-92609523D01*
X142830000Y-92704761D01*
X142782380Y-92847619D01*
X142782380Y-92942857D01*
X142830000Y-93085714D01*
X142877619Y-93133333D01*
X142782380Y-93990476D02*
X142782380Y-93800000D01*
X142830000Y-93704761D01*
X142877619Y-93657142D01*
X143020476Y-93561904D01*
X143210952Y-93514285D01*
X143591904Y-93514285D01*
X143687142Y-93561904D01*
X143734761Y-93609523D01*
X143782380Y-93704761D01*
X143782380Y-93895238D01*
X143734761Y-93990476D01*
X143687142Y-94038095D01*
X143591904Y-94085714D01*
X143353809Y-94085714D01*
X143258571Y-94038095D01*
X143210952Y-93990476D01*
X143163333Y-93895238D01*
X143163333Y-93704761D01*
X143210952Y-93609523D01*
X143258571Y-93561904D01*
X143353809Y-93514285D01*
X132637142Y-93183333D02*
X132684761Y-93135714D01*
X132732380Y-92992857D01*
X132732380Y-92897619D01*
X132684761Y-92754761D01*
X132589523Y-92659523D01*
X132494285Y-92611904D01*
X132303809Y-92564285D01*
X132160952Y-92564285D01*
X131970476Y-92611904D01*
X131875238Y-92659523D01*
X131780000Y-92754761D01*
X131732380Y-92897619D01*
X131732380Y-92992857D01*
X131780000Y-93135714D01*
X131827619Y-93183333D01*
X131732380Y-94088095D02*
X131732380Y-93611904D01*
X132208571Y-93564285D01*
X132160952Y-93611904D01*
X132113333Y-93707142D01*
X132113333Y-93945238D01*
X132160952Y-94040476D01*
X132208571Y-94088095D01*
X132303809Y-94135714D01*
X132541904Y-94135714D01*
X132637142Y-94088095D01*
X132684761Y-94040476D01*
X132732380Y-93945238D01*
X132732380Y-93707142D01*
X132684761Y-93611904D01*
X132637142Y-93564285D01*
X145866666Y-88057142D02*
X145914285Y-88104761D01*
X146057142Y-88152380D01*
X146152380Y-88152380D01*
X146295238Y-88104761D01*
X146390476Y-88009523D01*
X146438095Y-87914285D01*
X146485714Y-87723809D01*
X146485714Y-87580952D01*
X146438095Y-87390476D01*
X146390476Y-87295238D01*
X146295238Y-87200000D01*
X146152380Y-87152380D01*
X146057142Y-87152380D01*
X145914285Y-87200000D01*
X145866666Y-87247619D01*
X145485714Y-87247619D02*
X145438095Y-87200000D01*
X145342857Y-87152380D01*
X145104761Y-87152380D01*
X145009523Y-87200000D01*
X144961904Y-87247619D01*
X144914285Y-87342857D01*
X144914285Y-87438095D01*
X144961904Y-87580952D01*
X145533333Y-88152380D01*
X144914285Y-88152380D01*
X128766666Y-86457142D02*
X128814285Y-86504761D01*
X128957142Y-86552380D01*
X129052380Y-86552380D01*
X129195238Y-86504761D01*
X129290476Y-86409523D01*
X129338095Y-86314285D01*
X129385714Y-86123809D01*
X129385714Y-85980952D01*
X129338095Y-85790476D01*
X129290476Y-85695238D01*
X129195238Y-85600000D01*
X129052380Y-85552380D01*
X128957142Y-85552380D01*
X128814285Y-85600000D01*
X128766666Y-85647619D01*
X127814285Y-86552380D02*
X128385714Y-86552380D01*
X128100000Y-86552380D02*
X128100000Y-85552380D01*
X128195238Y-85695238D01*
X128290476Y-85790476D01*
X128385714Y-85838095D01*
M02*
