G04 #@! TF.GenerationSoftware,KiCad,Pcbnew,(5.1.6)-1*
G04 #@! TF.CreationDate,2022-06-26T18:03:46+10:00*
G04 #@! TF.ProjectId,controller,636f6e74-726f-46c6-9c65-722e6b696361,rev?*
G04 #@! TF.SameCoordinates,Original*
G04 #@! TF.FileFunction,Legend,Top*
G04 #@! TF.FilePolarity,Positive*
%FSLAX46Y46*%
G04 Gerber Fmt 4.6, Leading zero omitted, Abs format (unit mm)*
G04 Created by KiCad (PCBNEW (5.1.6)-1) date 2022-06-26 18:03:46*
%MOMM*%
%LPD*%
G01*
G04 APERTURE LIST*
%ADD10C,0.150000*%
%ADD11C,0.010000*%
%ADD12C,0.120000*%
G04 APERTURE END LIST*
D10*
X169953571Y-117614285D02*
X169953571Y-118150000D01*
X169917857Y-118257142D01*
X169846428Y-118328571D01*
X169739285Y-118364285D01*
X169667857Y-118364285D01*
X170310714Y-118292857D02*
X170346428Y-118328571D01*
X170310714Y-118364285D01*
X170275000Y-118328571D01*
X170310714Y-118292857D01*
X170310714Y-118364285D01*
X171667857Y-118364285D02*
X171417857Y-118007142D01*
X171239285Y-118364285D02*
X171239285Y-117614285D01*
X171525000Y-117614285D01*
X171596428Y-117650000D01*
X171632142Y-117685714D01*
X171667857Y-117757142D01*
X171667857Y-117864285D01*
X171632142Y-117935714D01*
X171596428Y-117971428D01*
X171525000Y-118007142D01*
X171239285Y-118007142D01*
X172310714Y-118364285D02*
X172310714Y-117971428D01*
X172275000Y-117900000D01*
X172203571Y-117864285D01*
X172060714Y-117864285D01*
X171989285Y-117900000D01*
X172310714Y-118328571D02*
X172239285Y-118364285D01*
X172060714Y-118364285D01*
X171989285Y-118328571D01*
X171953571Y-118257142D01*
X171953571Y-118185714D01*
X171989285Y-118114285D01*
X172060714Y-118078571D01*
X172239285Y-118078571D01*
X172310714Y-118042857D01*
X172667857Y-118364285D02*
X172667857Y-117614285D01*
X172667857Y-117900000D02*
X172739285Y-117864285D01*
X172882142Y-117864285D01*
X172953571Y-117900000D01*
X172989285Y-117935714D01*
X173025000Y-118007142D01*
X173025000Y-118221428D01*
X172989285Y-118292857D01*
X172953571Y-118328571D01*
X172882142Y-118364285D01*
X172739285Y-118364285D01*
X172667857Y-118328571D01*
X173632142Y-118328571D02*
X173560714Y-118364285D01*
X173417857Y-118364285D01*
X173346428Y-118328571D01*
X173310714Y-118257142D01*
X173310714Y-117971428D01*
X173346428Y-117900000D01*
X173417857Y-117864285D01*
X173560714Y-117864285D01*
X173632142Y-117900000D01*
X173667857Y-117971428D01*
X173667857Y-118042857D01*
X173310714Y-118114285D01*
X174525000Y-117685714D02*
X174560714Y-117650000D01*
X174632142Y-117614285D01*
X174810714Y-117614285D01*
X174882142Y-117650000D01*
X174917857Y-117685714D01*
X174953571Y-117757142D01*
X174953571Y-117828571D01*
X174917857Y-117935714D01*
X174489285Y-118364285D01*
X174953571Y-118364285D01*
X175417857Y-117614285D02*
X175489285Y-117614285D01*
X175560714Y-117650000D01*
X175596428Y-117685714D01*
X175632142Y-117757142D01*
X175667857Y-117900000D01*
X175667857Y-118078571D01*
X175632142Y-118221428D01*
X175596428Y-118292857D01*
X175560714Y-118328571D01*
X175489285Y-118364285D01*
X175417857Y-118364285D01*
X175346428Y-118328571D01*
X175310714Y-118292857D01*
X175275000Y-118221428D01*
X175239285Y-118078571D01*
X175239285Y-117900000D01*
X175275000Y-117757142D01*
X175310714Y-117685714D01*
X175346428Y-117650000D01*
X175417857Y-117614285D01*
X175953571Y-117685714D02*
X175989285Y-117650000D01*
X176060714Y-117614285D01*
X176239285Y-117614285D01*
X176310714Y-117650000D01*
X176346428Y-117685714D01*
X176382142Y-117757142D01*
X176382142Y-117828571D01*
X176346428Y-117935714D01*
X175917857Y-118364285D01*
X176382142Y-118364285D01*
X176667857Y-117685714D02*
X176703571Y-117650000D01*
X176775000Y-117614285D01*
X176953571Y-117614285D01*
X177025000Y-117650000D01*
X177060714Y-117685714D01*
X177096428Y-117757142D01*
X177096428Y-117828571D01*
X177060714Y-117935714D01*
X176632142Y-118364285D01*
X177096428Y-118364285D01*
X169096428Y-118889285D02*
X169275000Y-119639285D01*
X169417857Y-119103571D01*
X169560714Y-119639285D01*
X169739285Y-118889285D01*
X170310714Y-119603571D02*
X170239285Y-119639285D01*
X170096428Y-119639285D01*
X170025000Y-119603571D01*
X169989285Y-119532142D01*
X169989285Y-119246428D01*
X170025000Y-119175000D01*
X170096428Y-119139285D01*
X170239285Y-119139285D01*
X170310714Y-119175000D01*
X170346428Y-119246428D01*
X170346428Y-119317857D01*
X169989285Y-119389285D01*
X170989285Y-119639285D02*
X170989285Y-119246428D01*
X170953571Y-119175000D01*
X170882142Y-119139285D01*
X170739285Y-119139285D01*
X170667857Y-119175000D01*
X170989285Y-119603571D02*
X170917857Y-119639285D01*
X170739285Y-119639285D01*
X170667857Y-119603571D01*
X170632142Y-119532142D01*
X170632142Y-119460714D01*
X170667857Y-119389285D01*
X170739285Y-119353571D01*
X170917857Y-119353571D01*
X170989285Y-119317857D01*
X171239285Y-119139285D02*
X171525000Y-119139285D01*
X171346428Y-118889285D02*
X171346428Y-119532142D01*
X171382142Y-119603571D01*
X171453571Y-119639285D01*
X171525000Y-119639285D01*
X171775000Y-119639285D02*
X171775000Y-118889285D01*
X172096428Y-119639285D02*
X172096428Y-119246428D01*
X172060714Y-119175000D01*
X171989285Y-119139285D01*
X171882142Y-119139285D01*
X171810714Y-119175000D01*
X171775000Y-119210714D01*
X172739285Y-119603571D02*
X172667857Y-119639285D01*
X172525000Y-119639285D01*
X172453571Y-119603571D01*
X172417857Y-119532142D01*
X172417857Y-119246428D01*
X172453571Y-119175000D01*
X172525000Y-119139285D01*
X172667857Y-119139285D01*
X172739285Y-119175000D01*
X172775000Y-119246428D01*
X172775000Y-119317857D01*
X172417857Y-119389285D01*
X173096428Y-119639285D02*
X173096428Y-119139285D01*
X173096428Y-119282142D02*
X173132142Y-119210714D01*
X173167857Y-119175000D01*
X173239285Y-119139285D01*
X173310714Y-119139285D01*
X174096428Y-119603571D02*
X174167857Y-119639285D01*
X174310714Y-119639285D01*
X174382142Y-119603571D01*
X174417857Y-119532142D01*
X174417857Y-119496428D01*
X174382142Y-119425000D01*
X174310714Y-119389285D01*
X174203571Y-119389285D01*
X174132142Y-119353571D01*
X174096428Y-119282142D01*
X174096428Y-119246428D01*
X174132142Y-119175000D01*
X174203571Y-119139285D01*
X174310714Y-119139285D01*
X174382142Y-119175000D01*
X174632142Y-119139285D02*
X174917857Y-119139285D01*
X174739285Y-118889285D02*
X174739285Y-119532142D01*
X174775000Y-119603571D01*
X174846428Y-119639285D01*
X174917857Y-119639285D01*
X175489285Y-119639285D02*
X175489285Y-119246428D01*
X175453571Y-119175000D01*
X175382142Y-119139285D01*
X175239285Y-119139285D01*
X175167857Y-119175000D01*
X175489285Y-119603571D02*
X175417857Y-119639285D01*
X175239285Y-119639285D01*
X175167857Y-119603571D01*
X175132142Y-119532142D01*
X175132142Y-119460714D01*
X175167857Y-119389285D01*
X175239285Y-119353571D01*
X175417857Y-119353571D01*
X175489285Y-119317857D01*
X175739285Y-119139285D02*
X176025000Y-119139285D01*
X175846428Y-118889285D02*
X175846428Y-119532142D01*
X175882142Y-119603571D01*
X175953571Y-119639285D01*
X176025000Y-119639285D01*
X176275000Y-119639285D02*
X176275000Y-119139285D01*
X176275000Y-118889285D02*
X176239285Y-118925000D01*
X176275000Y-118960714D01*
X176310714Y-118925000D01*
X176275000Y-118889285D01*
X176275000Y-118960714D01*
X176739285Y-119639285D02*
X176667857Y-119603571D01*
X176632142Y-119567857D01*
X176596428Y-119496428D01*
X176596428Y-119282142D01*
X176632142Y-119210714D01*
X176667857Y-119175000D01*
X176739285Y-119139285D01*
X176846428Y-119139285D01*
X176917857Y-119175000D01*
X176953571Y-119210714D01*
X176989285Y-119282142D01*
X176989285Y-119496428D01*
X176953571Y-119567857D01*
X176917857Y-119603571D01*
X176846428Y-119639285D01*
X176739285Y-119639285D01*
X177310714Y-119139285D02*
X177310714Y-119639285D01*
X177310714Y-119210714D02*
X177346428Y-119175000D01*
X177417857Y-119139285D01*
X177525000Y-119139285D01*
X177596428Y-119175000D01*
X177632142Y-119246428D01*
X177632142Y-119639285D01*
X169596428Y-120878571D02*
X169525000Y-120914285D01*
X169382142Y-120914285D01*
X169310714Y-120878571D01*
X169275000Y-120842857D01*
X169239285Y-120771428D01*
X169239285Y-120557142D01*
X169275000Y-120485714D01*
X169310714Y-120450000D01*
X169382142Y-120414285D01*
X169525000Y-120414285D01*
X169596428Y-120450000D01*
X170025000Y-120914285D02*
X169953571Y-120878571D01*
X169917857Y-120842857D01*
X169882142Y-120771428D01*
X169882142Y-120557142D01*
X169917857Y-120485714D01*
X169953571Y-120450000D01*
X170025000Y-120414285D01*
X170132142Y-120414285D01*
X170203571Y-120450000D01*
X170239285Y-120485714D01*
X170275000Y-120557142D01*
X170275000Y-120771428D01*
X170239285Y-120842857D01*
X170203571Y-120878571D01*
X170132142Y-120914285D01*
X170025000Y-120914285D01*
X170596428Y-120414285D02*
X170596428Y-120914285D01*
X170596428Y-120485714D02*
X170632142Y-120450000D01*
X170703571Y-120414285D01*
X170810714Y-120414285D01*
X170882142Y-120450000D01*
X170917857Y-120521428D01*
X170917857Y-120914285D01*
X171167857Y-120414285D02*
X171453571Y-120414285D01*
X171275000Y-120164285D02*
X171275000Y-120807142D01*
X171310714Y-120878571D01*
X171382142Y-120914285D01*
X171453571Y-120914285D01*
X171703571Y-120914285D02*
X171703571Y-120414285D01*
X171703571Y-120557142D02*
X171739285Y-120485714D01*
X171775000Y-120450000D01*
X171846428Y-120414285D01*
X171917857Y-120414285D01*
X172275000Y-120914285D02*
X172203571Y-120878571D01*
X172167857Y-120842857D01*
X172132142Y-120771428D01*
X172132142Y-120557142D01*
X172167857Y-120485714D01*
X172203571Y-120450000D01*
X172275000Y-120414285D01*
X172382142Y-120414285D01*
X172453571Y-120450000D01*
X172489285Y-120485714D01*
X172525000Y-120557142D01*
X172525000Y-120771428D01*
X172489285Y-120842857D01*
X172453571Y-120878571D01*
X172382142Y-120914285D01*
X172275000Y-120914285D01*
X172953571Y-120914285D02*
X172882142Y-120878571D01*
X172846428Y-120807142D01*
X172846428Y-120164285D01*
X173810714Y-120914285D02*
X173810714Y-120414285D01*
X173810714Y-120485714D02*
X173846428Y-120450000D01*
X173917857Y-120414285D01*
X174025000Y-120414285D01*
X174096428Y-120450000D01*
X174132142Y-120521428D01*
X174132142Y-120914285D01*
X174132142Y-120521428D02*
X174167857Y-120450000D01*
X174239285Y-120414285D01*
X174346428Y-120414285D01*
X174417857Y-120450000D01*
X174453571Y-120521428D01*
X174453571Y-120914285D01*
X174917857Y-120914285D02*
X174846428Y-120878571D01*
X174810714Y-120842857D01*
X174775000Y-120771428D01*
X174775000Y-120557142D01*
X174810714Y-120485714D01*
X174846428Y-120450000D01*
X174917857Y-120414285D01*
X175025000Y-120414285D01*
X175096428Y-120450000D01*
X175132142Y-120485714D01*
X175167857Y-120557142D01*
X175167857Y-120771428D01*
X175132142Y-120842857D01*
X175096428Y-120878571D01*
X175025000Y-120914285D01*
X174917857Y-120914285D01*
X175810714Y-120914285D02*
X175810714Y-120164285D01*
X175810714Y-120878571D02*
X175739285Y-120914285D01*
X175596428Y-120914285D01*
X175525000Y-120878571D01*
X175489285Y-120842857D01*
X175453571Y-120771428D01*
X175453571Y-120557142D01*
X175489285Y-120485714D01*
X175525000Y-120450000D01*
X175596428Y-120414285D01*
X175739285Y-120414285D01*
X175810714Y-120450000D01*
X176489285Y-120414285D02*
X176489285Y-120914285D01*
X176167857Y-120414285D02*
X176167857Y-120807142D01*
X176203571Y-120878571D01*
X176275000Y-120914285D01*
X176382142Y-120914285D01*
X176453571Y-120878571D01*
X176489285Y-120842857D01*
X176953571Y-120914285D02*
X176882142Y-120878571D01*
X176846428Y-120807142D01*
X176846428Y-120164285D01*
X177525000Y-120878571D02*
X177453571Y-120914285D01*
X177310714Y-120914285D01*
X177239285Y-120878571D01*
X177203571Y-120807142D01*
X177203571Y-120521428D01*
X177239285Y-120450000D01*
X177310714Y-120414285D01*
X177453571Y-120414285D01*
X177525000Y-120450000D01*
X177560714Y-120521428D01*
X177560714Y-120592857D01*
X177203571Y-120664285D01*
D11*
G36*
X175118532Y-113498632D02*
G01*
X175220772Y-113530542D01*
X175224000Y-113540140D01*
X175295304Y-113625881D01*
X175469893Y-113719208D01*
X175499167Y-113730536D01*
X175774333Y-113832305D01*
X175520333Y-113946667D01*
X175373464Y-114023706D01*
X175342280Y-114064562D01*
X175351000Y-114066144D01*
X175366059Y-114105372D01*
X175308667Y-114153333D01*
X175241430Y-114216730D01*
X175324749Y-114243625D01*
X175372167Y-114247286D01*
X175679144Y-114290129D01*
X175832301Y-114376290D01*
X175843639Y-114514784D01*
X175814936Y-114579899D01*
X175769413Y-114695459D01*
X175834529Y-114700554D01*
X175866560Y-114689050D01*
X175954576Y-114677041D01*
X175971236Y-114762996D01*
X175942863Y-114918992D01*
X175838873Y-115214433D01*
X175694531Y-115365462D01*
X175521560Y-115360562D01*
X175503105Y-115351033D01*
X175364106Y-115324664D01*
X175212744Y-115426114D01*
X175169517Y-115470775D01*
X175019292Y-115596453D01*
X174940033Y-115571312D01*
X174939077Y-115569109D01*
X174912828Y-115567393D01*
X174906328Y-115700434D01*
X174907219Y-115724099D01*
X174939671Y-115909718D01*
X175051057Y-115985505D01*
X175175853Y-116002118D01*
X175387650Y-116043019D01*
X175518952Y-116108535D01*
X175546044Y-116162564D01*
X175465397Y-116142244D01*
X175317386Y-116133314D01*
X175269352Y-116227479D01*
X175331728Y-116384110D01*
X175386086Y-116451059D01*
X175494225Y-116602972D01*
X175512267Y-116706384D01*
X175416166Y-116734097D01*
X175278831Y-116671986D01*
X175166913Y-116560745D01*
X175140335Y-116481666D01*
X175224000Y-116481666D01*
X175266333Y-116524000D01*
X175308667Y-116481666D01*
X175266333Y-116439333D01*
X175224000Y-116481666D01*
X175140335Y-116481666D01*
X175139333Y-116478687D01*
X175071108Y-116370203D01*
X175007336Y-116354666D01*
X174917859Y-116316228D01*
X174924051Y-116275850D01*
X174916199Y-116166955D01*
X174895586Y-116149336D01*
X174804759Y-116171103D01*
X174769862Y-116228152D01*
X174653086Y-116334589D01*
X174471920Y-116341599D01*
X174309552Y-116253018D01*
X174255113Y-116217635D01*
X174284615Y-116312315D01*
X174313785Y-116376223D01*
X174424735Y-116536339D01*
X174576684Y-116565362D01*
X174631333Y-116555853D01*
X174843000Y-116510629D01*
X174631333Y-116682489D01*
X174383783Y-116807956D01*
X174228067Y-116806720D01*
X174016284Y-116815325D01*
X173894315Y-116874378D01*
X173806780Y-116927877D01*
X173810261Y-116892705D01*
X173795666Y-116787118D01*
X173729729Y-116742545D01*
X173681541Y-116735666D01*
X174377333Y-116735666D01*
X174419667Y-116778000D01*
X174462000Y-116735666D01*
X174419667Y-116693333D01*
X174377333Y-116735666D01*
X173681541Y-116735666D01*
X173581522Y-116721388D01*
X173536273Y-116777246D01*
X173617785Y-116865973D01*
X173693966Y-116929391D01*
X173612523Y-116945877D01*
X173600214Y-116946036D01*
X173428237Y-116890529D01*
X173322869Y-116812107D01*
X173151917Y-116723173D01*
X173014300Y-116690643D01*
X173959095Y-116690643D01*
X174026182Y-116650701D01*
X174051371Y-116630567D01*
X174190191Y-116571304D01*
X174255332Y-116588234D01*
X174277717Y-116587309D01*
X174237744Y-116524000D01*
X174128155Y-116341924D01*
X174094527Y-116270000D01*
X174059131Y-116217552D01*
X174059878Y-116312333D01*
X174036770Y-116518639D01*
X173999134Y-116608666D01*
X173959095Y-116690643D01*
X173014300Y-116690643D01*
X172860508Y-116654290D01*
X172660654Y-116629289D01*
X172377635Y-116607140D01*
X172233972Y-116610606D01*
X172200749Y-116646385D01*
X172249047Y-116721177D01*
X172251453Y-116724093D01*
X172427677Y-116824604D01*
X172536637Y-116813360D01*
X172661791Y-116803658D01*
X172668662Y-116866345D01*
X172567004Y-116945085D01*
X172371605Y-116995512D01*
X172156840Y-117008901D01*
X171997087Y-116976530D01*
X171965273Y-116948853D01*
X171904618Y-116927091D01*
X172128055Y-116927091D01*
X172211278Y-116940649D01*
X172321092Y-116925082D01*
X172322403Y-116896180D01*
X172209086Y-116875969D01*
X172160125Y-116889496D01*
X172128055Y-116927091D01*
X171904618Y-116927091D01*
X171851927Y-116908187D01*
X171758660Y-116944125D01*
X171612778Y-116989426D01*
X171554812Y-116975256D01*
X171424270Y-116924453D01*
X171238224Y-116915314D01*
X171091455Y-116949157D01*
X171068811Y-116968497D01*
X170969629Y-116998109D01*
X170736279Y-117025352D01*
X170399625Y-117049497D01*
X169990533Y-117069809D01*
X169539868Y-117085559D01*
X169078496Y-117096012D01*
X168637281Y-117100439D01*
X168247089Y-117098106D01*
X167938785Y-117088282D01*
X167743234Y-117070234D01*
X167688667Y-117048654D01*
X167726908Y-116946812D01*
X167862033Y-116876196D01*
X168124647Y-116823822D01*
X168259195Y-116806591D01*
X168603304Y-116753946D01*
X168974121Y-116679749D01*
X169079355Y-116654778D01*
X169186684Y-116636888D01*
X170934222Y-116636888D01*
X170945844Y-116687223D01*
X170990667Y-116693333D01*
X171060357Y-116662355D01*
X171047111Y-116636888D01*
X171272889Y-116636888D01*
X171284511Y-116687223D01*
X171329333Y-116693333D01*
X171399023Y-116662355D01*
X171385778Y-116636888D01*
X171285298Y-116626755D01*
X171272889Y-116636888D01*
X171047111Y-116636888D01*
X170946631Y-116626755D01*
X170934222Y-116636888D01*
X169186684Y-116636888D01*
X169427256Y-116596789D01*
X169795168Y-116577697D01*
X169902825Y-116582301D01*
X170224458Y-116578186D01*
X170598281Y-116532366D01*
X170798136Y-116490575D01*
X170844062Y-116481666D01*
X173107333Y-116481666D01*
X173149667Y-116524000D01*
X173169909Y-116503757D01*
X173313388Y-116503757D01*
X173396611Y-116517315D01*
X173506425Y-116501749D01*
X173507335Y-116481666D01*
X173700000Y-116481666D01*
X173742333Y-116524000D01*
X173784667Y-116481666D01*
X173742333Y-116439333D01*
X173700000Y-116481666D01*
X173507335Y-116481666D01*
X173507736Y-116472847D01*
X173394419Y-116452635D01*
X173345458Y-116466163D01*
X173313388Y-116503757D01*
X173169909Y-116503757D01*
X173192000Y-116481666D01*
X173149667Y-116439333D01*
X173107333Y-116481666D01*
X170844062Y-116481666D01*
X171103589Y-116431322D01*
X171510550Y-116376709D01*
X171951238Y-116335151D01*
X172152903Y-116322409D01*
X172535537Y-116295194D01*
X172867673Y-116257699D01*
X173104270Y-116215733D01*
X173184503Y-116189345D01*
X173405176Y-116117409D01*
X173557067Y-116100666D01*
X173763977Y-116048416D01*
X173875281Y-115966499D01*
X173999338Y-115882266D01*
X174202896Y-115869409D01*
X174351315Y-115887020D01*
X174578900Y-115912714D01*
X174685349Y-115889381D01*
X174715256Y-115802725D01*
X174716000Y-115770106D01*
X174659318Y-115601283D01*
X174518964Y-115399507D01*
X174477950Y-115354983D01*
X174358012Y-115254000D01*
X175054667Y-115254000D01*
X175085645Y-115323690D01*
X175111111Y-115310444D01*
X175121244Y-115209964D01*
X175111111Y-115197555D01*
X175060777Y-115209177D01*
X175054667Y-115254000D01*
X174358012Y-115254000D01*
X174287962Y-115195022D01*
X174132362Y-115159358D01*
X174061824Y-115177336D01*
X173768627Y-115203574D01*
X173486469Y-115093346D01*
X173436996Y-115042333D01*
X173954000Y-115042333D01*
X173996333Y-115084666D01*
X174038667Y-115042333D01*
X174885333Y-115042333D01*
X174927667Y-115084666D01*
X174970000Y-115042333D01*
X174927667Y-115000000D01*
X174885333Y-115042333D01*
X174038667Y-115042333D01*
X173996333Y-115000000D01*
X173954000Y-115042333D01*
X173436996Y-115042333D01*
X173295313Y-114896241D01*
X173239897Y-114788333D01*
X173530667Y-114788333D01*
X173573000Y-114830666D01*
X174038667Y-114830666D01*
X174069645Y-114900356D01*
X174095111Y-114887111D01*
X174105244Y-114786631D01*
X174095111Y-114774222D01*
X174044777Y-114785844D01*
X174038667Y-114830666D01*
X173573000Y-114830666D01*
X173615333Y-114788333D01*
X173573000Y-114746000D01*
X173530667Y-114788333D01*
X173239897Y-114788333D01*
X173208550Y-114727296D01*
X173219191Y-114643093D01*
X175186140Y-114643093D01*
X175202023Y-114691371D01*
X175263483Y-114858716D01*
X175275620Y-114936500D01*
X175295346Y-115106935D01*
X175327935Y-115164851D01*
X175354430Y-115169333D01*
X175378955Y-115094520D01*
X175383777Y-114908135D01*
X175380730Y-114839476D01*
X175347245Y-114616951D01*
X175278105Y-114546345D01*
X175250786Y-114552014D01*
X175186140Y-114643093D01*
X173219191Y-114643093D01*
X173223118Y-114612029D01*
X173284902Y-114534333D01*
X174208000Y-114534333D01*
X174250333Y-114576666D01*
X174292667Y-114534333D01*
X174288355Y-114530021D01*
X175533703Y-114530021D01*
X175537461Y-114615930D01*
X175609312Y-114605629D01*
X175718643Y-114522270D01*
X175732000Y-114482941D01*
X175685625Y-114409562D01*
X175592706Y-114443224D01*
X175533703Y-114530021D01*
X174288355Y-114530021D01*
X174250333Y-114492000D01*
X174208000Y-114534333D01*
X173284902Y-114534333D01*
X173315427Y-114495947D01*
X173420931Y-114332437D01*
X173403401Y-114195666D01*
X174546667Y-114195666D01*
X174589000Y-114238000D01*
X174631333Y-114195666D01*
X174589000Y-114153333D01*
X174546667Y-114195666D01*
X173403401Y-114195666D01*
X173399274Y-114163467D01*
X173378945Y-114115843D01*
X173332189Y-113978019D01*
X173378324Y-113896069D01*
X173472125Y-113857000D01*
X175478000Y-113857000D01*
X175520333Y-113899333D01*
X175562667Y-113857000D01*
X175520333Y-113814666D01*
X175478000Y-113857000D01*
X173472125Y-113857000D01*
X173549736Y-113824675D01*
X173598345Y-113808819D01*
X173827164Y-113724085D01*
X173990095Y-113644360D01*
X174007750Y-113632024D01*
X174081574Y-113603000D01*
X174885333Y-113603000D01*
X174927667Y-113645333D01*
X174970000Y-113603000D01*
X174927667Y-113560666D01*
X174885333Y-113603000D01*
X174081574Y-113603000D01*
X174142872Y-113578901D01*
X174371605Y-113535216D01*
X174643855Y-113504753D01*
X174909528Y-113491297D01*
X175118532Y-113498632D01*
G37*
X175118532Y-113498632D02*
X175220772Y-113530542D01*
X175224000Y-113540140D01*
X175295304Y-113625881D01*
X175469893Y-113719208D01*
X175499167Y-113730536D01*
X175774333Y-113832305D01*
X175520333Y-113946667D01*
X175373464Y-114023706D01*
X175342280Y-114064562D01*
X175351000Y-114066144D01*
X175366059Y-114105372D01*
X175308667Y-114153333D01*
X175241430Y-114216730D01*
X175324749Y-114243625D01*
X175372167Y-114247286D01*
X175679144Y-114290129D01*
X175832301Y-114376290D01*
X175843639Y-114514784D01*
X175814936Y-114579899D01*
X175769413Y-114695459D01*
X175834529Y-114700554D01*
X175866560Y-114689050D01*
X175954576Y-114677041D01*
X175971236Y-114762996D01*
X175942863Y-114918992D01*
X175838873Y-115214433D01*
X175694531Y-115365462D01*
X175521560Y-115360562D01*
X175503105Y-115351033D01*
X175364106Y-115324664D01*
X175212744Y-115426114D01*
X175169517Y-115470775D01*
X175019292Y-115596453D01*
X174940033Y-115571312D01*
X174939077Y-115569109D01*
X174912828Y-115567393D01*
X174906328Y-115700434D01*
X174907219Y-115724099D01*
X174939671Y-115909718D01*
X175051057Y-115985505D01*
X175175853Y-116002118D01*
X175387650Y-116043019D01*
X175518952Y-116108535D01*
X175546044Y-116162564D01*
X175465397Y-116142244D01*
X175317386Y-116133314D01*
X175269352Y-116227479D01*
X175331728Y-116384110D01*
X175386086Y-116451059D01*
X175494225Y-116602972D01*
X175512267Y-116706384D01*
X175416166Y-116734097D01*
X175278831Y-116671986D01*
X175166913Y-116560745D01*
X175140335Y-116481666D01*
X175224000Y-116481666D01*
X175266333Y-116524000D01*
X175308667Y-116481666D01*
X175266333Y-116439333D01*
X175224000Y-116481666D01*
X175140335Y-116481666D01*
X175139333Y-116478687D01*
X175071108Y-116370203D01*
X175007336Y-116354666D01*
X174917859Y-116316228D01*
X174924051Y-116275850D01*
X174916199Y-116166955D01*
X174895586Y-116149336D01*
X174804759Y-116171103D01*
X174769862Y-116228152D01*
X174653086Y-116334589D01*
X174471920Y-116341599D01*
X174309552Y-116253018D01*
X174255113Y-116217635D01*
X174284615Y-116312315D01*
X174313785Y-116376223D01*
X174424735Y-116536339D01*
X174576684Y-116565362D01*
X174631333Y-116555853D01*
X174843000Y-116510629D01*
X174631333Y-116682489D01*
X174383783Y-116807956D01*
X174228067Y-116806720D01*
X174016284Y-116815325D01*
X173894315Y-116874378D01*
X173806780Y-116927877D01*
X173810261Y-116892705D01*
X173795666Y-116787118D01*
X173729729Y-116742545D01*
X173681541Y-116735666D01*
X174377333Y-116735666D01*
X174419667Y-116778000D01*
X174462000Y-116735666D01*
X174419667Y-116693333D01*
X174377333Y-116735666D01*
X173681541Y-116735666D01*
X173581522Y-116721388D01*
X173536273Y-116777246D01*
X173617785Y-116865973D01*
X173693966Y-116929391D01*
X173612523Y-116945877D01*
X173600214Y-116946036D01*
X173428237Y-116890529D01*
X173322869Y-116812107D01*
X173151917Y-116723173D01*
X173014300Y-116690643D01*
X173959095Y-116690643D01*
X174026182Y-116650701D01*
X174051371Y-116630567D01*
X174190191Y-116571304D01*
X174255332Y-116588234D01*
X174277717Y-116587309D01*
X174237744Y-116524000D01*
X174128155Y-116341924D01*
X174094527Y-116270000D01*
X174059131Y-116217552D01*
X174059878Y-116312333D01*
X174036770Y-116518639D01*
X173999134Y-116608666D01*
X173959095Y-116690643D01*
X173014300Y-116690643D01*
X172860508Y-116654290D01*
X172660654Y-116629289D01*
X172377635Y-116607140D01*
X172233972Y-116610606D01*
X172200749Y-116646385D01*
X172249047Y-116721177D01*
X172251453Y-116724093D01*
X172427677Y-116824604D01*
X172536637Y-116813360D01*
X172661791Y-116803658D01*
X172668662Y-116866345D01*
X172567004Y-116945085D01*
X172371605Y-116995512D01*
X172156840Y-117008901D01*
X171997087Y-116976530D01*
X171965273Y-116948853D01*
X171904618Y-116927091D01*
X172128055Y-116927091D01*
X172211278Y-116940649D01*
X172321092Y-116925082D01*
X172322403Y-116896180D01*
X172209086Y-116875969D01*
X172160125Y-116889496D01*
X172128055Y-116927091D01*
X171904618Y-116927091D01*
X171851927Y-116908187D01*
X171758660Y-116944125D01*
X171612778Y-116989426D01*
X171554812Y-116975256D01*
X171424270Y-116924453D01*
X171238224Y-116915314D01*
X171091455Y-116949157D01*
X171068811Y-116968497D01*
X170969629Y-116998109D01*
X170736279Y-117025352D01*
X170399625Y-117049497D01*
X169990533Y-117069809D01*
X169539868Y-117085559D01*
X169078496Y-117096012D01*
X168637281Y-117100439D01*
X168247089Y-117098106D01*
X167938785Y-117088282D01*
X167743234Y-117070234D01*
X167688667Y-117048654D01*
X167726908Y-116946812D01*
X167862033Y-116876196D01*
X168124647Y-116823822D01*
X168259195Y-116806591D01*
X168603304Y-116753946D01*
X168974121Y-116679749D01*
X169079355Y-116654778D01*
X169186684Y-116636888D01*
X170934222Y-116636888D01*
X170945844Y-116687223D01*
X170990667Y-116693333D01*
X171060357Y-116662355D01*
X171047111Y-116636888D01*
X171272889Y-116636888D01*
X171284511Y-116687223D01*
X171329333Y-116693333D01*
X171399023Y-116662355D01*
X171385778Y-116636888D01*
X171285298Y-116626755D01*
X171272889Y-116636888D01*
X171047111Y-116636888D01*
X170946631Y-116626755D01*
X170934222Y-116636888D01*
X169186684Y-116636888D01*
X169427256Y-116596789D01*
X169795168Y-116577697D01*
X169902825Y-116582301D01*
X170224458Y-116578186D01*
X170598281Y-116532366D01*
X170798136Y-116490575D01*
X170844062Y-116481666D01*
X173107333Y-116481666D01*
X173149667Y-116524000D01*
X173169909Y-116503757D01*
X173313388Y-116503757D01*
X173396611Y-116517315D01*
X173506425Y-116501749D01*
X173507335Y-116481666D01*
X173700000Y-116481666D01*
X173742333Y-116524000D01*
X173784667Y-116481666D01*
X173742333Y-116439333D01*
X173700000Y-116481666D01*
X173507335Y-116481666D01*
X173507736Y-116472847D01*
X173394419Y-116452635D01*
X173345458Y-116466163D01*
X173313388Y-116503757D01*
X173169909Y-116503757D01*
X173192000Y-116481666D01*
X173149667Y-116439333D01*
X173107333Y-116481666D01*
X170844062Y-116481666D01*
X171103589Y-116431322D01*
X171510550Y-116376709D01*
X171951238Y-116335151D01*
X172152903Y-116322409D01*
X172535537Y-116295194D01*
X172867673Y-116257699D01*
X173104270Y-116215733D01*
X173184503Y-116189345D01*
X173405176Y-116117409D01*
X173557067Y-116100666D01*
X173763977Y-116048416D01*
X173875281Y-115966499D01*
X173999338Y-115882266D01*
X174202896Y-115869409D01*
X174351315Y-115887020D01*
X174578900Y-115912714D01*
X174685349Y-115889381D01*
X174715256Y-115802725D01*
X174716000Y-115770106D01*
X174659318Y-115601283D01*
X174518964Y-115399507D01*
X174477950Y-115354983D01*
X174358012Y-115254000D01*
X175054667Y-115254000D01*
X175085645Y-115323690D01*
X175111111Y-115310444D01*
X175121244Y-115209964D01*
X175111111Y-115197555D01*
X175060777Y-115209177D01*
X175054667Y-115254000D01*
X174358012Y-115254000D01*
X174287962Y-115195022D01*
X174132362Y-115159358D01*
X174061824Y-115177336D01*
X173768627Y-115203574D01*
X173486469Y-115093346D01*
X173436996Y-115042333D01*
X173954000Y-115042333D01*
X173996333Y-115084666D01*
X174038667Y-115042333D01*
X174885333Y-115042333D01*
X174927667Y-115084666D01*
X174970000Y-115042333D01*
X174927667Y-115000000D01*
X174885333Y-115042333D01*
X174038667Y-115042333D01*
X173996333Y-115000000D01*
X173954000Y-115042333D01*
X173436996Y-115042333D01*
X173295313Y-114896241D01*
X173239897Y-114788333D01*
X173530667Y-114788333D01*
X173573000Y-114830666D01*
X174038667Y-114830666D01*
X174069645Y-114900356D01*
X174095111Y-114887111D01*
X174105244Y-114786631D01*
X174095111Y-114774222D01*
X174044777Y-114785844D01*
X174038667Y-114830666D01*
X173573000Y-114830666D01*
X173615333Y-114788333D01*
X173573000Y-114746000D01*
X173530667Y-114788333D01*
X173239897Y-114788333D01*
X173208550Y-114727296D01*
X173219191Y-114643093D01*
X175186140Y-114643093D01*
X175202023Y-114691371D01*
X175263483Y-114858716D01*
X175275620Y-114936500D01*
X175295346Y-115106935D01*
X175327935Y-115164851D01*
X175354430Y-115169333D01*
X175378955Y-115094520D01*
X175383777Y-114908135D01*
X175380730Y-114839476D01*
X175347245Y-114616951D01*
X175278105Y-114546345D01*
X175250786Y-114552014D01*
X175186140Y-114643093D01*
X173219191Y-114643093D01*
X173223118Y-114612029D01*
X173284902Y-114534333D01*
X174208000Y-114534333D01*
X174250333Y-114576666D01*
X174292667Y-114534333D01*
X174288355Y-114530021D01*
X175533703Y-114530021D01*
X175537461Y-114615930D01*
X175609312Y-114605629D01*
X175718643Y-114522270D01*
X175732000Y-114482941D01*
X175685625Y-114409562D01*
X175592706Y-114443224D01*
X175533703Y-114530021D01*
X174288355Y-114530021D01*
X174250333Y-114492000D01*
X174208000Y-114534333D01*
X173284902Y-114534333D01*
X173315427Y-114495947D01*
X173420931Y-114332437D01*
X173403401Y-114195666D01*
X174546667Y-114195666D01*
X174589000Y-114238000D01*
X174631333Y-114195666D01*
X174589000Y-114153333D01*
X174546667Y-114195666D01*
X173403401Y-114195666D01*
X173399274Y-114163467D01*
X173378945Y-114115843D01*
X173332189Y-113978019D01*
X173378324Y-113896069D01*
X173472125Y-113857000D01*
X175478000Y-113857000D01*
X175520333Y-113899333D01*
X175562667Y-113857000D01*
X175520333Y-113814666D01*
X175478000Y-113857000D01*
X173472125Y-113857000D01*
X173549736Y-113824675D01*
X173598345Y-113808819D01*
X173827164Y-113724085D01*
X173990095Y-113644360D01*
X174007750Y-113632024D01*
X174081574Y-113603000D01*
X174885333Y-113603000D01*
X174927667Y-113645333D01*
X174970000Y-113603000D01*
X174927667Y-113560666D01*
X174885333Y-113603000D01*
X174081574Y-113603000D01*
X174142872Y-113578901D01*
X174371605Y-113535216D01*
X174643855Y-113504753D01*
X174909528Y-113491297D01*
X175118532Y-113498632D01*
G36*
X175050328Y-116510574D02*
G01*
X175091487Y-116591298D01*
X175203414Y-116737212D01*
X175350932Y-116825360D01*
X175496623Y-116919957D01*
X175495556Y-117007536D01*
X175408938Y-117054752D01*
X175252163Y-116991572D01*
X175184421Y-116949140D01*
X175118832Y-116890888D01*
X175252222Y-116890888D01*
X175263844Y-116941223D01*
X175308667Y-116947333D01*
X175378357Y-116916355D01*
X175365111Y-116890888D01*
X175264631Y-116880755D01*
X175252222Y-116890888D01*
X175118832Y-116890888D01*
X174996154Y-116781935D01*
X174914037Y-116615876D01*
X174956460Y-116491401D01*
X174971445Y-116480773D01*
X175050328Y-116510574D01*
G37*
X175050328Y-116510574D02*
X175091487Y-116591298D01*
X175203414Y-116737212D01*
X175350932Y-116825360D01*
X175496623Y-116919957D01*
X175495556Y-117007536D01*
X175408938Y-117054752D01*
X175252163Y-116991572D01*
X175184421Y-116949140D01*
X175118832Y-116890888D01*
X175252222Y-116890888D01*
X175263844Y-116941223D01*
X175308667Y-116947333D01*
X175378357Y-116916355D01*
X175365111Y-116890888D01*
X175264631Y-116880755D01*
X175252222Y-116890888D01*
X175118832Y-116890888D01*
X174996154Y-116781935D01*
X174914037Y-116615876D01*
X174956460Y-116491401D01*
X174971445Y-116480773D01*
X175050328Y-116510574D01*
G36*
X176126229Y-116999203D02*
G01*
X176113000Y-117032000D01*
X176036918Y-117112770D01*
X176023336Y-117116666D01*
X175986971Y-117051160D01*
X175986000Y-117032000D01*
X176051088Y-116950586D01*
X176075663Y-116947333D01*
X176126229Y-116999203D01*
G37*
X176126229Y-116999203D02*
X176113000Y-117032000D01*
X176036918Y-117112770D01*
X176023336Y-117116666D01*
X175986971Y-117051160D01*
X175986000Y-117032000D01*
X176051088Y-116950586D01*
X176075663Y-116947333D01*
X176126229Y-116999203D01*
G36*
X176332204Y-116320497D02*
G01*
X176367000Y-116354666D01*
X176486771Y-116426531D01*
X176578667Y-116439333D01*
X176753632Y-116491252D01*
X176807104Y-116616883D01*
X176756023Y-116725998D01*
X176702169Y-116845296D01*
X176714879Y-116885990D01*
X176723955Y-116991340D01*
X176703561Y-117035406D01*
X176627416Y-117084744D01*
X176561637Y-117019872D01*
X176483645Y-116951195D01*
X176438165Y-117010833D01*
X176354351Y-117107706D01*
X176275743Y-117095240D01*
X176272289Y-116985352D01*
X176273275Y-116982741D01*
X176318050Y-116849334D01*
X176324667Y-116816065D01*
X176389721Y-116801716D01*
X176430500Y-116809114D01*
X176489681Y-116812415D01*
X176472306Y-116799225D01*
X176446704Y-116709435D01*
X176460458Y-116679108D01*
X176433155Y-116654187D01*
X176297917Y-116703576D01*
X176270485Y-116717056D01*
X176025492Y-116799954D01*
X175866643Y-116767882D01*
X175816667Y-116643944D01*
X175746145Y-116546691D01*
X175647333Y-116524000D01*
X175587766Y-116510077D01*
X175823645Y-116510077D01*
X175867526Y-116507475D01*
X175919788Y-116491757D01*
X176071114Y-116498181D01*
X176123370Y-116540779D01*
X176129326Y-116595242D01*
X176089599Y-116578033D01*
X175971906Y-116578703D01*
X175944520Y-116607285D01*
X175969485Y-116675134D01*
X176065670Y-116693333D01*
X176205647Y-116643834D01*
X176240000Y-116571330D01*
X176181331Y-116419777D01*
X176033864Y-116392366D01*
X175923170Y-116441143D01*
X175823645Y-116510077D01*
X175587766Y-116510077D01*
X175509702Y-116491831D01*
X175478000Y-116447259D01*
X175544950Y-116402404D01*
X175637778Y-116412302D01*
X175795637Y-116406124D01*
X175854441Y-116362042D01*
X175980646Y-116288744D01*
X176170848Y-116274450D01*
X176332204Y-116320497D01*
G37*
X176332204Y-116320497D02*
X176367000Y-116354666D01*
X176486771Y-116426531D01*
X176578667Y-116439333D01*
X176753632Y-116491252D01*
X176807104Y-116616883D01*
X176756023Y-116725998D01*
X176702169Y-116845296D01*
X176714879Y-116885990D01*
X176723955Y-116991340D01*
X176703561Y-117035406D01*
X176627416Y-117084744D01*
X176561637Y-117019872D01*
X176483645Y-116951195D01*
X176438165Y-117010833D01*
X176354351Y-117107706D01*
X176275743Y-117095240D01*
X176272289Y-116985352D01*
X176273275Y-116982741D01*
X176318050Y-116849334D01*
X176324667Y-116816065D01*
X176389721Y-116801716D01*
X176430500Y-116809114D01*
X176489681Y-116812415D01*
X176472306Y-116799225D01*
X176446704Y-116709435D01*
X176460458Y-116679108D01*
X176433155Y-116654187D01*
X176297917Y-116703576D01*
X176270485Y-116717056D01*
X176025492Y-116799954D01*
X175866643Y-116767882D01*
X175816667Y-116643944D01*
X175746145Y-116546691D01*
X175647333Y-116524000D01*
X175587766Y-116510077D01*
X175823645Y-116510077D01*
X175867526Y-116507475D01*
X175919788Y-116491757D01*
X176071114Y-116498181D01*
X176123370Y-116540779D01*
X176129326Y-116595242D01*
X176089599Y-116578033D01*
X175971906Y-116578703D01*
X175944520Y-116607285D01*
X175969485Y-116675134D01*
X176065670Y-116693333D01*
X176205647Y-116643834D01*
X176240000Y-116571330D01*
X176181331Y-116419777D01*
X176033864Y-116392366D01*
X175923170Y-116441143D01*
X175823645Y-116510077D01*
X175587766Y-116510077D01*
X175509702Y-116491831D01*
X175478000Y-116447259D01*
X175544950Y-116402404D01*
X175637778Y-116412302D01*
X175795637Y-116406124D01*
X175854441Y-116362042D01*
X175980646Y-116288744D01*
X176170848Y-116274450D01*
X176332204Y-116320497D01*
G36*
X177107833Y-117060593D02*
G01*
X177118469Y-117091496D01*
X177002000Y-117103298D01*
X176881804Y-117089992D01*
X176896167Y-117060593D01*
X177069509Y-117049410D01*
X177107833Y-117060593D01*
G37*
X177107833Y-117060593D02*
X177118469Y-117091496D01*
X177002000Y-117103298D01*
X176881804Y-117089992D01*
X176896167Y-117060593D01*
X177069509Y-117049410D01*
X177107833Y-117060593D01*
G36*
X177191484Y-116481303D02*
G01*
X177425293Y-116537491D01*
X177558477Y-116554943D01*
X177678276Y-116590103D01*
X177701025Y-116706780D01*
X177683601Y-116812537D01*
X177595812Y-117009232D01*
X177482232Y-117080906D01*
X177381477Y-117076651D01*
X177423249Y-116992338D01*
X177433171Y-116980222D01*
X177483890Y-116864103D01*
X177394175Y-116753885D01*
X177374396Y-116738959D01*
X177247774Y-116668776D01*
X177182592Y-116733342D01*
X177158606Y-116805105D01*
X177111926Y-116915163D01*
X177088814Y-116905000D01*
X177062773Y-116760125D01*
X177042766Y-116651000D01*
X177340667Y-116651000D01*
X177383000Y-116693333D01*
X177425333Y-116651000D01*
X177383000Y-116608666D01*
X177340667Y-116651000D01*
X177042766Y-116651000D01*
X177037025Y-116619692D01*
X177029949Y-116477268D01*
X177115823Y-116459572D01*
X177191484Y-116481303D01*
G37*
X177191484Y-116481303D02*
X177425293Y-116537491D01*
X177558477Y-116554943D01*
X177678276Y-116590103D01*
X177701025Y-116706780D01*
X177683601Y-116812537D01*
X177595812Y-117009232D01*
X177482232Y-117080906D01*
X177381477Y-117076651D01*
X177423249Y-116992338D01*
X177433171Y-116980222D01*
X177483890Y-116864103D01*
X177394175Y-116753885D01*
X177374396Y-116738959D01*
X177247774Y-116668776D01*
X177182592Y-116733342D01*
X177158606Y-116805105D01*
X177111926Y-116915163D01*
X177088814Y-116905000D01*
X177062773Y-116760125D01*
X177042766Y-116651000D01*
X177340667Y-116651000D01*
X177383000Y-116693333D01*
X177425333Y-116651000D01*
X177383000Y-116608666D01*
X177340667Y-116651000D01*
X177042766Y-116651000D01*
X177037025Y-116619692D01*
X177029949Y-116477268D01*
X177115823Y-116459572D01*
X177191484Y-116481303D01*
G36*
X177922442Y-116835039D02*
G01*
X177870884Y-116989281D01*
X177792786Y-117102649D01*
X177760109Y-117116666D01*
X177734242Y-117051934D01*
X177779568Y-116904642D01*
X177860499Y-116762900D01*
X177912484Y-116728928D01*
X177922442Y-116835039D01*
G37*
X177922442Y-116835039D02*
X177870884Y-116989281D01*
X177792786Y-117102649D01*
X177760109Y-117116666D01*
X177734242Y-117051934D01*
X177779568Y-116904642D01*
X177860499Y-116762900D01*
X177912484Y-116728928D01*
X177922442Y-116835039D01*
G36*
X178102667Y-117074333D02*
G01*
X178060333Y-117116666D01*
X178018000Y-117074333D01*
X178060333Y-117032000D01*
X178102667Y-117074333D01*
G37*
X178102667Y-117074333D02*
X178060333Y-117116666D01*
X178018000Y-117074333D01*
X178060333Y-117032000D01*
X178102667Y-117074333D01*
G36*
X178245243Y-116750455D02*
G01*
X178245847Y-116752077D01*
X178343983Y-116816232D01*
X178425637Y-116807590D01*
X178514901Y-116788322D01*
X178454334Y-116843298D01*
X178451653Y-116845213D01*
X178379927Y-116962528D01*
X178393150Y-117022533D01*
X178384034Y-117106542D01*
X178340497Y-117116606D01*
X178255832Y-117042984D01*
X178219211Y-116883773D01*
X178222579Y-116749786D01*
X178245243Y-116750455D01*
G37*
X178245243Y-116750455D02*
X178245847Y-116752077D01*
X178343983Y-116816232D01*
X178425637Y-116807590D01*
X178514901Y-116788322D01*
X178454334Y-116843298D01*
X178451653Y-116845213D01*
X178379927Y-116962528D01*
X178393150Y-117022533D01*
X178384034Y-117106542D01*
X178340497Y-117116606D01*
X178255832Y-117042984D01*
X178219211Y-116883773D01*
X178222579Y-116749786D01*
X178245243Y-116750455D01*
G36*
X172853333Y-116820333D02*
G01*
X172811000Y-116862666D01*
X172768667Y-116820333D01*
X172811000Y-116778000D01*
X172853333Y-116820333D01*
G37*
X172853333Y-116820333D02*
X172811000Y-116862666D01*
X172768667Y-116820333D01*
X172811000Y-116778000D01*
X172853333Y-116820333D01*
D12*
X150200000Y-87950000D02*
X150200000Y-89000000D01*
X151250000Y-89000000D02*
X150200000Y-89000000D01*
X156300000Y-79600000D02*
X165100000Y-79600000D01*
X165100000Y-79600000D02*
X165100000Y-88800000D01*
X150400000Y-82300000D02*
X150400000Y-79600000D01*
X150400000Y-79600000D02*
X152300000Y-79600000D01*
X165100000Y-88800000D02*
X150400000Y-88800000D01*
X150400000Y-88800000D02*
X150400000Y-86200000D01*
X104550000Y-98800000D02*
X104550000Y-111400000D01*
X109650000Y-98800000D02*
X104550000Y-98800000D01*
X109650000Y-111400000D02*
X109650000Y-98800000D01*
X116700000Y-65800000D02*
X116700000Y-53200000D01*
X111600000Y-65800000D02*
X116700000Y-65800000D01*
X111600000Y-53200000D02*
X111600000Y-65800000D01*
X110965000Y-74950000D02*
X110965000Y-76900000D01*
X110965000Y-74950000D02*
X110965000Y-73000000D01*
X119835000Y-74950000D02*
X119835000Y-76900000D01*
X119835000Y-74950000D02*
X119835000Y-71500000D01*
D10*
X137025000Y-109100000D02*
X138100000Y-109100000D01*
X137025000Y-105975000D02*
X133775000Y-105975000D01*
X137025000Y-109225000D02*
X133775000Y-109225000D01*
X137025000Y-105975000D02*
X137025000Y-106200000D01*
X133775000Y-105975000D02*
X133775000Y-106200000D01*
X133775000Y-109225000D02*
X133775000Y-109000000D01*
X137025000Y-109225000D02*
X137025000Y-109100000D01*
D12*
X118360000Y-81320000D02*
X116710000Y-81320000D01*
X118360000Y-117000000D02*
X118360000Y-81320000D01*
X113060000Y-117000000D02*
X118360000Y-117000000D01*
X113060000Y-81320000D02*
X113060000Y-117000000D01*
X114710000Y-81320000D02*
X113060000Y-81320000D01*
X116710000Y-81320000D02*
G75*
G02*
X114710000Y-81320000I-1000000J0D01*
G01*
X129710000Y-66660000D02*
X131000000Y-66660000D01*
X129710000Y-67110000D02*
X129710000Y-66660000D01*
X129260000Y-67110000D02*
X129710000Y-67110000D01*
X122490000Y-67110000D02*
X122490000Y-66660000D01*
X122940000Y-67110000D02*
X122490000Y-67110000D01*
X129710000Y-59890000D02*
X129710000Y-60340000D01*
X129260000Y-59890000D02*
X129710000Y-59890000D01*
X122490000Y-59890000D02*
X122490000Y-60340000D01*
X122940000Y-59890000D02*
X122490000Y-59890000D01*
X102150000Y-58850000D02*
X104550000Y-58850000D01*
X104550000Y-55750000D02*
X101600000Y-55750000D01*
X146950000Y-94460000D02*
X140940000Y-94460000D01*
X144700000Y-87640000D02*
X140940000Y-87640000D01*
X140940000Y-94460000D02*
X140940000Y-93200000D01*
X140940000Y-87640000D02*
X140940000Y-88900000D01*
X135950000Y-94510000D02*
X129940000Y-94510000D01*
X133700000Y-87690000D02*
X129940000Y-87690000D01*
X129940000Y-94510000D02*
X129940000Y-93250000D01*
X129940000Y-87690000D02*
X129940000Y-88950000D01*
X129800000Y-86250000D02*
X126900000Y-86250000D01*
X126900000Y-86250000D02*
X126900000Y-83350000D01*
X126900000Y-83350000D02*
X129800000Y-83350000D01*
X129800000Y-83350000D02*
X129800000Y-86250000D01*
X129800000Y-82000000D02*
X126900000Y-82000000D01*
X126900000Y-82000000D02*
X126900000Y-79100000D01*
X126900000Y-79100000D02*
X129800000Y-79100000D01*
X129800000Y-79100000D02*
X129800000Y-82000000D01*
X104800000Y-80800000D02*
X104800000Y-76300000D01*
X100800000Y-82050000D02*
X102300000Y-82050000D01*
X98300000Y-76300000D02*
X98300000Y-80800000D01*
X102300000Y-75050000D02*
X100800000Y-75050000D01*
X104800000Y-70250000D02*
X104800000Y-65750000D01*
X100800000Y-71500000D02*
X102300000Y-71500000D01*
X98300000Y-65750000D02*
X98300000Y-70250000D01*
X102300000Y-64500000D02*
X100800000Y-64500000D01*
X164460000Y-113162779D02*
X164460000Y-112837221D01*
X163440000Y-113162779D02*
X163440000Y-112837221D01*
X162310000Y-113162779D02*
X162310000Y-112837221D01*
X161290000Y-113162779D02*
X161290000Y-112837221D01*
X160060000Y-113162779D02*
X160060000Y-112837221D01*
X159040000Y-113162779D02*
X159040000Y-112837221D01*
X146860000Y-105762779D02*
X146860000Y-105437221D01*
X145840000Y-105762779D02*
X145840000Y-105437221D01*
X143740000Y-105437221D02*
X143740000Y-105762779D01*
X144760000Y-105437221D02*
X144760000Y-105762779D01*
X144760000Y-109562779D02*
X144760000Y-109237221D01*
X143740000Y-109562779D02*
X143740000Y-109237221D01*
X145840000Y-109237221D02*
X145840000Y-109562779D01*
X146860000Y-109237221D02*
X146860000Y-109562779D01*
X130440000Y-104937221D02*
X130440000Y-105262779D01*
X131460000Y-104937221D02*
X131460000Y-105262779D01*
X141462779Y-108140000D02*
X141137221Y-108140000D01*
X141462779Y-109160000D02*
X141137221Y-109160000D01*
X141462779Y-105890000D02*
X141137221Y-105890000D01*
X141462779Y-106910000D02*
X141137221Y-106910000D01*
X132690000Y-103737221D02*
X132690000Y-104062779D01*
X133710000Y-103737221D02*
X133710000Y-104062779D01*
X128190000Y-106124721D02*
X128190000Y-106450279D01*
X129210000Y-106124721D02*
X129210000Y-106450279D01*
X106590000Y-81637221D02*
X106590000Y-81962779D01*
X107610000Y-81637221D02*
X107610000Y-81962779D01*
X156137221Y-58360000D02*
X156462779Y-58360000D01*
X156137221Y-57340000D02*
X156462779Y-57340000D01*
X149162779Y-77690000D02*
X148837221Y-77690000D01*
X149162779Y-78710000D02*
X148837221Y-78710000D01*
X139737221Y-62360000D02*
X140062779Y-62360000D01*
X139737221Y-61340000D02*
X140062779Y-61340000D01*
X137810000Y-73062779D02*
X137810000Y-72737221D01*
X136790000Y-73062779D02*
X136790000Y-72737221D01*
X139737221Y-67610000D02*
X140062779Y-67610000D01*
X139737221Y-66590000D02*
X140062779Y-66590000D01*
X139737221Y-69910000D02*
X140062779Y-69910000D01*
X139737221Y-68890000D02*
X140062779Y-68890000D01*
X139737221Y-72360000D02*
X140062779Y-72360000D01*
X139737221Y-71340000D02*
X140062779Y-71340000D01*
X134437221Y-67810000D02*
X134762779Y-67810000D01*
X134437221Y-66790000D02*
X134762779Y-66790000D01*
X134437221Y-64110000D02*
X134762779Y-64110000D01*
X134437221Y-63090000D02*
X134762779Y-63090000D01*
X131790000Y-60787221D02*
X131790000Y-61112779D01*
X132810000Y-60787221D02*
X132810000Y-61112779D01*
X134437221Y-69510000D02*
X134762779Y-69510000D01*
X134437221Y-68490000D02*
X134762779Y-68490000D01*
X134437221Y-65860000D02*
X134762779Y-65860000D01*
X134437221Y-64840000D02*
X134762779Y-64840000D01*
X125512779Y-73140000D02*
X125187221Y-73140000D01*
X125512779Y-74160000D02*
X125187221Y-74160000D01*
X126825279Y-75760000D02*
X126499721Y-75760000D01*
X126825279Y-74740000D02*
X126499721Y-74740000D01*
X128112779Y-76340000D02*
X127787221Y-76340000D01*
X128112779Y-77360000D02*
X127787221Y-77360000D01*
X114510000Y-69712779D02*
X114510000Y-69387221D01*
X113490000Y-69712779D02*
X113490000Y-69387221D01*
X101540000Y-61262779D02*
X101540000Y-60937221D01*
X102560000Y-61262779D02*
X102560000Y-60937221D01*
X118487221Y-63060000D02*
X118812779Y-63060000D01*
X118487221Y-62040000D02*
X118812779Y-62040000D01*
X123587221Y-71540000D02*
X123912779Y-71540000D01*
X123587221Y-72560000D02*
X123912779Y-72560000D01*
X118410000Y-60012779D02*
X118410000Y-59687221D01*
X117390000Y-60012779D02*
X117390000Y-59687221D01*
X99440000Y-57712779D02*
X99440000Y-57387221D01*
X100460000Y-57712779D02*
X100460000Y-57387221D01*
X104190000Y-61262779D02*
X104190000Y-60937221D01*
X105210000Y-61262779D02*
X105210000Y-60937221D01*
X143630000Y-77970000D02*
X143630000Y-80630000D01*
X143630000Y-77970000D02*
X141030000Y-77970000D01*
X141030000Y-77970000D02*
X141030000Y-80630000D01*
X143630000Y-80630000D02*
X141030000Y-80630000D01*
X146230000Y-80630000D02*
X144900000Y-80630000D01*
X146230000Y-79300000D02*
X146230000Y-80630000D01*
X143670000Y-84480000D02*
X143670000Y-81820000D01*
X143670000Y-84480000D02*
X146270000Y-84480000D01*
X146270000Y-84480000D02*
X146270000Y-81820000D01*
X143670000Y-81820000D02*
X146270000Y-81820000D01*
X141070000Y-81820000D02*
X142400000Y-81820000D01*
X141070000Y-83150000D02*
X141070000Y-81820000D01*
X126200000Y-47320000D02*
X127530000Y-47320000D01*
X127530000Y-47320000D02*
X127530000Y-48650000D01*
X127530000Y-49920000D02*
X127530000Y-52520000D01*
X124870000Y-52520000D02*
X127530000Y-52520000D01*
X124870000Y-49920000D02*
X124870000Y-52520000D01*
X124870000Y-49920000D02*
X127530000Y-49920000D01*
X122250000Y-47320000D02*
X123580000Y-47320000D01*
X123580000Y-47320000D02*
X123580000Y-48650000D01*
X123580000Y-49920000D02*
X123580000Y-52520000D01*
X120920000Y-52520000D02*
X123580000Y-52520000D01*
X120920000Y-49920000D02*
X120920000Y-52520000D01*
X120920000Y-49920000D02*
X123580000Y-49920000D01*
X130150000Y-47320000D02*
X131480000Y-47320000D01*
X131480000Y-47320000D02*
X131480000Y-48650000D01*
X131480000Y-49920000D02*
X131480000Y-52520000D01*
X128820000Y-52520000D02*
X131480000Y-52520000D01*
X128820000Y-49920000D02*
X128820000Y-52520000D01*
X128820000Y-49920000D02*
X131480000Y-49920000D01*
X151650000Y-92350000D02*
X165150000Y-92350000D01*
X151650000Y-108350000D02*
X151650000Y-92350000D01*
X151650000Y-94350000D02*
X165150000Y-94350000D01*
X151650000Y-106350000D02*
X165150000Y-106350000D01*
X165150000Y-108350000D02*
X165150000Y-92350000D01*
X151650000Y-108375000D02*
X165150000Y-108375000D01*
X165150000Y-104850000D02*
X163150000Y-104850000D01*
X165150000Y-95850000D02*
X163150000Y-95850000D01*
X163150000Y-104850000D02*
X163150000Y-102600000D01*
X163150000Y-102575000D02*
X161150000Y-102575000D01*
X163150000Y-98100000D02*
X163150000Y-95850000D01*
X163150000Y-98100000D02*
X161150000Y-98100000D01*
X161150000Y-102575000D02*
X161150000Y-98100000D01*
X151650000Y-106350000D02*
X150400000Y-105100000D01*
X151650000Y-103850000D02*
X150400000Y-105100000D01*
X124530000Y-96610000D02*
X123200000Y-96610000D01*
X124530000Y-95280000D02*
X124530000Y-96610000D01*
X124530000Y-94010000D02*
X121870000Y-94010000D01*
X121870000Y-94010000D02*
X121870000Y-83790000D01*
X124530000Y-94010000D02*
X124530000Y-83790000D01*
X124530000Y-83790000D02*
X121870000Y-83790000D01*
X131730000Y-119680000D02*
X131730000Y-120280000D01*
X133330000Y-119680000D02*
X131730000Y-119680000D01*
X133330000Y-120280000D02*
X133330000Y-119680000D01*
X134270000Y-119680000D02*
X134270000Y-120280000D01*
X135870000Y-119680000D02*
X134270000Y-119680000D01*
X135870000Y-120280000D02*
X135870000Y-119680000D01*
X136810000Y-119680000D02*
X136810000Y-120280000D01*
X138410000Y-119680000D02*
X136810000Y-119680000D01*
X138410000Y-120280000D02*
X138410000Y-119680000D01*
X139350000Y-119680000D02*
X139350000Y-120280000D01*
X140950000Y-119680000D02*
X139350000Y-119680000D01*
X140950000Y-120280000D02*
X140950000Y-119680000D01*
X132780000Y-114260000D02*
X132780000Y-115260000D01*
X139900000Y-114260000D02*
X139900000Y-115260000D01*
X132780000Y-115790000D02*
X132530000Y-115260000D01*
X139900000Y-115790000D02*
X132780000Y-115790000D01*
X140150000Y-115260000D02*
X139900000Y-115790000D01*
X132530000Y-115260000D02*
X132530000Y-114260000D01*
X140150000Y-115260000D02*
X132530000Y-115260000D01*
X140150000Y-114260000D02*
X140150000Y-115260000D01*
X141820000Y-119250000D02*
X141820000Y-115250000D01*
X131150000Y-120280000D02*
X141530000Y-120280000D01*
X131150000Y-114260000D02*
X131150000Y-120280000D01*
X141530000Y-114260000D02*
X131150000Y-114260000D01*
X141530000Y-120280000D02*
X141530000Y-114260000D01*
X106820000Y-91070000D02*
X109480000Y-91070000D01*
X106820000Y-91070000D02*
X106820000Y-93670000D01*
X106820000Y-93670000D02*
X109480000Y-93670000D01*
X109480000Y-91070000D02*
X109480000Y-93670000D01*
X109480000Y-88470000D02*
X109480000Y-89800000D01*
X108150000Y-88470000D02*
X109480000Y-88470000D01*
X122020000Y-120180000D02*
X122020000Y-118850000D01*
X123350000Y-120180000D02*
X122020000Y-120180000D01*
X122020000Y-117580000D02*
X122020000Y-114980000D01*
X124620000Y-117580000D02*
X122020000Y-117580000D01*
X124620000Y-120180000D02*
X124620000Y-117580000D01*
X122020000Y-114980000D02*
X129760000Y-114980000D01*
X124620000Y-120180000D02*
X129760000Y-120180000D01*
X129760000Y-120180000D02*
X129760000Y-114980000D01*
X121990000Y-100828922D02*
X121990000Y-101346078D01*
X123410000Y-100828922D02*
X123410000Y-101346078D01*
X136280000Y-83530000D02*
X139220000Y-83530000D01*
X136280000Y-83290000D02*
X139220000Y-83290000D01*
X136280000Y-83410000D02*
X139220000Y-83410000D01*
X139220000Y-78870000D02*
X139090000Y-78870000D01*
X139220000Y-84310000D02*
X139220000Y-78870000D01*
X139090000Y-84310000D02*
X139220000Y-84310000D01*
X136280000Y-78870000D02*
X136410000Y-78870000D01*
X136280000Y-84310000D02*
X136280000Y-78870000D01*
X136410000Y-84310000D02*
X136280000Y-84310000D01*
X116762779Y-70810000D02*
X116437221Y-70810000D01*
X116762779Y-69790000D02*
X116437221Y-69790000D01*
X146860000Y-102262779D02*
X146860000Y-101937221D01*
X145840000Y-102262779D02*
X145840000Y-101937221D01*
X145840000Y-112787221D02*
X145840000Y-113112779D01*
X146860000Y-112787221D02*
X146860000Y-113112779D01*
X121510000Y-76987221D02*
X121510000Y-77312779D01*
X120490000Y-76987221D02*
X120490000Y-77312779D01*
X137090000Y-110937221D02*
X137090000Y-111262779D01*
X138110000Y-110937221D02*
X138110000Y-111262779D01*
X132690000Y-110937221D02*
X132690000Y-111262779D01*
X133710000Y-110937221D02*
X133710000Y-111262779D01*
X104060000Y-107412779D02*
X104060000Y-107087221D01*
X103040000Y-107412779D02*
X103040000Y-107087221D01*
X104060000Y-104062779D02*
X104060000Y-103737221D01*
X103040000Y-104062779D02*
X103040000Y-103737221D01*
X123010000Y-104850279D02*
X123010000Y-104524721D01*
X121990000Y-104850279D02*
X121990000Y-104524721D01*
X108562779Y-96690000D02*
X108237221Y-96690000D01*
X108562779Y-97710000D02*
X108237221Y-97710000D01*
X108562779Y-94940000D02*
X108237221Y-94940000D01*
X108562779Y-95960000D02*
X108237221Y-95960000D01*
X139737221Y-74160000D02*
X140062779Y-74160000D01*
X139737221Y-73140000D02*
X140062779Y-73140000D01*
X132105000Y-83169801D02*
X132505000Y-83169801D01*
X132305000Y-83369801D02*
X132305000Y-82969801D01*
X133130000Y-79019000D02*
X133870000Y-79019000D01*
X132963000Y-79059000D02*
X134037000Y-79059000D01*
X132836000Y-79099000D02*
X134164000Y-79099000D01*
X132732000Y-79139000D02*
X134268000Y-79139000D01*
X132641000Y-79179000D02*
X134359000Y-79179000D01*
X132560000Y-79219000D02*
X134440000Y-79219000D01*
X132487000Y-79259000D02*
X134513000Y-79259000D01*
X134340000Y-79299000D02*
X134580000Y-79299000D01*
X132420000Y-79299000D02*
X132660000Y-79299000D01*
X134340000Y-79339000D02*
X134642000Y-79339000D01*
X132358000Y-79339000D02*
X132660000Y-79339000D01*
X134340000Y-79379000D02*
X134700000Y-79379000D01*
X132300000Y-79379000D02*
X132660000Y-79379000D01*
X134340000Y-79419000D02*
X134754000Y-79419000D01*
X132246000Y-79419000D02*
X132660000Y-79419000D01*
X134340000Y-79459000D02*
X134804000Y-79459000D01*
X132196000Y-79459000D02*
X132660000Y-79459000D01*
X134340000Y-79499000D02*
X134851000Y-79499000D01*
X132149000Y-79499000D02*
X132660000Y-79499000D01*
X134340000Y-79539000D02*
X134896000Y-79539000D01*
X132104000Y-79539000D02*
X132660000Y-79539000D01*
X134340000Y-79579000D02*
X134938000Y-79579000D01*
X132062000Y-79579000D02*
X132660000Y-79579000D01*
X134340000Y-79619000D02*
X134978000Y-79619000D01*
X132022000Y-79619000D02*
X132660000Y-79619000D01*
X134340000Y-79659000D02*
X135016000Y-79659000D01*
X131984000Y-79659000D02*
X132660000Y-79659000D01*
X134340000Y-79699000D02*
X135052000Y-79699000D01*
X131948000Y-79699000D02*
X132660000Y-79699000D01*
X134340000Y-79739000D02*
X135087000Y-79739000D01*
X131913000Y-79739000D02*
X132660000Y-79739000D01*
X134340000Y-79779000D02*
X135119000Y-79779000D01*
X131881000Y-79779000D02*
X132660000Y-79779000D01*
X134340000Y-79819000D02*
X135150000Y-79819000D01*
X131850000Y-79819000D02*
X132660000Y-79819000D01*
X134340000Y-79859000D02*
X135180000Y-79859000D01*
X131820000Y-79859000D02*
X132660000Y-79859000D01*
X134340000Y-79899000D02*
X135208000Y-79899000D01*
X131792000Y-79899000D02*
X132660000Y-79899000D01*
X134340000Y-79939000D02*
X135235000Y-79939000D01*
X131765000Y-79939000D02*
X132660000Y-79939000D01*
X134340000Y-79979000D02*
X135260000Y-79979000D01*
X131740000Y-79979000D02*
X132660000Y-79979000D01*
X134340000Y-80019000D02*
X135285000Y-80019000D01*
X131715000Y-80019000D02*
X132660000Y-80019000D01*
X134340000Y-80059000D02*
X135308000Y-80059000D01*
X131692000Y-80059000D02*
X132660000Y-80059000D01*
X134340000Y-80099000D02*
X135330000Y-80099000D01*
X131670000Y-80099000D02*
X132660000Y-80099000D01*
X134340000Y-80139000D02*
X135351000Y-80139000D01*
X131649000Y-80139000D02*
X132660000Y-80139000D01*
X134340000Y-80179000D02*
X135370000Y-80179000D01*
X131630000Y-80179000D02*
X132660000Y-80179000D01*
X134340000Y-80219000D02*
X135389000Y-80219000D01*
X131611000Y-80219000D02*
X132660000Y-80219000D01*
X134340000Y-80259000D02*
X135407000Y-80259000D01*
X131593000Y-80259000D02*
X132660000Y-80259000D01*
X134340000Y-80299000D02*
X135424000Y-80299000D01*
X131576000Y-80299000D02*
X132660000Y-80299000D01*
X134340000Y-80339000D02*
X135440000Y-80339000D01*
X131560000Y-80339000D02*
X132660000Y-80339000D01*
X134340000Y-80379000D02*
X135454000Y-80379000D01*
X131546000Y-80379000D02*
X132660000Y-80379000D01*
X134340000Y-80420000D02*
X135468000Y-80420000D01*
X131532000Y-80420000D02*
X132660000Y-80420000D01*
X134340000Y-80460000D02*
X135482000Y-80460000D01*
X131518000Y-80460000D02*
X132660000Y-80460000D01*
X134340000Y-80500000D02*
X135494000Y-80500000D01*
X131506000Y-80500000D02*
X132660000Y-80500000D01*
X134340000Y-80540000D02*
X135505000Y-80540000D01*
X131495000Y-80540000D02*
X132660000Y-80540000D01*
X134340000Y-80580000D02*
X135516000Y-80580000D01*
X131484000Y-80580000D02*
X132660000Y-80580000D01*
X134340000Y-80620000D02*
X135525000Y-80620000D01*
X131475000Y-80620000D02*
X132660000Y-80620000D01*
X134340000Y-80660000D02*
X135534000Y-80660000D01*
X131466000Y-80660000D02*
X132660000Y-80660000D01*
X134340000Y-80700000D02*
X135542000Y-80700000D01*
X131458000Y-80700000D02*
X132660000Y-80700000D01*
X134340000Y-80740000D02*
X135550000Y-80740000D01*
X131450000Y-80740000D02*
X132660000Y-80740000D01*
X134340000Y-80780000D02*
X135556000Y-80780000D01*
X131444000Y-80780000D02*
X132660000Y-80780000D01*
X134340000Y-80820000D02*
X135562000Y-80820000D01*
X131438000Y-80820000D02*
X132660000Y-80820000D01*
X134340000Y-80860000D02*
X135567000Y-80860000D01*
X131433000Y-80860000D02*
X132660000Y-80860000D01*
X134340000Y-80900000D02*
X135571000Y-80900000D01*
X131429000Y-80900000D02*
X132660000Y-80900000D01*
X131426000Y-80940000D02*
X135574000Y-80940000D01*
X131423000Y-80980000D02*
X135577000Y-80980000D01*
X131421000Y-81020000D02*
X135579000Y-81020000D01*
X131420000Y-81060000D02*
X135580000Y-81060000D01*
X131420000Y-81100000D02*
X135580000Y-81100000D01*
X135620000Y-81100000D02*
G75*
G03*
X135620000Y-81100000I-2120000J0D01*
G01*
X140062779Y-64840000D02*
X139737221Y-64840000D01*
X140062779Y-65860000D02*
X139737221Y-65860000D01*
X140062779Y-63090000D02*
X139737221Y-63090000D01*
X140062779Y-64110000D02*
X139737221Y-64110000D01*
X140062779Y-59590000D02*
X139737221Y-59590000D01*
X140062779Y-60610000D02*
X139737221Y-60610000D01*
X126087221Y-56960000D02*
X126412779Y-56960000D01*
X126087221Y-55940000D02*
X126412779Y-55940000D01*
X126087221Y-55360000D02*
X126412779Y-55360000D01*
X126087221Y-54340000D02*
X126412779Y-54340000D01*
X110040000Y-60737221D02*
X110040000Y-61062779D01*
X111060000Y-60737221D02*
X111060000Y-61062779D01*
X110040000Y-57137221D02*
X110040000Y-57462779D01*
X111060000Y-57137221D02*
X111060000Y-57462779D01*
D10*
X161266666Y-78252380D02*
X161266666Y-78966666D01*
X161219047Y-79109523D01*
X161123809Y-79204761D01*
X160980952Y-79252380D01*
X160885714Y-79252380D01*
X161695238Y-78347619D02*
X161742857Y-78300000D01*
X161838095Y-78252380D01*
X162076190Y-78252380D01*
X162171428Y-78300000D01*
X162219047Y-78347619D01*
X162266666Y-78442857D01*
X162266666Y-78538095D01*
X162219047Y-78680952D01*
X161647619Y-79252380D01*
X162266666Y-79252380D01*
X161266666Y-58652380D02*
X161266666Y-59366666D01*
X161219047Y-59509523D01*
X161123809Y-59604761D01*
X160980952Y-59652380D01*
X160885714Y-59652380D01*
X162266666Y-59652380D02*
X161695238Y-59652380D01*
X161980952Y-59652380D02*
X161980952Y-58652380D01*
X161885714Y-58795238D01*
X161790476Y-58890476D01*
X161695238Y-58938095D01*
X106723809Y-113226190D02*
X106723809Y-113702380D01*
X106390476Y-112702380D02*
X106723809Y-113226190D01*
X107057142Y-112702380D01*
X107342857Y-112797619D02*
X107390476Y-112750000D01*
X107485714Y-112702380D01*
X107723809Y-112702380D01*
X107819047Y-112750000D01*
X107866666Y-112797619D01*
X107914285Y-112892857D01*
X107914285Y-112988095D01*
X107866666Y-113130952D01*
X107295238Y-113702380D01*
X107914285Y-113702380D01*
X113773809Y-66826190D02*
X113773809Y-67302380D01*
X113440476Y-66302380D02*
X113773809Y-66826190D01*
X114107142Y-66302380D01*
X114964285Y-67302380D02*
X114392857Y-67302380D01*
X114678571Y-67302380D02*
X114678571Y-66302380D01*
X114583333Y-66445238D01*
X114488095Y-66540476D01*
X114392857Y-66588095D01*
X109552380Y-75761904D02*
X110361904Y-75761904D01*
X110457142Y-75714285D01*
X110504761Y-75666666D01*
X110552380Y-75571428D01*
X110552380Y-75380952D01*
X110504761Y-75285714D01*
X110457142Y-75238095D01*
X110361904Y-75190476D01*
X109552380Y-75190476D01*
X109552380Y-74809523D02*
X109552380Y-74142857D01*
X110552380Y-74571428D01*
X134438095Y-104352380D02*
X134438095Y-105161904D01*
X134485714Y-105257142D01*
X134533333Y-105304761D01*
X134628571Y-105352380D01*
X134819047Y-105352380D01*
X134914285Y-105304761D01*
X134961904Y-105257142D01*
X135009523Y-105161904D01*
X135009523Y-104352380D01*
X135914285Y-104352380D02*
X135723809Y-104352380D01*
X135628571Y-104400000D01*
X135580952Y-104447619D01*
X135485714Y-104590476D01*
X135438095Y-104780952D01*
X135438095Y-105161904D01*
X135485714Y-105257142D01*
X135533333Y-105304761D01*
X135628571Y-105352380D01*
X135819047Y-105352380D01*
X135914285Y-105304761D01*
X135961904Y-105257142D01*
X136009523Y-105161904D01*
X136009523Y-104923809D01*
X135961904Y-104828571D01*
X135914285Y-104780952D01*
X135819047Y-104733333D01*
X135628571Y-104733333D01*
X135533333Y-104780952D01*
X135485714Y-104828571D01*
X135438095Y-104923809D01*
X114948095Y-79772380D02*
X114948095Y-80581904D01*
X114995714Y-80677142D01*
X115043333Y-80724761D01*
X115138571Y-80772380D01*
X115329047Y-80772380D01*
X115424285Y-80724761D01*
X115471904Y-80677142D01*
X115519523Y-80581904D01*
X115519523Y-79772380D01*
X116471904Y-79772380D02*
X115995714Y-79772380D01*
X115948095Y-80248571D01*
X115995714Y-80200952D01*
X116090952Y-80153333D01*
X116329047Y-80153333D01*
X116424285Y-80200952D01*
X116471904Y-80248571D01*
X116519523Y-80343809D01*
X116519523Y-80581904D01*
X116471904Y-80677142D01*
X116424285Y-80724761D01*
X116329047Y-80772380D01*
X116090952Y-80772380D01*
X115995714Y-80724761D01*
X115948095Y-80677142D01*
X125338095Y-68802380D02*
X125338095Y-69611904D01*
X125385714Y-69707142D01*
X125433333Y-69754761D01*
X125528571Y-69802380D01*
X125719047Y-69802380D01*
X125814285Y-69754761D01*
X125861904Y-69707142D01*
X125909523Y-69611904D01*
X125909523Y-68802380D01*
X126814285Y-69135714D02*
X126814285Y-69802380D01*
X126576190Y-68754761D02*
X126338095Y-69469047D01*
X126957142Y-69469047D01*
X102608095Y-54372380D02*
X102608095Y-55181904D01*
X102655714Y-55277142D01*
X102703333Y-55324761D01*
X102798571Y-55372380D01*
X102989047Y-55372380D01*
X103084285Y-55324761D01*
X103131904Y-55277142D01*
X103179523Y-55181904D01*
X103179523Y-54372380D01*
X103560476Y-54372380D02*
X104179523Y-54372380D01*
X103846190Y-54753333D01*
X103989047Y-54753333D01*
X104084285Y-54800952D01*
X104131904Y-54848571D01*
X104179523Y-54943809D01*
X104179523Y-55181904D01*
X104131904Y-55277142D01*
X104084285Y-55324761D01*
X103989047Y-55372380D01*
X103703333Y-55372380D01*
X103608095Y-55324761D01*
X103560476Y-55277142D01*
X143738095Y-95102380D02*
X143738095Y-95911904D01*
X143785714Y-96007142D01*
X143833333Y-96054761D01*
X143928571Y-96102380D01*
X144119047Y-96102380D01*
X144214285Y-96054761D01*
X144261904Y-96007142D01*
X144309523Y-95911904D01*
X144309523Y-95102380D01*
X144738095Y-95197619D02*
X144785714Y-95150000D01*
X144880952Y-95102380D01*
X145119047Y-95102380D01*
X145214285Y-95150000D01*
X145261904Y-95197619D01*
X145309523Y-95292857D01*
X145309523Y-95388095D01*
X145261904Y-95530952D01*
X144690476Y-96102380D01*
X145309523Y-96102380D01*
X133038095Y-95152380D02*
X133038095Y-95961904D01*
X133085714Y-96057142D01*
X133133333Y-96104761D01*
X133228571Y-96152380D01*
X133419047Y-96152380D01*
X133514285Y-96104761D01*
X133561904Y-96057142D01*
X133609523Y-95961904D01*
X133609523Y-95152380D01*
X134609523Y-96152380D02*
X134038095Y-96152380D01*
X134323809Y-96152380D02*
X134323809Y-95152380D01*
X134228571Y-95295238D01*
X134133333Y-95390476D01*
X134038095Y-95438095D01*
X127088095Y-86400380D02*
X127659523Y-86400380D01*
X127373809Y-87400380D02*
X127373809Y-86400380D01*
X127992857Y-87400380D02*
X127992857Y-86400380D01*
X128373809Y-86400380D01*
X128469047Y-86448000D01*
X128516666Y-86495619D01*
X128564285Y-86590857D01*
X128564285Y-86733714D01*
X128516666Y-86828952D01*
X128469047Y-86876571D01*
X128373809Y-86924190D01*
X127992857Y-86924190D01*
X128945238Y-86495619D02*
X128992857Y-86448000D01*
X129088095Y-86400380D01*
X129326190Y-86400380D01*
X129421428Y-86448000D01*
X129469047Y-86495619D01*
X129516666Y-86590857D01*
X129516666Y-86686095D01*
X129469047Y-86828952D01*
X128897619Y-87400380D01*
X129516666Y-87400380D01*
X127088095Y-82150380D02*
X127659523Y-82150380D01*
X127373809Y-83150380D02*
X127373809Y-82150380D01*
X127992857Y-83150380D02*
X127992857Y-82150380D01*
X128373809Y-82150380D01*
X128469047Y-82198000D01*
X128516666Y-82245619D01*
X128564285Y-82340857D01*
X128564285Y-82483714D01*
X128516666Y-82578952D01*
X128469047Y-82626571D01*
X128373809Y-82674190D01*
X127992857Y-82674190D01*
X129516666Y-83150380D02*
X128945238Y-83150380D01*
X129230952Y-83150380D02*
X129230952Y-82150380D01*
X129135714Y-82293238D01*
X129040476Y-82388476D01*
X128945238Y-82436095D01*
X97704761Y-79883333D02*
X97752380Y-79740476D01*
X97752380Y-79502380D01*
X97704761Y-79407142D01*
X97657142Y-79359523D01*
X97561904Y-79311904D01*
X97466666Y-79311904D01*
X97371428Y-79359523D01*
X97323809Y-79407142D01*
X97276190Y-79502380D01*
X97228571Y-79692857D01*
X97180952Y-79788095D01*
X97133333Y-79835714D01*
X97038095Y-79883333D01*
X96942857Y-79883333D01*
X96847619Y-79835714D01*
X96800000Y-79788095D01*
X96752380Y-79692857D01*
X96752380Y-79454761D01*
X96800000Y-79311904D01*
X96752380Y-78978571D02*
X97752380Y-78740476D01*
X97038095Y-78550000D01*
X97752380Y-78359523D01*
X96752380Y-78121428D01*
X96847619Y-77788095D02*
X96800000Y-77740476D01*
X96752380Y-77645238D01*
X96752380Y-77407142D01*
X96800000Y-77311904D01*
X96847619Y-77264285D01*
X96942857Y-77216666D01*
X97038095Y-77216666D01*
X97180952Y-77264285D01*
X97752380Y-77835714D01*
X97752380Y-77216666D01*
X97704761Y-69333333D02*
X97752380Y-69190476D01*
X97752380Y-68952380D01*
X97704761Y-68857142D01*
X97657142Y-68809523D01*
X97561904Y-68761904D01*
X97466666Y-68761904D01*
X97371428Y-68809523D01*
X97323809Y-68857142D01*
X97276190Y-68952380D01*
X97228571Y-69142857D01*
X97180952Y-69238095D01*
X97133333Y-69285714D01*
X97038095Y-69333333D01*
X96942857Y-69333333D01*
X96847619Y-69285714D01*
X96800000Y-69238095D01*
X96752380Y-69142857D01*
X96752380Y-68904761D01*
X96800000Y-68761904D01*
X96752380Y-68428571D02*
X97752380Y-68190476D01*
X97038095Y-68000000D01*
X97752380Y-67809523D01*
X96752380Y-67571428D01*
X97752380Y-66666666D02*
X97752380Y-67238095D01*
X97752380Y-66952380D02*
X96752380Y-66952380D01*
X96895238Y-67047619D01*
X96990476Y-67142857D01*
X97038095Y-67238095D01*
X167652380Y-113642857D02*
X167176190Y-113976190D01*
X167652380Y-114214285D02*
X166652380Y-114214285D01*
X166652380Y-113833333D01*
X166700000Y-113738095D01*
X166747619Y-113690476D01*
X166842857Y-113642857D01*
X166985714Y-113642857D01*
X167080952Y-113690476D01*
X167128571Y-113738095D01*
X167176190Y-113833333D01*
X167176190Y-114214285D01*
X166652380Y-113309523D02*
X166652380Y-112690476D01*
X167033333Y-113023809D01*
X167033333Y-112880952D01*
X167080952Y-112785714D01*
X167128571Y-112738095D01*
X167223809Y-112690476D01*
X167461904Y-112690476D01*
X167557142Y-112738095D01*
X167604761Y-112785714D01*
X167652380Y-112880952D01*
X167652380Y-113166666D01*
X167604761Y-113261904D01*
X167557142Y-113309523D01*
X166652380Y-111785714D02*
X166652380Y-112261904D01*
X167128571Y-112309523D01*
X167080952Y-112261904D01*
X167033333Y-112166666D01*
X167033333Y-111928571D01*
X167080952Y-111833333D01*
X167128571Y-111785714D01*
X167223809Y-111738095D01*
X167461904Y-111738095D01*
X167557142Y-111785714D01*
X167604761Y-111833333D01*
X167652380Y-111928571D01*
X167652380Y-112166666D01*
X167604761Y-112261904D01*
X167557142Y-112309523D01*
X166052380Y-113642857D02*
X165576190Y-113976190D01*
X166052380Y-114214285D02*
X165052380Y-114214285D01*
X165052380Y-113833333D01*
X165100000Y-113738095D01*
X165147619Y-113690476D01*
X165242857Y-113642857D01*
X165385714Y-113642857D01*
X165480952Y-113690476D01*
X165528571Y-113738095D01*
X165576190Y-113833333D01*
X165576190Y-114214285D01*
X165052380Y-113309523D02*
X165052380Y-112690476D01*
X165433333Y-113023809D01*
X165433333Y-112880952D01*
X165480952Y-112785714D01*
X165528571Y-112738095D01*
X165623809Y-112690476D01*
X165861904Y-112690476D01*
X165957142Y-112738095D01*
X166004761Y-112785714D01*
X166052380Y-112880952D01*
X166052380Y-113166666D01*
X166004761Y-113261904D01*
X165957142Y-113309523D01*
X165385714Y-111833333D02*
X166052380Y-111833333D01*
X165004761Y-112071428D02*
X165719047Y-112309523D01*
X165719047Y-111690476D01*
X158572380Y-113642857D02*
X158096190Y-113976190D01*
X158572380Y-114214285D02*
X157572380Y-114214285D01*
X157572380Y-113833333D01*
X157620000Y-113738095D01*
X157667619Y-113690476D01*
X157762857Y-113642857D01*
X157905714Y-113642857D01*
X158000952Y-113690476D01*
X158048571Y-113738095D01*
X158096190Y-113833333D01*
X158096190Y-114214285D01*
X157572380Y-113309523D02*
X157572380Y-112690476D01*
X157953333Y-113023809D01*
X157953333Y-112880952D01*
X158000952Y-112785714D01*
X158048571Y-112738095D01*
X158143809Y-112690476D01*
X158381904Y-112690476D01*
X158477142Y-112738095D01*
X158524761Y-112785714D01*
X158572380Y-112880952D01*
X158572380Y-113166666D01*
X158524761Y-113261904D01*
X158477142Y-113309523D01*
X157572380Y-112357142D02*
X157572380Y-111738095D01*
X157953333Y-112071428D01*
X157953333Y-111928571D01*
X158000952Y-111833333D01*
X158048571Y-111785714D01*
X158143809Y-111738095D01*
X158381904Y-111738095D01*
X158477142Y-111785714D01*
X158524761Y-111833333D01*
X158572380Y-111928571D01*
X158572380Y-112214285D01*
X158524761Y-112309523D01*
X158477142Y-112357142D01*
X148352380Y-106142857D02*
X147876190Y-106476190D01*
X148352380Y-106714285D02*
X147352380Y-106714285D01*
X147352380Y-106333333D01*
X147400000Y-106238095D01*
X147447619Y-106190476D01*
X147542857Y-106142857D01*
X147685714Y-106142857D01*
X147780952Y-106190476D01*
X147828571Y-106238095D01*
X147876190Y-106333333D01*
X147876190Y-106714285D01*
X147352380Y-105809523D02*
X147352380Y-105190476D01*
X147733333Y-105523809D01*
X147733333Y-105380952D01*
X147780952Y-105285714D01*
X147828571Y-105238095D01*
X147923809Y-105190476D01*
X148161904Y-105190476D01*
X148257142Y-105238095D01*
X148304761Y-105285714D01*
X148352380Y-105380952D01*
X148352380Y-105666666D01*
X148304761Y-105761904D01*
X148257142Y-105809523D01*
X147447619Y-104809523D02*
X147400000Y-104761904D01*
X147352380Y-104666666D01*
X147352380Y-104428571D01*
X147400000Y-104333333D01*
X147447619Y-104285714D01*
X147542857Y-104238095D01*
X147638095Y-104238095D01*
X147780952Y-104285714D01*
X148352380Y-104857142D01*
X148352380Y-104238095D01*
X144752380Y-103142857D02*
X144276190Y-103476190D01*
X144752380Y-103714285D02*
X143752380Y-103714285D01*
X143752380Y-103333333D01*
X143800000Y-103238095D01*
X143847619Y-103190476D01*
X143942857Y-103142857D01*
X144085714Y-103142857D01*
X144180952Y-103190476D01*
X144228571Y-103238095D01*
X144276190Y-103333333D01*
X144276190Y-103714285D01*
X143752380Y-102809523D02*
X143752380Y-102190476D01*
X144133333Y-102523809D01*
X144133333Y-102380952D01*
X144180952Y-102285714D01*
X144228571Y-102238095D01*
X144323809Y-102190476D01*
X144561904Y-102190476D01*
X144657142Y-102238095D01*
X144704761Y-102285714D01*
X144752380Y-102380952D01*
X144752380Y-102666666D01*
X144704761Y-102761904D01*
X144657142Y-102809523D01*
X144752380Y-101238095D02*
X144752380Y-101809523D01*
X144752380Y-101523809D02*
X143752380Y-101523809D01*
X143895238Y-101619047D01*
X143990476Y-101714285D01*
X144038095Y-101809523D01*
X144752380Y-112942857D02*
X144276190Y-113276190D01*
X144752380Y-113514285D02*
X143752380Y-113514285D01*
X143752380Y-113133333D01*
X143800000Y-113038095D01*
X143847619Y-112990476D01*
X143942857Y-112942857D01*
X144085714Y-112942857D01*
X144180952Y-112990476D01*
X144228571Y-113038095D01*
X144276190Y-113133333D01*
X144276190Y-113514285D01*
X143752380Y-112609523D02*
X143752380Y-111990476D01*
X144133333Y-112323809D01*
X144133333Y-112180952D01*
X144180952Y-112085714D01*
X144228571Y-112038095D01*
X144323809Y-111990476D01*
X144561904Y-111990476D01*
X144657142Y-112038095D01*
X144704761Y-112085714D01*
X144752380Y-112180952D01*
X144752380Y-112466666D01*
X144704761Y-112561904D01*
X144657142Y-112609523D01*
X143752380Y-111371428D02*
X143752380Y-111276190D01*
X143800000Y-111180952D01*
X143847619Y-111133333D01*
X143942857Y-111085714D01*
X144133333Y-111038095D01*
X144371428Y-111038095D01*
X144561904Y-111085714D01*
X144657142Y-111133333D01*
X144704761Y-111180952D01*
X144752380Y-111276190D01*
X144752380Y-111371428D01*
X144704761Y-111466666D01*
X144657142Y-111514285D01*
X144561904Y-111561904D01*
X144371428Y-111609523D01*
X144133333Y-111609523D01*
X143942857Y-111561904D01*
X143847619Y-111514285D01*
X143800000Y-111466666D01*
X143752380Y-111371428D01*
X148252380Y-110042857D02*
X147776190Y-110376190D01*
X148252380Y-110614285D02*
X147252380Y-110614285D01*
X147252380Y-110233333D01*
X147300000Y-110138095D01*
X147347619Y-110090476D01*
X147442857Y-110042857D01*
X147585714Y-110042857D01*
X147680952Y-110090476D01*
X147728571Y-110138095D01*
X147776190Y-110233333D01*
X147776190Y-110614285D01*
X147347619Y-109661904D02*
X147300000Y-109614285D01*
X147252380Y-109519047D01*
X147252380Y-109280952D01*
X147300000Y-109185714D01*
X147347619Y-109138095D01*
X147442857Y-109090476D01*
X147538095Y-109090476D01*
X147680952Y-109138095D01*
X148252380Y-109709523D01*
X148252380Y-109090476D01*
X148252380Y-108614285D02*
X148252380Y-108423809D01*
X148204761Y-108328571D01*
X148157142Y-108280952D01*
X148014285Y-108185714D01*
X147823809Y-108138095D01*
X147442857Y-108138095D01*
X147347619Y-108185714D01*
X147300000Y-108233333D01*
X147252380Y-108328571D01*
X147252380Y-108519047D01*
X147300000Y-108614285D01*
X147347619Y-108661904D01*
X147442857Y-108709523D01*
X147680952Y-108709523D01*
X147776190Y-108661904D01*
X147823809Y-108614285D01*
X147871428Y-108519047D01*
X147871428Y-108328571D01*
X147823809Y-108233333D01*
X147776190Y-108185714D01*
X147680952Y-108138095D01*
X131452380Y-102642857D02*
X130976190Y-102976190D01*
X131452380Y-103214285D02*
X130452380Y-103214285D01*
X130452380Y-102833333D01*
X130500000Y-102738095D01*
X130547619Y-102690476D01*
X130642857Y-102642857D01*
X130785714Y-102642857D01*
X130880952Y-102690476D01*
X130928571Y-102738095D01*
X130976190Y-102833333D01*
X130976190Y-103214285D01*
X130547619Y-102261904D02*
X130500000Y-102214285D01*
X130452380Y-102119047D01*
X130452380Y-101880952D01*
X130500000Y-101785714D01*
X130547619Y-101738095D01*
X130642857Y-101690476D01*
X130738095Y-101690476D01*
X130880952Y-101738095D01*
X131452380Y-102309523D01*
X131452380Y-101690476D01*
X130880952Y-101119047D02*
X130833333Y-101214285D01*
X130785714Y-101261904D01*
X130690476Y-101309523D01*
X130642857Y-101309523D01*
X130547619Y-101261904D01*
X130500000Y-101214285D01*
X130452380Y-101119047D01*
X130452380Y-100928571D01*
X130500000Y-100833333D01*
X130547619Y-100785714D01*
X130642857Y-100738095D01*
X130690476Y-100738095D01*
X130785714Y-100785714D01*
X130833333Y-100833333D01*
X130880952Y-100928571D01*
X130880952Y-101119047D01*
X130928571Y-101214285D01*
X130976190Y-101261904D01*
X131071428Y-101309523D01*
X131261904Y-101309523D01*
X131357142Y-101261904D01*
X131404761Y-101214285D01*
X131452380Y-101119047D01*
X131452380Y-100928571D01*
X131404761Y-100833333D01*
X131357142Y-100785714D01*
X131261904Y-100738095D01*
X131071428Y-100738095D01*
X130976190Y-100785714D01*
X130928571Y-100833333D01*
X130880952Y-100928571D01*
X140657142Y-105452380D02*
X140323809Y-104976190D01*
X140085714Y-105452380D02*
X140085714Y-104452380D01*
X140466666Y-104452380D01*
X140561904Y-104500000D01*
X140609523Y-104547619D01*
X140657142Y-104642857D01*
X140657142Y-104785714D01*
X140609523Y-104880952D01*
X140561904Y-104928571D01*
X140466666Y-104976190D01*
X140085714Y-104976190D01*
X141038095Y-104547619D02*
X141085714Y-104500000D01*
X141180952Y-104452380D01*
X141419047Y-104452380D01*
X141514285Y-104500000D01*
X141561904Y-104547619D01*
X141609523Y-104642857D01*
X141609523Y-104738095D01*
X141561904Y-104880952D01*
X140990476Y-105452380D01*
X141609523Y-105452380D01*
X141942857Y-104452380D02*
X142609523Y-104452380D01*
X142180952Y-105452380D01*
X140657142Y-104052380D02*
X140323809Y-103576190D01*
X140085714Y-104052380D02*
X140085714Y-103052380D01*
X140466666Y-103052380D01*
X140561904Y-103100000D01*
X140609523Y-103147619D01*
X140657142Y-103242857D01*
X140657142Y-103385714D01*
X140609523Y-103480952D01*
X140561904Y-103528571D01*
X140466666Y-103576190D01*
X140085714Y-103576190D01*
X141038095Y-103147619D02*
X141085714Y-103100000D01*
X141180952Y-103052380D01*
X141419047Y-103052380D01*
X141514285Y-103100000D01*
X141561904Y-103147619D01*
X141609523Y-103242857D01*
X141609523Y-103338095D01*
X141561904Y-103480952D01*
X140990476Y-104052380D01*
X141609523Y-104052380D01*
X142466666Y-103052380D02*
X142276190Y-103052380D01*
X142180952Y-103100000D01*
X142133333Y-103147619D01*
X142038095Y-103290476D01*
X141990476Y-103480952D01*
X141990476Y-103861904D01*
X142038095Y-103957142D01*
X142085714Y-104004761D01*
X142180952Y-104052380D01*
X142371428Y-104052380D01*
X142466666Y-104004761D01*
X142514285Y-103957142D01*
X142561904Y-103861904D01*
X142561904Y-103623809D01*
X142514285Y-103528571D01*
X142466666Y-103480952D01*
X142371428Y-103433333D01*
X142180952Y-103433333D01*
X142085714Y-103480952D01*
X142038095Y-103528571D01*
X141990476Y-103623809D01*
X133652380Y-101542857D02*
X133176190Y-101876190D01*
X133652380Y-102114285D02*
X132652380Y-102114285D01*
X132652380Y-101733333D01*
X132700000Y-101638095D01*
X132747619Y-101590476D01*
X132842857Y-101542857D01*
X132985714Y-101542857D01*
X133080952Y-101590476D01*
X133128571Y-101638095D01*
X133176190Y-101733333D01*
X133176190Y-102114285D01*
X132747619Y-101161904D02*
X132700000Y-101114285D01*
X132652380Y-101019047D01*
X132652380Y-100780952D01*
X132700000Y-100685714D01*
X132747619Y-100638095D01*
X132842857Y-100590476D01*
X132938095Y-100590476D01*
X133080952Y-100638095D01*
X133652380Y-101209523D01*
X133652380Y-100590476D01*
X132652380Y-99685714D02*
X132652380Y-100161904D01*
X133128571Y-100209523D01*
X133080952Y-100161904D01*
X133033333Y-100066666D01*
X133033333Y-99828571D01*
X133080952Y-99733333D01*
X133128571Y-99685714D01*
X133223809Y-99638095D01*
X133461904Y-99638095D01*
X133557142Y-99685714D01*
X133604761Y-99733333D01*
X133652380Y-99828571D01*
X133652380Y-100066666D01*
X133604761Y-100161904D01*
X133557142Y-100209523D01*
X127702380Y-106830357D02*
X127226190Y-107163690D01*
X127702380Y-107401785D02*
X126702380Y-107401785D01*
X126702380Y-107020833D01*
X126750000Y-106925595D01*
X126797619Y-106877976D01*
X126892857Y-106830357D01*
X127035714Y-106830357D01*
X127130952Y-106877976D01*
X127178571Y-106925595D01*
X127226190Y-107020833D01*
X127226190Y-107401785D01*
X126797619Y-106449404D02*
X126750000Y-106401785D01*
X126702380Y-106306547D01*
X126702380Y-106068452D01*
X126750000Y-105973214D01*
X126797619Y-105925595D01*
X126892857Y-105877976D01*
X126988095Y-105877976D01*
X127130952Y-105925595D01*
X127702380Y-106497023D01*
X127702380Y-105877976D01*
X127035714Y-105020833D02*
X127702380Y-105020833D01*
X126654761Y-105258928D02*
X127369047Y-105497023D01*
X127369047Y-104877976D01*
X109252380Y-82442857D02*
X108776190Y-82776190D01*
X109252380Y-83014285D02*
X108252380Y-83014285D01*
X108252380Y-82633333D01*
X108300000Y-82538095D01*
X108347619Y-82490476D01*
X108442857Y-82442857D01*
X108585714Y-82442857D01*
X108680952Y-82490476D01*
X108728571Y-82538095D01*
X108776190Y-82633333D01*
X108776190Y-83014285D01*
X108347619Y-82061904D02*
X108300000Y-82014285D01*
X108252380Y-81919047D01*
X108252380Y-81680952D01*
X108300000Y-81585714D01*
X108347619Y-81538095D01*
X108442857Y-81490476D01*
X108538095Y-81490476D01*
X108680952Y-81538095D01*
X109252380Y-82109523D01*
X109252380Y-81490476D01*
X108252380Y-81157142D02*
X108252380Y-80538095D01*
X108633333Y-80871428D01*
X108633333Y-80728571D01*
X108680952Y-80633333D01*
X108728571Y-80585714D01*
X108823809Y-80538095D01*
X109061904Y-80538095D01*
X109157142Y-80585714D01*
X109204761Y-80633333D01*
X109252380Y-80728571D01*
X109252380Y-81014285D01*
X109204761Y-81109523D01*
X109157142Y-81157142D01*
X155657142Y-56872380D02*
X155323809Y-56396190D01*
X155085714Y-56872380D02*
X155085714Y-55872380D01*
X155466666Y-55872380D01*
X155561904Y-55920000D01*
X155609523Y-55967619D01*
X155657142Y-56062857D01*
X155657142Y-56205714D01*
X155609523Y-56300952D01*
X155561904Y-56348571D01*
X155466666Y-56396190D01*
X155085714Y-56396190D01*
X156038095Y-55967619D02*
X156085714Y-55920000D01*
X156180952Y-55872380D01*
X156419047Y-55872380D01*
X156514285Y-55920000D01*
X156561904Y-55967619D01*
X156609523Y-56062857D01*
X156609523Y-56158095D01*
X156561904Y-56300952D01*
X155990476Y-56872380D01*
X156609523Y-56872380D01*
X156990476Y-55967619D02*
X157038095Y-55920000D01*
X157133333Y-55872380D01*
X157371428Y-55872380D01*
X157466666Y-55920000D01*
X157514285Y-55967619D01*
X157561904Y-56062857D01*
X157561904Y-56158095D01*
X157514285Y-56300952D01*
X156942857Y-56872380D01*
X157561904Y-56872380D01*
X147657142Y-77152380D02*
X147323809Y-76676190D01*
X147085714Y-77152380D02*
X147085714Y-76152380D01*
X147466666Y-76152380D01*
X147561904Y-76200000D01*
X147609523Y-76247619D01*
X147657142Y-76342857D01*
X147657142Y-76485714D01*
X147609523Y-76580952D01*
X147561904Y-76628571D01*
X147466666Y-76676190D01*
X147085714Y-76676190D01*
X148038095Y-76247619D02*
X148085714Y-76200000D01*
X148180952Y-76152380D01*
X148419047Y-76152380D01*
X148514285Y-76200000D01*
X148561904Y-76247619D01*
X148609523Y-76342857D01*
X148609523Y-76438095D01*
X148561904Y-76580952D01*
X147990476Y-77152380D01*
X148609523Y-77152380D01*
X149561904Y-77152380D02*
X148990476Y-77152380D01*
X149276190Y-77152380D02*
X149276190Y-76152380D01*
X149180952Y-76295238D01*
X149085714Y-76390476D01*
X148990476Y-76438095D01*
X139257142Y-53212380D02*
X138923809Y-52736190D01*
X138685714Y-53212380D02*
X138685714Y-52212380D01*
X139066666Y-52212380D01*
X139161904Y-52260000D01*
X139209523Y-52307619D01*
X139257142Y-52402857D01*
X139257142Y-52545714D01*
X139209523Y-52640952D01*
X139161904Y-52688571D01*
X139066666Y-52736190D01*
X138685714Y-52736190D01*
X139638095Y-52307619D02*
X139685714Y-52260000D01*
X139780952Y-52212380D01*
X140019047Y-52212380D01*
X140114285Y-52260000D01*
X140161904Y-52307619D01*
X140209523Y-52402857D01*
X140209523Y-52498095D01*
X140161904Y-52640952D01*
X139590476Y-53212380D01*
X140209523Y-53212380D01*
X140828571Y-52212380D02*
X140923809Y-52212380D01*
X141019047Y-52260000D01*
X141066666Y-52307619D01*
X141114285Y-52402857D01*
X141161904Y-52593333D01*
X141161904Y-52831428D01*
X141114285Y-53021904D01*
X141066666Y-53117142D01*
X141019047Y-53164761D01*
X140923809Y-53212380D01*
X140828571Y-53212380D01*
X140733333Y-53164761D01*
X140685714Y-53117142D01*
X140638095Y-53021904D01*
X140590476Y-52831428D01*
X140590476Y-52593333D01*
X140638095Y-52402857D01*
X140685714Y-52307619D01*
X140733333Y-52260000D01*
X140828571Y-52212380D01*
X132652380Y-73642857D02*
X132176190Y-73976190D01*
X132652380Y-74214285D02*
X131652380Y-74214285D01*
X131652380Y-73833333D01*
X131700000Y-73738095D01*
X131747619Y-73690476D01*
X131842857Y-73642857D01*
X131985714Y-73642857D01*
X132080952Y-73690476D01*
X132128571Y-73738095D01*
X132176190Y-73833333D01*
X132176190Y-74214285D01*
X132652380Y-72690476D02*
X132652380Y-73261904D01*
X132652380Y-72976190D02*
X131652380Y-72976190D01*
X131795238Y-73071428D01*
X131890476Y-73166666D01*
X131938095Y-73261904D01*
X132652380Y-72214285D02*
X132652380Y-72023809D01*
X132604761Y-71928571D01*
X132557142Y-71880952D01*
X132414285Y-71785714D01*
X132223809Y-71738095D01*
X131842857Y-71738095D01*
X131747619Y-71785714D01*
X131700000Y-71833333D01*
X131652380Y-71928571D01*
X131652380Y-72119047D01*
X131700000Y-72214285D01*
X131747619Y-72261904D01*
X131842857Y-72309523D01*
X132080952Y-72309523D01*
X132176190Y-72261904D01*
X132223809Y-72214285D01*
X132271428Y-72119047D01*
X132271428Y-71928571D01*
X132223809Y-71833333D01*
X132176190Y-71785714D01*
X132080952Y-71738095D01*
X139257142Y-57592380D02*
X138923809Y-57116190D01*
X138685714Y-57592380D02*
X138685714Y-56592380D01*
X139066666Y-56592380D01*
X139161904Y-56640000D01*
X139209523Y-56687619D01*
X139257142Y-56782857D01*
X139257142Y-56925714D01*
X139209523Y-57020952D01*
X139161904Y-57068571D01*
X139066666Y-57116190D01*
X138685714Y-57116190D01*
X140209523Y-57592380D02*
X139638095Y-57592380D01*
X139923809Y-57592380D02*
X139923809Y-56592380D01*
X139828571Y-56735238D01*
X139733333Y-56830476D01*
X139638095Y-56878095D01*
X140780952Y-57020952D02*
X140685714Y-56973333D01*
X140638095Y-56925714D01*
X140590476Y-56830476D01*
X140590476Y-56782857D01*
X140638095Y-56687619D01*
X140685714Y-56640000D01*
X140780952Y-56592380D01*
X140971428Y-56592380D01*
X141066666Y-56640000D01*
X141114285Y-56687619D01*
X141161904Y-56782857D01*
X141161904Y-56830476D01*
X141114285Y-56925714D01*
X141066666Y-56973333D01*
X140971428Y-57020952D01*
X140780952Y-57020952D01*
X140685714Y-57068571D01*
X140638095Y-57116190D01*
X140590476Y-57211428D01*
X140590476Y-57401904D01*
X140638095Y-57497142D01*
X140685714Y-57544761D01*
X140780952Y-57592380D01*
X140971428Y-57592380D01*
X141066666Y-57544761D01*
X141114285Y-57497142D01*
X141161904Y-57401904D01*
X141161904Y-57211428D01*
X141114285Y-57116190D01*
X141066666Y-57068571D01*
X140971428Y-57020952D01*
X139257142Y-59052380D02*
X138923809Y-58576190D01*
X138685714Y-59052380D02*
X138685714Y-58052380D01*
X139066666Y-58052380D01*
X139161904Y-58100000D01*
X139209523Y-58147619D01*
X139257142Y-58242857D01*
X139257142Y-58385714D01*
X139209523Y-58480952D01*
X139161904Y-58528571D01*
X139066666Y-58576190D01*
X138685714Y-58576190D01*
X140209523Y-59052380D02*
X139638095Y-59052380D01*
X139923809Y-59052380D02*
X139923809Y-58052380D01*
X139828571Y-58195238D01*
X139733333Y-58290476D01*
X139638095Y-58338095D01*
X140542857Y-58052380D02*
X141209523Y-58052380D01*
X140780952Y-59052380D01*
X134057142Y-72752380D02*
X133723809Y-72276190D01*
X133485714Y-72752380D02*
X133485714Y-71752380D01*
X133866666Y-71752380D01*
X133961904Y-71800000D01*
X134009523Y-71847619D01*
X134057142Y-71942857D01*
X134057142Y-72085714D01*
X134009523Y-72180952D01*
X133961904Y-72228571D01*
X133866666Y-72276190D01*
X133485714Y-72276190D01*
X135009523Y-72752380D02*
X134438095Y-72752380D01*
X134723809Y-72752380D02*
X134723809Y-71752380D01*
X134628571Y-71895238D01*
X134533333Y-71990476D01*
X134438095Y-72038095D01*
X135866666Y-71752380D02*
X135676190Y-71752380D01*
X135580952Y-71800000D01*
X135533333Y-71847619D01*
X135438095Y-71990476D01*
X135390476Y-72180952D01*
X135390476Y-72561904D01*
X135438095Y-72657142D01*
X135485714Y-72704761D01*
X135580952Y-72752380D01*
X135771428Y-72752380D01*
X135866666Y-72704761D01*
X135914285Y-72657142D01*
X135961904Y-72561904D01*
X135961904Y-72323809D01*
X135914285Y-72228571D01*
X135866666Y-72180952D01*
X135771428Y-72133333D01*
X135580952Y-72133333D01*
X135485714Y-72180952D01*
X135438095Y-72228571D01*
X135390476Y-72323809D01*
X130657142Y-68102380D02*
X130323809Y-67626190D01*
X130085714Y-68102380D02*
X130085714Y-67102380D01*
X130466666Y-67102380D01*
X130561904Y-67150000D01*
X130609523Y-67197619D01*
X130657142Y-67292857D01*
X130657142Y-67435714D01*
X130609523Y-67530952D01*
X130561904Y-67578571D01*
X130466666Y-67626190D01*
X130085714Y-67626190D01*
X131609523Y-68102380D02*
X131038095Y-68102380D01*
X131323809Y-68102380D02*
X131323809Y-67102380D01*
X131228571Y-67245238D01*
X131133333Y-67340476D01*
X131038095Y-67388095D01*
X132514285Y-67102380D02*
X132038095Y-67102380D01*
X131990476Y-67578571D01*
X132038095Y-67530952D01*
X132133333Y-67483333D01*
X132371428Y-67483333D01*
X132466666Y-67530952D01*
X132514285Y-67578571D01*
X132561904Y-67673809D01*
X132561904Y-67911904D01*
X132514285Y-68007142D01*
X132466666Y-68054761D01*
X132371428Y-68102380D01*
X132133333Y-68102380D01*
X132038095Y-68054761D01*
X131990476Y-68007142D01*
X133657142Y-60752380D02*
X133323809Y-60276190D01*
X133085714Y-60752380D02*
X133085714Y-59752380D01*
X133466666Y-59752380D01*
X133561904Y-59800000D01*
X133609523Y-59847619D01*
X133657142Y-59942857D01*
X133657142Y-60085714D01*
X133609523Y-60180952D01*
X133561904Y-60228571D01*
X133466666Y-60276190D01*
X133085714Y-60276190D01*
X134609523Y-60752380D02*
X134038095Y-60752380D01*
X134323809Y-60752380D02*
X134323809Y-59752380D01*
X134228571Y-59895238D01*
X134133333Y-59990476D01*
X134038095Y-60038095D01*
X135466666Y-60085714D02*
X135466666Y-60752380D01*
X135228571Y-59704761D02*
X134990476Y-60419047D01*
X135609523Y-60419047D01*
X131052380Y-59442857D02*
X130576190Y-59776190D01*
X131052380Y-60014285D02*
X130052380Y-60014285D01*
X130052380Y-59633333D01*
X130100000Y-59538095D01*
X130147619Y-59490476D01*
X130242857Y-59442857D01*
X130385714Y-59442857D01*
X130480952Y-59490476D01*
X130528571Y-59538095D01*
X130576190Y-59633333D01*
X130576190Y-60014285D01*
X131052380Y-58490476D02*
X131052380Y-59061904D01*
X131052380Y-58776190D02*
X130052380Y-58776190D01*
X130195238Y-58871428D01*
X130290476Y-58966666D01*
X130338095Y-59061904D01*
X130052380Y-58157142D02*
X130052380Y-57538095D01*
X130433333Y-57871428D01*
X130433333Y-57728571D01*
X130480952Y-57633333D01*
X130528571Y-57585714D01*
X130623809Y-57538095D01*
X130861904Y-57538095D01*
X130957142Y-57585714D01*
X131004761Y-57633333D01*
X131052380Y-57728571D01*
X131052380Y-58014285D01*
X131004761Y-58109523D01*
X130957142Y-58157142D01*
X130657142Y-69752380D02*
X130323809Y-69276190D01*
X130085714Y-69752380D02*
X130085714Y-68752380D01*
X130466666Y-68752380D01*
X130561904Y-68800000D01*
X130609523Y-68847619D01*
X130657142Y-68942857D01*
X130657142Y-69085714D01*
X130609523Y-69180952D01*
X130561904Y-69228571D01*
X130466666Y-69276190D01*
X130085714Y-69276190D01*
X131609523Y-69752380D02*
X131038095Y-69752380D01*
X131323809Y-69752380D02*
X131323809Y-68752380D01*
X131228571Y-68895238D01*
X131133333Y-68990476D01*
X131038095Y-69038095D01*
X131990476Y-68847619D02*
X132038095Y-68800000D01*
X132133333Y-68752380D01*
X132371428Y-68752380D01*
X132466666Y-68800000D01*
X132514285Y-68847619D01*
X132561904Y-68942857D01*
X132561904Y-69038095D01*
X132514285Y-69180952D01*
X131942857Y-69752380D01*
X132561904Y-69752380D01*
X133657142Y-62402380D02*
X133323809Y-61926190D01*
X133085714Y-62402380D02*
X133085714Y-61402380D01*
X133466666Y-61402380D01*
X133561904Y-61450000D01*
X133609523Y-61497619D01*
X133657142Y-61592857D01*
X133657142Y-61735714D01*
X133609523Y-61830952D01*
X133561904Y-61878571D01*
X133466666Y-61926190D01*
X133085714Y-61926190D01*
X134609523Y-62402380D02*
X134038095Y-62402380D01*
X134323809Y-62402380D02*
X134323809Y-61402380D01*
X134228571Y-61545238D01*
X134133333Y-61640476D01*
X134038095Y-61688095D01*
X135561904Y-62402380D02*
X134990476Y-62402380D01*
X135276190Y-62402380D02*
X135276190Y-61402380D01*
X135180952Y-61545238D01*
X135085714Y-61640476D01*
X134990476Y-61688095D01*
X127757142Y-74152380D02*
X127423809Y-73676190D01*
X127185714Y-74152380D02*
X127185714Y-73152380D01*
X127566666Y-73152380D01*
X127661904Y-73200000D01*
X127709523Y-73247619D01*
X127757142Y-73342857D01*
X127757142Y-73485714D01*
X127709523Y-73580952D01*
X127661904Y-73628571D01*
X127566666Y-73676190D01*
X127185714Y-73676190D01*
X128709523Y-74152380D02*
X128138095Y-74152380D01*
X128423809Y-74152380D02*
X128423809Y-73152380D01*
X128328571Y-73295238D01*
X128233333Y-73390476D01*
X128138095Y-73438095D01*
X129328571Y-73152380D02*
X129423809Y-73152380D01*
X129519047Y-73200000D01*
X129566666Y-73247619D01*
X129614285Y-73342857D01*
X129661904Y-73533333D01*
X129661904Y-73771428D01*
X129614285Y-73961904D01*
X129566666Y-74057142D01*
X129519047Y-74104761D01*
X129423809Y-74152380D01*
X129328571Y-74152380D01*
X129233333Y-74104761D01*
X129185714Y-74057142D01*
X129138095Y-73961904D01*
X129090476Y-73771428D01*
X129090476Y-73533333D01*
X129138095Y-73342857D01*
X129185714Y-73247619D01*
X129233333Y-73200000D01*
X129328571Y-73152380D01*
X129233333Y-75752380D02*
X128900000Y-75276190D01*
X128661904Y-75752380D02*
X128661904Y-74752380D01*
X129042857Y-74752380D01*
X129138095Y-74800000D01*
X129185714Y-74847619D01*
X129233333Y-74942857D01*
X129233333Y-75085714D01*
X129185714Y-75180952D01*
X129138095Y-75228571D01*
X129042857Y-75276190D01*
X128661904Y-75276190D01*
X129709523Y-75752380D02*
X129900000Y-75752380D01*
X129995238Y-75704761D01*
X130042857Y-75657142D01*
X130138095Y-75514285D01*
X130185714Y-75323809D01*
X130185714Y-74942857D01*
X130138095Y-74847619D01*
X130090476Y-74800000D01*
X129995238Y-74752380D01*
X129804761Y-74752380D01*
X129709523Y-74800000D01*
X129661904Y-74847619D01*
X129614285Y-74942857D01*
X129614285Y-75180952D01*
X129661904Y-75276190D01*
X129709523Y-75323809D01*
X129804761Y-75371428D01*
X129995238Y-75371428D01*
X130090476Y-75323809D01*
X130138095Y-75276190D01*
X130185714Y-75180952D01*
X130533333Y-77352380D02*
X130200000Y-76876190D01*
X129961904Y-77352380D02*
X129961904Y-76352380D01*
X130342857Y-76352380D01*
X130438095Y-76400000D01*
X130485714Y-76447619D01*
X130533333Y-76542857D01*
X130533333Y-76685714D01*
X130485714Y-76780952D01*
X130438095Y-76828571D01*
X130342857Y-76876190D01*
X129961904Y-76876190D01*
X131104761Y-76780952D02*
X131009523Y-76733333D01*
X130961904Y-76685714D01*
X130914285Y-76590476D01*
X130914285Y-76542857D01*
X130961904Y-76447619D01*
X131009523Y-76400000D01*
X131104761Y-76352380D01*
X131295238Y-76352380D01*
X131390476Y-76400000D01*
X131438095Y-76447619D01*
X131485714Y-76542857D01*
X131485714Y-76590476D01*
X131438095Y-76685714D01*
X131390476Y-76733333D01*
X131295238Y-76780952D01*
X131104761Y-76780952D01*
X131009523Y-76828571D01*
X130961904Y-76876190D01*
X130914285Y-76971428D01*
X130914285Y-77161904D01*
X130961904Y-77257142D01*
X131009523Y-77304761D01*
X131104761Y-77352380D01*
X131295238Y-77352380D01*
X131390476Y-77304761D01*
X131438095Y-77257142D01*
X131485714Y-77161904D01*
X131485714Y-76971428D01*
X131438095Y-76876190D01*
X131390476Y-76828571D01*
X131295238Y-76780952D01*
X113022380Y-69716666D02*
X112546190Y-70050000D01*
X113022380Y-70288095D02*
X112022380Y-70288095D01*
X112022380Y-69907142D01*
X112070000Y-69811904D01*
X112117619Y-69764285D01*
X112212857Y-69716666D01*
X112355714Y-69716666D01*
X112450952Y-69764285D01*
X112498571Y-69811904D01*
X112546190Y-69907142D01*
X112546190Y-70288095D01*
X112022380Y-69383333D02*
X112022380Y-68716666D01*
X113022380Y-69145238D01*
X101052380Y-61166666D02*
X100576190Y-61500000D01*
X101052380Y-61738095D02*
X100052380Y-61738095D01*
X100052380Y-61357142D01*
X100100000Y-61261904D01*
X100147619Y-61214285D01*
X100242857Y-61166666D01*
X100385714Y-61166666D01*
X100480952Y-61214285D01*
X100528571Y-61261904D01*
X100576190Y-61357142D01*
X100576190Y-61738095D01*
X100052380Y-60309523D02*
X100052380Y-60500000D01*
X100100000Y-60595238D01*
X100147619Y-60642857D01*
X100290476Y-60738095D01*
X100480952Y-60785714D01*
X100861904Y-60785714D01*
X100957142Y-60738095D01*
X101004761Y-60690476D01*
X101052380Y-60595238D01*
X101052380Y-60404761D01*
X101004761Y-60309523D01*
X100957142Y-60261904D01*
X100861904Y-60214285D01*
X100623809Y-60214285D01*
X100528571Y-60261904D01*
X100480952Y-60309523D01*
X100433333Y-60404761D01*
X100433333Y-60595238D01*
X100480952Y-60690476D01*
X100528571Y-60738095D01*
X100623809Y-60785714D01*
X118233333Y-64702380D02*
X117900000Y-64226190D01*
X117661904Y-64702380D02*
X117661904Y-63702380D01*
X118042857Y-63702380D01*
X118138095Y-63750000D01*
X118185714Y-63797619D01*
X118233333Y-63892857D01*
X118233333Y-64035714D01*
X118185714Y-64130952D01*
X118138095Y-64178571D01*
X118042857Y-64226190D01*
X117661904Y-64226190D01*
X119138095Y-63702380D02*
X118661904Y-63702380D01*
X118614285Y-64178571D01*
X118661904Y-64130952D01*
X118757142Y-64083333D01*
X118995238Y-64083333D01*
X119090476Y-64130952D01*
X119138095Y-64178571D01*
X119185714Y-64273809D01*
X119185714Y-64511904D01*
X119138095Y-64607142D01*
X119090476Y-64654761D01*
X118995238Y-64702380D01*
X118757142Y-64702380D01*
X118661904Y-64654761D01*
X118614285Y-64607142D01*
X123333333Y-71052380D02*
X123000000Y-70576190D01*
X122761904Y-71052380D02*
X122761904Y-70052380D01*
X123142857Y-70052380D01*
X123238095Y-70100000D01*
X123285714Y-70147619D01*
X123333333Y-70242857D01*
X123333333Y-70385714D01*
X123285714Y-70480952D01*
X123238095Y-70528571D01*
X123142857Y-70576190D01*
X122761904Y-70576190D01*
X124190476Y-70385714D02*
X124190476Y-71052380D01*
X123952380Y-70004761D02*
X123714285Y-70719047D01*
X124333333Y-70719047D01*
X118202380Y-57366666D02*
X117726190Y-57700000D01*
X118202380Y-57938095D02*
X117202380Y-57938095D01*
X117202380Y-57557142D01*
X117250000Y-57461904D01*
X117297619Y-57414285D01*
X117392857Y-57366666D01*
X117535714Y-57366666D01*
X117630952Y-57414285D01*
X117678571Y-57461904D01*
X117726190Y-57557142D01*
X117726190Y-57938095D01*
X117202380Y-57033333D02*
X117202380Y-56414285D01*
X117583333Y-56747619D01*
X117583333Y-56604761D01*
X117630952Y-56509523D01*
X117678571Y-56461904D01*
X117773809Y-56414285D01*
X118011904Y-56414285D01*
X118107142Y-56461904D01*
X118154761Y-56509523D01*
X118202380Y-56604761D01*
X118202380Y-56890476D01*
X118154761Y-56985714D01*
X118107142Y-57033333D01*
X98972380Y-57716666D02*
X98496190Y-58050000D01*
X98972380Y-58288095D02*
X97972380Y-58288095D01*
X97972380Y-57907142D01*
X98020000Y-57811904D01*
X98067619Y-57764285D01*
X98162857Y-57716666D01*
X98305714Y-57716666D01*
X98400952Y-57764285D01*
X98448571Y-57811904D01*
X98496190Y-57907142D01*
X98496190Y-58288095D01*
X98067619Y-57335714D02*
X98020000Y-57288095D01*
X97972380Y-57192857D01*
X97972380Y-56954761D01*
X98020000Y-56859523D01*
X98067619Y-56811904D01*
X98162857Y-56764285D01*
X98258095Y-56764285D01*
X98400952Y-56811904D01*
X98972380Y-57383333D01*
X98972380Y-56764285D01*
X106802380Y-61366666D02*
X106326190Y-61700000D01*
X106802380Y-61938095D02*
X105802380Y-61938095D01*
X105802380Y-61557142D01*
X105850000Y-61461904D01*
X105897619Y-61414285D01*
X105992857Y-61366666D01*
X106135714Y-61366666D01*
X106230952Y-61414285D01*
X106278571Y-61461904D01*
X106326190Y-61557142D01*
X106326190Y-61938095D01*
X106802380Y-60414285D02*
X106802380Y-60985714D01*
X106802380Y-60700000D02*
X105802380Y-60700000D01*
X105945238Y-60795238D01*
X106040476Y-60890476D01*
X106088095Y-60985714D01*
X146452380Y-80333333D02*
X147166666Y-80333333D01*
X147309523Y-80380952D01*
X147404761Y-80476190D01*
X147452380Y-80619047D01*
X147452380Y-80714285D01*
X147452380Y-79857142D02*
X146452380Y-79857142D01*
X146452380Y-79476190D01*
X146500000Y-79380952D01*
X146547619Y-79333333D01*
X146642857Y-79285714D01*
X146785714Y-79285714D01*
X146880952Y-79333333D01*
X146928571Y-79380952D01*
X146976190Y-79476190D01*
X146976190Y-79857142D01*
X146452380Y-78380952D02*
X146452380Y-78857142D01*
X146928571Y-78904761D01*
X146880952Y-78857142D01*
X146833333Y-78761904D01*
X146833333Y-78523809D01*
X146880952Y-78428571D01*
X146928571Y-78380952D01*
X147023809Y-78333333D01*
X147261904Y-78333333D01*
X147357142Y-78380952D01*
X147404761Y-78428571D01*
X147452380Y-78523809D01*
X147452380Y-78761904D01*
X147404761Y-78857142D01*
X147357142Y-78904761D01*
X146552380Y-84033333D02*
X147266666Y-84033333D01*
X147409523Y-84080952D01*
X147504761Y-84176190D01*
X147552380Y-84319047D01*
X147552380Y-84414285D01*
X147552380Y-83557142D02*
X146552380Y-83557142D01*
X146552380Y-83176190D01*
X146600000Y-83080952D01*
X146647619Y-83033333D01*
X146742857Y-82985714D01*
X146885714Y-82985714D01*
X146980952Y-83033333D01*
X147028571Y-83080952D01*
X147076190Y-83176190D01*
X147076190Y-83557142D01*
X146885714Y-82128571D02*
X147552380Y-82128571D01*
X146504761Y-82366666D02*
X147219047Y-82604761D01*
X147219047Y-81985714D01*
X125366666Y-45332380D02*
X125366666Y-46046666D01*
X125319047Y-46189523D01*
X125223809Y-46284761D01*
X125080952Y-46332380D01*
X124985714Y-46332380D01*
X125842857Y-46332380D02*
X125842857Y-45332380D01*
X126223809Y-45332380D01*
X126319047Y-45380000D01*
X126366666Y-45427619D01*
X126414285Y-45522857D01*
X126414285Y-45665714D01*
X126366666Y-45760952D01*
X126319047Y-45808571D01*
X126223809Y-45856190D01*
X125842857Y-45856190D01*
X126747619Y-45332380D02*
X127366666Y-45332380D01*
X127033333Y-45713333D01*
X127176190Y-45713333D01*
X127271428Y-45760952D01*
X127319047Y-45808571D01*
X127366666Y-45903809D01*
X127366666Y-46141904D01*
X127319047Y-46237142D01*
X127271428Y-46284761D01*
X127176190Y-46332380D01*
X126890476Y-46332380D01*
X126795238Y-46284761D01*
X126747619Y-46237142D01*
X121416666Y-45332380D02*
X121416666Y-46046666D01*
X121369047Y-46189523D01*
X121273809Y-46284761D01*
X121130952Y-46332380D01*
X121035714Y-46332380D01*
X121892857Y-46332380D02*
X121892857Y-45332380D01*
X122273809Y-45332380D01*
X122369047Y-45380000D01*
X122416666Y-45427619D01*
X122464285Y-45522857D01*
X122464285Y-45665714D01*
X122416666Y-45760952D01*
X122369047Y-45808571D01*
X122273809Y-45856190D01*
X121892857Y-45856190D01*
X122845238Y-45427619D02*
X122892857Y-45380000D01*
X122988095Y-45332380D01*
X123226190Y-45332380D01*
X123321428Y-45380000D01*
X123369047Y-45427619D01*
X123416666Y-45522857D01*
X123416666Y-45618095D01*
X123369047Y-45760952D01*
X122797619Y-46332380D01*
X123416666Y-46332380D01*
X129316666Y-45332380D02*
X129316666Y-46046666D01*
X129269047Y-46189523D01*
X129173809Y-46284761D01*
X129030952Y-46332380D01*
X128935714Y-46332380D01*
X129792857Y-46332380D02*
X129792857Y-45332380D01*
X130173809Y-45332380D01*
X130269047Y-45380000D01*
X130316666Y-45427619D01*
X130364285Y-45522857D01*
X130364285Y-45665714D01*
X130316666Y-45760952D01*
X130269047Y-45808571D01*
X130173809Y-45856190D01*
X129792857Y-45856190D01*
X131316666Y-46332380D02*
X130745238Y-46332380D01*
X131030952Y-46332380D02*
X131030952Y-45332380D01*
X130935714Y-45475238D01*
X130840476Y-45570476D01*
X130745238Y-45618095D01*
X161266666Y-90852380D02*
X161266666Y-91566666D01*
X161219047Y-91709523D01*
X161123809Y-91804761D01*
X160980952Y-91852380D01*
X160885714Y-91852380D01*
X161647619Y-90852380D02*
X162314285Y-90852380D01*
X161885714Y-91852380D01*
X122866666Y-97062380D02*
X122866666Y-97776666D01*
X122819047Y-97919523D01*
X122723809Y-98014761D01*
X122580952Y-98062380D01*
X122485714Y-98062380D01*
X123771428Y-97062380D02*
X123580952Y-97062380D01*
X123485714Y-97110000D01*
X123438095Y-97157619D01*
X123342857Y-97300476D01*
X123295238Y-97490952D01*
X123295238Y-97871904D01*
X123342857Y-97967142D01*
X123390476Y-98014761D01*
X123485714Y-98062380D01*
X123676190Y-98062380D01*
X123771428Y-98014761D01*
X123819047Y-97967142D01*
X123866666Y-97871904D01*
X123866666Y-97633809D01*
X123819047Y-97538571D01*
X123771428Y-97490952D01*
X123676190Y-97443333D01*
X123485714Y-97443333D01*
X123390476Y-97490952D01*
X123342857Y-97538571D01*
X123295238Y-97633809D01*
X136006666Y-120822380D02*
X136006666Y-121536666D01*
X135959047Y-121679523D01*
X135863809Y-121774761D01*
X135720952Y-121822380D01*
X135625714Y-121822380D01*
X136959047Y-120822380D02*
X136482857Y-120822380D01*
X136435238Y-121298571D01*
X136482857Y-121250952D01*
X136578095Y-121203333D01*
X136816190Y-121203333D01*
X136911428Y-121250952D01*
X136959047Y-121298571D01*
X137006666Y-121393809D01*
X137006666Y-121631904D01*
X136959047Y-121727142D01*
X136911428Y-121774761D01*
X136816190Y-121822380D01*
X136578095Y-121822380D01*
X136482857Y-121774761D01*
X136435238Y-121727142D01*
X105002380Y-91333333D02*
X105716666Y-91333333D01*
X105859523Y-91380952D01*
X105954761Y-91476190D01*
X106002380Y-91619047D01*
X106002380Y-91714285D01*
X105335714Y-90428571D02*
X106002380Y-90428571D01*
X104954761Y-90666666D02*
X105669047Y-90904761D01*
X105669047Y-90285714D01*
X125066666Y-120752380D02*
X125066666Y-121466666D01*
X125019047Y-121609523D01*
X124923809Y-121704761D01*
X124780952Y-121752380D01*
X124685714Y-121752380D01*
X125447619Y-120752380D02*
X126066666Y-120752380D01*
X125733333Y-121133333D01*
X125876190Y-121133333D01*
X125971428Y-121180952D01*
X126019047Y-121228571D01*
X126066666Y-121323809D01*
X126066666Y-121561904D01*
X126019047Y-121657142D01*
X125971428Y-121704761D01*
X125876190Y-121752380D01*
X125590476Y-121752380D01*
X125495238Y-121704761D01*
X125447619Y-121657142D01*
X124278571Y-101920833D02*
X124278571Y-102254166D01*
X124802380Y-102254166D02*
X123802380Y-102254166D01*
X123802380Y-101777976D01*
X124278571Y-101063690D02*
X124326190Y-100920833D01*
X124373809Y-100873214D01*
X124469047Y-100825595D01*
X124611904Y-100825595D01*
X124707142Y-100873214D01*
X124754761Y-100920833D01*
X124802380Y-101016071D01*
X124802380Y-101397023D01*
X123802380Y-101397023D01*
X123802380Y-101063690D01*
X123850000Y-100968452D01*
X123897619Y-100920833D01*
X123992857Y-100873214D01*
X124088095Y-100873214D01*
X124183333Y-100920833D01*
X124230952Y-100968452D01*
X124278571Y-101063690D01*
X124278571Y-101397023D01*
X124135714Y-99968452D02*
X124802380Y-99968452D01*
X123754761Y-100206547D02*
X124469047Y-100444642D01*
X124469047Y-99825595D01*
X135652380Y-78838095D02*
X134652380Y-78838095D01*
X134652380Y-78600000D01*
X134700000Y-78457142D01*
X134795238Y-78361904D01*
X134890476Y-78314285D01*
X135080952Y-78266666D01*
X135223809Y-78266666D01*
X135414285Y-78314285D01*
X135509523Y-78361904D01*
X135604761Y-78457142D01*
X135652380Y-78600000D01*
X135652380Y-78838095D01*
X135652380Y-77314285D02*
X135652380Y-77885714D01*
X135652380Y-77600000D02*
X134652380Y-77600000D01*
X134795238Y-77695238D01*
X134890476Y-77790476D01*
X134938095Y-77885714D01*
X140452380Y-85661904D02*
X139452380Y-85661904D01*
X140452380Y-85090476D02*
X139880952Y-85519047D01*
X139452380Y-85090476D02*
X140023809Y-85661904D01*
X115857142Y-68957142D02*
X115809523Y-69004761D01*
X115666666Y-69052380D01*
X115571428Y-69052380D01*
X115428571Y-69004761D01*
X115333333Y-68909523D01*
X115285714Y-68814285D01*
X115238095Y-68623809D01*
X115238095Y-68480952D01*
X115285714Y-68290476D01*
X115333333Y-68195238D01*
X115428571Y-68100000D01*
X115571428Y-68052380D01*
X115666666Y-68052380D01*
X115809523Y-68100000D01*
X115857142Y-68147619D01*
X116190476Y-68052380D02*
X116809523Y-68052380D01*
X116476190Y-68433333D01*
X116619047Y-68433333D01*
X116714285Y-68480952D01*
X116761904Y-68528571D01*
X116809523Y-68623809D01*
X116809523Y-68861904D01*
X116761904Y-68957142D01*
X116714285Y-69004761D01*
X116619047Y-69052380D01*
X116333333Y-69052380D01*
X116238095Y-69004761D01*
X116190476Y-68957142D01*
X117666666Y-68385714D02*
X117666666Y-69052380D01*
X117428571Y-68004761D02*
X117190476Y-68719047D01*
X117809523Y-68719047D01*
X148257142Y-102842857D02*
X148304761Y-102890476D01*
X148352380Y-103033333D01*
X148352380Y-103128571D01*
X148304761Y-103271428D01*
X148209523Y-103366666D01*
X148114285Y-103414285D01*
X147923809Y-103461904D01*
X147780952Y-103461904D01*
X147590476Y-103414285D01*
X147495238Y-103366666D01*
X147400000Y-103271428D01*
X147352380Y-103128571D01*
X147352380Y-103033333D01*
X147400000Y-102890476D01*
X147447619Y-102842857D01*
X147352380Y-102509523D02*
X147352380Y-101890476D01*
X147733333Y-102223809D01*
X147733333Y-102080952D01*
X147780952Y-101985714D01*
X147828571Y-101938095D01*
X147923809Y-101890476D01*
X148161904Y-101890476D01*
X148257142Y-101938095D01*
X148304761Y-101985714D01*
X148352380Y-102080952D01*
X148352380Y-102366666D01*
X148304761Y-102461904D01*
X148257142Y-102509523D01*
X147352380Y-101557142D02*
X147352380Y-100938095D01*
X147733333Y-101271428D01*
X147733333Y-101128571D01*
X147780952Y-101033333D01*
X147828571Y-100985714D01*
X147923809Y-100938095D01*
X148161904Y-100938095D01*
X148257142Y-100985714D01*
X148304761Y-101033333D01*
X148352380Y-101128571D01*
X148352380Y-101414285D01*
X148304761Y-101509523D01*
X148257142Y-101557142D01*
X148137142Y-113592857D02*
X148184761Y-113640476D01*
X148232380Y-113783333D01*
X148232380Y-113878571D01*
X148184761Y-114021428D01*
X148089523Y-114116666D01*
X147994285Y-114164285D01*
X147803809Y-114211904D01*
X147660952Y-114211904D01*
X147470476Y-114164285D01*
X147375238Y-114116666D01*
X147280000Y-114021428D01*
X147232380Y-113878571D01*
X147232380Y-113783333D01*
X147280000Y-113640476D01*
X147327619Y-113592857D01*
X147232380Y-113259523D02*
X147232380Y-112640476D01*
X147613333Y-112973809D01*
X147613333Y-112830952D01*
X147660952Y-112735714D01*
X147708571Y-112688095D01*
X147803809Y-112640476D01*
X148041904Y-112640476D01*
X148137142Y-112688095D01*
X148184761Y-112735714D01*
X148232380Y-112830952D01*
X148232380Y-113116666D01*
X148184761Y-113211904D01*
X148137142Y-113259523D01*
X147327619Y-112259523D02*
X147280000Y-112211904D01*
X147232380Y-112116666D01*
X147232380Y-111878571D01*
X147280000Y-111783333D01*
X147327619Y-111735714D01*
X147422857Y-111688095D01*
X147518095Y-111688095D01*
X147660952Y-111735714D01*
X148232380Y-112307142D01*
X148232380Y-111688095D01*
X122787142Y-77792857D02*
X122834761Y-77840476D01*
X122882380Y-77983333D01*
X122882380Y-78078571D01*
X122834761Y-78221428D01*
X122739523Y-78316666D01*
X122644285Y-78364285D01*
X122453809Y-78411904D01*
X122310952Y-78411904D01*
X122120476Y-78364285D01*
X122025238Y-78316666D01*
X121930000Y-78221428D01*
X121882380Y-78078571D01*
X121882380Y-77983333D01*
X121930000Y-77840476D01*
X121977619Y-77792857D01*
X121882380Y-77459523D02*
X121882380Y-76840476D01*
X122263333Y-77173809D01*
X122263333Y-77030952D01*
X122310952Y-76935714D01*
X122358571Y-76888095D01*
X122453809Y-76840476D01*
X122691904Y-76840476D01*
X122787142Y-76888095D01*
X122834761Y-76935714D01*
X122882380Y-77030952D01*
X122882380Y-77316666D01*
X122834761Y-77411904D01*
X122787142Y-77459523D01*
X122882380Y-75888095D02*
X122882380Y-76459523D01*
X122882380Y-76173809D02*
X121882380Y-76173809D01*
X122025238Y-76269047D01*
X122120476Y-76364285D01*
X122168095Y-76459523D01*
X136557142Y-111792857D02*
X136604761Y-111840476D01*
X136652380Y-111983333D01*
X136652380Y-112078571D01*
X136604761Y-112221428D01*
X136509523Y-112316666D01*
X136414285Y-112364285D01*
X136223809Y-112411904D01*
X136080952Y-112411904D01*
X135890476Y-112364285D01*
X135795238Y-112316666D01*
X135700000Y-112221428D01*
X135652380Y-112078571D01*
X135652380Y-111983333D01*
X135700000Y-111840476D01*
X135747619Y-111792857D01*
X135652380Y-111459523D02*
X135652380Y-110840476D01*
X136033333Y-111173809D01*
X136033333Y-111030952D01*
X136080952Y-110935714D01*
X136128571Y-110888095D01*
X136223809Y-110840476D01*
X136461904Y-110840476D01*
X136557142Y-110888095D01*
X136604761Y-110935714D01*
X136652380Y-111030952D01*
X136652380Y-111316666D01*
X136604761Y-111411904D01*
X136557142Y-111459523D01*
X135652380Y-110221428D02*
X135652380Y-110126190D01*
X135700000Y-110030952D01*
X135747619Y-109983333D01*
X135842857Y-109935714D01*
X136033333Y-109888095D01*
X136271428Y-109888095D01*
X136461904Y-109935714D01*
X136557142Y-109983333D01*
X136604761Y-110030952D01*
X136652380Y-110126190D01*
X136652380Y-110221428D01*
X136604761Y-110316666D01*
X136557142Y-110364285D01*
X136461904Y-110411904D01*
X136271428Y-110459523D01*
X136033333Y-110459523D01*
X135842857Y-110411904D01*
X135747619Y-110364285D01*
X135700000Y-110316666D01*
X135652380Y-110221428D01*
X134987142Y-111742857D02*
X135034761Y-111790476D01*
X135082380Y-111933333D01*
X135082380Y-112028571D01*
X135034761Y-112171428D01*
X134939523Y-112266666D01*
X134844285Y-112314285D01*
X134653809Y-112361904D01*
X134510952Y-112361904D01*
X134320476Y-112314285D01*
X134225238Y-112266666D01*
X134130000Y-112171428D01*
X134082380Y-112028571D01*
X134082380Y-111933333D01*
X134130000Y-111790476D01*
X134177619Y-111742857D01*
X134177619Y-111361904D02*
X134130000Y-111314285D01*
X134082380Y-111219047D01*
X134082380Y-110980952D01*
X134130000Y-110885714D01*
X134177619Y-110838095D01*
X134272857Y-110790476D01*
X134368095Y-110790476D01*
X134510952Y-110838095D01*
X135082380Y-111409523D01*
X135082380Y-110790476D01*
X135082380Y-110314285D02*
X135082380Y-110123809D01*
X135034761Y-110028571D01*
X134987142Y-109980952D01*
X134844285Y-109885714D01*
X134653809Y-109838095D01*
X134272857Y-109838095D01*
X134177619Y-109885714D01*
X134130000Y-109933333D01*
X134082380Y-110028571D01*
X134082380Y-110219047D01*
X134130000Y-110314285D01*
X134177619Y-110361904D01*
X134272857Y-110409523D01*
X134510952Y-110409523D01*
X134606190Y-110361904D01*
X134653809Y-110314285D01*
X134701428Y-110219047D01*
X134701428Y-110028571D01*
X134653809Y-109933333D01*
X134606190Y-109885714D01*
X134510952Y-109838095D01*
X102477142Y-107892857D02*
X102524761Y-107940476D01*
X102572380Y-108083333D01*
X102572380Y-108178571D01*
X102524761Y-108321428D01*
X102429523Y-108416666D01*
X102334285Y-108464285D01*
X102143809Y-108511904D01*
X102000952Y-108511904D01*
X101810476Y-108464285D01*
X101715238Y-108416666D01*
X101620000Y-108321428D01*
X101572380Y-108178571D01*
X101572380Y-108083333D01*
X101620000Y-107940476D01*
X101667619Y-107892857D01*
X101667619Y-107511904D02*
X101620000Y-107464285D01*
X101572380Y-107369047D01*
X101572380Y-107130952D01*
X101620000Y-107035714D01*
X101667619Y-106988095D01*
X101762857Y-106940476D01*
X101858095Y-106940476D01*
X102000952Y-106988095D01*
X102572380Y-107559523D01*
X102572380Y-106940476D01*
X102000952Y-106369047D02*
X101953333Y-106464285D01*
X101905714Y-106511904D01*
X101810476Y-106559523D01*
X101762857Y-106559523D01*
X101667619Y-106511904D01*
X101620000Y-106464285D01*
X101572380Y-106369047D01*
X101572380Y-106178571D01*
X101620000Y-106083333D01*
X101667619Y-106035714D01*
X101762857Y-105988095D01*
X101810476Y-105988095D01*
X101905714Y-106035714D01*
X101953333Y-106083333D01*
X102000952Y-106178571D01*
X102000952Y-106369047D01*
X102048571Y-106464285D01*
X102096190Y-106511904D01*
X102191428Y-106559523D01*
X102381904Y-106559523D01*
X102477142Y-106511904D01*
X102524761Y-106464285D01*
X102572380Y-106369047D01*
X102572380Y-106178571D01*
X102524761Y-106083333D01*
X102477142Y-106035714D01*
X102381904Y-105988095D01*
X102191428Y-105988095D01*
X102096190Y-106035714D01*
X102048571Y-106083333D01*
X102000952Y-106178571D01*
X102477142Y-104542857D02*
X102524761Y-104590476D01*
X102572380Y-104733333D01*
X102572380Y-104828571D01*
X102524761Y-104971428D01*
X102429523Y-105066666D01*
X102334285Y-105114285D01*
X102143809Y-105161904D01*
X102000952Y-105161904D01*
X101810476Y-105114285D01*
X101715238Y-105066666D01*
X101620000Y-104971428D01*
X101572380Y-104828571D01*
X101572380Y-104733333D01*
X101620000Y-104590476D01*
X101667619Y-104542857D01*
X101667619Y-104161904D02*
X101620000Y-104114285D01*
X101572380Y-104019047D01*
X101572380Y-103780952D01*
X101620000Y-103685714D01*
X101667619Y-103638095D01*
X101762857Y-103590476D01*
X101858095Y-103590476D01*
X102000952Y-103638095D01*
X102572380Y-104209523D01*
X102572380Y-103590476D01*
X101572380Y-103257142D02*
X101572380Y-102590476D01*
X102572380Y-103019047D01*
X124507142Y-105442857D02*
X124554761Y-105490476D01*
X124602380Y-105633333D01*
X124602380Y-105728571D01*
X124554761Y-105871428D01*
X124459523Y-105966666D01*
X124364285Y-106014285D01*
X124173809Y-106061904D01*
X124030952Y-106061904D01*
X123840476Y-106014285D01*
X123745238Y-105966666D01*
X123650000Y-105871428D01*
X123602380Y-105728571D01*
X123602380Y-105633333D01*
X123650000Y-105490476D01*
X123697619Y-105442857D01*
X123697619Y-105061904D02*
X123650000Y-105014285D01*
X123602380Y-104919047D01*
X123602380Y-104680952D01*
X123650000Y-104585714D01*
X123697619Y-104538095D01*
X123792857Y-104490476D01*
X123888095Y-104490476D01*
X124030952Y-104538095D01*
X124602380Y-105109523D01*
X124602380Y-104490476D01*
X123602380Y-103633333D02*
X123602380Y-103823809D01*
X123650000Y-103919047D01*
X123697619Y-103966666D01*
X123840476Y-104061904D01*
X124030952Y-104109523D01*
X124411904Y-104109523D01*
X124507142Y-104061904D01*
X124554761Y-104014285D01*
X124602380Y-103919047D01*
X124602380Y-103728571D01*
X124554761Y-103633333D01*
X124507142Y-103585714D01*
X124411904Y-103538095D01*
X124173809Y-103538095D01*
X124078571Y-103585714D01*
X124030952Y-103633333D01*
X123983333Y-103728571D01*
X123983333Y-103919047D01*
X124030952Y-104014285D01*
X124078571Y-104061904D01*
X124173809Y-104109523D01*
X104594642Y-97657142D02*
X104547023Y-97704761D01*
X104404166Y-97752380D01*
X104308928Y-97752380D01*
X104166071Y-97704761D01*
X104070833Y-97609523D01*
X104023214Y-97514285D01*
X103975595Y-97323809D01*
X103975595Y-97180952D01*
X104023214Y-96990476D01*
X104070833Y-96895238D01*
X104166071Y-96800000D01*
X104308928Y-96752380D01*
X104404166Y-96752380D01*
X104547023Y-96800000D01*
X104594642Y-96847619D01*
X104975595Y-96847619D02*
X105023214Y-96800000D01*
X105118452Y-96752380D01*
X105356547Y-96752380D01*
X105451785Y-96800000D01*
X105499404Y-96847619D01*
X105547023Y-96942857D01*
X105547023Y-97038095D01*
X105499404Y-97180952D01*
X104927976Y-97752380D01*
X105547023Y-97752380D01*
X106451785Y-96752380D02*
X105975595Y-96752380D01*
X105927976Y-97228571D01*
X105975595Y-97180952D01*
X106070833Y-97133333D01*
X106308928Y-97133333D01*
X106404166Y-97180952D01*
X106451785Y-97228571D01*
X106499404Y-97323809D01*
X106499404Y-97561904D01*
X106451785Y-97657142D01*
X106404166Y-97704761D01*
X106308928Y-97752380D01*
X106070833Y-97752380D01*
X105975595Y-97704761D01*
X105927976Y-97657142D01*
X104407142Y-95757142D02*
X104359523Y-95804761D01*
X104216666Y-95852380D01*
X104121428Y-95852380D01*
X103978571Y-95804761D01*
X103883333Y-95709523D01*
X103835714Y-95614285D01*
X103788095Y-95423809D01*
X103788095Y-95280952D01*
X103835714Y-95090476D01*
X103883333Y-94995238D01*
X103978571Y-94900000D01*
X104121428Y-94852380D01*
X104216666Y-94852380D01*
X104359523Y-94900000D01*
X104407142Y-94947619D01*
X104788095Y-94947619D02*
X104835714Y-94900000D01*
X104930952Y-94852380D01*
X105169047Y-94852380D01*
X105264285Y-94900000D01*
X105311904Y-94947619D01*
X105359523Y-95042857D01*
X105359523Y-95138095D01*
X105311904Y-95280952D01*
X104740476Y-95852380D01*
X105359523Y-95852380D01*
X106216666Y-95185714D02*
X106216666Y-95852380D01*
X105978571Y-94804761D02*
X105740476Y-95519047D01*
X106359523Y-95519047D01*
X134057142Y-74257142D02*
X134009523Y-74304761D01*
X133866666Y-74352380D01*
X133771428Y-74352380D01*
X133628571Y-74304761D01*
X133533333Y-74209523D01*
X133485714Y-74114285D01*
X133438095Y-73923809D01*
X133438095Y-73780952D01*
X133485714Y-73590476D01*
X133533333Y-73495238D01*
X133628571Y-73400000D01*
X133771428Y-73352380D01*
X133866666Y-73352380D01*
X134009523Y-73400000D01*
X134057142Y-73447619D01*
X134438095Y-73447619D02*
X134485714Y-73400000D01*
X134580952Y-73352380D01*
X134819047Y-73352380D01*
X134914285Y-73400000D01*
X134961904Y-73447619D01*
X135009523Y-73542857D01*
X135009523Y-73638095D01*
X134961904Y-73780952D01*
X134390476Y-74352380D01*
X135009523Y-74352380D01*
X135342857Y-73352380D02*
X135961904Y-73352380D01*
X135628571Y-73733333D01*
X135771428Y-73733333D01*
X135866666Y-73780952D01*
X135914285Y-73828571D01*
X135961904Y-73923809D01*
X135961904Y-74161904D01*
X135914285Y-74257142D01*
X135866666Y-74304761D01*
X135771428Y-74352380D01*
X135485714Y-74352380D01*
X135390476Y-74304761D01*
X135342857Y-74257142D01*
X132957142Y-84557142D02*
X132909523Y-84604761D01*
X132766666Y-84652380D01*
X132671428Y-84652380D01*
X132528571Y-84604761D01*
X132433333Y-84509523D01*
X132385714Y-84414285D01*
X132338095Y-84223809D01*
X132338095Y-84080952D01*
X132385714Y-83890476D01*
X132433333Y-83795238D01*
X132528571Y-83700000D01*
X132671428Y-83652380D01*
X132766666Y-83652380D01*
X132909523Y-83700000D01*
X132957142Y-83747619D01*
X133338095Y-83747619D02*
X133385714Y-83700000D01*
X133480952Y-83652380D01*
X133719047Y-83652380D01*
X133814285Y-83700000D01*
X133861904Y-83747619D01*
X133909523Y-83842857D01*
X133909523Y-83938095D01*
X133861904Y-84080952D01*
X133290476Y-84652380D01*
X133909523Y-84652380D01*
X134290476Y-83747619D02*
X134338095Y-83700000D01*
X134433333Y-83652380D01*
X134671428Y-83652380D01*
X134766666Y-83700000D01*
X134814285Y-83747619D01*
X134861904Y-83842857D01*
X134861904Y-83938095D01*
X134814285Y-84080952D01*
X134242857Y-84652380D01*
X134861904Y-84652380D01*
X139257142Y-56037142D02*
X139209523Y-56084761D01*
X139066666Y-56132380D01*
X138971428Y-56132380D01*
X138828571Y-56084761D01*
X138733333Y-55989523D01*
X138685714Y-55894285D01*
X138638095Y-55703809D01*
X138638095Y-55560952D01*
X138685714Y-55370476D01*
X138733333Y-55275238D01*
X138828571Y-55180000D01*
X138971428Y-55132380D01*
X139066666Y-55132380D01*
X139209523Y-55180000D01*
X139257142Y-55227619D01*
X139638095Y-55227619D02*
X139685714Y-55180000D01*
X139780952Y-55132380D01*
X140019047Y-55132380D01*
X140114285Y-55180000D01*
X140161904Y-55227619D01*
X140209523Y-55322857D01*
X140209523Y-55418095D01*
X140161904Y-55560952D01*
X139590476Y-56132380D01*
X140209523Y-56132380D01*
X141161904Y-56132380D02*
X140590476Y-56132380D01*
X140876190Y-56132380D02*
X140876190Y-55132380D01*
X140780952Y-55275238D01*
X140685714Y-55370476D01*
X140590476Y-55418095D01*
X139257142Y-54577142D02*
X139209523Y-54624761D01*
X139066666Y-54672380D01*
X138971428Y-54672380D01*
X138828571Y-54624761D01*
X138733333Y-54529523D01*
X138685714Y-54434285D01*
X138638095Y-54243809D01*
X138638095Y-54100952D01*
X138685714Y-53910476D01*
X138733333Y-53815238D01*
X138828571Y-53720000D01*
X138971428Y-53672380D01*
X139066666Y-53672380D01*
X139209523Y-53720000D01*
X139257142Y-53767619D01*
X139638095Y-53767619D02*
X139685714Y-53720000D01*
X139780952Y-53672380D01*
X140019047Y-53672380D01*
X140114285Y-53720000D01*
X140161904Y-53767619D01*
X140209523Y-53862857D01*
X140209523Y-53958095D01*
X140161904Y-54100952D01*
X139590476Y-54672380D01*
X140209523Y-54672380D01*
X140828571Y-53672380D02*
X140923809Y-53672380D01*
X141019047Y-53720000D01*
X141066666Y-53767619D01*
X141114285Y-53862857D01*
X141161904Y-54053333D01*
X141161904Y-54291428D01*
X141114285Y-54481904D01*
X141066666Y-54577142D01*
X141019047Y-54624761D01*
X140923809Y-54672380D01*
X140828571Y-54672380D01*
X140733333Y-54624761D01*
X140685714Y-54577142D01*
X140638095Y-54481904D01*
X140590476Y-54291428D01*
X140590476Y-54053333D01*
X140638095Y-53862857D01*
X140685714Y-53767619D01*
X140733333Y-53720000D01*
X140828571Y-53672380D01*
X139257142Y-51657142D02*
X139209523Y-51704761D01*
X139066666Y-51752380D01*
X138971428Y-51752380D01*
X138828571Y-51704761D01*
X138733333Y-51609523D01*
X138685714Y-51514285D01*
X138638095Y-51323809D01*
X138638095Y-51180952D01*
X138685714Y-50990476D01*
X138733333Y-50895238D01*
X138828571Y-50800000D01*
X138971428Y-50752380D01*
X139066666Y-50752380D01*
X139209523Y-50800000D01*
X139257142Y-50847619D01*
X140209523Y-51752380D02*
X139638095Y-51752380D01*
X139923809Y-51752380D02*
X139923809Y-50752380D01*
X139828571Y-50895238D01*
X139733333Y-50990476D01*
X139638095Y-51038095D01*
X140542857Y-50752380D02*
X141209523Y-50752380D01*
X140780952Y-51752380D01*
X122457142Y-56707142D02*
X122409523Y-56754761D01*
X122266666Y-56802380D01*
X122171428Y-56802380D01*
X122028571Y-56754761D01*
X121933333Y-56659523D01*
X121885714Y-56564285D01*
X121838095Y-56373809D01*
X121838095Y-56230952D01*
X121885714Y-56040476D01*
X121933333Y-55945238D01*
X122028571Y-55850000D01*
X122171428Y-55802380D01*
X122266666Y-55802380D01*
X122409523Y-55850000D01*
X122457142Y-55897619D01*
X123409523Y-56802380D02*
X122838095Y-56802380D01*
X123123809Y-56802380D02*
X123123809Y-55802380D01*
X123028571Y-55945238D01*
X122933333Y-56040476D01*
X122838095Y-56088095D01*
X124028571Y-55802380D02*
X124123809Y-55802380D01*
X124219047Y-55850000D01*
X124266666Y-55897619D01*
X124314285Y-55992857D01*
X124361904Y-56183333D01*
X124361904Y-56421428D01*
X124314285Y-56611904D01*
X124266666Y-56707142D01*
X124219047Y-56754761D01*
X124123809Y-56802380D01*
X124028571Y-56802380D01*
X123933333Y-56754761D01*
X123885714Y-56707142D01*
X123838095Y-56611904D01*
X123790476Y-56421428D01*
X123790476Y-56183333D01*
X123838095Y-55992857D01*
X123885714Y-55897619D01*
X123933333Y-55850000D01*
X124028571Y-55802380D01*
X123333333Y-55057142D02*
X123285714Y-55104761D01*
X123142857Y-55152380D01*
X123047619Y-55152380D01*
X122904761Y-55104761D01*
X122809523Y-55009523D01*
X122761904Y-54914285D01*
X122714285Y-54723809D01*
X122714285Y-54580952D01*
X122761904Y-54390476D01*
X122809523Y-54295238D01*
X122904761Y-54200000D01*
X123047619Y-54152380D01*
X123142857Y-54152380D01*
X123285714Y-54200000D01*
X123333333Y-54247619D01*
X123809523Y-55152380D02*
X124000000Y-55152380D01*
X124095238Y-55104761D01*
X124142857Y-55057142D01*
X124238095Y-54914285D01*
X124285714Y-54723809D01*
X124285714Y-54342857D01*
X124238095Y-54247619D01*
X124190476Y-54200000D01*
X124095238Y-54152380D01*
X123904761Y-54152380D01*
X123809523Y-54200000D01*
X123761904Y-54247619D01*
X123714285Y-54342857D01*
X123714285Y-54580952D01*
X123761904Y-54676190D01*
X123809523Y-54723809D01*
X123904761Y-54771428D01*
X124095238Y-54771428D01*
X124190476Y-54723809D01*
X124238095Y-54676190D01*
X124285714Y-54580952D01*
X109357142Y-61116666D02*
X109404761Y-61164285D01*
X109452380Y-61307142D01*
X109452380Y-61402380D01*
X109404761Y-61545238D01*
X109309523Y-61640476D01*
X109214285Y-61688095D01*
X109023809Y-61735714D01*
X108880952Y-61735714D01*
X108690476Y-61688095D01*
X108595238Y-61640476D01*
X108500000Y-61545238D01*
X108452380Y-61402380D01*
X108452380Y-61307142D01*
X108500000Y-61164285D01*
X108547619Y-61116666D01*
X108785714Y-60259523D02*
X109452380Y-60259523D01*
X108404761Y-60497619D02*
X109119047Y-60735714D01*
X109119047Y-60116666D01*
X109407142Y-57516666D02*
X109454761Y-57564285D01*
X109502380Y-57707142D01*
X109502380Y-57802380D01*
X109454761Y-57945238D01*
X109359523Y-58040476D01*
X109264285Y-58088095D01*
X109073809Y-58135714D01*
X108930952Y-58135714D01*
X108740476Y-58088095D01*
X108645238Y-58040476D01*
X108550000Y-57945238D01*
X108502380Y-57802380D01*
X108502380Y-57707142D01*
X108550000Y-57564285D01*
X108597619Y-57516666D01*
X108502380Y-57183333D02*
X108502380Y-56564285D01*
X108883333Y-56897619D01*
X108883333Y-56754761D01*
X108930952Y-56659523D01*
X108978571Y-56611904D01*
X109073809Y-56564285D01*
X109311904Y-56564285D01*
X109407142Y-56611904D01*
X109454761Y-56659523D01*
X109502380Y-56754761D01*
X109502380Y-57040476D01*
X109454761Y-57135714D01*
X109407142Y-57183333D01*
M02*
