G04 #@! TF.GenerationSoftware,KiCad,Pcbnew,(5.1.6)-1*
G04 #@! TF.CreationDate,2022-06-26T18:03:46+10:00*
G04 #@! TF.ProjectId,controller,636f6e74-726f-46c6-9c65-722e6b696361,rev?*
G04 #@! TF.SameCoordinates,Original*
G04 #@! TF.FileFunction,Soldermask,Top*
G04 #@! TF.FilePolarity,Negative*
%FSLAX46Y46*%
G04 Gerber Fmt 4.6, Leading zero omitted, Abs format (unit mm)*
G04 Created by KiCad (PCBNEW (5.1.6)-1) date 2022-06-26 18:03:46*
%MOMM*%
%LPD*%
G01*
G04 APERTURE LIST*
%ADD10R,3.600000X3.600000*%
%ADD11C,3.500000*%
%ADD12C,3.100000*%
%ADD13C,1.700000*%
%ADD14R,2.100000X4.600000*%
%ADD15R,1.200000X0.500000*%
%ADD16O,1.700000X1.700000*%
%ADD17R,1.700000X1.700000*%
%ADD18R,1.500000X1.300000*%
%ADD19R,1.500000X1.100000*%
%ADD20R,2.100000X1.600000*%
%ADD21R,2.100000X3.900000*%
%ADD22R,2.600000X2.600000*%
%ADD23C,2.100000*%
%ADD24R,1.800000X1.800000*%
%ADD25O,1.800000X1.800000*%
%ADD26C,1.900000*%
%ADD27C,4.100000*%
%ADD28O,1.840000X2.290000*%
%ADD29O,2.300000X2.300000*%
%ADD30R,2.300000X2.300000*%
%ADD31C,1.300000*%
%ADD32R,1.300000X1.300000*%
%ADD33C,4.400000*%
G04 APERTURE END LIST*
G36*
G01*
X156100000Y-78600000D02*
X156100000Y-80400000D01*
G75*
G02*
X155200000Y-81300000I-900000J0D01*
G01*
X153400000Y-81300000D01*
G75*
G02*
X152500000Y-80400000I0J900000D01*
G01*
X152500000Y-78600000D01*
G75*
G02*
X153400000Y-77700000I900000J0D01*
G01*
X155200000Y-77700000D01*
G75*
G02*
X156100000Y-78600000I0J-900000D01*
G01*
G37*
G36*
G01*
X158850000Y-83175000D02*
X158850000Y-85225000D01*
G75*
G02*
X158075000Y-86000000I-775000J0D01*
G01*
X156525000Y-86000000D01*
G75*
G02*
X155750000Y-85225000I0J775000D01*
G01*
X155750000Y-83175000D01*
G75*
G02*
X156525000Y-82400000I775000J0D01*
G01*
X158075000Y-82400000D01*
G75*
G02*
X158850000Y-83175000I0J-775000D01*
G01*
G37*
D10*
X151300000Y-84200000D03*
D11*
X154500000Y-62050000D03*
X154500000Y-73480000D03*
D12*
X151450000Y-59890000D03*
X151450000Y-75640000D03*
D13*
X159070000Y-61040000D03*
X159070000Y-74490000D03*
X157040000Y-74490000D03*
X157040000Y-61040000D03*
X145610000Y-63320000D03*
X145610000Y-65860000D03*
X145610000Y-68400000D03*
X145610000Y-70940000D03*
X145610000Y-73480000D03*
X148150000Y-64590000D03*
X148150000Y-62050000D03*
X148150000Y-72210000D03*
X148150000Y-69670000D03*
X148150000Y-67130000D03*
D14*
X107100000Y-109750000D03*
X107100000Y-101250000D03*
X114150000Y-54850000D03*
X114150000Y-63350000D03*
G36*
G01*
X119035000Y-71450000D02*
X119385000Y-71450000D01*
G75*
G02*
X119560000Y-71625000I0J-175000D01*
G01*
X119560000Y-73325000D01*
G75*
G02*
X119385000Y-73500000I-175000J0D01*
G01*
X119035000Y-73500000D01*
G75*
G02*
X118860000Y-73325000I0J175000D01*
G01*
X118860000Y-71625000D01*
G75*
G02*
X119035000Y-71450000I175000J0D01*
G01*
G37*
G36*
G01*
X117765000Y-71450000D02*
X118115000Y-71450000D01*
G75*
G02*
X118290000Y-71625000I0J-175000D01*
G01*
X118290000Y-73325000D01*
G75*
G02*
X118115000Y-73500000I-175000J0D01*
G01*
X117765000Y-73500000D01*
G75*
G02*
X117590000Y-73325000I0J175000D01*
G01*
X117590000Y-71625000D01*
G75*
G02*
X117765000Y-71450000I175000J0D01*
G01*
G37*
G36*
G01*
X116495000Y-71450000D02*
X116845000Y-71450000D01*
G75*
G02*
X117020000Y-71625000I0J-175000D01*
G01*
X117020000Y-73325000D01*
G75*
G02*
X116845000Y-73500000I-175000J0D01*
G01*
X116495000Y-73500000D01*
G75*
G02*
X116320000Y-73325000I0J175000D01*
G01*
X116320000Y-71625000D01*
G75*
G02*
X116495000Y-71450000I175000J0D01*
G01*
G37*
G36*
G01*
X115225000Y-71450000D02*
X115575000Y-71450000D01*
G75*
G02*
X115750000Y-71625000I0J-175000D01*
G01*
X115750000Y-73325000D01*
G75*
G02*
X115575000Y-73500000I-175000J0D01*
G01*
X115225000Y-73500000D01*
G75*
G02*
X115050000Y-73325000I0J175000D01*
G01*
X115050000Y-71625000D01*
G75*
G02*
X115225000Y-71450000I175000J0D01*
G01*
G37*
G36*
G01*
X113955000Y-71450000D02*
X114305000Y-71450000D01*
G75*
G02*
X114480000Y-71625000I0J-175000D01*
G01*
X114480000Y-73325000D01*
G75*
G02*
X114305000Y-73500000I-175000J0D01*
G01*
X113955000Y-73500000D01*
G75*
G02*
X113780000Y-73325000I0J175000D01*
G01*
X113780000Y-71625000D01*
G75*
G02*
X113955000Y-71450000I175000J0D01*
G01*
G37*
G36*
G01*
X112685000Y-71450000D02*
X113035000Y-71450000D01*
G75*
G02*
X113210000Y-71625000I0J-175000D01*
G01*
X113210000Y-73325000D01*
G75*
G02*
X113035000Y-73500000I-175000J0D01*
G01*
X112685000Y-73500000D01*
G75*
G02*
X112510000Y-73325000I0J175000D01*
G01*
X112510000Y-71625000D01*
G75*
G02*
X112685000Y-71450000I175000J0D01*
G01*
G37*
G36*
G01*
X111415000Y-71450000D02*
X111765000Y-71450000D01*
G75*
G02*
X111940000Y-71625000I0J-175000D01*
G01*
X111940000Y-73325000D01*
G75*
G02*
X111765000Y-73500000I-175000J0D01*
G01*
X111415000Y-73500000D01*
G75*
G02*
X111240000Y-73325000I0J175000D01*
G01*
X111240000Y-71625000D01*
G75*
G02*
X111415000Y-71450000I175000J0D01*
G01*
G37*
G36*
G01*
X111415000Y-76400000D02*
X111765000Y-76400000D01*
G75*
G02*
X111940000Y-76575000I0J-175000D01*
G01*
X111940000Y-78275000D01*
G75*
G02*
X111765000Y-78450000I-175000J0D01*
G01*
X111415000Y-78450000D01*
G75*
G02*
X111240000Y-78275000I0J175000D01*
G01*
X111240000Y-76575000D01*
G75*
G02*
X111415000Y-76400000I175000J0D01*
G01*
G37*
G36*
G01*
X112685000Y-76400000D02*
X113035000Y-76400000D01*
G75*
G02*
X113210000Y-76575000I0J-175000D01*
G01*
X113210000Y-78275000D01*
G75*
G02*
X113035000Y-78450000I-175000J0D01*
G01*
X112685000Y-78450000D01*
G75*
G02*
X112510000Y-78275000I0J175000D01*
G01*
X112510000Y-76575000D01*
G75*
G02*
X112685000Y-76400000I175000J0D01*
G01*
G37*
G36*
G01*
X113955000Y-76400000D02*
X114305000Y-76400000D01*
G75*
G02*
X114480000Y-76575000I0J-175000D01*
G01*
X114480000Y-78275000D01*
G75*
G02*
X114305000Y-78450000I-175000J0D01*
G01*
X113955000Y-78450000D01*
G75*
G02*
X113780000Y-78275000I0J175000D01*
G01*
X113780000Y-76575000D01*
G75*
G02*
X113955000Y-76400000I175000J0D01*
G01*
G37*
G36*
G01*
X115225000Y-76400000D02*
X115575000Y-76400000D01*
G75*
G02*
X115750000Y-76575000I0J-175000D01*
G01*
X115750000Y-78275000D01*
G75*
G02*
X115575000Y-78450000I-175000J0D01*
G01*
X115225000Y-78450000D01*
G75*
G02*
X115050000Y-78275000I0J175000D01*
G01*
X115050000Y-76575000D01*
G75*
G02*
X115225000Y-76400000I175000J0D01*
G01*
G37*
G36*
G01*
X116495000Y-76400000D02*
X116845000Y-76400000D01*
G75*
G02*
X117020000Y-76575000I0J-175000D01*
G01*
X117020000Y-78275000D01*
G75*
G02*
X116845000Y-78450000I-175000J0D01*
G01*
X116495000Y-78450000D01*
G75*
G02*
X116320000Y-78275000I0J175000D01*
G01*
X116320000Y-76575000D01*
G75*
G02*
X116495000Y-76400000I175000J0D01*
G01*
G37*
G36*
G01*
X117765000Y-76400000D02*
X118115000Y-76400000D01*
G75*
G02*
X118290000Y-76575000I0J-175000D01*
G01*
X118290000Y-78275000D01*
G75*
G02*
X118115000Y-78450000I-175000J0D01*
G01*
X117765000Y-78450000D01*
G75*
G02*
X117590000Y-78275000I0J175000D01*
G01*
X117590000Y-76575000D01*
G75*
G02*
X117765000Y-76400000I175000J0D01*
G01*
G37*
G36*
G01*
X119035000Y-76400000D02*
X119385000Y-76400000D01*
G75*
G02*
X119560000Y-76575000I0J-175000D01*
G01*
X119560000Y-78275000D01*
G75*
G02*
X119385000Y-78450000I-175000J0D01*
G01*
X119035000Y-78450000D01*
G75*
G02*
X118860000Y-78275000I0J175000D01*
G01*
X118860000Y-76575000D01*
G75*
G02*
X119035000Y-76400000I175000J0D01*
G01*
G37*
D15*
X133250000Y-108575000D03*
X133250000Y-107925000D03*
X133250000Y-107275000D03*
X133250000Y-106625000D03*
X137550000Y-106625000D03*
X137550000Y-107275000D03*
X137550000Y-107925000D03*
X137550000Y-108575000D03*
D16*
X119520000Y-82650000D03*
X111900000Y-115670000D03*
X119520000Y-85190000D03*
X111900000Y-113130000D03*
X119520000Y-87730000D03*
X111900000Y-110590000D03*
X119520000Y-90270000D03*
X111900000Y-108050000D03*
X119520000Y-92810000D03*
X111900000Y-105510000D03*
X119520000Y-95350000D03*
X111900000Y-102970000D03*
X119520000Y-97890000D03*
X111900000Y-100430000D03*
X119520000Y-100430000D03*
X111900000Y-97890000D03*
X119520000Y-102970000D03*
X111900000Y-95350000D03*
X119520000Y-105510000D03*
X111900000Y-92810000D03*
X119520000Y-108050000D03*
X111900000Y-90270000D03*
X119520000Y-110590000D03*
X111900000Y-87730000D03*
X119520000Y-113130000D03*
X111900000Y-85190000D03*
X119520000Y-115670000D03*
D17*
X111900000Y-82650000D03*
G36*
G01*
X129050000Y-66975000D02*
X129050000Y-68350000D01*
G75*
G02*
X128950000Y-68450000I-100000J0D01*
G01*
X128750000Y-68450000D01*
G75*
G02*
X128650000Y-68350000I0J100000D01*
G01*
X128650000Y-66975000D01*
G75*
G02*
X128750000Y-66875000I100000J0D01*
G01*
X128950000Y-66875000D01*
G75*
G02*
X129050000Y-66975000I0J-100000D01*
G01*
G37*
G36*
G01*
X128550000Y-66975000D02*
X128550000Y-68350000D01*
G75*
G02*
X128450000Y-68450000I-100000J0D01*
G01*
X128250000Y-68450000D01*
G75*
G02*
X128150000Y-68350000I0J100000D01*
G01*
X128150000Y-66975000D01*
G75*
G02*
X128250000Y-66875000I100000J0D01*
G01*
X128450000Y-66875000D01*
G75*
G02*
X128550000Y-66975000I0J-100000D01*
G01*
G37*
G36*
G01*
X128050000Y-66975000D02*
X128050000Y-68350000D01*
G75*
G02*
X127950000Y-68450000I-100000J0D01*
G01*
X127750000Y-68450000D01*
G75*
G02*
X127650000Y-68350000I0J100000D01*
G01*
X127650000Y-66975000D01*
G75*
G02*
X127750000Y-66875000I100000J0D01*
G01*
X127950000Y-66875000D01*
G75*
G02*
X128050000Y-66975000I0J-100000D01*
G01*
G37*
G36*
G01*
X127550000Y-66975000D02*
X127550000Y-68350000D01*
G75*
G02*
X127450000Y-68450000I-100000J0D01*
G01*
X127250000Y-68450000D01*
G75*
G02*
X127150000Y-68350000I0J100000D01*
G01*
X127150000Y-66975000D01*
G75*
G02*
X127250000Y-66875000I100000J0D01*
G01*
X127450000Y-66875000D01*
G75*
G02*
X127550000Y-66975000I0J-100000D01*
G01*
G37*
G36*
G01*
X127050000Y-66975000D02*
X127050000Y-68350000D01*
G75*
G02*
X126950000Y-68450000I-100000J0D01*
G01*
X126750000Y-68450000D01*
G75*
G02*
X126650000Y-68350000I0J100000D01*
G01*
X126650000Y-66975000D01*
G75*
G02*
X126750000Y-66875000I100000J0D01*
G01*
X126950000Y-66875000D01*
G75*
G02*
X127050000Y-66975000I0J-100000D01*
G01*
G37*
G36*
G01*
X126550000Y-66975000D02*
X126550000Y-68350000D01*
G75*
G02*
X126450000Y-68450000I-100000J0D01*
G01*
X126250000Y-68450000D01*
G75*
G02*
X126150000Y-68350000I0J100000D01*
G01*
X126150000Y-66975000D01*
G75*
G02*
X126250000Y-66875000I100000J0D01*
G01*
X126450000Y-66875000D01*
G75*
G02*
X126550000Y-66975000I0J-100000D01*
G01*
G37*
G36*
G01*
X126050000Y-66975000D02*
X126050000Y-68350000D01*
G75*
G02*
X125950000Y-68450000I-100000J0D01*
G01*
X125750000Y-68450000D01*
G75*
G02*
X125650000Y-68350000I0J100000D01*
G01*
X125650000Y-66975000D01*
G75*
G02*
X125750000Y-66875000I100000J0D01*
G01*
X125950000Y-66875000D01*
G75*
G02*
X126050000Y-66975000I0J-100000D01*
G01*
G37*
G36*
G01*
X125550000Y-66975000D02*
X125550000Y-68350000D01*
G75*
G02*
X125450000Y-68450000I-100000J0D01*
G01*
X125250000Y-68450000D01*
G75*
G02*
X125150000Y-68350000I0J100000D01*
G01*
X125150000Y-66975000D01*
G75*
G02*
X125250000Y-66875000I100000J0D01*
G01*
X125450000Y-66875000D01*
G75*
G02*
X125550000Y-66975000I0J-100000D01*
G01*
G37*
G36*
G01*
X125050000Y-66975000D02*
X125050000Y-68350000D01*
G75*
G02*
X124950000Y-68450000I-100000J0D01*
G01*
X124750000Y-68450000D01*
G75*
G02*
X124650000Y-68350000I0J100000D01*
G01*
X124650000Y-66975000D01*
G75*
G02*
X124750000Y-66875000I100000J0D01*
G01*
X124950000Y-66875000D01*
G75*
G02*
X125050000Y-66975000I0J-100000D01*
G01*
G37*
G36*
G01*
X124550000Y-66975000D02*
X124550000Y-68350000D01*
G75*
G02*
X124450000Y-68450000I-100000J0D01*
G01*
X124250000Y-68450000D01*
G75*
G02*
X124150000Y-68350000I0J100000D01*
G01*
X124150000Y-66975000D01*
G75*
G02*
X124250000Y-66875000I100000J0D01*
G01*
X124450000Y-66875000D01*
G75*
G02*
X124550000Y-66975000I0J-100000D01*
G01*
G37*
G36*
G01*
X124050000Y-66975000D02*
X124050000Y-68350000D01*
G75*
G02*
X123950000Y-68450000I-100000J0D01*
G01*
X123750000Y-68450000D01*
G75*
G02*
X123650000Y-68350000I0J100000D01*
G01*
X123650000Y-66975000D01*
G75*
G02*
X123750000Y-66875000I100000J0D01*
G01*
X123950000Y-66875000D01*
G75*
G02*
X124050000Y-66975000I0J-100000D01*
G01*
G37*
G36*
G01*
X123550000Y-66975000D02*
X123550000Y-68350000D01*
G75*
G02*
X123450000Y-68450000I-100000J0D01*
G01*
X123250000Y-68450000D01*
G75*
G02*
X123150000Y-68350000I0J100000D01*
G01*
X123150000Y-66975000D01*
G75*
G02*
X123250000Y-66875000I100000J0D01*
G01*
X123450000Y-66875000D01*
G75*
G02*
X123550000Y-66975000I0J-100000D01*
G01*
G37*
G36*
G01*
X122725000Y-66150000D02*
X122725000Y-66350000D01*
G75*
G02*
X122625000Y-66450000I-100000J0D01*
G01*
X121250000Y-66450000D01*
G75*
G02*
X121150000Y-66350000I0J100000D01*
G01*
X121150000Y-66150000D01*
G75*
G02*
X121250000Y-66050000I100000J0D01*
G01*
X122625000Y-66050000D01*
G75*
G02*
X122725000Y-66150000I0J-100000D01*
G01*
G37*
G36*
G01*
X122725000Y-65650000D02*
X122725000Y-65850000D01*
G75*
G02*
X122625000Y-65950000I-100000J0D01*
G01*
X121250000Y-65950000D01*
G75*
G02*
X121150000Y-65850000I0J100000D01*
G01*
X121150000Y-65650000D01*
G75*
G02*
X121250000Y-65550000I100000J0D01*
G01*
X122625000Y-65550000D01*
G75*
G02*
X122725000Y-65650000I0J-100000D01*
G01*
G37*
G36*
G01*
X122725000Y-65150000D02*
X122725000Y-65350000D01*
G75*
G02*
X122625000Y-65450000I-100000J0D01*
G01*
X121250000Y-65450000D01*
G75*
G02*
X121150000Y-65350000I0J100000D01*
G01*
X121150000Y-65150000D01*
G75*
G02*
X121250000Y-65050000I100000J0D01*
G01*
X122625000Y-65050000D01*
G75*
G02*
X122725000Y-65150000I0J-100000D01*
G01*
G37*
G36*
G01*
X122725000Y-64650000D02*
X122725000Y-64850000D01*
G75*
G02*
X122625000Y-64950000I-100000J0D01*
G01*
X121250000Y-64950000D01*
G75*
G02*
X121150000Y-64850000I0J100000D01*
G01*
X121150000Y-64650000D01*
G75*
G02*
X121250000Y-64550000I100000J0D01*
G01*
X122625000Y-64550000D01*
G75*
G02*
X122725000Y-64650000I0J-100000D01*
G01*
G37*
G36*
G01*
X122725000Y-64150000D02*
X122725000Y-64350000D01*
G75*
G02*
X122625000Y-64450000I-100000J0D01*
G01*
X121250000Y-64450000D01*
G75*
G02*
X121150000Y-64350000I0J100000D01*
G01*
X121150000Y-64150000D01*
G75*
G02*
X121250000Y-64050000I100000J0D01*
G01*
X122625000Y-64050000D01*
G75*
G02*
X122725000Y-64150000I0J-100000D01*
G01*
G37*
G36*
G01*
X122725000Y-63650000D02*
X122725000Y-63850000D01*
G75*
G02*
X122625000Y-63950000I-100000J0D01*
G01*
X121250000Y-63950000D01*
G75*
G02*
X121150000Y-63850000I0J100000D01*
G01*
X121150000Y-63650000D01*
G75*
G02*
X121250000Y-63550000I100000J0D01*
G01*
X122625000Y-63550000D01*
G75*
G02*
X122725000Y-63650000I0J-100000D01*
G01*
G37*
G36*
G01*
X122725000Y-63150000D02*
X122725000Y-63350000D01*
G75*
G02*
X122625000Y-63450000I-100000J0D01*
G01*
X121250000Y-63450000D01*
G75*
G02*
X121150000Y-63350000I0J100000D01*
G01*
X121150000Y-63150000D01*
G75*
G02*
X121250000Y-63050000I100000J0D01*
G01*
X122625000Y-63050000D01*
G75*
G02*
X122725000Y-63150000I0J-100000D01*
G01*
G37*
G36*
G01*
X122725000Y-62650000D02*
X122725000Y-62850000D01*
G75*
G02*
X122625000Y-62950000I-100000J0D01*
G01*
X121250000Y-62950000D01*
G75*
G02*
X121150000Y-62850000I0J100000D01*
G01*
X121150000Y-62650000D01*
G75*
G02*
X121250000Y-62550000I100000J0D01*
G01*
X122625000Y-62550000D01*
G75*
G02*
X122725000Y-62650000I0J-100000D01*
G01*
G37*
G36*
G01*
X122725000Y-62150000D02*
X122725000Y-62350000D01*
G75*
G02*
X122625000Y-62450000I-100000J0D01*
G01*
X121250000Y-62450000D01*
G75*
G02*
X121150000Y-62350000I0J100000D01*
G01*
X121150000Y-62150000D01*
G75*
G02*
X121250000Y-62050000I100000J0D01*
G01*
X122625000Y-62050000D01*
G75*
G02*
X122725000Y-62150000I0J-100000D01*
G01*
G37*
G36*
G01*
X122725000Y-61650000D02*
X122725000Y-61850000D01*
G75*
G02*
X122625000Y-61950000I-100000J0D01*
G01*
X121250000Y-61950000D01*
G75*
G02*
X121150000Y-61850000I0J100000D01*
G01*
X121150000Y-61650000D01*
G75*
G02*
X121250000Y-61550000I100000J0D01*
G01*
X122625000Y-61550000D01*
G75*
G02*
X122725000Y-61650000I0J-100000D01*
G01*
G37*
G36*
G01*
X122725000Y-61150000D02*
X122725000Y-61350000D01*
G75*
G02*
X122625000Y-61450000I-100000J0D01*
G01*
X121250000Y-61450000D01*
G75*
G02*
X121150000Y-61350000I0J100000D01*
G01*
X121150000Y-61150000D01*
G75*
G02*
X121250000Y-61050000I100000J0D01*
G01*
X122625000Y-61050000D01*
G75*
G02*
X122725000Y-61150000I0J-100000D01*
G01*
G37*
G36*
G01*
X122725000Y-60650000D02*
X122725000Y-60850000D01*
G75*
G02*
X122625000Y-60950000I-100000J0D01*
G01*
X121250000Y-60950000D01*
G75*
G02*
X121150000Y-60850000I0J100000D01*
G01*
X121150000Y-60650000D01*
G75*
G02*
X121250000Y-60550000I100000J0D01*
G01*
X122625000Y-60550000D01*
G75*
G02*
X122725000Y-60650000I0J-100000D01*
G01*
G37*
G36*
G01*
X123550000Y-58650000D02*
X123550000Y-60025000D01*
G75*
G02*
X123450000Y-60125000I-100000J0D01*
G01*
X123250000Y-60125000D01*
G75*
G02*
X123150000Y-60025000I0J100000D01*
G01*
X123150000Y-58650000D01*
G75*
G02*
X123250000Y-58550000I100000J0D01*
G01*
X123450000Y-58550000D01*
G75*
G02*
X123550000Y-58650000I0J-100000D01*
G01*
G37*
G36*
G01*
X124050000Y-58650000D02*
X124050000Y-60025000D01*
G75*
G02*
X123950000Y-60125000I-100000J0D01*
G01*
X123750000Y-60125000D01*
G75*
G02*
X123650000Y-60025000I0J100000D01*
G01*
X123650000Y-58650000D01*
G75*
G02*
X123750000Y-58550000I100000J0D01*
G01*
X123950000Y-58550000D01*
G75*
G02*
X124050000Y-58650000I0J-100000D01*
G01*
G37*
G36*
G01*
X124550000Y-58650000D02*
X124550000Y-60025000D01*
G75*
G02*
X124450000Y-60125000I-100000J0D01*
G01*
X124250000Y-60125000D01*
G75*
G02*
X124150000Y-60025000I0J100000D01*
G01*
X124150000Y-58650000D01*
G75*
G02*
X124250000Y-58550000I100000J0D01*
G01*
X124450000Y-58550000D01*
G75*
G02*
X124550000Y-58650000I0J-100000D01*
G01*
G37*
G36*
G01*
X125050000Y-58650000D02*
X125050000Y-60025000D01*
G75*
G02*
X124950000Y-60125000I-100000J0D01*
G01*
X124750000Y-60125000D01*
G75*
G02*
X124650000Y-60025000I0J100000D01*
G01*
X124650000Y-58650000D01*
G75*
G02*
X124750000Y-58550000I100000J0D01*
G01*
X124950000Y-58550000D01*
G75*
G02*
X125050000Y-58650000I0J-100000D01*
G01*
G37*
G36*
G01*
X125550000Y-58650000D02*
X125550000Y-60025000D01*
G75*
G02*
X125450000Y-60125000I-100000J0D01*
G01*
X125250000Y-60125000D01*
G75*
G02*
X125150000Y-60025000I0J100000D01*
G01*
X125150000Y-58650000D01*
G75*
G02*
X125250000Y-58550000I100000J0D01*
G01*
X125450000Y-58550000D01*
G75*
G02*
X125550000Y-58650000I0J-100000D01*
G01*
G37*
G36*
G01*
X126050000Y-58650000D02*
X126050000Y-60025000D01*
G75*
G02*
X125950000Y-60125000I-100000J0D01*
G01*
X125750000Y-60125000D01*
G75*
G02*
X125650000Y-60025000I0J100000D01*
G01*
X125650000Y-58650000D01*
G75*
G02*
X125750000Y-58550000I100000J0D01*
G01*
X125950000Y-58550000D01*
G75*
G02*
X126050000Y-58650000I0J-100000D01*
G01*
G37*
G36*
G01*
X126550000Y-58650000D02*
X126550000Y-60025000D01*
G75*
G02*
X126450000Y-60125000I-100000J0D01*
G01*
X126250000Y-60125000D01*
G75*
G02*
X126150000Y-60025000I0J100000D01*
G01*
X126150000Y-58650000D01*
G75*
G02*
X126250000Y-58550000I100000J0D01*
G01*
X126450000Y-58550000D01*
G75*
G02*
X126550000Y-58650000I0J-100000D01*
G01*
G37*
G36*
G01*
X127050000Y-58650000D02*
X127050000Y-60025000D01*
G75*
G02*
X126950000Y-60125000I-100000J0D01*
G01*
X126750000Y-60125000D01*
G75*
G02*
X126650000Y-60025000I0J100000D01*
G01*
X126650000Y-58650000D01*
G75*
G02*
X126750000Y-58550000I100000J0D01*
G01*
X126950000Y-58550000D01*
G75*
G02*
X127050000Y-58650000I0J-100000D01*
G01*
G37*
G36*
G01*
X127550000Y-58650000D02*
X127550000Y-60025000D01*
G75*
G02*
X127450000Y-60125000I-100000J0D01*
G01*
X127250000Y-60125000D01*
G75*
G02*
X127150000Y-60025000I0J100000D01*
G01*
X127150000Y-58650000D01*
G75*
G02*
X127250000Y-58550000I100000J0D01*
G01*
X127450000Y-58550000D01*
G75*
G02*
X127550000Y-58650000I0J-100000D01*
G01*
G37*
G36*
G01*
X128050000Y-58650000D02*
X128050000Y-60025000D01*
G75*
G02*
X127950000Y-60125000I-100000J0D01*
G01*
X127750000Y-60125000D01*
G75*
G02*
X127650000Y-60025000I0J100000D01*
G01*
X127650000Y-58650000D01*
G75*
G02*
X127750000Y-58550000I100000J0D01*
G01*
X127950000Y-58550000D01*
G75*
G02*
X128050000Y-58650000I0J-100000D01*
G01*
G37*
G36*
G01*
X128550000Y-58650000D02*
X128550000Y-60025000D01*
G75*
G02*
X128450000Y-60125000I-100000J0D01*
G01*
X128250000Y-60125000D01*
G75*
G02*
X128150000Y-60025000I0J100000D01*
G01*
X128150000Y-58650000D01*
G75*
G02*
X128250000Y-58550000I100000J0D01*
G01*
X128450000Y-58550000D01*
G75*
G02*
X128550000Y-58650000I0J-100000D01*
G01*
G37*
G36*
G01*
X129050000Y-58650000D02*
X129050000Y-60025000D01*
G75*
G02*
X128950000Y-60125000I-100000J0D01*
G01*
X128750000Y-60125000D01*
G75*
G02*
X128650000Y-60025000I0J100000D01*
G01*
X128650000Y-58650000D01*
G75*
G02*
X128750000Y-58550000I100000J0D01*
G01*
X128950000Y-58550000D01*
G75*
G02*
X129050000Y-58650000I0J-100000D01*
G01*
G37*
G36*
G01*
X131050000Y-60650000D02*
X131050000Y-60850000D01*
G75*
G02*
X130950000Y-60950000I-100000J0D01*
G01*
X129575000Y-60950000D01*
G75*
G02*
X129475000Y-60850000I0J100000D01*
G01*
X129475000Y-60650000D01*
G75*
G02*
X129575000Y-60550000I100000J0D01*
G01*
X130950000Y-60550000D01*
G75*
G02*
X131050000Y-60650000I0J-100000D01*
G01*
G37*
G36*
G01*
X131050000Y-61150000D02*
X131050000Y-61350000D01*
G75*
G02*
X130950000Y-61450000I-100000J0D01*
G01*
X129575000Y-61450000D01*
G75*
G02*
X129475000Y-61350000I0J100000D01*
G01*
X129475000Y-61150000D01*
G75*
G02*
X129575000Y-61050000I100000J0D01*
G01*
X130950000Y-61050000D01*
G75*
G02*
X131050000Y-61150000I0J-100000D01*
G01*
G37*
G36*
G01*
X131050000Y-61650000D02*
X131050000Y-61850000D01*
G75*
G02*
X130950000Y-61950000I-100000J0D01*
G01*
X129575000Y-61950000D01*
G75*
G02*
X129475000Y-61850000I0J100000D01*
G01*
X129475000Y-61650000D01*
G75*
G02*
X129575000Y-61550000I100000J0D01*
G01*
X130950000Y-61550000D01*
G75*
G02*
X131050000Y-61650000I0J-100000D01*
G01*
G37*
G36*
G01*
X131050000Y-62150000D02*
X131050000Y-62350000D01*
G75*
G02*
X130950000Y-62450000I-100000J0D01*
G01*
X129575000Y-62450000D01*
G75*
G02*
X129475000Y-62350000I0J100000D01*
G01*
X129475000Y-62150000D01*
G75*
G02*
X129575000Y-62050000I100000J0D01*
G01*
X130950000Y-62050000D01*
G75*
G02*
X131050000Y-62150000I0J-100000D01*
G01*
G37*
G36*
G01*
X131050000Y-62650000D02*
X131050000Y-62850000D01*
G75*
G02*
X130950000Y-62950000I-100000J0D01*
G01*
X129575000Y-62950000D01*
G75*
G02*
X129475000Y-62850000I0J100000D01*
G01*
X129475000Y-62650000D01*
G75*
G02*
X129575000Y-62550000I100000J0D01*
G01*
X130950000Y-62550000D01*
G75*
G02*
X131050000Y-62650000I0J-100000D01*
G01*
G37*
G36*
G01*
X131050000Y-63150000D02*
X131050000Y-63350000D01*
G75*
G02*
X130950000Y-63450000I-100000J0D01*
G01*
X129575000Y-63450000D01*
G75*
G02*
X129475000Y-63350000I0J100000D01*
G01*
X129475000Y-63150000D01*
G75*
G02*
X129575000Y-63050000I100000J0D01*
G01*
X130950000Y-63050000D01*
G75*
G02*
X131050000Y-63150000I0J-100000D01*
G01*
G37*
G36*
G01*
X131050000Y-63650000D02*
X131050000Y-63850000D01*
G75*
G02*
X130950000Y-63950000I-100000J0D01*
G01*
X129575000Y-63950000D01*
G75*
G02*
X129475000Y-63850000I0J100000D01*
G01*
X129475000Y-63650000D01*
G75*
G02*
X129575000Y-63550000I100000J0D01*
G01*
X130950000Y-63550000D01*
G75*
G02*
X131050000Y-63650000I0J-100000D01*
G01*
G37*
G36*
G01*
X131050000Y-64150000D02*
X131050000Y-64350000D01*
G75*
G02*
X130950000Y-64450000I-100000J0D01*
G01*
X129575000Y-64450000D01*
G75*
G02*
X129475000Y-64350000I0J100000D01*
G01*
X129475000Y-64150000D01*
G75*
G02*
X129575000Y-64050000I100000J0D01*
G01*
X130950000Y-64050000D01*
G75*
G02*
X131050000Y-64150000I0J-100000D01*
G01*
G37*
G36*
G01*
X131050000Y-64650000D02*
X131050000Y-64850000D01*
G75*
G02*
X130950000Y-64950000I-100000J0D01*
G01*
X129575000Y-64950000D01*
G75*
G02*
X129475000Y-64850000I0J100000D01*
G01*
X129475000Y-64650000D01*
G75*
G02*
X129575000Y-64550000I100000J0D01*
G01*
X130950000Y-64550000D01*
G75*
G02*
X131050000Y-64650000I0J-100000D01*
G01*
G37*
G36*
G01*
X131050000Y-65150000D02*
X131050000Y-65350000D01*
G75*
G02*
X130950000Y-65450000I-100000J0D01*
G01*
X129575000Y-65450000D01*
G75*
G02*
X129475000Y-65350000I0J100000D01*
G01*
X129475000Y-65150000D01*
G75*
G02*
X129575000Y-65050000I100000J0D01*
G01*
X130950000Y-65050000D01*
G75*
G02*
X131050000Y-65150000I0J-100000D01*
G01*
G37*
G36*
G01*
X131050000Y-65650000D02*
X131050000Y-65850000D01*
G75*
G02*
X130950000Y-65950000I-100000J0D01*
G01*
X129575000Y-65950000D01*
G75*
G02*
X129475000Y-65850000I0J100000D01*
G01*
X129475000Y-65650000D01*
G75*
G02*
X129575000Y-65550000I100000J0D01*
G01*
X130950000Y-65550000D01*
G75*
G02*
X131050000Y-65650000I0J-100000D01*
G01*
G37*
G36*
G01*
X131050000Y-66150000D02*
X131050000Y-66350000D01*
G75*
G02*
X130950000Y-66450000I-100000J0D01*
G01*
X129575000Y-66450000D01*
G75*
G02*
X129475000Y-66350000I0J100000D01*
G01*
X129475000Y-66150000D01*
G75*
G02*
X129575000Y-66050000I100000J0D01*
G01*
X130950000Y-66050000D01*
G75*
G02*
X131050000Y-66150000I0J-100000D01*
G01*
G37*
D18*
X102250000Y-56530000D03*
D19*
X102250000Y-58250000D03*
X104450000Y-58250000D03*
X104450000Y-56350000D03*
D20*
X146000000Y-93350000D03*
X146000000Y-88750000D03*
X146000000Y-91050000D03*
D21*
X139700000Y-91050000D03*
D20*
X135000000Y-93400000D03*
X135000000Y-88800000D03*
X135000000Y-91100000D03*
D21*
X128700000Y-91100000D03*
D22*
X128350000Y-84800000D03*
X128350000Y-80550000D03*
D23*
X103800000Y-81800000D03*
X99300000Y-81800000D03*
X103800000Y-75300000D03*
X99300000Y-75300000D03*
X103800000Y-71250000D03*
X99300000Y-71250000D03*
X103800000Y-64750000D03*
X99300000Y-64750000D03*
G36*
G01*
X164231250Y-112700000D02*
X163668750Y-112700000D01*
G75*
G02*
X163425000Y-112456250I0J243750D01*
G01*
X163425000Y-111968750D01*
G75*
G02*
X163668750Y-111725000I243750J0D01*
G01*
X164231250Y-111725000D01*
G75*
G02*
X164475000Y-111968750I0J-243750D01*
G01*
X164475000Y-112456250D01*
G75*
G02*
X164231250Y-112700000I-243750J0D01*
G01*
G37*
G36*
G01*
X164231250Y-114275000D02*
X163668750Y-114275000D01*
G75*
G02*
X163425000Y-114031250I0J243750D01*
G01*
X163425000Y-113543750D01*
G75*
G02*
X163668750Y-113300000I243750J0D01*
G01*
X164231250Y-113300000D01*
G75*
G02*
X164475000Y-113543750I0J-243750D01*
G01*
X164475000Y-114031250D01*
G75*
G02*
X164231250Y-114275000I-243750J0D01*
G01*
G37*
G36*
G01*
X162081250Y-112700000D02*
X161518750Y-112700000D01*
G75*
G02*
X161275000Y-112456250I0J243750D01*
G01*
X161275000Y-111968750D01*
G75*
G02*
X161518750Y-111725000I243750J0D01*
G01*
X162081250Y-111725000D01*
G75*
G02*
X162325000Y-111968750I0J-243750D01*
G01*
X162325000Y-112456250D01*
G75*
G02*
X162081250Y-112700000I-243750J0D01*
G01*
G37*
G36*
G01*
X162081250Y-114275000D02*
X161518750Y-114275000D01*
G75*
G02*
X161275000Y-114031250I0J243750D01*
G01*
X161275000Y-113543750D01*
G75*
G02*
X161518750Y-113300000I243750J0D01*
G01*
X162081250Y-113300000D01*
G75*
G02*
X162325000Y-113543750I0J-243750D01*
G01*
X162325000Y-114031250D01*
G75*
G02*
X162081250Y-114275000I-243750J0D01*
G01*
G37*
G36*
G01*
X159831250Y-112700000D02*
X159268750Y-112700000D01*
G75*
G02*
X159025000Y-112456250I0J243750D01*
G01*
X159025000Y-111968750D01*
G75*
G02*
X159268750Y-111725000I243750J0D01*
G01*
X159831250Y-111725000D01*
G75*
G02*
X160075000Y-111968750I0J-243750D01*
G01*
X160075000Y-112456250D01*
G75*
G02*
X159831250Y-112700000I-243750J0D01*
G01*
G37*
G36*
G01*
X159831250Y-114275000D02*
X159268750Y-114275000D01*
G75*
G02*
X159025000Y-114031250I0J243750D01*
G01*
X159025000Y-113543750D01*
G75*
G02*
X159268750Y-113300000I243750J0D01*
G01*
X159831250Y-113300000D01*
G75*
G02*
X160075000Y-113543750I0J-243750D01*
G01*
X160075000Y-114031250D01*
G75*
G02*
X159831250Y-114275000I-243750J0D01*
G01*
G37*
G36*
G01*
X146631250Y-105300000D02*
X146068750Y-105300000D01*
G75*
G02*
X145825000Y-105056250I0J243750D01*
G01*
X145825000Y-104568750D01*
G75*
G02*
X146068750Y-104325000I243750J0D01*
G01*
X146631250Y-104325000D01*
G75*
G02*
X146875000Y-104568750I0J-243750D01*
G01*
X146875000Y-105056250D01*
G75*
G02*
X146631250Y-105300000I-243750J0D01*
G01*
G37*
G36*
G01*
X146631250Y-106875000D02*
X146068750Y-106875000D01*
G75*
G02*
X145825000Y-106631250I0J243750D01*
G01*
X145825000Y-106143750D01*
G75*
G02*
X146068750Y-105900000I243750J0D01*
G01*
X146631250Y-105900000D01*
G75*
G02*
X146875000Y-106143750I0J-243750D01*
G01*
X146875000Y-106631250D01*
G75*
G02*
X146631250Y-106875000I-243750J0D01*
G01*
G37*
G36*
G01*
X143968750Y-105900000D02*
X144531250Y-105900000D01*
G75*
G02*
X144775000Y-106143750I0J-243750D01*
G01*
X144775000Y-106631250D01*
G75*
G02*
X144531250Y-106875000I-243750J0D01*
G01*
X143968750Y-106875000D01*
G75*
G02*
X143725000Y-106631250I0J243750D01*
G01*
X143725000Y-106143750D01*
G75*
G02*
X143968750Y-105900000I243750J0D01*
G01*
G37*
G36*
G01*
X143968750Y-104325000D02*
X144531250Y-104325000D01*
G75*
G02*
X144775000Y-104568750I0J-243750D01*
G01*
X144775000Y-105056250D01*
G75*
G02*
X144531250Y-105300000I-243750J0D01*
G01*
X143968750Y-105300000D01*
G75*
G02*
X143725000Y-105056250I0J243750D01*
G01*
X143725000Y-104568750D01*
G75*
G02*
X143968750Y-104325000I243750J0D01*
G01*
G37*
G36*
G01*
X144531250Y-109100000D02*
X143968750Y-109100000D01*
G75*
G02*
X143725000Y-108856250I0J243750D01*
G01*
X143725000Y-108368750D01*
G75*
G02*
X143968750Y-108125000I243750J0D01*
G01*
X144531250Y-108125000D01*
G75*
G02*
X144775000Y-108368750I0J-243750D01*
G01*
X144775000Y-108856250D01*
G75*
G02*
X144531250Y-109100000I-243750J0D01*
G01*
G37*
G36*
G01*
X144531250Y-110675000D02*
X143968750Y-110675000D01*
G75*
G02*
X143725000Y-110431250I0J243750D01*
G01*
X143725000Y-109943750D01*
G75*
G02*
X143968750Y-109700000I243750J0D01*
G01*
X144531250Y-109700000D01*
G75*
G02*
X144775000Y-109943750I0J-243750D01*
G01*
X144775000Y-110431250D01*
G75*
G02*
X144531250Y-110675000I-243750J0D01*
G01*
G37*
G36*
G01*
X146068750Y-109700000D02*
X146631250Y-109700000D01*
G75*
G02*
X146875000Y-109943750I0J-243750D01*
G01*
X146875000Y-110431250D01*
G75*
G02*
X146631250Y-110675000I-243750J0D01*
G01*
X146068750Y-110675000D01*
G75*
G02*
X145825000Y-110431250I0J243750D01*
G01*
X145825000Y-109943750D01*
G75*
G02*
X146068750Y-109700000I243750J0D01*
G01*
G37*
G36*
G01*
X146068750Y-108125000D02*
X146631250Y-108125000D01*
G75*
G02*
X146875000Y-108368750I0J-243750D01*
G01*
X146875000Y-108856250D01*
G75*
G02*
X146631250Y-109100000I-243750J0D01*
G01*
X146068750Y-109100000D01*
G75*
G02*
X145825000Y-108856250I0J243750D01*
G01*
X145825000Y-108368750D01*
G75*
G02*
X146068750Y-108125000I243750J0D01*
G01*
G37*
G36*
G01*
X130668750Y-105400000D02*
X131231250Y-105400000D01*
G75*
G02*
X131475000Y-105643750I0J-243750D01*
G01*
X131475000Y-106131250D01*
G75*
G02*
X131231250Y-106375000I-243750J0D01*
G01*
X130668750Y-106375000D01*
G75*
G02*
X130425000Y-106131250I0J243750D01*
G01*
X130425000Y-105643750D01*
G75*
G02*
X130668750Y-105400000I243750J0D01*
G01*
G37*
G36*
G01*
X130668750Y-103825000D02*
X131231250Y-103825000D01*
G75*
G02*
X131475000Y-104068750I0J-243750D01*
G01*
X131475000Y-104556250D01*
G75*
G02*
X131231250Y-104800000I-243750J0D01*
G01*
X130668750Y-104800000D01*
G75*
G02*
X130425000Y-104556250I0J243750D01*
G01*
X130425000Y-104068750D01*
G75*
G02*
X130668750Y-103825000I243750J0D01*
G01*
G37*
G36*
G01*
X141000000Y-108368750D02*
X141000000Y-108931250D01*
G75*
G02*
X140756250Y-109175000I-243750J0D01*
G01*
X140268750Y-109175000D01*
G75*
G02*
X140025000Y-108931250I0J243750D01*
G01*
X140025000Y-108368750D01*
G75*
G02*
X140268750Y-108125000I243750J0D01*
G01*
X140756250Y-108125000D01*
G75*
G02*
X141000000Y-108368750I0J-243750D01*
G01*
G37*
G36*
G01*
X142575000Y-108368750D02*
X142575000Y-108931250D01*
G75*
G02*
X142331250Y-109175000I-243750J0D01*
G01*
X141843750Y-109175000D01*
G75*
G02*
X141600000Y-108931250I0J243750D01*
G01*
X141600000Y-108368750D01*
G75*
G02*
X141843750Y-108125000I243750J0D01*
G01*
X142331250Y-108125000D01*
G75*
G02*
X142575000Y-108368750I0J-243750D01*
G01*
G37*
G36*
G01*
X141000000Y-106118750D02*
X141000000Y-106681250D01*
G75*
G02*
X140756250Y-106925000I-243750J0D01*
G01*
X140268750Y-106925000D01*
G75*
G02*
X140025000Y-106681250I0J243750D01*
G01*
X140025000Y-106118750D01*
G75*
G02*
X140268750Y-105875000I243750J0D01*
G01*
X140756250Y-105875000D01*
G75*
G02*
X141000000Y-106118750I0J-243750D01*
G01*
G37*
G36*
G01*
X142575000Y-106118750D02*
X142575000Y-106681250D01*
G75*
G02*
X142331250Y-106925000I-243750J0D01*
G01*
X141843750Y-106925000D01*
G75*
G02*
X141600000Y-106681250I0J243750D01*
G01*
X141600000Y-106118750D01*
G75*
G02*
X141843750Y-105875000I243750J0D01*
G01*
X142331250Y-105875000D01*
G75*
G02*
X142575000Y-106118750I0J-243750D01*
G01*
G37*
G36*
G01*
X132918750Y-104200000D02*
X133481250Y-104200000D01*
G75*
G02*
X133725000Y-104443750I0J-243750D01*
G01*
X133725000Y-104931250D01*
G75*
G02*
X133481250Y-105175000I-243750J0D01*
G01*
X132918750Y-105175000D01*
G75*
G02*
X132675000Y-104931250I0J243750D01*
G01*
X132675000Y-104443750D01*
G75*
G02*
X132918750Y-104200000I243750J0D01*
G01*
G37*
G36*
G01*
X132918750Y-102625000D02*
X133481250Y-102625000D01*
G75*
G02*
X133725000Y-102868750I0J-243750D01*
G01*
X133725000Y-103356250D01*
G75*
G02*
X133481250Y-103600000I-243750J0D01*
G01*
X132918750Y-103600000D01*
G75*
G02*
X132675000Y-103356250I0J243750D01*
G01*
X132675000Y-102868750D01*
G75*
G02*
X132918750Y-102625000I243750J0D01*
G01*
G37*
G36*
G01*
X128418750Y-106587500D02*
X128981250Y-106587500D01*
G75*
G02*
X129225000Y-106831250I0J-243750D01*
G01*
X129225000Y-107318750D01*
G75*
G02*
X128981250Y-107562500I-243750J0D01*
G01*
X128418750Y-107562500D01*
G75*
G02*
X128175000Y-107318750I0J243750D01*
G01*
X128175000Y-106831250D01*
G75*
G02*
X128418750Y-106587500I243750J0D01*
G01*
G37*
G36*
G01*
X128418750Y-105012500D02*
X128981250Y-105012500D01*
G75*
G02*
X129225000Y-105256250I0J-243750D01*
G01*
X129225000Y-105743750D01*
G75*
G02*
X128981250Y-105987500I-243750J0D01*
G01*
X128418750Y-105987500D01*
G75*
G02*
X128175000Y-105743750I0J243750D01*
G01*
X128175000Y-105256250D01*
G75*
G02*
X128418750Y-105012500I243750J0D01*
G01*
G37*
G36*
G01*
X106818750Y-82100000D02*
X107381250Y-82100000D01*
G75*
G02*
X107625000Y-82343750I0J-243750D01*
G01*
X107625000Y-82831250D01*
G75*
G02*
X107381250Y-83075000I-243750J0D01*
G01*
X106818750Y-83075000D01*
G75*
G02*
X106575000Y-82831250I0J243750D01*
G01*
X106575000Y-82343750D01*
G75*
G02*
X106818750Y-82100000I243750J0D01*
G01*
G37*
G36*
G01*
X106818750Y-80525000D02*
X107381250Y-80525000D01*
G75*
G02*
X107625000Y-80768750I0J-243750D01*
G01*
X107625000Y-81256250D01*
G75*
G02*
X107381250Y-81500000I-243750J0D01*
G01*
X106818750Y-81500000D01*
G75*
G02*
X106575000Y-81256250I0J243750D01*
G01*
X106575000Y-80768750D01*
G75*
G02*
X106818750Y-80525000I243750J0D01*
G01*
G37*
G36*
G01*
X156600000Y-58131250D02*
X156600000Y-57568750D01*
G75*
G02*
X156843750Y-57325000I243750J0D01*
G01*
X157331250Y-57325000D01*
G75*
G02*
X157575000Y-57568750I0J-243750D01*
G01*
X157575000Y-58131250D01*
G75*
G02*
X157331250Y-58375000I-243750J0D01*
G01*
X156843750Y-58375000D01*
G75*
G02*
X156600000Y-58131250I0J243750D01*
G01*
G37*
G36*
G01*
X155025000Y-58131250D02*
X155025000Y-57568750D01*
G75*
G02*
X155268750Y-57325000I243750J0D01*
G01*
X155756250Y-57325000D01*
G75*
G02*
X156000000Y-57568750I0J-243750D01*
G01*
X156000000Y-58131250D01*
G75*
G02*
X155756250Y-58375000I-243750J0D01*
G01*
X155268750Y-58375000D01*
G75*
G02*
X155025000Y-58131250I0J243750D01*
G01*
G37*
G36*
G01*
X148700000Y-77918750D02*
X148700000Y-78481250D01*
G75*
G02*
X148456250Y-78725000I-243750J0D01*
G01*
X147968750Y-78725000D01*
G75*
G02*
X147725000Y-78481250I0J243750D01*
G01*
X147725000Y-77918750D01*
G75*
G02*
X147968750Y-77675000I243750J0D01*
G01*
X148456250Y-77675000D01*
G75*
G02*
X148700000Y-77918750I0J-243750D01*
G01*
G37*
G36*
G01*
X150275000Y-77918750D02*
X150275000Y-78481250D01*
G75*
G02*
X150031250Y-78725000I-243750J0D01*
G01*
X149543750Y-78725000D01*
G75*
G02*
X149300000Y-78481250I0J243750D01*
G01*
X149300000Y-77918750D01*
G75*
G02*
X149543750Y-77675000I243750J0D01*
G01*
X150031250Y-77675000D01*
G75*
G02*
X150275000Y-77918750I0J-243750D01*
G01*
G37*
G36*
G01*
X140200000Y-62131250D02*
X140200000Y-61568750D01*
G75*
G02*
X140443750Y-61325000I243750J0D01*
G01*
X140931250Y-61325000D01*
G75*
G02*
X141175000Y-61568750I0J-243750D01*
G01*
X141175000Y-62131250D01*
G75*
G02*
X140931250Y-62375000I-243750J0D01*
G01*
X140443750Y-62375000D01*
G75*
G02*
X140200000Y-62131250I0J243750D01*
G01*
G37*
G36*
G01*
X138625000Y-62131250D02*
X138625000Y-61568750D01*
G75*
G02*
X138868750Y-61325000I243750J0D01*
G01*
X139356250Y-61325000D01*
G75*
G02*
X139600000Y-61568750I0J-243750D01*
G01*
X139600000Y-62131250D01*
G75*
G02*
X139356250Y-62375000I-243750J0D01*
G01*
X138868750Y-62375000D01*
G75*
G02*
X138625000Y-62131250I0J243750D01*
G01*
G37*
G36*
G01*
X137581250Y-72600000D02*
X137018750Y-72600000D01*
G75*
G02*
X136775000Y-72356250I0J243750D01*
G01*
X136775000Y-71868750D01*
G75*
G02*
X137018750Y-71625000I243750J0D01*
G01*
X137581250Y-71625000D01*
G75*
G02*
X137825000Y-71868750I0J-243750D01*
G01*
X137825000Y-72356250D01*
G75*
G02*
X137581250Y-72600000I-243750J0D01*
G01*
G37*
G36*
G01*
X137581250Y-74175000D02*
X137018750Y-74175000D01*
G75*
G02*
X136775000Y-73931250I0J243750D01*
G01*
X136775000Y-73443750D01*
G75*
G02*
X137018750Y-73200000I243750J0D01*
G01*
X137581250Y-73200000D01*
G75*
G02*
X137825000Y-73443750I0J-243750D01*
G01*
X137825000Y-73931250D01*
G75*
G02*
X137581250Y-74175000I-243750J0D01*
G01*
G37*
G36*
G01*
X140200000Y-67381250D02*
X140200000Y-66818750D01*
G75*
G02*
X140443750Y-66575000I243750J0D01*
G01*
X140931250Y-66575000D01*
G75*
G02*
X141175000Y-66818750I0J-243750D01*
G01*
X141175000Y-67381250D01*
G75*
G02*
X140931250Y-67625000I-243750J0D01*
G01*
X140443750Y-67625000D01*
G75*
G02*
X140200000Y-67381250I0J243750D01*
G01*
G37*
G36*
G01*
X138625000Y-67381250D02*
X138625000Y-66818750D01*
G75*
G02*
X138868750Y-66575000I243750J0D01*
G01*
X139356250Y-66575000D01*
G75*
G02*
X139600000Y-66818750I0J-243750D01*
G01*
X139600000Y-67381250D01*
G75*
G02*
X139356250Y-67625000I-243750J0D01*
G01*
X138868750Y-67625000D01*
G75*
G02*
X138625000Y-67381250I0J243750D01*
G01*
G37*
G36*
G01*
X140200000Y-69681250D02*
X140200000Y-69118750D01*
G75*
G02*
X140443750Y-68875000I243750J0D01*
G01*
X140931250Y-68875000D01*
G75*
G02*
X141175000Y-69118750I0J-243750D01*
G01*
X141175000Y-69681250D01*
G75*
G02*
X140931250Y-69925000I-243750J0D01*
G01*
X140443750Y-69925000D01*
G75*
G02*
X140200000Y-69681250I0J243750D01*
G01*
G37*
G36*
G01*
X138625000Y-69681250D02*
X138625000Y-69118750D01*
G75*
G02*
X138868750Y-68875000I243750J0D01*
G01*
X139356250Y-68875000D01*
G75*
G02*
X139600000Y-69118750I0J-243750D01*
G01*
X139600000Y-69681250D01*
G75*
G02*
X139356250Y-69925000I-243750J0D01*
G01*
X138868750Y-69925000D01*
G75*
G02*
X138625000Y-69681250I0J243750D01*
G01*
G37*
G36*
G01*
X140200000Y-72131250D02*
X140200000Y-71568750D01*
G75*
G02*
X140443750Y-71325000I243750J0D01*
G01*
X140931250Y-71325000D01*
G75*
G02*
X141175000Y-71568750I0J-243750D01*
G01*
X141175000Y-72131250D01*
G75*
G02*
X140931250Y-72375000I-243750J0D01*
G01*
X140443750Y-72375000D01*
G75*
G02*
X140200000Y-72131250I0J243750D01*
G01*
G37*
G36*
G01*
X138625000Y-72131250D02*
X138625000Y-71568750D01*
G75*
G02*
X138868750Y-71325000I243750J0D01*
G01*
X139356250Y-71325000D01*
G75*
G02*
X139600000Y-71568750I0J-243750D01*
G01*
X139600000Y-72131250D01*
G75*
G02*
X139356250Y-72375000I-243750J0D01*
G01*
X138868750Y-72375000D01*
G75*
G02*
X138625000Y-72131250I0J243750D01*
G01*
G37*
G36*
G01*
X134900000Y-67581250D02*
X134900000Y-67018750D01*
G75*
G02*
X135143750Y-66775000I243750J0D01*
G01*
X135631250Y-66775000D01*
G75*
G02*
X135875000Y-67018750I0J-243750D01*
G01*
X135875000Y-67581250D01*
G75*
G02*
X135631250Y-67825000I-243750J0D01*
G01*
X135143750Y-67825000D01*
G75*
G02*
X134900000Y-67581250I0J243750D01*
G01*
G37*
G36*
G01*
X133325000Y-67581250D02*
X133325000Y-67018750D01*
G75*
G02*
X133568750Y-66775000I243750J0D01*
G01*
X134056250Y-66775000D01*
G75*
G02*
X134300000Y-67018750I0J-243750D01*
G01*
X134300000Y-67581250D01*
G75*
G02*
X134056250Y-67825000I-243750J0D01*
G01*
X133568750Y-67825000D01*
G75*
G02*
X133325000Y-67581250I0J243750D01*
G01*
G37*
G36*
G01*
X134900000Y-63881250D02*
X134900000Y-63318750D01*
G75*
G02*
X135143750Y-63075000I243750J0D01*
G01*
X135631250Y-63075000D01*
G75*
G02*
X135875000Y-63318750I0J-243750D01*
G01*
X135875000Y-63881250D01*
G75*
G02*
X135631250Y-64125000I-243750J0D01*
G01*
X135143750Y-64125000D01*
G75*
G02*
X134900000Y-63881250I0J243750D01*
G01*
G37*
G36*
G01*
X133325000Y-63881250D02*
X133325000Y-63318750D01*
G75*
G02*
X133568750Y-63075000I243750J0D01*
G01*
X134056250Y-63075000D01*
G75*
G02*
X134300000Y-63318750I0J-243750D01*
G01*
X134300000Y-63881250D01*
G75*
G02*
X134056250Y-64125000I-243750J0D01*
G01*
X133568750Y-64125000D01*
G75*
G02*
X133325000Y-63881250I0J243750D01*
G01*
G37*
G36*
G01*
X132018750Y-61250000D02*
X132581250Y-61250000D01*
G75*
G02*
X132825000Y-61493750I0J-243750D01*
G01*
X132825000Y-61981250D01*
G75*
G02*
X132581250Y-62225000I-243750J0D01*
G01*
X132018750Y-62225000D01*
G75*
G02*
X131775000Y-61981250I0J243750D01*
G01*
X131775000Y-61493750D01*
G75*
G02*
X132018750Y-61250000I243750J0D01*
G01*
G37*
G36*
G01*
X132018750Y-59675000D02*
X132581250Y-59675000D01*
G75*
G02*
X132825000Y-59918750I0J-243750D01*
G01*
X132825000Y-60406250D01*
G75*
G02*
X132581250Y-60650000I-243750J0D01*
G01*
X132018750Y-60650000D01*
G75*
G02*
X131775000Y-60406250I0J243750D01*
G01*
X131775000Y-59918750D01*
G75*
G02*
X132018750Y-59675000I243750J0D01*
G01*
G37*
G36*
G01*
X134900000Y-69281250D02*
X134900000Y-68718750D01*
G75*
G02*
X135143750Y-68475000I243750J0D01*
G01*
X135631250Y-68475000D01*
G75*
G02*
X135875000Y-68718750I0J-243750D01*
G01*
X135875000Y-69281250D01*
G75*
G02*
X135631250Y-69525000I-243750J0D01*
G01*
X135143750Y-69525000D01*
G75*
G02*
X134900000Y-69281250I0J243750D01*
G01*
G37*
G36*
G01*
X133325000Y-69281250D02*
X133325000Y-68718750D01*
G75*
G02*
X133568750Y-68475000I243750J0D01*
G01*
X134056250Y-68475000D01*
G75*
G02*
X134300000Y-68718750I0J-243750D01*
G01*
X134300000Y-69281250D01*
G75*
G02*
X134056250Y-69525000I-243750J0D01*
G01*
X133568750Y-69525000D01*
G75*
G02*
X133325000Y-69281250I0J243750D01*
G01*
G37*
G36*
G01*
X134900000Y-65631250D02*
X134900000Y-65068750D01*
G75*
G02*
X135143750Y-64825000I243750J0D01*
G01*
X135631250Y-64825000D01*
G75*
G02*
X135875000Y-65068750I0J-243750D01*
G01*
X135875000Y-65631250D01*
G75*
G02*
X135631250Y-65875000I-243750J0D01*
G01*
X135143750Y-65875000D01*
G75*
G02*
X134900000Y-65631250I0J243750D01*
G01*
G37*
G36*
G01*
X133325000Y-65631250D02*
X133325000Y-65068750D01*
G75*
G02*
X133568750Y-64825000I243750J0D01*
G01*
X134056250Y-64825000D01*
G75*
G02*
X134300000Y-65068750I0J-243750D01*
G01*
X134300000Y-65631250D01*
G75*
G02*
X134056250Y-65875000I-243750J0D01*
G01*
X133568750Y-65875000D01*
G75*
G02*
X133325000Y-65631250I0J243750D01*
G01*
G37*
G36*
G01*
X125050000Y-73368750D02*
X125050000Y-73931250D01*
G75*
G02*
X124806250Y-74175000I-243750J0D01*
G01*
X124318750Y-74175000D01*
G75*
G02*
X124075000Y-73931250I0J243750D01*
G01*
X124075000Y-73368750D01*
G75*
G02*
X124318750Y-73125000I243750J0D01*
G01*
X124806250Y-73125000D01*
G75*
G02*
X125050000Y-73368750I0J-243750D01*
G01*
G37*
G36*
G01*
X126625000Y-73368750D02*
X126625000Y-73931250D01*
G75*
G02*
X126381250Y-74175000I-243750J0D01*
G01*
X125893750Y-74175000D01*
G75*
G02*
X125650000Y-73931250I0J243750D01*
G01*
X125650000Y-73368750D01*
G75*
G02*
X125893750Y-73125000I243750J0D01*
G01*
X126381250Y-73125000D01*
G75*
G02*
X126625000Y-73368750I0J-243750D01*
G01*
G37*
G36*
G01*
X127937500Y-74968750D02*
X127937500Y-75531250D01*
G75*
G02*
X127693750Y-75775000I-243750J0D01*
G01*
X127206250Y-75775000D01*
G75*
G02*
X126962500Y-75531250I0J243750D01*
G01*
X126962500Y-74968750D01*
G75*
G02*
X127206250Y-74725000I243750J0D01*
G01*
X127693750Y-74725000D01*
G75*
G02*
X127937500Y-74968750I0J-243750D01*
G01*
G37*
G36*
G01*
X126362500Y-74968750D02*
X126362500Y-75531250D01*
G75*
G02*
X126118750Y-75775000I-243750J0D01*
G01*
X125631250Y-75775000D01*
G75*
G02*
X125387500Y-75531250I0J243750D01*
G01*
X125387500Y-74968750D01*
G75*
G02*
X125631250Y-74725000I243750J0D01*
G01*
X126118750Y-74725000D01*
G75*
G02*
X126362500Y-74968750I0J-243750D01*
G01*
G37*
G36*
G01*
X127650000Y-76568750D02*
X127650000Y-77131250D01*
G75*
G02*
X127406250Y-77375000I-243750J0D01*
G01*
X126918750Y-77375000D01*
G75*
G02*
X126675000Y-77131250I0J243750D01*
G01*
X126675000Y-76568750D01*
G75*
G02*
X126918750Y-76325000I243750J0D01*
G01*
X127406250Y-76325000D01*
G75*
G02*
X127650000Y-76568750I0J-243750D01*
G01*
G37*
G36*
G01*
X129225000Y-76568750D02*
X129225000Y-77131250D01*
G75*
G02*
X128981250Y-77375000I-243750J0D01*
G01*
X128493750Y-77375000D01*
G75*
G02*
X128250000Y-77131250I0J243750D01*
G01*
X128250000Y-76568750D01*
G75*
G02*
X128493750Y-76325000I243750J0D01*
G01*
X128981250Y-76325000D01*
G75*
G02*
X129225000Y-76568750I0J-243750D01*
G01*
G37*
G36*
G01*
X114281250Y-69250000D02*
X113718750Y-69250000D01*
G75*
G02*
X113475000Y-69006250I0J243750D01*
G01*
X113475000Y-68518750D01*
G75*
G02*
X113718750Y-68275000I243750J0D01*
G01*
X114281250Y-68275000D01*
G75*
G02*
X114525000Y-68518750I0J-243750D01*
G01*
X114525000Y-69006250D01*
G75*
G02*
X114281250Y-69250000I-243750J0D01*
G01*
G37*
G36*
G01*
X114281250Y-70825000D02*
X113718750Y-70825000D01*
G75*
G02*
X113475000Y-70581250I0J243750D01*
G01*
X113475000Y-70093750D01*
G75*
G02*
X113718750Y-69850000I243750J0D01*
G01*
X114281250Y-69850000D01*
G75*
G02*
X114525000Y-70093750I0J-243750D01*
G01*
X114525000Y-70581250D01*
G75*
G02*
X114281250Y-70825000I-243750J0D01*
G01*
G37*
G36*
G01*
X102331250Y-62375000D02*
X101768750Y-62375000D01*
G75*
G02*
X101525000Y-62131250I0J243750D01*
G01*
X101525000Y-61643750D01*
G75*
G02*
X101768750Y-61400000I243750J0D01*
G01*
X102331250Y-61400000D01*
G75*
G02*
X102575000Y-61643750I0J-243750D01*
G01*
X102575000Y-62131250D01*
G75*
G02*
X102331250Y-62375000I-243750J0D01*
G01*
G37*
G36*
G01*
X102331250Y-60800000D02*
X101768750Y-60800000D01*
G75*
G02*
X101525000Y-60556250I0J243750D01*
G01*
X101525000Y-60068750D01*
G75*
G02*
X101768750Y-59825000I243750J0D01*
G01*
X102331250Y-59825000D01*
G75*
G02*
X102575000Y-60068750I0J-243750D01*
G01*
X102575000Y-60556250D01*
G75*
G02*
X102331250Y-60800000I-243750J0D01*
G01*
G37*
G36*
G01*
X118950000Y-62831250D02*
X118950000Y-62268750D01*
G75*
G02*
X119193750Y-62025000I243750J0D01*
G01*
X119681250Y-62025000D01*
G75*
G02*
X119925000Y-62268750I0J-243750D01*
G01*
X119925000Y-62831250D01*
G75*
G02*
X119681250Y-63075000I-243750J0D01*
G01*
X119193750Y-63075000D01*
G75*
G02*
X118950000Y-62831250I0J243750D01*
G01*
G37*
G36*
G01*
X117375000Y-62831250D02*
X117375000Y-62268750D01*
G75*
G02*
X117618750Y-62025000I243750J0D01*
G01*
X118106250Y-62025000D01*
G75*
G02*
X118350000Y-62268750I0J-243750D01*
G01*
X118350000Y-62831250D01*
G75*
G02*
X118106250Y-63075000I-243750J0D01*
G01*
X117618750Y-63075000D01*
G75*
G02*
X117375000Y-62831250I0J243750D01*
G01*
G37*
G36*
G01*
X122475000Y-72331250D02*
X122475000Y-71768750D01*
G75*
G02*
X122718750Y-71525000I243750J0D01*
G01*
X123206250Y-71525000D01*
G75*
G02*
X123450000Y-71768750I0J-243750D01*
G01*
X123450000Y-72331250D01*
G75*
G02*
X123206250Y-72575000I-243750J0D01*
G01*
X122718750Y-72575000D01*
G75*
G02*
X122475000Y-72331250I0J243750D01*
G01*
G37*
G36*
G01*
X124050000Y-72331250D02*
X124050000Y-71768750D01*
G75*
G02*
X124293750Y-71525000I243750J0D01*
G01*
X124781250Y-71525000D01*
G75*
G02*
X125025000Y-71768750I0J-243750D01*
G01*
X125025000Y-72331250D01*
G75*
G02*
X124781250Y-72575000I-243750J0D01*
G01*
X124293750Y-72575000D01*
G75*
G02*
X124050000Y-72331250I0J243750D01*
G01*
G37*
G36*
G01*
X118181250Y-59550000D02*
X117618750Y-59550000D01*
G75*
G02*
X117375000Y-59306250I0J243750D01*
G01*
X117375000Y-58818750D01*
G75*
G02*
X117618750Y-58575000I243750J0D01*
G01*
X118181250Y-58575000D01*
G75*
G02*
X118425000Y-58818750I0J-243750D01*
G01*
X118425000Y-59306250D01*
G75*
G02*
X118181250Y-59550000I-243750J0D01*
G01*
G37*
G36*
G01*
X118181250Y-61125000D02*
X117618750Y-61125000D01*
G75*
G02*
X117375000Y-60881250I0J243750D01*
G01*
X117375000Y-60393750D01*
G75*
G02*
X117618750Y-60150000I243750J0D01*
G01*
X118181250Y-60150000D01*
G75*
G02*
X118425000Y-60393750I0J-243750D01*
G01*
X118425000Y-60881250D01*
G75*
G02*
X118181250Y-61125000I-243750J0D01*
G01*
G37*
G36*
G01*
X100231250Y-58825000D02*
X99668750Y-58825000D01*
G75*
G02*
X99425000Y-58581250I0J243750D01*
G01*
X99425000Y-58093750D01*
G75*
G02*
X99668750Y-57850000I243750J0D01*
G01*
X100231250Y-57850000D01*
G75*
G02*
X100475000Y-58093750I0J-243750D01*
G01*
X100475000Y-58581250D01*
G75*
G02*
X100231250Y-58825000I-243750J0D01*
G01*
G37*
G36*
G01*
X100231250Y-57250000D02*
X99668750Y-57250000D01*
G75*
G02*
X99425000Y-57006250I0J243750D01*
G01*
X99425000Y-56518750D01*
G75*
G02*
X99668750Y-56275000I243750J0D01*
G01*
X100231250Y-56275000D01*
G75*
G02*
X100475000Y-56518750I0J-243750D01*
G01*
X100475000Y-57006250D01*
G75*
G02*
X100231250Y-57250000I-243750J0D01*
G01*
G37*
G36*
G01*
X104981250Y-62375000D02*
X104418750Y-62375000D01*
G75*
G02*
X104175000Y-62131250I0J243750D01*
G01*
X104175000Y-61643750D01*
G75*
G02*
X104418750Y-61400000I243750J0D01*
G01*
X104981250Y-61400000D01*
G75*
G02*
X105225000Y-61643750I0J-243750D01*
G01*
X105225000Y-62131250D01*
G75*
G02*
X104981250Y-62375000I-243750J0D01*
G01*
G37*
G36*
G01*
X104981250Y-60800000D02*
X104418750Y-60800000D01*
G75*
G02*
X104175000Y-60556250I0J243750D01*
G01*
X104175000Y-60068750D01*
G75*
G02*
X104418750Y-59825000I243750J0D01*
G01*
X104981250Y-59825000D01*
G75*
G02*
X105225000Y-60068750I0J-243750D01*
G01*
X105225000Y-60556250D01*
G75*
G02*
X104981250Y-60800000I-243750J0D01*
G01*
G37*
D24*
X144900000Y-79300000D03*
D25*
X142360000Y-79300000D03*
D24*
X142400000Y-83150000D03*
D25*
X144940000Y-83150000D03*
X126200000Y-51190000D03*
D24*
X126200000Y-48650000D03*
D25*
X122250000Y-51190000D03*
D24*
X122250000Y-48650000D03*
D25*
X130150000Y-51190000D03*
D24*
X130150000Y-48650000D03*
D26*
X154310000Y-97800000D03*
X156850000Y-98820000D03*
X154310000Y-99840000D03*
X156850000Y-100860000D03*
X156850000Y-102900000D03*
X154310000Y-101880000D03*
D27*
X159150000Y-94350000D03*
X159150000Y-106350000D03*
D25*
X123200000Y-85120000D03*
X123200000Y-87660000D03*
X123200000Y-90200000D03*
X123200000Y-92740000D03*
D24*
X123200000Y-95280000D03*
D28*
X132530000Y-117250000D03*
X135070000Y-117250000D03*
X137610000Y-117250000D03*
G36*
G01*
X141070000Y-116369367D02*
X141070000Y-118130633D01*
G75*
G02*
X140805633Y-118395000I-264367J0D01*
G01*
X139494367Y-118395000D01*
G75*
G02*
X139230000Y-118130633I0J264367D01*
G01*
X139230000Y-116369367D01*
G75*
G02*
X139494367Y-116105000I264367J0D01*
G01*
X140805633Y-116105000D01*
G75*
G02*
X141070000Y-116369367I0J-264367D01*
G01*
G37*
D24*
X108150000Y-89800000D03*
D25*
X108150000Y-92340000D03*
X128430000Y-116310000D03*
X128430000Y-118850000D03*
X125890000Y-116310000D03*
X125890000Y-118850000D03*
X123350000Y-116310000D03*
D24*
X123350000Y-118850000D03*
G36*
G01*
X122218750Y-101487500D02*
X123181250Y-101487500D01*
G75*
G02*
X123450000Y-101756250I0J-268750D01*
G01*
X123450000Y-102293750D01*
G75*
G02*
X123181250Y-102562500I-268750J0D01*
G01*
X122218750Y-102562500D01*
G75*
G02*
X121950000Y-102293750I0J268750D01*
G01*
X121950000Y-101756250D01*
G75*
G02*
X122218750Y-101487500I268750J0D01*
G01*
G37*
G36*
G01*
X122218750Y-99612500D02*
X123181250Y-99612500D01*
G75*
G02*
X123450000Y-99881250I0J-268750D01*
G01*
X123450000Y-100418750D01*
G75*
G02*
X123181250Y-100687500I-268750J0D01*
G01*
X122218750Y-100687500D01*
G75*
G02*
X121950000Y-100418750I0J268750D01*
G01*
X121950000Y-99881250D01*
G75*
G02*
X122218750Y-99612500I268750J0D01*
G01*
G37*
D29*
X137750000Y-77780000D03*
D30*
X137750000Y-85400000D03*
G36*
G01*
X117875000Y-70018750D02*
X117875000Y-70581250D01*
G75*
G02*
X117631250Y-70825000I-243750J0D01*
G01*
X117143750Y-70825000D01*
G75*
G02*
X116900000Y-70581250I0J243750D01*
G01*
X116900000Y-70018750D01*
G75*
G02*
X117143750Y-69775000I243750J0D01*
G01*
X117631250Y-69775000D01*
G75*
G02*
X117875000Y-70018750I0J-243750D01*
G01*
G37*
G36*
G01*
X116300000Y-70018750D02*
X116300000Y-70581250D01*
G75*
G02*
X116056250Y-70825000I-243750J0D01*
G01*
X115568750Y-70825000D01*
G75*
G02*
X115325000Y-70581250I0J243750D01*
G01*
X115325000Y-70018750D01*
G75*
G02*
X115568750Y-69775000I243750J0D01*
G01*
X116056250Y-69775000D01*
G75*
G02*
X116300000Y-70018750I0J-243750D01*
G01*
G37*
G36*
G01*
X146631250Y-101800000D02*
X146068750Y-101800000D01*
G75*
G02*
X145825000Y-101556250I0J243750D01*
G01*
X145825000Y-101068750D01*
G75*
G02*
X146068750Y-100825000I243750J0D01*
G01*
X146631250Y-100825000D01*
G75*
G02*
X146875000Y-101068750I0J-243750D01*
G01*
X146875000Y-101556250D01*
G75*
G02*
X146631250Y-101800000I-243750J0D01*
G01*
G37*
G36*
G01*
X146631250Y-103375000D02*
X146068750Y-103375000D01*
G75*
G02*
X145825000Y-103131250I0J243750D01*
G01*
X145825000Y-102643750D01*
G75*
G02*
X146068750Y-102400000I243750J0D01*
G01*
X146631250Y-102400000D01*
G75*
G02*
X146875000Y-102643750I0J-243750D01*
G01*
X146875000Y-103131250D01*
G75*
G02*
X146631250Y-103375000I-243750J0D01*
G01*
G37*
G36*
G01*
X146068750Y-113250000D02*
X146631250Y-113250000D01*
G75*
G02*
X146875000Y-113493750I0J-243750D01*
G01*
X146875000Y-113981250D01*
G75*
G02*
X146631250Y-114225000I-243750J0D01*
G01*
X146068750Y-114225000D01*
G75*
G02*
X145825000Y-113981250I0J243750D01*
G01*
X145825000Y-113493750D01*
G75*
G02*
X146068750Y-113250000I243750J0D01*
G01*
G37*
G36*
G01*
X146068750Y-111675000D02*
X146631250Y-111675000D01*
G75*
G02*
X146875000Y-111918750I0J-243750D01*
G01*
X146875000Y-112406250D01*
G75*
G02*
X146631250Y-112650000I-243750J0D01*
G01*
X146068750Y-112650000D01*
G75*
G02*
X145825000Y-112406250I0J243750D01*
G01*
X145825000Y-111918750D01*
G75*
G02*
X146068750Y-111675000I243750J0D01*
G01*
G37*
G36*
G01*
X120718750Y-75875000D02*
X121281250Y-75875000D01*
G75*
G02*
X121525000Y-76118750I0J-243750D01*
G01*
X121525000Y-76606250D01*
G75*
G02*
X121281250Y-76850000I-243750J0D01*
G01*
X120718750Y-76850000D01*
G75*
G02*
X120475000Y-76606250I0J243750D01*
G01*
X120475000Y-76118750D01*
G75*
G02*
X120718750Y-75875000I243750J0D01*
G01*
G37*
G36*
G01*
X120718750Y-77450000D02*
X121281250Y-77450000D01*
G75*
G02*
X121525000Y-77693750I0J-243750D01*
G01*
X121525000Y-78181250D01*
G75*
G02*
X121281250Y-78425000I-243750J0D01*
G01*
X120718750Y-78425000D01*
G75*
G02*
X120475000Y-78181250I0J243750D01*
G01*
X120475000Y-77693750D01*
G75*
G02*
X120718750Y-77450000I243750J0D01*
G01*
G37*
G36*
G01*
X137318750Y-111400000D02*
X137881250Y-111400000D01*
G75*
G02*
X138125000Y-111643750I0J-243750D01*
G01*
X138125000Y-112131250D01*
G75*
G02*
X137881250Y-112375000I-243750J0D01*
G01*
X137318750Y-112375000D01*
G75*
G02*
X137075000Y-112131250I0J243750D01*
G01*
X137075000Y-111643750D01*
G75*
G02*
X137318750Y-111400000I243750J0D01*
G01*
G37*
G36*
G01*
X137318750Y-109825000D02*
X137881250Y-109825000D01*
G75*
G02*
X138125000Y-110068750I0J-243750D01*
G01*
X138125000Y-110556250D01*
G75*
G02*
X137881250Y-110800000I-243750J0D01*
G01*
X137318750Y-110800000D01*
G75*
G02*
X137075000Y-110556250I0J243750D01*
G01*
X137075000Y-110068750D01*
G75*
G02*
X137318750Y-109825000I243750J0D01*
G01*
G37*
G36*
G01*
X132918750Y-111400000D02*
X133481250Y-111400000D01*
G75*
G02*
X133725000Y-111643750I0J-243750D01*
G01*
X133725000Y-112131250D01*
G75*
G02*
X133481250Y-112375000I-243750J0D01*
G01*
X132918750Y-112375000D01*
G75*
G02*
X132675000Y-112131250I0J243750D01*
G01*
X132675000Y-111643750D01*
G75*
G02*
X132918750Y-111400000I243750J0D01*
G01*
G37*
G36*
G01*
X132918750Y-109825000D02*
X133481250Y-109825000D01*
G75*
G02*
X133725000Y-110068750I0J-243750D01*
G01*
X133725000Y-110556250D01*
G75*
G02*
X133481250Y-110800000I-243750J0D01*
G01*
X132918750Y-110800000D01*
G75*
G02*
X132675000Y-110556250I0J243750D01*
G01*
X132675000Y-110068750D01*
G75*
G02*
X132918750Y-109825000I243750J0D01*
G01*
G37*
G36*
G01*
X103831250Y-106950000D02*
X103268750Y-106950000D01*
G75*
G02*
X103025000Y-106706250I0J243750D01*
G01*
X103025000Y-106218750D01*
G75*
G02*
X103268750Y-105975000I243750J0D01*
G01*
X103831250Y-105975000D01*
G75*
G02*
X104075000Y-106218750I0J-243750D01*
G01*
X104075000Y-106706250D01*
G75*
G02*
X103831250Y-106950000I-243750J0D01*
G01*
G37*
G36*
G01*
X103831250Y-108525000D02*
X103268750Y-108525000D01*
G75*
G02*
X103025000Y-108281250I0J243750D01*
G01*
X103025000Y-107793750D01*
G75*
G02*
X103268750Y-107550000I243750J0D01*
G01*
X103831250Y-107550000D01*
G75*
G02*
X104075000Y-107793750I0J-243750D01*
G01*
X104075000Y-108281250D01*
G75*
G02*
X103831250Y-108525000I-243750J0D01*
G01*
G37*
G36*
G01*
X103831250Y-103600000D02*
X103268750Y-103600000D01*
G75*
G02*
X103025000Y-103356250I0J243750D01*
G01*
X103025000Y-102868750D01*
G75*
G02*
X103268750Y-102625000I243750J0D01*
G01*
X103831250Y-102625000D01*
G75*
G02*
X104075000Y-102868750I0J-243750D01*
G01*
X104075000Y-103356250D01*
G75*
G02*
X103831250Y-103600000I-243750J0D01*
G01*
G37*
G36*
G01*
X103831250Y-105175000D02*
X103268750Y-105175000D01*
G75*
G02*
X103025000Y-104931250I0J243750D01*
G01*
X103025000Y-104443750D01*
G75*
G02*
X103268750Y-104200000I243750J0D01*
G01*
X103831250Y-104200000D01*
G75*
G02*
X104075000Y-104443750I0J-243750D01*
G01*
X104075000Y-104931250D01*
G75*
G02*
X103831250Y-105175000I-243750J0D01*
G01*
G37*
G36*
G01*
X122781250Y-104387500D02*
X122218750Y-104387500D01*
G75*
G02*
X121975000Y-104143750I0J243750D01*
G01*
X121975000Y-103656250D01*
G75*
G02*
X122218750Y-103412500I243750J0D01*
G01*
X122781250Y-103412500D01*
G75*
G02*
X123025000Y-103656250I0J-243750D01*
G01*
X123025000Y-104143750D01*
G75*
G02*
X122781250Y-104387500I-243750J0D01*
G01*
G37*
G36*
G01*
X122781250Y-105962500D02*
X122218750Y-105962500D01*
G75*
G02*
X121975000Y-105718750I0J243750D01*
G01*
X121975000Y-105231250D01*
G75*
G02*
X122218750Y-104987500I243750J0D01*
G01*
X122781250Y-104987500D01*
G75*
G02*
X123025000Y-105231250I0J-243750D01*
G01*
X123025000Y-105718750D01*
G75*
G02*
X122781250Y-105962500I-243750J0D01*
G01*
G37*
G36*
G01*
X108100000Y-96918750D02*
X108100000Y-97481250D01*
G75*
G02*
X107856250Y-97725000I-243750J0D01*
G01*
X107368750Y-97725000D01*
G75*
G02*
X107125000Y-97481250I0J243750D01*
G01*
X107125000Y-96918750D01*
G75*
G02*
X107368750Y-96675000I243750J0D01*
G01*
X107856250Y-96675000D01*
G75*
G02*
X108100000Y-96918750I0J-243750D01*
G01*
G37*
G36*
G01*
X109675000Y-96918750D02*
X109675000Y-97481250D01*
G75*
G02*
X109431250Y-97725000I-243750J0D01*
G01*
X108943750Y-97725000D01*
G75*
G02*
X108700000Y-97481250I0J243750D01*
G01*
X108700000Y-96918750D01*
G75*
G02*
X108943750Y-96675000I243750J0D01*
G01*
X109431250Y-96675000D01*
G75*
G02*
X109675000Y-96918750I0J-243750D01*
G01*
G37*
G36*
G01*
X108100000Y-95168750D02*
X108100000Y-95731250D01*
G75*
G02*
X107856250Y-95975000I-243750J0D01*
G01*
X107368750Y-95975000D01*
G75*
G02*
X107125000Y-95731250I0J243750D01*
G01*
X107125000Y-95168750D01*
G75*
G02*
X107368750Y-94925000I243750J0D01*
G01*
X107856250Y-94925000D01*
G75*
G02*
X108100000Y-95168750I0J-243750D01*
G01*
G37*
G36*
G01*
X109675000Y-95168750D02*
X109675000Y-95731250D01*
G75*
G02*
X109431250Y-95975000I-243750J0D01*
G01*
X108943750Y-95975000D01*
G75*
G02*
X108700000Y-95731250I0J243750D01*
G01*
X108700000Y-95168750D01*
G75*
G02*
X108943750Y-94925000I243750J0D01*
G01*
X109431250Y-94925000D01*
G75*
G02*
X109675000Y-95168750I0J-243750D01*
G01*
G37*
G36*
G01*
X140200000Y-73931250D02*
X140200000Y-73368750D01*
G75*
G02*
X140443750Y-73125000I243750J0D01*
G01*
X140931250Y-73125000D01*
G75*
G02*
X141175000Y-73368750I0J-243750D01*
G01*
X141175000Y-73931250D01*
G75*
G02*
X140931250Y-74175000I-243750J0D01*
G01*
X140443750Y-74175000D01*
G75*
G02*
X140200000Y-73931250I0J243750D01*
G01*
G37*
G36*
G01*
X138625000Y-73931250D02*
X138625000Y-73368750D01*
G75*
G02*
X138868750Y-73125000I243750J0D01*
G01*
X139356250Y-73125000D01*
G75*
G02*
X139600000Y-73368750I0J-243750D01*
G01*
X139600000Y-73931250D01*
G75*
G02*
X139356250Y-74175000I-243750J0D01*
G01*
X138868750Y-74175000D01*
G75*
G02*
X138625000Y-73931250I0J243750D01*
G01*
G37*
D31*
X133500000Y-80100000D03*
D32*
X133500000Y-82100000D03*
G36*
G01*
X139600000Y-65068750D02*
X139600000Y-65631250D01*
G75*
G02*
X139356250Y-65875000I-243750J0D01*
G01*
X138868750Y-65875000D01*
G75*
G02*
X138625000Y-65631250I0J243750D01*
G01*
X138625000Y-65068750D01*
G75*
G02*
X138868750Y-64825000I243750J0D01*
G01*
X139356250Y-64825000D01*
G75*
G02*
X139600000Y-65068750I0J-243750D01*
G01*
G37*
G36*
G01*
X141175000Y-65068750D02*
X141175000Y-65631250D01*
G75*
G02*
X140931250Y-65875000I-243750J0D01*
G01*
X140443750Y-65875000D01*
G75*
G02*
X140200000Y-65631250I0J243750D01*
G01*
X140200000Y-65068750D01*
G75*
G02*
X140443750Y-64825000I243750J0D01*
G01*
X140931250Y-64825000D01*
G75*
G02*
X141175000Y-65068750I0J-243750D01*
G01*
G37*
G36*
G01*
X139600000Y-63318750D02*
X139600000Y-63881250D01*
G75*
G02*
X139356250Y-64125000I-243750J0D01*
G01*
X138868750Y-64125000D01*
G75*
G02*
X138625000Y-63881250I0J243750D01*
G01*
X138625000Y-63318750D01*
G75*
G02*
X138868750Y-63075000I243750J0D01*
G01*
X139356250Y-63075000D01*
G75*
G02*
X139600000Y-63318750I0J-243750D01*
G01*
G37*
G36*
G01*
X141175000Y-63318750D02*
X141175000Y-63881250D01*
G75*
G02*
X140931250Y-64125000I-243750J0D01*
G01*
X140443750Y-64125000D01*
G75*
G02*
X140200000Y-63881250I0J243750D01*
G01*
X140200000Y-63318750D01*
G75*
G02*
X140443750Y-63075000I243750J0D01*
G01*
X140931250Y-63075000D01*
G75*
G02*
X141175000Y-63318750I0J-243750D01*
G01*
G37*
G36*
G01*
X139600000Y-59818750D02*
X139600000Y-60381250D01*
G75*
G02*
X139356250Y-60625000I-243750J0D01*
G01*
X138868750Y-60625000D01*
G75*
G02*
X138625000Y-60381250I0J243750D01*
G01*
X138625000Y-59818750D01*
G75*
G02*
X138868750Y-59575000I243750J0D01*
G01*
X139356250Y-59575000D01*
G75*
G02*
X139600000Y-59818750I0J-243750D01*
G01*
G37*
G36*
G01*
X141175000Y-59818750D02*
X141175000Y-60381250D01*
G75*
G02*
X140931250Y-60625000I-243750J0D01*
G01*
X140443750Y-60625000D01*
G75*
G02*
X140200000Y-60381250I0J243750D01*
G01*
X140200000Y-59818750D01*
G75*
G02*
X140443750Y-59575000I243750J0D01*
G01*
X140931250Y-59575000D01*
G75*
G02*
X141175000Y-59818750I0J-243750D01*
G01*
G37*
G36*
G01*
X126550000Y-56731250D02*
X126550000Y-56168750D01*
G75*
G02*
X126793750Y-55925000I243750J0D01*
G01*
X127281250Y-55925000D01*
G75*
G02*
X127525000Y-56168750I0J-243750D01*
G01*
X127525000Y-56731250D01*
G75*
G02*
X127281250Y-56975000I-243750J0D01*
G01*
X126793750Y-56975000D01*
G75*
G02*
X126550000Y-56731250I0J243750D01*
G01*
G37*
G36*
G01*
X124975000Y-56731250D02*
X124975000Y-56168750D01*
G75*
G02*
X125218750Y-55925000I243750J0D01*
G01*
X125706250Y-55925000D01*
G75*
G02*
X125950000Y-56168750I0J-243750D01*
G01*
X125950000Y-56731250D01*
G75*
G02*
X125706250Y-56975000I-243750J0D01*
G01*
X125218750Y-56975000D01*
G75*
G02*
X124975000Y-56731250I0J243750D01*
G01*
G37*
G36*
G01*
X126550000Y-55131250D02*
X126550000Y-54568750D01*
G75*
G02*
X126793750Y-54325000I243750J0D01*
G01*
X127281250Y-54325000D01*
G75*
G02*
X127525000Y-54568750I0J-243750D01*
G01*
X127525000Y-55131250D01*
G75*
G02*
X127281250Y-55375000I-243750J0D01*
G01*
X126793750Y-55375000D01*
G75*
G02*
X126550000Y-55131250I0J243750D01*
G01*
G37*
G36*
G01*
X124975000Y-55131250D02*
X124975000Y-54568750D01*
G75*
G02*
X125218750Y-54325000I243750J0D01*
G01*
X125706250Y-54325000D01*
G75*
G02*
X125950000Y-54568750I0J-243750D01*
G01*
X125950000Y-55131250D01*
G75*
G02*
X125706250Y-55375000I-243750J0D01*
G01*
X125218750Y-55375000D01*
G75*
G02*
X124975000Y-55131250I0J243750D01*
G01*
G37*
G36*
G01*
X110268750Y-61200000D02*
X110831250Y-61200000D01*
G75*
G02*
X111075000Y-61443750I0J-243750D01*
G01*
X111075000Y-61931250D01*
G75*
G02*
X110831250Y-62175000I-243750J0D01*
G01*
X110268750Y-62175000D01*
G75*
G02*
X110025000Y-61931250I0J243750D01*
G01*
X110025000Y-61443750D01*
G75*
G02*
X110268750Y-61200000I243750J0D01*
G01*
G37*
G36*
G01*
X110268750Y-59625000D02*
X110831250Y-59625000D01*
G75*
G02*
X111075000Y-59868750I0J-243750D01*
G01*
X111075000Y-60356250D01*
G75*
G02*
X110831250Y-60600000I-243750J0D01*
G01*
X110268750Y-60600000D01*
G75*
G02*
X110025000Y-60356250I0J243750D01*
G01*
X110025000Y-59868750D01*
G75*
G02*
X110268750Y-59625000I243750J0D01*
G01*
G37*
G36*
G01*
X110268750Y-57600000D02*
X110831250Y-57600000D01*
G75*
G02*
X111075000Y-57843750I0J-243750D01*
G01*
X111075000Y-58331250D01*
G75*
G02*
X110831250Y-58575000I-243750J0D01*
G01*
X110268750Y-58575000D01*
G75*
G02*
X110025000Y-58331250I0J243750D01*
G01*
X110025000Y-57843750D01*
G75*
G02*
X110268750Y-57600000I243750J0D01*
G01*
G37*
G36*
G01*
X110268750Y-56025000D02*
X110831250Y-56025000D01*
G75*
G02*
X111075000Y-56268750I0J-243750D01*
G01*
X111075000Y-56756250D01*
G75*
G02*
X110831250Y-57000000I-243750J0D01*
G01*
X110268750Y-57000000D01*
G75*
G02*
X110025000Y-56756250I0J243750D01*
G01*
X110025000Y-56268750D01*
G75*
G02*
X110268750Y-56025000I243750J0D01*
G01*
G37*
D33*
X100000000Y-118600000D03*
X185500000Y-118600000D03*
X185500000Y-50000000D03*
X100000000Y-50000000D03*
M02*
