G04 #@! TF.GenerationSoftware,KiCad,Pcbnew,(5.1.6)-1*
G04 #@! TF.CreationDate,2022-06-26T18:03:46+10:00*
G04 #@! TF.ProjectId,controller,636f6e74-726f-46c6-9c65-722e6b696361,rev?*
G04 #@! TF.SameCoordinates,Original*
G04 #@! TF.FileFunction,Soldermask,Bot*
G04 #@! TF.FilePolarity,Negative*
%FSLAX46Y46*%
G04 Gerber Fmt 4.6, Leading zero omitted, Abs format (unit mm)*
G04 Created by KiCad (PCBNEW (5.1.6)-1) date 2022-06-26 18:03:46*
%MOMM*%
%LPD*%
G01*
G04 APERTURE LIST*
%ADD10R,3.600000X3.600000*%
%ADD11C,3.500000*%
%ADD12C,3.100000*%
%ADD13C,1.700000*%
%ADD14O,1.700000X1.700000*%
%ADD15R,1.700000X1.700000*%
%ADD16C,2.100000*%
%ADD17R,1.800000X1.800000*%
%ADD18O,1.800000X1.800000*%
%ADD19C,1.900000*%
%ADD20C,4.100000*%
%ADD21O,1.840000X2.290000*%
%ADD22O,2.300000X2.300000*%
%ADD23R,2.300000X2.300000*%
%ADD24C,1.300000*%
%ADD25R,1.300000X1.300000*%
%ADD26C,4.400000*%
G04 APERTURE END LIST*
G36*
G01*
X156100000Y-78600000D02*
X156100000Y-80400000D01*
G75*
G02*
X155200000Y-81300000I-900000J0D01*
G01*
X153400000Y-81300000D01*
G75*
G02*
X152500000Y-80400000I0J900000D01*
G01*
X152500000Y-78600000D01*
G75*
G02*
X153400000Y-77700000I900000J0D01*
G01*
X155200000Y-77700000D01*
G75*
G02*
X156100000Y-78600000I0J-900000D01*
G01*
G37*
G36*
G01*
X158850000Y-83175000D02*
X158850000Y-85225000D01*
G75*
G02*
X158075000Y-86000000I-775000J0D01*
G01*
X156525000Y-86000000D01*
G75*
G02*
X155750000Y-85225000I0J775000D01*
G01*
X155750000Y-83175000D01*
G75*
G02*
X156525000Y-82400000I775000J0D01*
G01*
X158075000Y-82400000D01*
G75*
G02*
X158850000Y-83175000I0J-775000D01*
G01*
G37*
D10*
X151300000Y-84200000D03*
D11*
X154500000Y-62050000D03*
X154500000Y-73480000D03*
D12*
X151450000Y-59890000D03*
X151450000Y-75640000D03*
D13*
X159070000Y-61040000D03*
X159070000Y-74490000D03*
X157040000Y-74490000D03*
X157040000Y-61040000D03*
X145610000Y-63320000D03*
X145610000Y-65860000D03*
X145610000Y-68400000D03*
X145610000Y-70940000D03*
X145610000Y-73480000D03*
X148150000Y-64590000D03*
X148150000Y-62050000D03*
X148150000Y-72210000D03*
X148150000Y-69670000D03*
X148150000Y-67130000D03*
G36*
G01*
X126950000Y-61931250D02*
X126950000Y-61368750D01*
G75*
G02*
X127193750Y-61125000I243750J0D01*
G01*
X127681250Y-61125000D01*
G75*
G02*
X127925000Y-61368750I0J-243750D01*
G01*
X127925000Y-61931250D01*
G75*
G02*
X127681250Y-62175000I-243750J0D01*
G01*
X127193750Y-62175000D01*
G75*
G02*
X126950000Y-61931250I0J243750D01*
G01*
G37*
G36*
G01*
X125375000Y-61931250D02*
X125375000Y-61368750D01*
G75*
G02*
X125618750Y-61125000I243750J0D01*
G01*
X126106250Y-61125000D01*
G75*
G02*
X126350000Y-61368750I0J-243750D01*
G01*
X126350000Y-61931250D01*
G75*
G02*
X126106250Y-62175000I-243750J0D01*
G01*
X125618750Y-62175000D01*
G75*
G02*
X125375000Y-61931250I0J243750D01*
G01*
G37*
D14*
X119520000Y-82650000D03*
X111900000Y-115670000D03*
X119520000Y-85190000D03*
X111900000Y-113130000D03*
X119520000Y-87730000D03*
X111900000Y-110590000D03*
X119520000Y-90270000D03*
X111900000Y-108050000D03*
X119520000Y-92810000D03*
X111900000Y-105510000D03*
X119520000Y-95350000D03*
X111900000Y-102970000D03*
X119520000Y-97890000D03*
X111900000Y-100430000D03*
X119520000Y-100430000D03*
X111900000Y-97890000D03*
X119520000Y-102970000D03*
X111900000Y-95350000D03*
X119520000Y-105510000D03*
X111900000Y-92810000D03*
X119520000Y-108050000D03*
X111900000Y-90270000D03*
X119520000Y-110590000D03*
X111900000Y-87730000D03*
X119520000Y-113130000D03*
X111900000Y-85190000D03*
X119520000Y-115670000D03*
D15*
X111900000Y-82650000D03*
D16*
X103800000Y-81800000D03*
X99300000Y-81800000D03*
X103800000Y-75300000D03*
X99300000Y-75300000D03*
X103800000Y-71250000D03*
X99300000Y-71250000D03*
X103800000Y-64750000D03*
X99300000Y-64750000D03*
D17*
X144900000Y-79300000D03*
D18*
X142360000Y-79300000D03*
D17*
X142400000Y-83150000D03*
D18*
X144940000Y-83150000D03*
X126200000Y-51190000D03*
D17*
X126200000Y-48650000D03*
D18*
X122250000Y-51190000D03*
D17*
X122250000Y-48650000D03*
D18*
X130150000Y-51190000D03*
D17*
X130150000Y-48650000D03*
D19*
X154310000Y-97800000D03*
X156850000Y-98820000D03*
X154310000Y-99840000D03*
X156850000Y-100860000D03*
X156850000Y-102900000D03*
X154310000Y-101880000D03*
D20*
X159150000Y-94350000D03*
X159150000Y-106350000D03*
D18*
X123200000Y-85120000D03*
X123200000Y-87660000D03*
X123200000Y-90200000D03*
X123200000Y-92740000D03*
D17*
X123200000Y-95280000D03*
D21*
X132530000Y-117250000D03*
X135070000Y-117250000D03*
X137610000Y-117250000D03*
G36*
G01*
X141070000Y-116369367D02*
X141070000Y-118130633D01*
G75*
G02*
X140805633Y-118395000I-264367J0D01*
G01*
X139494367Y-118395000D01*
G75*
G02*
X139230000Y-118130633I0J264367D01*
G01*
X139230000Y-116369367D01*
G75*
G02*
X139494367Y-116105000I264367J0D01*
G01*
X140805633Y-116105000D01*
G75*
G02*
X141070000Y-116369367I0J-264367D01*
G01*
G37*
D17*
X108150000Y-89800000D03*
D18*
X108150000Y-92340000D03*
X128430000Y-116310000D03*
X128430000Y-118850000D03*
X125890000Y-116310000D03*
X125890000Y-118850000D03*
X123350000Y-116310000D03*
D17*
X123350000Y-118850000D03*
G36*
G01*
X147600000Y-58581250D02*
X147600000Y-57618750D01*
G75*
G02*
X147868750Y-57350000I268750J0D01*
G01*
X148406250Y-57350000D01*
G75*
G02*
X148675000Y-57618750I0J-268750D01*
G01*
X148675000Y-58581250D01*
G75*
G02*
X148406250Y-58850000I-268750J0D01*
G01*
X147868750Y-58850000D01*
G75*
G02*
X147600000Y-58581250I0J268750D01*
G01*
G37*
G36*
G01*
X145725000Y-58581250D02*
X145725000Y-57618750D01*
G75*
G02*
X145993750Y-57350000I268750J0D01*
G01*
X146531250Y-57350000D01*
G75*
G02*
X146800000Y-57618750I0J-268750D01*
G01*
X146800000Y-58581250D01*
G75*
G02*
X146531250Y-58850000I-268750J0D01*
G01*
X145993750Y-58850000D01*
G75*
G02*
X145725000Y-58581250I0J268750D01*
G01*
G37*
G36*
G01*
X148881250Y-79862500D02*
X147918750Y-79862500D01*
G75*
G02*
X147650000Y-79593750I0J268750D01*
G01*
X147650000Y-79056250D01*
G75*
G02*
X147918750Y-78787500I268750J0D01*
G01*
X148881250Y-78787500D01*
G75*
G02*
X149150000Y-79056250I0J-268750D01*
G01*
X149150000Y-79593750D01*
G75*
G02*
X148881250Y-79862500I-268750J0D01*
G01*
G37*
G36*
G01*
X148881250Y-77987500D02*
X147918750Y-77987500D01*
G75*
G02*
X147650000Y-77718750I0J268750D01*
G01*
X147650000Y-77181250D01*
G75*
G02*
X147918750Y-76912500I268750J0D01*
G01*
X148881250Y-76912500D01*
G75*
G02*
X149150000Y-77181250I0J-268750D01*
G01*
X149150000Y-77718750D01*
G75*
G02*
X148881250Y-77987500I-268750J0D01*
G01*
G37*
G36*
G01*
X122681250Y-59750000D02*
X121718750Y-59750000D01*
G75*
G02*
X121450000Y-59481250I0J268750D01*
G01*
X121450000Y-58943750D01*
G75*
G02*
X121718750Y-58675000I268750J0D01*
G01*
X122681250Y-58675000D01*
G75*
G02*
X122950000Y-58943750I0J-268750D01*
G01*
X122950000Y-59481250D01*
G75*
G02*
X122681250Y-59750000I-268750J0D01*
G01*
G37*
G36*
G01*
X122681250Y-61625000D02*
X121718750Y-61625000D01*
G75*
G02*
X121450000Y-61356250I0J268750D01*
G01*
X121450000Y-60818750D01*
G75*
G02*
X121718750Y-60550000I268750J0D01*
G01*
X122681250Y-60550000D01*
G75*
G02*
X122950000Y-60818750I0J-268750D01*
G01*
X122950000Y-61356250D01*
G75*
G02*
X122681250Y-61625000I-268750J0D01*
G01*
G37*
D22*
X137750000Y-77780000D03*
D23*
X137750000Y-85400000D03*
G36*
G01*
X150850000Y-104668750D02*
X150850000Y-105231250D01*
G75*
G02*
X150606250Y-105475000I-243750J0D01*
G01*
X150118750Y-105475000D01*
G75*
G02*
X149875000Y-105231250I0J243750D01*
G01*
X149875000Y-104668750D01*
G75*
G02*
X150118750Y-104425000I243750J0D01*
G01*
X150606250Y-104425000D01*
G75*
G02*
X150850000Y-104668750I0J-243750D01*
G01*
G37*
G36*
G01*
X152425000Y-104668750D02*
X152425000Y-105231250D01*
G75*
G02*
X152181250Y-105475000I-243750J0D01*
G01*
X151693750Y-105475000D01*
G75*
G02*
X151450000Y-105231250I0J243750D01*
G01*
X151450000Y-104668750D01*
G75*
G02*
X151693750Y-104425000I243750J0D01*
G01*
X152181250Y-104425000D01*
G75*
G02*
X152425000Y-104668750I0J-243750D01*
G01*
G37*
G36*
G01*
X150850000Y-102968750D02*
X150850000Y-103531250D01*
G75*
G02*
X150606250Y-103775000I-243750J0D01*
G01*
X150118750Y-103775000D01*
G75*
G02*
X149875000Y-103531250I0J243750D01*
G01*
X149875000Y-102968750D01*
G75*
G02*
X150118750Y-102725000I243750J0D01*
G01*
X150606250Y-102725000D01*
G75*
G02*
X150850000Y-102968750I0J-243750D01*
G01*
G37*
G36*
G01*
X152425000Y-102968750D02*
X152425000Y-103531250D01*
G75*
G02*
X152181250Y-103775000I-243750J0D01*
G01*
X151693750Y-103775000D01*
G75*
G02*
X151450000Y-103531250I0J243750D01*
G01*
X151450000Y-102968750D01*
G75*
G02*
X151693750Y-102725000I243750J0D01*
G01*
X152181250Y-102725000D01*
G75*
G02*
X152425000Y-102968750I0J-243750D01*
G01*
G37*
D24*
X133500000Y-80100000D03*
D25*
X133500000Y-82100000D03*
G36*
G01*
X132200000Y-84318750D02*
X132200000Y-84881250D01*
G75*
G02*
X131956250Y-85125000I-243750J0D01*
G01*
X131468750Y-85125000D01*
G75*
G02*
X131225000Y-84881250I0J243750D01*
G01*
X131225000Y-84318750D01*
G75*
G02*
X131468750Y-84075000I243750J0D01*
G01*
X131956250Y-84075000D01*
G75*
G02*
X132200000Y-84318750I0J-243750D01*
G01*
G37*
G36*
G01*
X133775000Y-84318750D02*
X133775000Y-84881250D01*
G75*
G02*
X133531250Y-85125000I-243750J0D01*
G01*
X133043750Y-85125000D01*
G75*
G02*
X132800000Y-84881250I0J243750D01*
G01*
X132800000Y-84318750D01*
G75*
G02*
X133043750Y-84075000I243750J0D01*
G01*
X133531250Y-84075000D01*
G75*
G02*
X133775000Y-84318750I0J-243750D01*
G01*
G37*
G36*
G01*
X118325000Y-59481250D02*
X118325000Y-58918750D01*
G75*
G02*
X118568750Y-58675000I243750J0D01*
G01*
X119056250Y-58675000D01*
G75*
G02*
X119300000Y-58918750I0J-243750D01*
G01*
X119300000Y-59481250D01*
G75*
G02*
X119056250Y-59725000I-243750J0D01*
G01*
X118568750Y-59725000D01*
G75*
G02*
X118325000Y-59481250I0J243750D01*
G01*
G37*
G36*
G01*
X119900000Y-59481250D02*
X119900000Y-58918750D01*
G75*
G02*
X120143750Y-58675000I243750J0D01*
G01*
X120631250Y-58675000D01*
G75*
G02*
X120875000Y-58918750I0J-243750D01*
G01*
X120875000Y-59481250D01*
G75*
G02*
X120631250Y-59725000I-243750J0D01*
G01*
X120143750Y-59725000D01*
G75*
G02*
X119900000Y-59481250I0J243750D01*
G01*
G37*
G36*
G01*
X126950000Y-65231250D02*
X126950000Y-64668750D01*
G75*
G02*
X127193750Y-64425000I243750J0D01*
G01*
X127681250Y-64425000D01*
G75*
G02*
X127925000Y-64668750I0J-243750D01*
G01*
X127925000Y-65231250D01*
G75*
G02*
X127681250Y-65475000I-243750J0D01*
G01*
X127193750Y-65475000D01*
G75*
G02*
X126950000Y-65231250I0J243750D01*
G01*
G37*
G36*
G01*
X125375000Y-65231250D02*
X125375000Y-64668750D01*
G75*
G02*
X125618750Y-64425000I243750J0D01*
G01*
X126106250Y-64425000D01*
G75*
G02*
X126350000Y-64668750I0J-243750D01*
G01*
X126350000Y-65231250D01*
G75*
G02*
X126106250Y-65475000I-243750J0D01*
G01*
X125618750Y-65475000D01*
G75*
G02*
X125375000Y-65231250I0J243750D01*
G01*
G37*
G36*
G01*
X126950000Y-63581250D02*
X126950000Y-63018750D01*
G75*
G02*
X127193750Y-62775000I243750J0D01*
G01*
X127681250Y-62775000D01*
G75*
G02*
X127925000Y-63018750I0J-243750D01*
G01*
X127925000Y-63581250D01*
G75*
G02*
X127681250Y-63825000I-243750J0D01*
G01*
X127193750Y-63825000D01*
G75*
G02*
X126950000Y-63581250I0J243750D01*
G01*
G37*
G36*
G01*
X125375000Y-63581250D02*
X125375000Y-63018750D01*
G75*
G02*
X125618750Y-62775000I243750J0D01*
G01*
X126106250Y-62775000D01*
G75*
G02*
X126350000Y-63018750I0J-243750D01*
G01*
X126350000Y-63581250D01*
G75*
G02*
X126106250Y-63825000I-243750J0D01*
G01*
X125618750Y-63825000D01*
G75*
G02*
X125375000Y-63581250I0J243750D01*
G01*
G37*
G36*
G01*
X128118750Y-56200000D02*
X128681250Y-56200000D01*
G75*
G02*
X128925000Y-56443750I0J-243750D01*
G01*
X128925000Y-56931250D01*
G75*
G02*
X128681250Y-57175000I-243750J0D01*
G01*
X128118750Y-57175000D01*
G75*
G02*
X127875000Y-56931250I0J243750D01*
G01*
X127875000Y-56443750D01*
G75*
G02*
X128118750Y-56200000I243750J0D01*
G01*
G37*
G36*
G01*
X128118750Y-54625000D02*
X128681250Y-54625000D01*
G75*
G02*
X128925000Y-54868750I0J-243750D01*
G01*
X128925000Y-55356250D01*
G75*
G02*
X128681250Y-55600000I-243750J0D01*
G01*
X128118750Y-55600000D01*
G75*
G02*
X127875000Y-55356250I0J243750D01*
G01*
X127875000Y-54868750D01*
G75*
G02*
X128118750Y-54625000I243750J0D01*
G01*
G37*
G36*
G01*
X126118750Y-56200000D02*
X126681250Y-56200000D01*
G75*
G02*
X126925000Y-56443750I0J-243750D01*
G01*
X126925000Y-56931250D01*
G75*
G02*
X126681250Y-57175000I-243750J0D01*
G01*
X126118750Y-57175000D01*
G75*
G02*
X125875000Y-56931250I0J243750D01*
G01*
X125875000Y-56443750D01*
G75*
G02*
X126118750Y-56200000I243750J0D01*
G01*
G37*
G36*
G01*
X126118750Y-54625000D02*
X126681250Y-54625000D01*
G75*
G02*
X126925000Y-54868750I0J-243750D01*
G01*
X126925000Y-55356250D01*
G75*
G02*
X126681250Y-55600000I-243750J0D01*
G01*
X126118750Y-55600000D01*
G75*
G02*
X125875000Y-55356250I0J243750D01*
G01*
X125875000Y-54868750D01*
G75*
G02*
X126118750Y-54625000I243750J0D01*
G01*
G37*
G36*
G01*
X124118750Y-56200000D02*
X124681250Y-56200000D01*
G75*
G02*
X124925000Y-56443750I0J-243750D01*
G01*
X124925000Y-56931250D01*
G75*
G02*
X124681250Y-57175000I-243750J0D01*
G01*
X124118750Y-57175000D01*
G75*
G02*
X123875000Y-56931250I0J243750D01*
G01*
X123875000Y-56443750D01*
G75*
G02*
X124118750Y-56200000I243750J0D01*
G01*
G37*
G36*
G01*
X124118750Y-54625000D02*
X124681250Y-54625000D01*
G75*
G02*
X124925000Y-54868750I0J-243750D01*
G01*
X124925000Y-55356250D01*
G75*
G02*
X124681250Y-55600000I-243750J0D01*
G01*
X124118750Y-55600000D01*
G75*
G02*
X123875000Y-55356250I0J243750D01*
G01*
X123875000Y-54868750D01*
G75*
G02*
X124118750Y-54625000I243750J0D01*
G01*
G37*
G36*
G01*
X124131250Y-63900000D02*
X123568750Y-63900000D01*
G75*
G02*
X123325000Y-63656250I0J243750D01*
G01*
X123325000Y-63168750D01*
G75*
G02*
X123568750Y-62925000I243750J0D01*
G01*
X124131250Y-62925000D01*
G75*
G02*
X124375000Y-63168750I0J-243750D01*
G01*
X124375000Y-63656250D01*
G75*
G02*
X124131250Y-63900000I-243750J0D01*
G01*
G37*
G36*
G01*
X124131250Y-65475000D02*
X123568750Y-65475000D01*
G75*
G02*
X123325000Y-65231250I0J243750D01*
G01*
X123325000Y-64743750D01*
G75*
G02*
X123568750Y-64500000I243750J0D01*
G01*
X124131250Y-64500000D01*
G75*
G02*
X124375000Y-64743750I0J-243750D01*
G01*
X124375000Y-65231250D01*
G75*
G02*
X124131250Y-65475000I-243750J0D01*
G01*
G37*
G36*
G01*
X119900000Y-61381250D02*
X119900000Y-60818750D01*
G75*
G02*
X120143750Y-60575000I243750J0D01*
G01*
X120631250Y-60575000D01*
G75*
G02*
X120875000Y-60818750I0J-243750D01*
G01*
X120875000Y-61381250D01*
G75*
G02*
X120631250Y-61625000I-243750J0D01*
G01*
X120143750Y-61625000D01*
G75*
G02*
X119900000Y-61381250I0J243750D01*
G01*
G37*
G36*
G01*
X118325000Y-61381250D02*
X118325000Y-60818750D01*
G75*
G02*
X118568750Y-60575000I243750J0D01*
G01*
X119056250Y-60575000D01*
G75*
G02*
X119300000Y-60818750I0J-243750D01*
G01*
X119300000Y-61381250D01*
G75*
G02*
X119056250Y-61625000I-243750J0D01*
G01*
X118568750Y-61625000D01*
G75*
G02*
X118325000Y-61381250I0J243750D01*
G01*
G37*
G36*
G01*
X142181250Y-93000000D02*
X141618750Y-93000000D01*
G75*
G02*
X141375000Y-92756250I0J243750D01*
G01*
X141375000Y-92268750D01*
G75*
G02*
X141618750Y-92025000I243750J0D01*
G01*
X142181250Y-92025000D01*
G75*
G02*
X142425000Y-92268750I0J-243750D01*
G01*
X142425000Y-92756250D01*
G75*
G02*
X142181250Y-93000000I-243750J0D01*
G01*
G37*
G36*
G01*
X142181250Y-94575000D02*
X141618750Y-94575000D01*
G75*
G02*
X141375000Y-94331250I0J243750D01*
G01*
X141375000Y-93843750D01*
G75*
G02*
X141618750Y-93600000I243750J0D01*
G01*
X142181250Y-93600000D01*
G75*
G02*
X142425000Y-93843750I0J-243750D01*
G01*
X142425000Y-94331250D01*
G75*
G02*
X142181250Y-94575000I-243750J0D01*
G01*
G37*
G36*
G01*
X131131250Y-93050000D02*
X130568750Y-93050000D01*
G75*
G02*
X130325000Y-92806250I0J243750D01*
G01*
X130325000Y-92318750D01*
G75*
G02*
X130568750Y-92075000I243750J0D01*
G01*
X131131250Y-92075000D01*
G75*
G02*
X131375000Y-92318750I0J-243750D01*
G01*
X131375000Y-92806250D01*
G75*
G02*
X131131250Y-93050000I-243750J0D01*
G01*
G37*
G36*
G01*
X131131250Y-94625000D02*
X130568750Y-94625000D01*
G75*
G02*
X130325000Y-94381250I0J243750D01*
G01*
X130325000Y-93893750D01*
G75*
G02*
X130568750Y-93650000I243750J0D01*
G01*
X131131250Y-93650000D01*
G75*
G02*
X131375000Y-93893750I0J-243750D01*
G01*
X131375000Y-94381250D01*
G75*
G02*
X131131250Y-94625000I-243750J0D01*
G01*
G37*
G36*
G01*
X145450000Y-85768750D02*
X145450000Y-86331250D01*
G75*
G02*
X145206250Y-86575000I-243750J0D01*
G01*
X144718750Y-86575000D01*
G75*
G02*
X144475000Y-86331250I0J243750D01*
G01*
X144475000Y-85768750D01*
G75*
G02*
X144718750Y-85525000I243750J0D01*
G01*
X145206250Y-85525000D01*
G75*
G02*
X145450000Y-85768750I0J-243750D01*
G01*
G37*
G36*
G01*
X147025000Y-85768750D02*
X147025000Y-86331250D01*
G75*
G02*
X146781250Y-86575000I-243750J0D01*
G01*
X146293750Y-86575000D01*
G75*
G02*
X146050000Y-86331250I0J243750D01*
G01*
X146050000Y-85768750D01*
G75*
G02*
X146293750Y-85525000I243750J0D01*
G01*
X146781250Y-85525000D01*
G75*
G02*
X147025000Y-85768750I0J-243750D01*
G01*
G37*
G36*
G01*
X132800000Y-86531250D02*
X132800000Y-85968750D01*
G75*
G02*
X133043750Y-85725000I243750J0D01*
G01*
X133531250Y-85725000D01*
G75*
G02*
X133775000Y-85968750I0J-243750D01*
G01*
X133775000Y-86531250D01*
G75*
G02*
X133531250Y-86775000I-243750J0D01*
G01*
X133043750Y-86775000D01*
G75*
G02*
X132800000Y-86531250I0J243750D01*
G01*
G37*
G36*
G01*
X131225000Y-86531250D02*
X131225000Y-85968750D01*
G75*
G02*
X131468750Y-85725000I243750J0D01*
G01*
X131956250Y-85725000D01*
G75*
G02*
X132200000Y-85968750I0J-243750D01*
G01*
X132200000Y-86531250D01*
G75*
G02*
X131956250Y-86775000I-243750J0D01*
G01*
X131468750Y-86775000D01*
G75*
G02*
X131225000Y-86531250I0J243750D01*
G01*
G37*
D26*
X100000000Y-118600000D03*
X185500000Y-118600000D03*
X185500000Y-50000000D03*
X100000000Y-50000000D03*
M02*
