G04 #@! TF.GenerationSoftware,KiCad,Pcbnew,(5.1.6)-1*
G04 #@! TF.CreationDate,2022-06-26T17:52:01+10:00*
G04 #@! TF.ProjectId,sensors,73656e73-6f72-4732-9e6b-696361645f70,rev?*
G04 #@! TF.SameCoordinates,Original*
G04 #@! TF.FileFunction,Legend,Bot*
G04 #@! TF.FilePolarity,Positive*
%FSLAX46Y46*%
G04 Gerber Fmt 4.6, Leading zero omitted, Abs format (unit mm)*
G04 Created by KiCad (PCBNEW (5.1.6)-1) date 2022-06-26 17:52:01*
%MOMM*%
%LPD*%
G01*
G04 APERTURE LIST*
%ADD10C,0.120000*%
%ADD11C,0.150000*%
G04 APERTURE END LIST*
D10*
X158590000Y-80012779D02*
X158590000Y-79687221D01*
X159610000Y-80012779D02*
X159610000Y-79687221D01*
X136462779Y-102460000D02*
X136137221Y-102460000D01*
X136462779Y-101440000D02*
X136137221Y-101440000D01*
X115862779Y-111460000D02*
X115537221Y-111460000D01*
X115862779Y-110440000D02*
X115537221Y-110440000D01*
X141562779Y-87960000D02*
X141237221Y-87960000D01*
X141562779Y-86940000D02*
X141237221Y-86940000D01*
X149962779Y-96560000D02*
X149637221Y-96560000D01*
X149962779Y-95540000D02*
X149637221Y-95540000D01*
X149962779Y-98160000D02*
X149637221Y-98160000D01*
X149962779Y-97140000D02*
X149637221Y-97140000D01*
X128662779Y-86960000D02*
X128337221Y-86960000D01*
X128662779Y-85940000D02*
X128337221Y-85940000D01*
X121990000Y-85312779D02*
X121990000Y-84987221D01*
X123010000Y-85312779D02*
X123010000Y-84987221D01*
X120290000Y-85312779D02*
X120290000Y-84987221D01*
X121310000Y-85312779D02*
X121310000Y-84987221D01*
D11*
X160887142Y-79207142D02*
X160934761Y-79159523D01*
X160982380Y-79016666D01*
X160982380Y-78921428D01*
X160934761Y-78778571D01*
X160839523Y-78683333D01*
X160744285Y-78635714D01*
X160553809Y-78588095D01*
X160410952Y-78588095D01*
X160220476Y-78635714D01*
X160125238Y-78683333D01*
X160030000Y-78778571D01*
X159982380Y-78921428D01*
X159982380Y-79016666D01*
X160030000Y-79159523D01*
X160077619Y-79207142D01*
X160982380Y-80159523D02*
X160982380Y-79588095D01*
X160982380Y-79873809D02*
X159982380Y-79873809D01*
X160125238Y-79778571D01*
X160220476Y-79683333D01*
X160268095Y-79588095D01*
X159982380Y-81064285D02*
X159982380Y-80588095D01*
X160458571Y-80540476D01*
X160410952Y-80588095D01*
X160363333Y-80683333D01*
X160363333Y-80921428D01*
X160410952Y-81016666D01*
X160458571Y-81064285D01*
X160553809Y-81111904D01*
X160791904Y-81111904D01*
X160887142Y-81064285D01*
X160934761Y-81016666D01*
X160982380Y-80921428D01*
X160982380Y-80683333D01*
X160934761Y-80588095D01*
X160887142Y-80540476D01*
X136942857Y-100877142D02*
X136990476Y-100924761D01*
X137133333Y-100972380D01*
X137228571Y-100972380D01*
X137371428Y-100924761D01*
X137466666Y-100829523D01*
X137514285Y-100734285D01*
X137561904Y-100543809D01*
X137561904Y-100400952D01*
X137514285Y-100210476D01*
X137466666Y-100115238D01*
X137371428Y-100020000D01*
X137228571Y-99972380D01*
X137133333Y-99972380D01*
X136990476Y-100020000D01*
X136942857Y-100067619D01*
X135990476Y-100972380D02*
X136561904Y-100972380D01*
X136276190Y-100972380D02*
X136276190Y-99972380D01*
X136371428Y-100115238D01*
X136466666Y-100210476D01*
X136561904Y-100258095D01*
X135133333Y-100305714D02*
X135133333Y-100972380D01*
X135371428Y-99924761D02*
X135609523Y-100639047D01*
X134990476Y-100639047D01*
X116342857Y-109877142D02*
X116390476Y-109924761D01*
X116533333Y-109972380D01*
X116628571Y-109972380D01*
X116771428Y-109924761D01*
X116866666Y-109829523D01*
X116914285Y-109734285D01*
X116961904Y-109543809D01*
X116961904Y-109400952D01*
X116914285Y-109210476D01*
X116866666Y-109115238D01*
X116771428Y-109020000D01*
X116628571Y-108972380D01*
X116533333Y-108972380D01*
X116390476Y-109020000D01*
X116342857Y-109067619D01*
X115390476Y-109972380D02*
X115961904Y-109972380D01*
X115676190Y-109972380D02*
X115676190Y-108972380D01*
X115771428Y-109115238D01*
X115866666Y-109210476D01*
X115961904Y-109258095D01*
X115057142Y-108972380D02*
X114438095Y-108972380D01*
X114771428Y-109353333D01*
X114628571Y-109353333D01*
X114533333Y-109400952D01*
X114485714Y-109448571D01*
X114438095Y-109543809D01*
X114438095Y-109781904D01*
X114485714Y-109877142D01*
X114533333Y-109924761D01*
X114628571Y-109972380D01*
X114914285Y-109972380D01*
X115009523Y-109924761D01*
X115057142Y-109877142D01*
X142042857Y-86377142D02*
X142090476Y-86424761D01*
X142233333Y-86472380D01*
X142328571Y-86472380D01*
X142471428Y-86424761D01*
X142566666Y-86329523D01*
X142614285Y-86234285D01*
X142661904Y-86043809D01*
X142661904Y-85900952D01*
X142614285Y-85710476D01*
X142566666Y-85615238D01*
X142471428Y-85520000D01*
X142328571Y-85472380D01*
X142233333Y-85472380D01*
X142090476Y-85520000D01*
X142042857Y-85567619D01*
X141090476Y-86472380D02*
X141661904Y-86472380D01*
X141376190Y-86472380D02*
X141376190Y-85472380D01*
X141471428Y-85615238D01*
X141566666Y-85710476D01*
X141661904Y-85758095D01*
X140709523Y-85567619D02*
X140661904Y-85520000D01*
X140566666Y-85472380D01*
X140328571Y-85472380D01*
X140233333Y-85520000D01*
X140185714Y-85567619D01*
X140138095Y-85662857D01*
X140138095Y-85758095D01*
X140185714Y-85900952D01*
X140757142Y-86472380D01*
X140138095Y-86472380D01*
X152766666Y-96507142D02*
X152814285Y-96554761D01*
X152957142Y-96602380D01*
X153052380Y-96602380D01*
X153195238Y-96554761D01*
X153290476Y-96459523D01*
X153338095Y-96364285D01*
X153385714Y-96173809D01*
X153385714Y-96030952D01*
X153338095Y-95840476D01*
X153290476Y-95745238D01*
X153195238Y-95650000D01*
X153052380Y-95602380D01*
X152957142Y-95602380D01*
X152814285Y-95650000D01*
X152766666Y-95697619D01*
X152290476Y-96602380D02*
X152100000Y-96602380D01*
X152004761Y-96554761D01*
X151957142Y-96507142D01*
X151861904Y-96364285D01*
X151814285Y-96173809D01*
X151814285Y-95792857D01*
X151861904Y-95697619D01*
X151909523Y-95650000D01*
X152004761Y-95602380D01*
X152195238Y-95602380D01*
X152290476Y-95650000D01*
X152338095Y-95697619D01*
X152385714Y-95792857D01*
X152385714Y-96030952D01*
X152338095Y-96126190D01*
X152290476Y-96173809D01*
X152195238Y-96221428D01*
X152004761Y-96221428D01*
X151909523Y-96173809D01*
X151861904Y-96126190D01*
X151814285Y-96030952D01*
X152766666Y-98207142D02*
X152814285Y-98254761D01*
X152957142Y-98302380D01*
X153052380Y-98302380D01*
X153195238Y-98254761D01*
X153290476Y-98159523D01*
X153338095Y-98064285D01*
X153385714Y-97873809D01*
X153385714Y-97730952D01*
X153338095Y-97540476D01*
X153290476Y-97445238D01*
X153195238Y-97350000D01*
X153052380Y-97302380D01*
X152957142Y-97302380D01*
X152814285Y-97350000D01*
X152766666Y-97397619D01*
X152195238Y-97730952D02*
X152290476Y-97683333D01*
X152338095Y-97635714D01*
X152385714Y-97540476D01*
X152385714Y-97492857D01*
X152338095Y-97397619D01*
X152290476Y-97350000D01*
X152195238Y-97302380D01*
X152004761Y-97302380D01*
X151909523Y-97350000D01*
X151861904Y-97397619D01*
X151814285Y-97492857D01*
X151814285Y-97540476D01*
X151861904Y-97635714D01*
X151909523Y-97683333D01*
X152004761Y-97730952D01*
X152195238Y-97730952D01*
X152290476Y-97778571D01*
X152338095Y-97826190D01*
X152385714Y-97921428D01*
X152385714Y-98111904D01*
X152338095Y-98207142D01*
X152290476Y-98254761D01*
X152195238Y-98302380D01*
X152004761Y-98302380D01*
X151909523Y-98254761D01*
X151861904Y-98207142D01*
X151814285Y-98111904D01*
X151814285Y-97921428D01*
X151861904Y-97826190D01*
X151909523Y-97778571D01*
X152004761Y-97730952D01*
X128666666Y-85377142D02*
X128714285Y-85424761D01*
X128857142Y-85472380D01*
X128952380Y-85472380D01*
X129095238Y-85424761D01*
X129190476Y-85329523D01*
X129238095Y-85234285D01*
X129285714Y-85043809D01*
X129285714Y-84900952D01*
X129238095Y-84710476D01*
X129190476Y-84615238D01*
X129095238Y-84520000D01*
X128952380Y-84472380D01*
X128857142Y-84472380D01*
X128714285Y-84520000D01*
X128666666Y-84567619D01*
X127809523Y-84472380D02*
X128000000Y-84472380D01*
X128095238Y-84520000D01*
X128142857Y-84567619D01*
X128238095Y-84710476D01*
X128285714Y-84900952D01*
X128285714Y-85281904D01*
X128238095Y-85377142D01*
X128190476Y-85424761D01*
X128095238Y-85472380D01*
X127904761Y-85472380D01*
X127809523Y-85424761D01*
X127761904Y-85377142D01*
X127714285Y-85281904D01*
X127714285Y-85043809D01*
X127761904Y-84948571D01*
X127809523Y-84900952D01*
X127904761Y-84853333D01*
X128095238Y-84853333D01*
X128190476Y-84900952D01*
X128238095Y-84948571D01*
X128285714Y-85043809D01*
X122957142Y-82083333D02*
X123004761Y-82035714D01*
X123052380Y-81892857D01*
X123052380Y-81797619D01*
X123004761Y-81654761D01*
X122909523Y-81559523D01*
X122814285Y-81511904D01*
X122623809Y-81464285D01*
X122480952Y-81464285D01*
X122290476Y-81511904D01*
X122195238Y-81559523D01*
X122100000Y-81654761D01*
X122052380Y-81797619D01*
X122052380Y-81892857D01*
X122100000Y-82035714D01*
X122147619Y-82083333D01*
X122147619Y-82464285D02*
X122100000Y-82511904D01*
X122052380Y-82607142D01*
X122052380Y-82845238D01*
X122100000Y-82940476D01*
X122147619Y-82988095D01*
X122242857Y-83035714D01*
X122338095Y-83035714D01*
X122480952Y-82988095D01*
X123052380Y-82416666D01*
X123052380Y-83035714D01*
X121157142Y-82083333D02*
X121204761Y-82035714D01*
X121252380Y-81892857D01*
X121252380Y-81797619D01*
X121204761Y-81654761D01*
X121109523Y-81559523D01*
X121014285Y-81511904D01*
X120823809Y-81464285D01*
X120680952Y-81464285D01*
X120490476Y-81511904D01*
X120395238Y-81559523D01*
X120300000Y-81654761D01*
X120252380Y-81797619D01*
X120252380Y-81892857D01*
X120300000Y-82035714D01*
X120347619Y-82083333D01*
X121252380Y-83035714D02*
X121252380Y-82464285D01*
X121252380Y-82750000D02*
X120252380Y-82750000D01*
X120395238Y-82654761D01*
X120490476Y-82559523D01*
X120538095Y-82464285D01*
M02*
