G04 #@! TF.GenerationSoftware,KiCad,Pcbnew,(5.1.6)-1*
G04 #@! TF.CreationDate,2022-06-26T17:52:01+10:00*
G04 #@! TF.ProjectId,sensors,73656e73-6f72-4732-9e6b-696361645f70,rev?*
G04 #@! TF.SameCoordinates,Original*
G04 #@! TF.FileFunction,Soldermask,Bot*
G04 #@! TF.FilePolarity,Negative*
%FSLAX46Y46*%
G04 Gerber Fmt 4.6, Leading zero omitted, Abs format (unit mm)*
G04 Created by KiCad (PCBNEW (5.1.6)-1) date 2022-06-26 17:52:01*
%MOMM*%
%LPD*%
G01*
G04 APERTURE LIST*
%ADD10C,1.900000*%
%ADD11C,4.100000*%
%ADD12O,1.840000X2.290000*%
%ADD13C,3.300000*%
G04 APERTURE END LIST*
D10*
X120740000Y-92600000D03*
X118200000Y-91580000D03*
X120740000Y-90560000D03*
X118200000Y-89540000D03*
X118200000Y-87500000D03*
X120740000Y-88520000D03*
D11*
X115900000Y-96050000D03*
X115900000Y-84050000D03*
D12*
X108940000Y-111050000D03*
G36*
G01*
X105480000Y-111930633D02*
X105480000Y-110169367D01*
G75*
G02*
X105744367Y-109905000I264367J0D01*
G01*
X107055633Y-109905000D01*
G75*
G02*
X107320000Y-110169367I0J-264367D01*
G01*
X107320000Y-111930633D01*
G75*
G02*
X107055633Y-112195000I-264367J0D01*
G01*
X105744367Y-112195000D01*
G75*
G02*
X105480000Y-111930633I0J264367D01*
G01*
G37*
X157400000Y-69050000D03*
X154860000Y-69050000D03*
X152320000Y-69050000D03*
G36*
G01*
X148860000Y-69930633D02*
X148860000Y-68169367D01*
G75*
G02*
X149124367Y-67905000I264367J0D01*
G01*
X150435633Y-67905000D01*
G75*
G02*
X150700000Y-68169367I0J-264367D01*
G01*
X150700000Y-69930633D01*
G75*
G02*
X150435633Y-70195000I-264367J0D01*
G01*
X149124367Y-70195000D01*
G75*
G02*
X148860000Y-69930633I0J264367D01*
G01*
G37*
X142940000Y-69050000D03*
X140400000Y-69050000D03*
X137860000Y-69050000D03*
G36*
G01*
X134400000Y-69930633D02*
X134400000Y-68169367D01*
G75*
G02*
X134664367Y-67905000I264367J0D01*
G01*
X135975633Y-67905000D01*
G75*
G02*
X136240000Y-68169367I0J-264367D01*
G01*
X136240000Y-69930633D01*
G75*
G02*
X135975633Y-70195000I-264367J0D01*
G01*
X134664367Y-70195000D01*
G75*
G02*
X134400000Y-69930633I0J264367D01*
G01*
G37*
X157400000Y-111050000D03*
X154860000Y-111050000D03*
X152320000Y-111050000D03*
G36*
G01*
X148860000Y-111930633D02*
X148860000Y-110169367D01*
G75*
G02*
X149124367Y-109905000I264367J0D01*
G01*
X150435633Y-109905000D01*
G75*
G02*
X150700000Y-110169367I0J-264367D01*
G01*
X150700000Y-111930633D01*
G75*
G02*
X150435633Y-112195000I-264367J0D01*
G01*
X149124367Y-112195000D01*
G75*
G02*
X148860000Y-111930633I0J264367D01*
G01*
G37*
X114020000Y-69050000D03*
X111480000Y-69050000D03*
X108940000Y-69050000D03*
G36*
G01*
X105480000Y-69930633D02*
X105480000Y-68169367D01*
G75*
G02*
X105744367Y-67905000I264367J0D01*
G01*
X107055633Y-67905000D01*
G75*
G02*
X107320000Y-68169367I0J-264367D01*
G01*
X107320000Y-69930633D01*
G75*
G02*
X107055633Y-70195000I-264367J0D01*
G01*
X105744367Y-70195000D01*
G75*
G02*
X105480000Y-69930633I0J264367D01*
G01*
G37*
X128480000Y-69050000D03*
X125940000Y-69050000D03*
X123400000Y-69050000D03*
G36*
G01*
X119940000Y-69930633D02*
X119940000Y-68169367D01*
G75*
G02*
X120204367Y-67905000I264367J0D01*
G01*
X121515633Y-67905000D01*
G75*
G02*
X121780000Y-68169367I0J-264367D01*
G01*
X121780000Y-69930633D01*
G75*
G02*
X121515633Y-70195000I-264367J0D01*
G01*
X120204367Y-70195000D01*
G75*
G02*
X119940000Y-69930633I0J264367D01*
G01*
G37*
G36*
G01*
X159381250Y-79550000D02*
X158818750Y-79550000D01*
G75*
G02*
X158575000Y-79306250I0J243750D01*
G01*
X158575000Y-78818750D01*
G75*
G02*
X158818750Y-78575000I243750J0D01*
G01*
X159381250Y-78575000D01*
G75*
G02*
X159625000Y-78818750I0J-243750D01*
G01*
X159625000Y-79306250D01*
G75*
G02*
X159381250Y-79550000I-243750J0D01*
G01*
G37*
G36*
G01*
X159381250Y-81125000D02*
X158818750Y-81125000D01*
G75*
G02*
X158575000Y-80881250I0J243750D01*
G01*
X158575000Y-80393750D01*
G75*
G02*
X158818750Y-80150000I243750J0D01*
G01*
X159381250Y-80150000D01*
G75*
G02*
X159625000Y-80393750I0J-243750D01*
G01*
X159625000Y-80881250D01*
G75*
G02*
X159381250Y-81125000I-243750J0D01*
G01*
G37*
G36*
G01*
X136000000Y-101668750D02*
X136000000Y-102231250D01*
G75*
G02*
X135756250Y-102475000I-243750J0D01*
G01*
X135268750Y-102475000D01*
G75*
G02*
X135025000Y-102231250I0J243750D01*
G01*
X135025000Y-101668750D01*
G75*
G02*
X135268750Y-101425000I243750J0D01*
G01*
X135756250Y-101425000D01*
G75*
G02*
X136000000Y-101668750I0J-243750D01*
G01*
G37*
G36*
G01*
X137575000Y-101668750D02*
X137575000Y-102231250D01*
G75*
G02*
X137331250Y-102475000I-243750J0D01*
G01*
X136843750Y-102475000D01*
G75*
G02*
X136600000Y-102231250I0J243750D01*
G01*
X136600000Y-101668750D01*
G75*
G02*
X136843750Y-101425000I243750J0D01*
G01*
X137331250Y-101425000D01*
G75*
G02*
X137575000Y-101668750I0J-243750D01*
G01*
G37*
G36*
G01*
X115400000Y-110668750D02*
X115400000Y-111231250D01*
G75*
G02*
X115156250Y-111475000I-243750J0D01*
G01*
X114668750Y-111475000D01*
G75*
G02*
X114425000Y-111231250I0J243750D01*
G01*
X114425000Y-110668750D01*
G75*
G02*
X114668750Y-110425000I243750J0D01*
G01*
X115156250Y-110425000D01*
G75*
G02*
X115400000Y-110668750I0J-243750D01*
G01*
G37*
G36*
G01*
X116975000Y-110668750D02*
X116975000Y-111231250D01*
G75*
G02*
X116731250Y-111475000I-243750J0D01*
G01*
X116243750Y-111475000D01*
G75*
G02*
X116000000Y-111231250I0J243750D01*
G01*
X116000000Y-110668750D01*
G75*
G02*
X116243750Y-110425000I243750J0D01*
G01*
X116731250Y-110425000D01*
G75*
G02*
X116975000Y-110668750I0J-243750D01*
G01*
G37*
G36*
G01*
X141100000Y-87168750D02*
X141100000Y-87731250D01*
G75*
G02*
X140856250Y-87975000I-243750J0D01*
G01*
X140368750Y-87975000D01*
G75*
G02*
X140125000Y-87731250I0J243750D01*
G01*
X140125000Y-87168750D01*
G75*
G02*
X140368750Y-86925000I243750J0D01*
G01*
X140856250Y-86925000D01*
G75*
G02*
X141100000Y-87168750I0J-243750D01*
G01*
G37*
G36*
G01*
X142675000Y-87168750D02*
X142675000Y-87731250D01*
G75*
G02*
X142431250Y-87975000I-243750J0D01*
G01*
X141943750Y-87975000D01*
G75*
G02*
X141700000Y-87731250I0J243750D01*
G01*
X141700000Y-87168750D01*
G75*
G02*
X141943750Y-86925000I243750J0D01*
G01*
X142431250Y-86925000D01*
G75*
G02*
X142675000Y-87168750I0J-243750D01*
G01*
G37*
G36*
G01*
X149500000Y-95768750D02*
X149500000Y-96331250D01*
G75*
G02*
X149256250Y-96575000I-243750J0D01*
G01*
X148768750Y-96575000D01*
G75*
G02*
X148525000Y-96331250I0J243750D01*
G01*
X148525000Y-95768750D01*
G75*
G02*
X148768750Y-95525000I243750J0D01*
G01*
X149256250Y-95525000D01*
G75*
G02*
X149500000Y-95768750I0J-243750D01*
G01*
G37*
G36*
G01*
X151075000Y-95768750D02*
X151075000Y-96331250D01*
G75*
G02*
X150831250Y-96575000I-243750J0D01*
G01*
X150343750Y-96575000D01*
G75*
G02*
X150100000Y-96331250I0J243750D01*
G01*
X150100000Y-95768750D01*
G75*
G02*
X150343750Y-95525000I243750J0D01*
G01*
X150831250Y-95525000D01*
G75*
G02*
X151075000Y-95768750I0J-243750D01*
G01*
G37*
G36*
G01*
X149500000Y-97368750D02*
X149500000Y-97931250D01*
G75*
G02*
X149256250Y-98175000I-243750J0D01*
G01*
X148768750Y-98175000D01*
G75*
G02*
X148525000Y-97931250I0J243750D01*
G01*
X148525000Y-97368750D01*
G75*
G02*
X148768750Y-97125000I243750J0D01*
G01*
X149256250Y-97125000D01*
G75*
G02*
X149500000Y-97368750I0J-243750D01*
G01*
G37*
G36*
G01*
X151075000Y-97368750D02*
X151075000Y-97931250D01*
G75*
G02*
X150831250Y-98175000I-243750J0D01*
G01*
X150343750Y-98175000D01*
G75*
G02*
X150100000Y-97931250I0J243750D01*
G01*
X150100000Y-97368750D01*
G75*
G02*
X150343750Y-97125000I243750J0D01*
G01*
X150831250Y-97125000D01*
G75*
G02*
X151075000Y-97368750I0J-243750D01*
G01*
G37*
G36*
G01*
X128200000Y-86168750D02*
X128200000Y-86731250D01*
G75*
G02*
X127956250Y-86975000I-243750J0D01*
G01*
X127468750Y-86975000D01*
G75*
G02*
X127225000Y-86731250I0J243750D01*
G01*
X127225000Y-86168750D01*
G75*
G02*
X127468750Y-85925000I243750J0D01*
G01*
X127956250Y-85925000D01*
G75*
G02*
X128200000Y-86168750I0J-243750D01*
G01*
G37*
G36*
G01*
X129775000Y-86168750D02*
X129775000Y-86731250D01*
G75*
G02*
X129531250Y-86975000I-243750J0D01*
G01*
X129043750Y-86975000D01*
G75*
G02*
X128800000Y-86731250I0J243750D01*
G01*
X128800000Y-86168750D01*
G75*
G02*
X129043750Y-85925000I243750J0D01*
G01*
X129531250Y-85925000D01*
G75*
G02*
X129775000Y-86168750I0J-243750D01*
G01*
G37*
G36*
G01*
X122781250Y-84850000D02*
X122218750Y-84850000D01*
G75*
G02*
X121975000Y-84606250I0J243750D01*
G01*
X121975000Y-84118750D01*
G75*
G02*
X122218750Y-83875000I243750J0D01*
G01*
X122781250Y-83875000D01*
G75*
G02*
X123025000Y-84118750I0J-243750D01*
G01*
X123025000Y-84606250D01*
G75*
G02*
X122781250Y-84850000I-243750J0D01*
G01*
G37*
G36*
G01*
X122781250Y-86425000D02*
X122218750Y-86425000D01*
G75*
G02*
X121975000Y-86181250I0J243750D01*
G01*
X121975000Y-85693750D01*
G75*
G02*
X122218750Y-85450000I243750J0D01*
G01*
X122781250Y-85450000D01*
G75*
G02*
X123025000Y-85693750I0J-243750D01*
G01*
X123025000Y-86181250D01*
G75*
G02*
X122781250Y-86425000I-243750J0D01*
G01*
G37*
G36*
G01*
X121081250Y-84850000D02*
X120518750Y-84850000D01*
G75*
G02*
X120275000Y-84606250I0J243750D01*
G01*
X120275000Y-84118750D01*
G75*
G02*
X120518750Y-83875000I243750J0D01*
G01*
X121081250Y-83875000D01*
G75*
G02*
X121325000Y-84118750I0J-243750D01*
G01*
X121325000Y-84606250D01*
G75*
G02*
X121081250Y-84850000I-243750J0D01*
G01*
G37*
G36*
G01*
X121081250Y-86425000D02*
X120518750Y-86425000D01*
G75*
G02*
X120275000Y-86181250I0J243750D01*
G01*
X120275000Y-85693750D01*
G75*
G02*
X120518750Y-85450000I243750J0D01*
G01*
X121081250Y-85450000D01*
G75*
G02*
X121325000Y-85693750I0J-243750D01*
G01*
X121325000Y-86181250D01*
G75*
G02*
X121081250Y-86425000I-243750J0D01*
G01*
G37*
D13*
X99900000Y-105050000D03*
X163900000Y-105050000D03*
X163900000Y-75050000D03*
X99900000Y-75050000D03*
M02*
