M48
INCH,TZ
T1C0.0157
T2C0.0394
T3C0.0469
T4C0.1024
%
G90
G05
T1
X38150Y-28327
X38150Y-31122
X38150Y-39783
X38150Y-42539
X40512Y-41398
X40866Y-25965
X40866Y-44941
X41890Y-41398
X42402Y-29626
X43780Y-27972
X43976Y-38760
X43976Y-39980
X43976Y-42106
X44134Y-31713
X44272Y-34449
X44488Y-44232
X44488Y-44941
X45236Y-44232
X45433Y-35098
X45433Y-35453
X45433Y-35807
X45433Y-36634
X45827Y-36634
X46024Y-31713
X46181Y-40295
X46220Y-36634
X46457Y-31713
X46693Y-40177
X46890Y-36634
X47244Y-27972
X47362Y-31713
X47795Y-31713
X48110Y-39705
X48228Y-36634
X48228Y-37539
X48228Y-37933
X48346Y-43563
X48583Y-29626
X48583Y-31280
X48819Y-35098
X48819Y-35453
X48819Y-35807
X48819Y-36161
X48819Y-36516
X48858Y-39114
X49685Y-38327
X50630Y-43563
X50630Y-44941
X50650Y-29626
X50669Y-38327
X51299Y-32067
X51299Y-36673
X51378Y-33996
X51378Y-34783
X52008Y-38327
X52047Y-33996
X52717Y-29626
X52717Y-31713
X52835Y-40138
X53228Y-33406
X53228Y-34232
X53346Y-38327
X53346Y-37461
X53622Y-33396
X53622Y-34429
X54331Y-40807
X54528Y-33130
X54567Y-37461
X54764Y-44154
X54843Y-34429
X55236Y-38602
X55787Y-36398
X56339Y-41201
X56496Y-29626
X56654Y-34429
X56693Y-40610
X57126Y-38130
X57126Y-38524
X57126Y-38917
X57126Y-40610
X57165Y-36398
X57244Y-41201
X57717Y-31594
X58150Y-38563
X58386Y-42382
X58504Y-36358
X58504Y-37146
X58701Y-30177
X58701Y-31004
X58976Y-44941
X59134Y-30177
X59134Y-31004
X59134Y-31949
X59803Y-32579
X59803Y-42815
X59843Y-31004
X60354Y-37894
X60945Y-35846
X60945Y-37106
X60984Y-42815
X61535Y-34429
X61535Y-37618
X61929Y-37618
X62323Y-40374
X62638Y-30650
X62992Y-25965
X62992Y-44941
X63307Y-37618
X64291Y-36043
X64291Y-40374
X65236Y-32618
X65236Y-36043
X65748Y-28327
X65748Y-42579
T2
X46535Y-34449
X46535Y-35252
X46535Y-36055
X47535Y-34850
X47535Y-35654
X47535Y-36457
T3
X58969Y-43720
X59969Y-43720
X60969Y-43720
X61969Y-43720
X41890Y-27185
X42890Y-27185
X43890Y-27185
X44890Y-27185
X41890Y-43720
X42890Y-43720
X47583Y-27185
X48583Y-27185
X49583Y-27185
X50583Y-27185
X53276Y-27185
X54276Y-27185
X55276Y-27185
X56276Y-27185
X58969Y-27185
X59969Y-27185
X60969Y-27185
X61969Y-27185
T4
X45630Y-33091
X45630Y-37815
T0
M30
